<?xml version="1.0" encoding="utf-8"?>
<!-- Generator: Adobe Illustrator 22.0.1, SVG Export Plug-In . SVG Version: 6.00 Build 0)  -->
<svg version="1.1" id="Layer_1" xmlns="http://www.w3.org/2000/svg" xmlns:xlink="http://www.w3.org/1999/xlink" x="0px" y="0px" width="100%" height="100%"
	 viewBox="0 0 2547 818.9" style="enable-background:new 0 0 2547 818.9;" xml:space="preserve">
<style type="text/css">
	.st0{fill:#FFFFFF;stroke:#ED1C24;stroke-miterlimit:10;}
	.st1{font-family:'calibri'; font-weight:500;}
	.st2{font-size:28px;}
</style>
<image style="overflow:visible;" width="3000" height="1386" xlink:href="/uploads/ARBOR SPRINGS_V03.jpg"  transform="matrix(1.0002 0 0 1.0002 -291.3624 -234.1774)">
</image>
<g id="a">
	<polygon id="XMLID_5_" class="st0" points="140.5,618.7 230.4,618.7 266.5,484.2 181,482.8 	"/>
	<text id="XMLID_4_" transform="matrix(1 0 0 1 174.6433 560.4486)" class="st1 st2">0000</text>
</g>
<g id="b">
	<path id="XMLID_19_" class="st0" d="M766.8,623.8h100L884.6,440l-27.8-5.6c0,0-10.3-1.9-32.1-2.7c-21.7-0.8-34.2-1.3-34.2-1.3
		L766.8,623.8z"/>
	<text id="XMLID_6_" transform="matrix(1 0 0 1 797.0059 536.0012)" class="st1 st2">0000</text>
</g>
<g id="c">
	<path id="XMLID_21_" class="st0" d="M912.3,444.5l95.8,18.8c0,0-2.1,71.1-3.2,86.4c-1.1,15.4-8.5,74-8.5,74h-100L912.3,444.5z"/>
	<text id="XMLID_7_" transform="matrix(1 0 0 1 924.9843 547.5557)" class="st1 st2">0000</text>
</g>
<g id="d">
	<polygon id="XMLID_20_" class="st0" points="1158.6,491 1247,502.4 1246.1,617.8 1156.4,617.8 	"/>
	<text id="XMLID_8_" transform="matrix(1 0 0 1 1170.014 561.7017)" class="st1 st2">0000</text>
</g>
<g id="e">
	<polygon id="XMLID_22_" class="st0" points="1400.9,512 1498.2,513.1 1506,620.5 1405.1,620.5 	"/>
	<text id="XMLID_9_" transform="matrix(1 0 0 1 1425.3042 573.6271)" class="st1 st2">0000</text>
</g>
<g id="f">
	<polygon id="XMLID_23_" class="st0" points="1526.6,513.8 1624.4,513.8 1634.9,620.5 1535.8,620.5 	"/>
	<text id="XMLID_10_" transform="matrix(1 0 0 1 1552.4662 572.2941)" class="st1 st2">0000</text>
</g>
<g id="g">
	<polygon id="XMLID_24_" class="st0" points="2166.5,515.8 2195.3,631 2295.8,632.3 2263.5,515.8 	"/>
	<text id="XMLID_11_" transform="matrix(1 0 0 1 2203.749 582.1275)" class="st1 st2">0000</text>
</g>
<g id="h">
	<polygon id="XMLID_25_" class="st0" points="2293,517.3 2325.3,633.5 2415.5,632.3 2380,517.3 	"/>
	<text id="XMLID_12_" transform="matrix(1 0 0 1 2325.6218 578.4688)" class="st1 st2">0000</text>
</g>
<g id="i">
	<path id="XMLID_27_" class="st0" d="M1269.5,155.5h90l4.3,140.5c0,0-47.5-10.8-67-14s-26-4.5-26-4.5L1269.5,155.5z"/>
	<text id="XMLID_13_" transform="matrix(1 0 0 1 1286.082 227.2752)" class="st1 st2">0000</text>
</g>
<g id="j">
	<path id="XMLID_28_" class="st0" d="M1165,155.5h80l1.3,120c0,0-52-5.3-67.3-5.8s-15.3-0.5-15.3-0.5L1165,155.5z"/>
	<text id="XMLID_14_" transform="matrix(1 0 0 1 1176.595 223.942)" class="st1 st2">0000</text>
</g>
<g id="k">
	<path id="XMLID_29_" class="st0" d="M1050.3,167.5l-4.5,108c0,0,25.8-4,55-4.3s34.5-0.8,34.5-0.8l4.8-115h-71l2.3,11.8
		L1050.3,167.5z"/>
	<text id="XMLID_15_" transform="matrix(1 0 0 1 1063.6704 223.9421)" class="st1 st2">0000</text>
</g>
<g id="l">
	<polygon id="XMLID_26_" class="st0" points="936.2,178.8 1026.2,171 1019,277.3 926.3,291.7 	"/>
	<text id="XMLID_16_" transform="matrix(1 0 0 1 947.4016 235.9422)" class="st1 st2">0000</text>
</g>
<g id="m">
	<path id="XMLID_30_" class="st0" d="M794.8,192.8c0,0-3.1,41-7,66.2c-4,25.3-8,44.3-8,44.3s-45-3.3-63-6.8s-18-3.5-18-3.5l17.5-112
		L794.8,192.8z"/>
	<text id="XMLID_17_" transform="matrix(1 0 0 1 718.6089 253.6183)" class="st1 st2">0000</text>
</g>
<g id="n">
	<path id="XMLID_32_" class="st0" d="M350.3,168.3L321.8,275c0,0-41.8,6.3-63.8,10.8s-22,4.5-22,4.5l33.5-114.8L350.3,168.3z"/>
	<text id="XMLID_18_" transform="matrix(1 0 0 1 265.2124 235.9062)" class="st1 st2">0000</text>
</g>
</svg>
