<?xml version="1.0" encoding="utf-8"?>
<!-- Generator: Adobe Illustrator 22.0.1, SVG Export Plug-In . SVG Version: 6.00 Build 0)  -->
<svg version="1.1" id="Layer_1" xmlns="http://www.w3.org/2000/svg" xmlns:xlink="http://www.w3.org/1999/xlink" x="0px" y="0px" width="100%" height="100%"
	 viewBox="0 0 534 186" style="enable-background:new 0 0 534 186;" xml:space="preserve">
<style type="text/css">
	.st0{fill:#FFFFFF;stroke:#ED1C24;stroke-width:0.25;stroke-miterlimit:10;}
	.st1{font-family:'calibri'; font-weight:'500';}
	.st2{font-size:14.076px;}
</style>
<image style="overflow:visible;enable-background:new    ;" width="3000" height="1259" xlink:href="/uploads/ASHTON WOODS_V2.jpg"  transform="matrix(0.204 0 0 0.204 -25 -51.418)">
</image>
<g id="a">
	<path id="XMLID_11_" class="st0" d="M48.6,86.5L37.5,134l97.7-43.5c0,0-2.2-1.6-2.4-2.4c-0.2-0.9-0.4-1,0-2.3
		c0.4-1.3,0.4-1.9,0.4-1.9l-84.6,2.4L48.6,86.5z"/>
	<text id="XMLID_4_" transform="matrix(1 0 0 1 61.9478 103.8945)" class="st1 st2">0000</text>
</g>
<g id="b">
	<path id="XMLID_5_" class="st0" d="M44.5,136.2L146,134l8.2-35.1c0,0-6.8,0.5-9.4-0.9c-2.7-1.4-3.9-2.4-4.9-3.4c-1-1.1-1-1.1-1-1.1
		L44.5,136.2z"/>
	<text id="XMLID_6_" transform="matrix(1 0 0 1 106.4199 121.2344)" class="st1 st2">0000</text>
</g>
<g id="c">
	<path id="XMLID_13_" class="st0" d="M250.2,84.1c0,0,11.4-2.1,19.5-7.5c8.1-5.4,13-8.5,13-8.5l3.2,63.5l-35.7,0.7V84.1z"/>
	<text id="XMLID_7_" transform="matrix(1 0 0 1 253.708 103.8945)" class="st1 st2">0000</text>
</g>
<g id="d">
	<path id="XMLID_14_" class="st0" d="M328.1,68.9l57.1-0.9c0,0,1-1.5,0.9-2.7c-0.1-1.2-0.7-2.6-1.7-6c-1-3.5-1.6-5.8-1.9-7.3
		s-1.1-3.2-1.9-3.7c-0.8-0.5-2.5-1.5-4.5-1.5c-1.9,0-45.5,0.9-45.5,0.9l-5.2,0.7L328.1,68.9z"/>
	<text id="XMLID_8_" transform="matrix(1 0 0 1 341.8359 60.6465)" class="st1 st2">0000</text>
</g>
<g id="e">
	<path id="XMLID_15_" class="st0" d="M328.5,72.6l3.8,29.8l49.6-15.3c0,0-2.9-4.2-3.1-6.5c-0.2-2.3-0.2-3.6,1.3-5.6
		c1.5-2,1.5-2.2,1.6-2.7c0.1-0.4,0.1-0.4,0.1-0.4L328.5,72.6z"/>
	<text id="XMLID_9_" transform="matrix(1 0 0 1 338.7754 86.5547)" class="st1 st2">0000</text>
</g>
<g id="f">
	<polygon id="XMLID_12_" class="st0" points="434.1,78.6 432.9,85.8 435,89 433.7,90.8 498.5,112.1 478.7,70.8 	"/>
	<text id="XMLID_10_" transform="matrix(1 0 0 1 447.916 90.0225)" class="st1 st2">0000</text>
</g>
</svg>
