<?xml version="1.0" encoding="utf-8"?>
<!-- Generator: Adobe Illustrator 22.0.1, SVG Export Plug-In . SVG Version: 6.00 Build 0)  -->
<svg version="1.1" id="Layer_1" xmlns="http://www.w3.org/2000/svg" xmlns:xlink="http://www.w3.org/1999/xlink" x="0px" y="0px" width="100%" height="100%"
	 viewBox="0 0 2500 833" style="enable-background:new 0 0 2500 833;" xml:space="preserve">
<style type="text/css">
	.st0{fill:#FFFFFF;}
	.st1{font-family:'ArialMT';}
	.st2{font-size:14.3782px;}
	.st3{font-size:8.4135px;}
	.st4{font-family:'SansSerif';}
	.st5{font-size:8.4123px;}
	.st6{font-size:8.4399px;}
	.st7{font-size:8.3863px;}
	.st8{font-size:8.3665px;}
	.st9{font-size:9.3601px;}
	.st10{font-size:9.2774px;}
	.st11{font-size:5.368px;}
	.st12{font-size:8.5413px;}
	.st13{font-size:7.8832px;}
	.st14{font-size:8.5631px;}
	.st15{font-size:7.5451px;}
	.st16{font-size:8.4259px;}
	.st17{font-size:7.9576px;}
	.st18{font-size:6.6105px;}
	.st19{font-size:6.6096px;}
	.st20{font-size:17.493px;}
	.st21{font-size:7.813px;}
	.st22{font-size:6.2748px;}
	.st23{font-size:8.6107px;}
	.st24{font-size:7.6523px;}
	.st25{font-size:8.4354px;}
	.st26{font-size:8.0121px;}
	.st27{font-size:11.9339px;}
	.st28{font-size:8.3395px;}
	.st29{font-size:3.2134px;}
	.st30{font-size:7.4105px;}
	.st31{font-size:4.9177px;}
	.st32{font-size:6.7252px;}
	.st33{font-size:9.7063px;}
	.st34{font-size:10.2494px;}
	.st35{font-size:6.9568px;}
	.st36{font-size:4.3657px;}
	.st37{font-size:4.2048px;}
	.st38{font-size:5.8607px;}
	.st39{font-size:11.5428px;}
	.st40{font-size:5.9359px;}
	.st41{font-size:6.1586px;}
	.st42{font-size:6.1564px;}
	.st43{font-size:6.1833px;}
	.st44{font-size:4.1138px;}
	.st45{font-size:10.4353px;}
	.st46{font-size:5.9884px;}
	.st47{font-size:5.613px;}
	.st48{font-size:4.0252px;}
	.st49{font-size:5.4923px;}
	.st50{font-family:'MyriadPro-Regular';}
	.st51{font-size:16.3786px;}
	.st52{font-size:4.4488px;}
	.st53{font-size:7.1332px;}
	.st54{font-size:7.1365px;}
	.st55{font-size:7.1489px;}
	.st56{font-size:13.686px;}
	.st57{font-size:13.068px;}
	.st58{font-size:12.561px;}
	.st59{font-size:13.3121px;}
	.st60{font-size:13.2081px;}
	.st61{font-size:12.429px;}
	.st62{font-size:12.4344px;}
	.st63{font-size:14.0371px;}
	.st64{font-size:13.2523px;}
	.st65{font-size:14.045px;}
	.st66{font-size:13.3215px;}
	.st67{font-size:6.4738px;}
	.st68{font-size:5.9979px;}
	.st69{font-size:16.7113px;}
	.st70{font-size:6.0226px;}
	.st71{font-size:5.6216px;}
	.st72{font-size:6.5194px;}
	.st73{font-size:6.7639px;}
	.st74{font-size:8.7164px;}
	.st75{font-size:7.1265px;}
	.st76{font-size:9.2347px;}
	.st77{font-size:7.4112px;}
	.st78{font-size:5.7155px;}
	.st79{font-size:7.9108px;}
	.st80{font-size:6.7235px;}
</style>
<image style="overflow:visible;" width="2500" height="833" xlink:href="/uploads/cdlNew.jpg" >
</image>
<g id="_x2_">
	<path class="st0" d="M727,480l51-1l-9,63c0,0-8,5-3,11c-51,0-51,0-51,0L727,480z"/>
	<text transform="matrix(0.9918 4.225068e-03 -4.260000e-03 1 744.6608 516.017)" class="st1 st2">2</text>

		<text transform="matrix(0.1706 -1.1677 0.9895 0.1446 728.7413 531.5101)" class="st1 st3">120.00</text>
	
	<text transform="matrix(1.3204 -4.495513e-02 -6.285327e-02 0.998 724.9994 549.6415)" class="st4 st5">60.00</text>
</g>
<g id="_x3_">
	<path class="st0" d="M788,480l51-1l-9,63c0,0-8,5-3,11c-51,0-51,0-51,0L788,480z"/>
	<text transform="matrix(0.9918 4.225068e-03 -4.260000e-03 1 804.6608 516.017)" class="st1 st2">3</text>

		<text transform="matrix(0.1706 -1.1677 0.9895 0.1446 787.7413 528.5101)" class="st1 st3">120.00</text>
	
	<text transform="matrix(1.4021 -5.848029e-02 -7.700193e-02 0.997 785.0267 550.6384)" class="st4 st6">60.00</text>
</g>
<g id="_x4_">
	<path class="st0" d="M849,480l49-1l-6,65c0,0-7,3-2,9c-51,0-53,0-53,0L849,480z"/>
	<text transform="matrix(0.9918 4.225068e-03 -4.260000e-03 1 864.6608 516.017)" class="st1 st2">4</text>

		<text transform="matrix(0.1706 -1.1677 0.9895 0.1446 850.7413 526.5101)" class="st1 st3">120.00</text>
	
	<text transform="matrix(1.2378 -3.133699e-02 -4.860413e-02 0.9988 852.9724 548.6471)" class="st4 st7">60.00</text>
</g>
<g id="_x59_">
	<path class="st0" d="M654.5,599.5l-14,8l-14,70l55,1c0,0-3.5-7.5,2.5-10.5c13-69,13-69,13-69L654.5,599.5z"/>

		<text transform="matrix(0.9918 9.521279e-03 -9.600000e-03 0.9999 653.4806 642.9103)" class="st1 st2">59</text>

	<text transform="matrix(0.2701 -0.9628 0.9628 0.2701 640.1329 649.9216)" class="st4 st8">105.00</text>
	<text transform="matrix(0.9999 1.068000e-02 -1.068000e-02 0.9999 662.9453 608.7331)" class="st4 st9">65.00</text>

		<text transform="matrix(0.9952 5.634911e-02 -5.431000e-02 0.9985 642.1993 671.6366)" class="st4 st10">50.00</text>
	
	<text transform="matrix(-0.8746 0.4849 -0.4849 -0.8746 654.7748 603.4802)" class="st4 st11">21.21</text>
</g>
<g id="_x58_">
	<path class="st0" d="M704,599l56-1l-12,70c0,0-9,4-2,10c-55,0-57,0-57,0L704,599z"/>

		<text transform="matrix(0.9905 5.161327e-02 -5.204000e-02 0.9986 715.8707 636.2421)" class="st1 st2">58</text>
	
	<text transform="matrix(0.1731 -0.9849 0.9849 0.1731 705.4827 642.7375)" class="st4 st12">120.00</text>
	<text transform="matrix(1.7197 -0.1261 -0.1522 0.9884 700.6454 670.8103)" class="st4 st13">60.00</text>
</g>
<g id="_x57_">
	<path class="st0" d="M767,599l57-1l-10,70c0,0-9,4-2,10c-55,0-57,0-57,0L767,599z"/>

		<text transform="matrix(0.9905 5.161327e-02 -5.204000e-02 0.9986 780.8707 636.2421)" class="st1 st2">57</text>

	<text transform="matrix(0.1731 -0.9849 0.9849 0.1731 770.4827 642.7375)" class="st4 st12">120.00</text>
	<text transform="matrix(1.8129 -0.1439 -0.1709 0.9853 764.6553 673.392)" class="st4 st14">60.00</text>
</g>
<g id="_x56_">
	<path class="st0" d="M830,598h55l-8,70c0,0-5,5-2,10c-55,0-55,0-55,0L830,598z"/>

		<text transform="matrix(0.9905 5.161327e-02 -5.204000e-02 0.9986 845.8707 636.2421)" class="st1 st2">56</text>
	
	<text transform="matrix(0.1731 -0.9849 0.9849 0.1731 835.4827 642.7375)" class="st4 st12">120.00</text>
	<text transform="matrix(1.9413 -0.1687 -0.1969 0.9804 829.7455 673.1006)" class="st4 st15">60.00</text>
</g>
<g id="_x5_">
	<polygon class="st0" points="908,479 960,479 953,551 900,552 	"/>
	<text transform="matrix(0.9918 4.225068e-03 -4.260000e-03 1 924.6608 516.017)" class="st1 st2">5</text>

		<text transform="matrix(0.1236 -1.1736 0.9945 0.1047 910.1904 528.5045)" class="st1 st3">120.00</text>
	
	<text transform="matrix(1.3613 -5.172936e-02 -6.994018e-02 0.9976 915.0123 548.6409)" class="st4 st16">60.00</text>
</g>
<g id="_x55_">
	<path class="st0" d="M894,598l53-1l-5,69c0,0-6,6-2,12c-54,0-55,0-55,0L894,598z"/>
	
		<text transform="matrix(0.9905 5.161327e-02 -5.204000e-02 0.9986 910.8707 636.2421)" class="st1 st2">55</text>

	<text transform="matrix(0.1731 -0.9849 0.9849 0.1731 898.4827 642.7375)" class="st4 st12">120.00</text>
	<text transform="matrix(1.6183 -0.1067 -0.1319 0.9913 897.6024 672.7316)" class="st4 st17">60.00</text>
</g>
<g id="_x54_">
	<path class="st0" d="M957,598h53l-4,69c0,0-8,5-2,11c-54-1-54,0-54,0l6-80H957z"/>

		<text transform="matrix(0.9905 5.161327e-02 -5.204000e-02 0.9986 975.8707 636.2421)" class="st1 st2">54</text>

	<text transform="matrix(0.1731 -0.9849 0.9849 0.1731 963.4827 642.7375)" class="st4 st12">120.00</text>
	<text transform="matrix(2.0295 -0.1858 -0.2148 0.9767 959.8066 671.735)" class="st4 st18">60.00</text>
</g>
<g id="_x53_">
	<path class="st0" d="M1016,598h1h46l15,11l-3,68l-64,1c0,0,5-6,1-11"/>

		<text transform="matrix(0.9905 5.161327e-02 -5.204000e-02 0.9986 1040.8707 636.2421)" class="st1 st2">53</text>

	<text transform="matrix(5.219000e-02 -0.9986 0.9986 5.219000e-02 1024.9644 642.5908)" class="st4 st12">120.00</text>
	<text transform="matrix(2.0298 -0.1858 -0.2148 0.9767 1027.8055 669.7339)" class="st4 st19">60.00</text>
</g>
<g id="_x1_">
	<path class="st0" d="M668,480h50l-10,64c0,0-8,3-2,10c-40-1-41-1-41-1l-11-8L668,480z"/>
	<text transform="matrix(0.9987 5.163000e-02 -5.163000e-02 0.9987 684.9527 518.5722)" class="st4 st20">1</text>
	<text transform="matrix(0.143 -0.9897 0.9897 0.143 669.3366 521.1105)" class="st4 st21">105.00</text>

		<text transform="matrix(1.8843 3.511437e-02 -6.631156e-02 0.9978 675.0519 488.0647)" class="st4 st22">65.00</text>
	
	<text transform="matrix(0.9997 2.508000e-02 -2.508000e-02 0.9997 675.4417 548.6172)" class="st4 st23">50.00</text>

		<text transform="matrix(0.7461 0.6658 -0.6658 0.7461 656.9544 537.8917)" class="st4 st24">21.21</text>

</g>
<g id="_x7_">
	<polygon class="st0" points="1026,479 1085,478 1081,541 1065,551 1022,552 	"/>
	<text transform="matrix(0.9918 4.225068e-03 -4.260000e-03 1 1044.6608 516.017)" class="st1 st2">7</text>

		<text transform="matrix(0.1706 -1.1677 0.9895 0.1446 1032.7413 528.5101)" class="st1 st3">120.00</text>

	<text transform="matrix(1.3892 -5.633690e-02 -7.475994e-02 0.9972 1028.0225 548.6385)" class="st4 st25">60.00</text>
</g>
<g id="_x6_">
	<path class="st0" d="M969,479h51l-3,63c0,0-9,7-4,11c-51-2-53-1-53-1L969,479z"/>
	<text transform="matrix(0.9918 4.225068e-03 -4.260000e-03 1 987.6608 515.017)" class="st1 st2">6</text>

		<text transform="matrix(0.1155 -1.1744 0.9952 9.785000e-02 974.2133 528.4169)" class="st1 st3">120.00</text>

	<text transform="matrix(1.3204 -4.495641e-02 -6.285461e-02 0.998 972.9995 548.6418)" class="st4 st5">60.00</text>
</g>
<g id="_x8_">
	<path class="st0" d="M996,445h89v22c0,0-12,0-7,9c-79,0-80,1-80,1s4-9-4-9C996,445,996,445,996,445z"/>
	
		<text transform="matrix(0.9918 3.272940e-04 -3.300000e-04 1 1034.8516 470.8257)" class="st1 st2">8</text>
	
	<text transform="matrix(1.0145 -8.055052e-03 7.940001e-03 1 1024.6989 452.5645)" class="st4 st26">100.00</text>

		<text transform="matrix(1.856678e-02 -0.5736 0.9999 -1.000364e-02 1074.298 465.0588)" class="st4 st27">55.00</text>
	
</g>
<g id="_x110_">
	<path class="st0" d="M1002,378h88v24c0,0-11-3-8,8c-78-1-78-1-78-1s0-6-4-7c1-24,1-24,1-24H1002z"/>
	
		<text transform="matrix(0.9918 3.272940e-04 -3.300000e-04 1 1031.8516 397.8257)" class="st1 st2">51</text>

</g>
<g id="_x111_">
	<path class="st0" d="M1004,348l-1,22c0,0,4,0,5,6c74,0,74,0,74,0s-1-5,1-6s7-1,7-1l1-21H1004z"/>

		<text transform="matrix(0.9918 3.272940e-04 -3.300000e-04 1 1031.8516 366.8257)" class="st1 st2">52</text>

</g>
<g id="_x112_">
	<path class="st0" d="M1007,317h86l-1,21c0,0-9-3-8,7c-74-1-74-1-74-1s1-7-4-6C1007,317,1007,317,1007,317z"/>

		<text transform="matrix(0.9918 3.272940e-04 -3.300000e-04 1 1032.8516 336.8257)" class="st1 st2">53</text>

</g>
<g id="_x113_">
	<path class="st0" d="M1010,286h84v21c0,0-8-3-8,5c-74,0-74,0-74,0s1-5-4-5c1-21,1-21,1-21H1010z"/>

		<text transform="matrix(0.9918 3.272940e-04 -3.300000e-04 1 1036.8516 304.8257)" class="st1 st2">54</text>
	
</g>
<g id="_x114_">
	<path class="st0" d="M985,257h111v20c0,0-9-6-9,6c-25,0-100,0-100,0s1-6-4-6C985,257,985,257,985,257z"/>
	
		<text transform="matrix(0.9918 3.272940e-04 -3.300000e-04 1 1032.8516 272.8257)" class="st1 st2">55</text>
	
</g>
<g id="_x115_">
	<path class="st0" d="M988,228h110l-1,20c0,0-11-5-7,6c-69,0-100,0-100,0h-1c0,0,2-7-1-7C988,228,988,228,988,228z"/>
	
		<text transform="matrix(0.9918 3.272940e-04 -3.300000e-04 1 1032.8516 246.8257)" class="st1 st2">56</text>
	
</g>
<g id="_x9_">
	<path class="st0" d="M999,411h88v24c0,0-11-3-8,8c-78-1-78-1-78-1s0-6-4-7c1-24,1-24,1-24H999z"/>
	
		<text transform="matrix(0.9918 3.272940e-04 -3.300000e-04 1 1034.8516 437.8257)" class="st1 st2">9</text>
	
	<text transform="matrix(1.0145 -8.055052e-03 7.940001e-03 1 1024.6989 419.5645)" class="st4 st26">100.00</text>
	
		<text transform="matrix(5.809992e-03 -1 1 4.799993e-03 1082.7252 432.0057)" class="st4 st28">55.00</text>
	
</g>
<g id="_x116_">
	<path class="st0" d="M992.5,181.5l81,21c0,0,5,16,17,21c-73,1-99,1-99,1s2-6-2-6C992.5,182.5,992.5,181.5,992.5,181.5z"/>
	
		<text transform="matrix(0.9918 3.272940e-04 -3.300000e-04 1 1020.8516 211.8257)" class="st1 st2">57</text>
	
		<text transform="matrix(8.552076e-02 -1.177 0.9974 7.246999e-02 996.2145 213.3534)" class="st1 st3">93.70</text>

	<text transform="matrix(-0.5071 -0.8619 0.8619 -0.5071 1078.3811 218.8889)" class="st4 st29">L=51.71</text>
	<text transform="matrix(0.9998 -1.761000e-02 1.761000e-02 0.9998 1019.0302 222.1666)" class="st4 st30">130.00</text>
</g>
<g id="_x117_">
	<path class="st0" d="M997,138h71l28,37c0,0,0,4,3,6c-10,4-14,4-20,15c1-1-8-7-9,3c-73-19-74-19-74-19s2-7-2-8
		C995,142,997,138,997,138z"/>

		<text transform="matrix(0.9918 4.611870e-03 -4.650000e-03 1 1037.2145 166.9932)" class="st1 st2">58</text>

		<text transform="matrix(6.459786e-02 -1.1783 0.9985 5.474000e-02 1001.7736 165.8086)" class="st1 st3">86.30</text>
	<text transform="matrix(0.9401 -1.0749 0.4345 0.9007 1067.9855 192.1865)" class="st4 st31">L=51.71</text>
	<text transform="matrix(0.9753 0.221 -0.221 0.9753 1023.203 183.3509)" class="st4 st32">L=115.18</text>

		<text transform="matrix(1.1801 -5.570002e-03 4.720001e-03 1 1030.4779 145.6173)" class="st1 st3">88.30</text>

</g>
<g id="_x118_">
	<path class="st0" d="M1072,138h72l-1,30c0,0-6,5,0,9c0,2-23-5-37,2c-2,1,2-9-9-7C1092,164,1072,138,1072,138z"/>
	<text transform="matrix(0.9755 -8.155599e-03 -6.350000e-03 1 1112.7924 158.4801)" class="st1 st33">59</text>
	
		<text transform="matrix(-0.6577 -0.9798 0.8383 -0.5452 1099.0096 162.5961)" class="st1 st3">90.66</text>
	

		<text transform="matrix(1.1785 -6.197807e-02 6.090000e-02 0.9981 1105.437 173.5093)" class="st1 st3">L=51.71</text>
	
		<text transform="matrix(1.18 1.147043e-02 5.950000e-03 1 1106.5106 144.95)" class="st1 st3">90.00</text>

</g>
<g id="_x119_">
	<path class="st0" d="M1149,138l-1,31c0,0,6,5,0,8c1,3,8,4,15,11c28,1,28,1,28,1s-6-7,2-9c0-41,0-42,0-42H1149z"/>
	<text transform="matrix(1.0173 -6.663315e-03 6.550000e-03 1 1168.5725 168.4353)" class="st1 st34">60</text>
	<text transform="matrix(4.438480e-02 -1.0163 0.999 4.373000e-02 1156.3916 164.928)" class="st4 st35">88.76</text>
	<text transform="matrix(0.9843 -1.275731e-02 6.210000e-03 1 1174.3784 187.3853)" class="st4 st36">37.00</text>
	<text transform="matrix(0.8042 0.6082 -0.5911 0.8066 1153.5917 177.1456)" class="st4 st37">L=28.12</text>
	<text transform="matrix(1.4949 -9.591269e-02 0.2947 0.9556 1166.0323 145.4224)" class="st4 st38">57.00</text>
</g>
<g id="_x120_">
	<path class="st0" d="M1197,138l44-1l1,42c0,0-7,6-1,10c-4,0-44,0-44,0V138z"/>
	<text transform="matrix(0.9998 2.236000e-02 -2.236000e-02 0.9998 1216.1 167.3889)" class="st1 st39">61</text>
	<text transform="matrix(1.090558e-03 -1.3639 1 2.573437e-03 1205.4824 169.7736)" class="st4 st40">108.00</text>
	<text transform="matrix(1.3215 -0.1283 0.1925 0.9813 1214.249 147.4523)" class="st4 st41">57.00</text>
</g>
<g id="_x121_">
	<path class="st0" d="M1246,138l44-1l2,45c0,0-4,3,0,7c-44,0-44,0-44,0s4-9-2-9C1246,168,1246,138,1246,138z"/>
	<text transform="matrix(0.9998 2.236000e-02 -2.236000e-02 0.9998 1260.1 165.3889)" class="st1 st39">62</text>
	<text transform="matrix(1.090698e-03 -1.3637 1 2.573125e-03 1252.4822 172.7741)" class="st4 st40">108.00</text>
	<text transform="matrix(1.3149 -8.639902e-02 0.1592 0.9872 1259.1504 146.1261)" class="st4 st42">57.00</text>
</g>
<g id="_x122_">
	<path class="st0" d="M1296,138h44l3,42c0,0-4,3,0,9c-44-1-44,0-44,0s3-7-2-8C1296,138,1296,138,1296,138z"/>
	<text transform="matrix(0.9998 2.236000e-02 -2.236000e-02 0.9998 1317.1 167.3889)" class="st1 st39">63</text>
	<text transform="matrix(9.517071e-04 -1.4738 1 2.882737e-03 1303.4825 172.7739)" class="st4 st40">108.00</text>
	<text transform="matrix(1.4168 -0.1939 0.2564 0.9666 1309.4878 145.0972)" class="st4 st43">57.00</text>
</g>
<g id="_x123_">
	<path class="st0" d="M1346,138l44-1l12,7l2,37l-11,8h-44c0,0,6-9-2-9C1347,169,1346,138,1346,138z"/>
	<text transform="matrix(2.8059 -5.210137e-02 0.2119 0.9773 1356.7766 187.5766)" class="st4 st44">55.00</text>
	<text transform="matrix(0.9999 -1.047000e-02 1.047000e-02 0.9999 1368.416 168.4938)" class="st1 st45">64</text>
	<text transform="matrix(9.901066e-03 -1.2681 1 9.151640e-03 1353.2388 167.2541)" class="st4 st46">108.00</text>
	<text transform="matrix(-5.948647e-02 -1.5235 0.9993 -3.657515e-02 1400.4442 169.8553)" class="st4 st47">93.00</text>
	<text transform="matrix(0.8361 -0.5486 0.5486 0.8361 1393.944 185.2111)" class="st4 st48">21.21</text>
	<text transform="matrix(1.4565 -0.1309 0.2194 0.9756 1361.9683 145.1198)" class="st4 st49">70.00</text>
</g>
<g id="_x65_">
	<path class="st0" d="M1720,136l7,39c0,0,7,5,7,6s11-9,34-7c1-2-3-6,6-8c17-30,16-30,16-30H1720z"/>
	
		<text transform="matrix(0.9995 -3.261000e-02 3.261000e-02 0.9995 1746.7969 158.7437)" class="st50 st51">6</text>
	

		<text transform="matrix(0.5401 -1.0492 0.8891 0.4577 1771.0995 163.2775)" class="st1 st3">91.98</text>
	
		<text transform="matrix(-0.2425 -1.1549 0.9787 -0.2055 1735.0582 161.2649)" class="st1 st3">90.00</text>

		<text transform="matrix(0.9404 0.7129 -0.6041 0.7969 1726.4927 165.573)" class="st1 st52">L=61.09</text>

</g>
<g id="_x64_">
	<path class="st0" d="M1670,136l8,42c0,0,10,2,1,9c47-1,47-1,47-1l-11-50H1670z"/>

		<text transform="matrix(0.9936 -0.113 0.113 0.9936 1693.1262 162.6911)" class="st50 st51">5</text>
	
		<text transform="matrix(-0.2776 -0.9607 0.9607 -0.2776 1719.152 166.0788)" class="st50 st53">108.00</text>
	
		<text transform="matrix(0.9997 -2.613000e-02 2.613000e-02 0.9997 1682.3483 143.6534)" class="st50 st53">57.70</text>

</g>
<g id="_x63_">
	<path class="st0" d="M1621,136l7,42c0,0,10,2,1,10c-1,1,45-1,45-1l-8-51H1621z"/>
	
		<text transform="matrix(0.9996 -2.812000e-02 2.812000e-02 0.9996 1641.6528 162.7397)" class="st50 st51">4</text>
	
		<text transform="matrix(-0.2569 -0.9664 0.9664 -0.2569 1667.7517 165.0954)" class="st50 st53">108.00</text>
	
		<text transform="matrix(0.9998 -1.836000e-02 1.836000e-02 0.9998 1637.9926 143.6028)" class="st50 st53">57.70</text>

</g>
<g id="_x62_">
	<path class="st0" d="M1573,136h44l7,43c0,0-3,3,1,9c-46,0-46,0-46,0s10-7-1-10C1578,171,1573,136,1573,136z"/>

		<text transform="matrix(0.9929 -0.1193 0.1193 0.9929 1596.6345 163.5302)" class="st50 st51">3</text>
	
		<text transform="matrix(-0.198 -0.9802 0.9802 -0.198 1619.7382 168.1997)" class="st50 st53">108.00</text>
	
		<text transform="matrix(0.9989 -4.647000e-02 4.647000e-02 0.9989 1590.2006 143.8295)" class="st50 st53">57.70</text>

</g>
<g id="_x61_">
	<path class="st0" d="M1523,137h45l6,41c0,0-2,6,0,9c-45,1-45,1-45,1v-1c0,0,10-6-1-10C1527,174,1523,137,1523,137z"/>
	
		<text transform="matrix(0.9989 -4.761000e-02 4.761000e-02 0.9989 1542.4957 162.6844)" class="st50 st51">2</text>
	
		<text transform="matrix(-0.2096 -0.9778 0.9778 -0.2096 1568.8773 166.4749)" class="st50 st53">108.00</text>
	
		<text transform="matrix(0.999 4.446000e-02 -4.446000e-02 0.999 1538.9962 143.1092)" class="st50 st53">57.70</text>
	
</g>
<g id="_x60_">
	<polygon class="st0" points="1462,144 1465,180 1477,188 1523,188 1522,180 1518,137 1472,137 1462,143 	"/>
	
		<text transform="matrix(0.9974 -7.273000e-02 7.273000e-02 0.9974 1491.2565 162.6022)" class="st50 st51">1</text>
	
		<text transform="matrix(-0.2113 -0.9774 0.9774 -0.2113 1473.0614 165.7896)" class="st50 st53">93.00</text>
	
		<text transform="matrix(-0.1541 -0.9881 0.9881 -0.1541 1517.3875 164.1213)" class="st50 st53">108.00</text>
	
		<text transform="matrix(0.7928 0.6094 -0.6094 0.7928 1467.4213 177.8603)" class="st50 st53">21.21</text>
	
		<text transform="matrix(1.3812 -3.168541e-02 4.380529e-02 0.999 1483.656 143.7345)" class="st50 st54">70.00</text>
	
		<text transform="matrix(1.4421 -6.324073e-02 9.158538e-02 0.9958 1489.5479 184.3444)" class="st50 st55">55.00</text>

</g>

<g id="_x28_">
	<polygon class="st0" points="1897,637 2005,636 2015,672 1905,674 	"/>
	
			<text transform="matrix(-0.2825 -1.1458 0.9709 -0.2394 1913.9319 665.8871)" class="st1 st3">59.70</text>
	
			<text transform="matrix(0.3263 1.1341 -0.961 0.2765 1997.8375 644.5356)" class="st1 st3">59.70</text>
		
			<text transform="matrix(1.1797 2.992695e-02 -3.251000e-02 0.9995 1939.6453 643.0405)" class="st1 st3">110.00</text>
		
			<text transform="matrix(-1.1801 1.227289e-03 -8.030000e-03 -1 1974.369 664.4297)" class="st1 st3">110.00</text>
		
		<text transform="matrix(1.0633 2.342905e-02 -2.492089e-02 0.9997 1946.5211 659.2007)" class="st1 st56">28</text>
	
</g>
<g id="_x27_">
	<path class="st0" d="M1886,596h108l7,28c0,0-8,3-3,9c-96,1-96,1-96,1s4-12-9-8C1885,596,1886,596,1886,596z"/>
	
			<text transform="matrix(1.1408 -5.467509e-02 6.249628e-02 0.998 1943.1531 614.7655)" class="st1 st57">27</text>
		
			<text transform="matrix(-0.2858 -1.1449 0.9702 -0.2422 1902.929 623.0151)" class="st1 st3">57.00</text>
		
			<text transform="matrix(-0.3491 -1.1273 0.9552 -0.2958 1998.8076 624.8328)" class="st1 st3">57.00</text>
		
			<text transform="matrix(1.1795 -3.629941e-02 2.993000e-02 0.9996 1939.9166 629.2314)" class="st1 st3">110.00</text>
		
</g>
<g id="_x26_">
	<path class="st0" d="M1877,558l106-1l9,27c0,0-8,4-4,9c-94,1-94,1-94,1s1-11-10-8C1883,583,1877,558,1877,558z"/>
	
			<text transform="matrix(1.0762 -5.468689e-02 5.895422e-02 0.9983 1936.7235 576.928)" class="st1 st58">26</text>
	
			<text transform="matrix(-0.2858 -1.1449 0.9702 -0.2422 1893.929 584.0151)" class="st1 st3">57.00</text>
		
			<text transform="matrix(-0.3491 -1.1273 0.9552 -0.2958 1988.8076 584.8328)" class="st1 st3">57.00</text>
		
			<text transform="matrix(1.1795 -3.629941e-02 2.993000e-02 0.9996 1931.9166 590.2314)" class="st1 st3">110.00</text>
		
</g>
<g id="_x25_">
	<path class="st0" d="M1868,520h106l7,25c0,0-9,6-3,10c-94,0-94,0-94,0s0-10-10-7C1868,520,1868,520,1868,520z"/>

			<text transform="matrix(1.0163 -5.469720e-02 5.567317e-02 0.9984 1926.7111 538.683)" class="st1 st59">25</text>
	
			<text transform="matrix(-0.2858 -1.1449 0.9702 -0.2422 1884.7465 544.9684)" class="st1 st3">57.00</text>
		
			<text transform="matrix(-0.3491 -1.1273 0.9552 -0.2958 1978.8542 549.7952)" class="st1 st3">57.00</text>
	
			<text transform="matrix(1.1795 -3.629941e-02 2.993000e-02 0.9996 1921.9718 550.9988)" class="st1 st3">110.00</text>
		
</g>
<g id="_x24_">
	<path class="st0" d="M1861,484h102l7,24c0,0-7,4-2,9c-93,1-93,1-93,1s3-11-9-8c-6-25-6-26-6-26H1861z"/>
	
			<text transform="matrix(0.9615 -5.470612e-02 5.267446e-02 0.9986 1915.6469 499.7166)" class="st1 st60">24</text>
		
			<text transform="matrix(-0.2858 -1.1449 0.9702 -0.2422 1875.3822 505.8734)" class="st1 st3">57.00</text>
		
			<text transform="matrix(-0.3491 -1.1273 0.9552 -0.2958 1965.9331 510.7119)" class="st1 st3">57.00</text>
		
			<text transform="matrix(1.1795 -3.629941e-02 2.993000e-02 0.9996 1911.0822 511.5349)" class="st1 st3">110.00</text>
		
</g>
<g id="_x23_">
	<path class="st0" d="M1852,449l102-1l7,22c0,0-8,6-3,11c-54,0-91,1-91,1s3-11-9-9C1852,449,1852,449,1852,449z"/>
	
			<text transform="matrix(0.9872 -5.470200e-02 5.408029e-02 0.9985 1907.1335 462.97)" class="st1 st61">23</text>
		
			<text transform="matrix(-0.2858 -1.1449 0.9702 -0.2422 1866.4723 469.8969)" class="st1 st3">57.00</text>
		
			<text transform="matrix(-0.3491 -1.1273 0.9552 -0.2958 1957.9136 474.7326)" class="st1 st3">57.00</text>
		
			<text transform="matrix(1.1795 -3.629941e-02 2.993000e-02 0.9996 1902.5546 475.6514)" class="st1 st3">110.00</text>
		
</g>
<g id="_x22_">
	<path class="st0" d="M1858,445c0,0,0-10-9-6c-7-25-6-25-6-25h1l100-1l7,24c0,0-8,4-3,8"/>
	
			<text transform="matrix(0.9872 -5.470200e-02 5.408029e-02 0.9985 1898.1339 427.97)" class="st1 st61">22</text>
	
			<text transform="matrix(-0.2858 -1.1449 0.9702 -0.2422 1857.4723 434.8969)" class="st1 st3">57.00</text>
		
			<text transform="matrix(-0.3491 -1.1273 0.9552 -0.2958 1948.9136 439.7326)" class="st1 st3">57.00</text>
		
			<text transform="matrix(1.1795 -3.629941e-02 2.993000e-02 0.9996 1893.5546 440.6514)" class="st1 st3">110.00</text>
		
</g>


<g id="_x73_">
	<path class="st0" d="M1835,380l100-1l7,24c0,0-9,1-4,8c-88,0-88,0-88,0s3-10-10-7C1835,380,1835,380,1835,380z"/>
	
			<text transform="matrix(1.1234 -5.467833e-02 6.154250e-02 0.9981 1889.2129 393.969)" class="st1 st62">14</text>
		
			<text transform="matrix(-0.2858 -1.1449 0.9702 -0.2422 1848.4723 400.8969)" class="st1 st3">57.00</text>
		
			<text transform="matrix(-0.3491 -1.1273 0.9552 -0.2958 1939.9136 405.7326)" class="st1 st3">57.00</text>
		
			<text transform="matrix(1.1795 -3.629941e-02 2.993000e-02 0.9996 1884.5546 406.6514)" class="st1 st3">110.00</text>
		
</g>
<g id="_x72_">
	<path class="st0" d="M1828,347l99-1l6,22c0,0-10,4-4,9c-87,0-88,0-88,0s0-11-9-7C1831,366,1828,347,1828,347z"/>
	
			<text transform="matrix(0.9346 -5.471032e-02 5.120009e-02 0.9987 1882.1729 362.4467)" class="st1 st63">13</text>
		
			<text transform="matrix(-0.2858 -1.1449 0.9702 -0.2422 1841.4723 367.8969)" class="st1 st3">57.00</text>
		
			<text transform="matrix(-0.3491 -1.1273 0.9552 -0.2958 1932.9136 372.7326)" class="st1 st3">57.00</text>
		
			<text transform="matrix(1.1795 -3.629941e-02 2.993000e-02 0.9996 1877.5546 373.6514)" class="st1 st3">110.00</text>
		
</g>
<g id="_x71_">
	<path class="st0" d="M1820,315h98l6,21c0,0-7,2-4,8c-85,0-87,0-87,0s2-10-9-6C1820,317,1820,315,1820,315z"/>
	<text transform="matrix(0.9872 -5.470200e-02 5.408029e-02 0.9985 1873.1335 328.9702)" class="st1 st61">12</text>
	<text transform="matrix(-0.2858 -1.1449 0.9702 -0.2422 1832.4723 335.8969)" class="st1 st3">57.00</text>
	<text transform="matrix(-0.3491 -1.1273 0.9552 -0.2958 1923.9136 340.7326)" class="st1 st3">57.00</text>
	<text transform="matrix(1.1795 -3.629941e-02 2.993000e-02 0.9996 1868.5546 341.6514)" class="st1 st3">110.00</text>
</g>
<g id="_x70_">
	<path class="st0" d="M1812,284l97-1l6,21c0,0-7,3-4,9c-85-1-85-1-85-1s1-10-8-7C1818,303,1812,284,1812,284z"/>
	
			<text transform="matrix(1.1935 -5.466496e-02 6.538085e-02 0.9979 1861.3009 297.7046)" class="st1 st64">11</text>
		
			<text transform="matrix(-0.2858 -1.1449 0.9702 -0.2422 1827.4723 303.8969)" class="st1 st3">57.00</text>
		
			<text transform="matrix(-0.3491 -1.1273 0.9552 -0.2958 1911.9136 308.7326)" class="st1 st3">57.00</text>
		
			<text transform="matrix(1.1795 -3.629941e-02 2.993000e-02 0.9996 1856.5546 309.6514)" class="st1 st3">110.00</text>
	
</g>
<g id="_x69_">
	<path class="st0" d="M1805,253h96l5,19c0,0-9,4-3,9c-32,0-85,0-85,0s4-9-8-8C1805,253,1805,253,1805,253L1805,253z"/>
	
			<text transform="matrix(1.1156 -5.467978e-02 6.111231e-02 0.9981 1854.2943 266.4478)" class="st1 st65">10</text>
		
			<text transform="matrix(-0.2858 -1.1449 0.9702 -0.2422 1820.4723 273.8969)" class="st1 st3">57.00</text>
		
			<text transform="matrix(-0.3491 -1.1273 0.9552 -0.2958 1904.9136 276.7326)" class="st1 st3">57.00</text>
	
			<text transform="matrix(1.1795 -3.629941e-02 2.993000e-02 0.9996 1849.5546 277.6514)" class="st1 st3">110.00</text>
		
</g>
<g id="_x68_">
	<path class="st0" d="M1798,223h95l6,20c0,0-8-1-5,7c-83,0-83,0-83,0s3-8-9-6C1800,236,1798,223,1798,223z"/>
	
			<text transform="matrix(1.3348 -5.463551e-02 7.312347e-02 0.9973 1846.7932 235.6859)" class="st1 st66">9</text>
		
			<text transform="matrix(-0.2858 -1.1449 0.9702 -0.2422 1815.4723 245.8969)" class="st1 st3">57.00</text>
	
			<text transform="matrix(-0.3491 -1.1273 0.9552 -0.2958 1896.9136 246.7326)" class="st1 st3">57.00</text>
	
			<text transform="matrix(1.1795 -3.629941e-02 2.993000e-02 0.9996 1841.5546 247.6514)" class="st1 st3">110.00</text>
	
</g>
<g id="_x66_">
	<path class="st0" d="M1776,174l20-38h70l9,32c0,0-3,6,0,8c-54,16-55,15-55,15s-4-11-11-2C1776,175,1776,174,1776,174z"/>
	<text transform="matrix(0.9991 -4.166000e-02 4.166000e-02 0.9991 1817.4297 166.0346)" class="st50 st51">7</text>

		<text transform="matrix(1.1328 -0.3308 0.2803 0.9599 1834.7634 182.3978)" class="st1 st3">93.81</text>
	
		<text transform="matrix(1.1794 -3.939124e-02 3.338000e-02 0.9994 1814.7001 141.9535)" class="st1 st3">88.30</text>

		<text transform="matrix(-0.4859 -1.0754 0.9113 -0.4117 1869.4191 159.8056)" class="st1 st3">86.30</text>
	
		<text transform="matrix(0.9943 0.6356 -0.5386 0.8425 1786.3411 171.2388)" class="st1 st67">L=61.09</text>

</g>
<g id="_x67_">
	<text transform="matrix(-0.3465 -0.938 0.938 -0.3465 1883.3909 203.0235)" class="st50 st68">90.00</text>
	<path class="st0" d="M1816,196l63-18l10,35c0,0-8,2-2,8c-79,1-80,0-80,0S1826,208,1816,196z"/>
	<text transform="matrix(0.9239 -2.573122e-02 2.378095e-02 0.9997 1850.9675 206.5752)" class="st1 st69">8</text>

		<text transform="matrix(1.1801 -3.398645e-03 2.880000e-03 1 1840.6069 217.7344)" class="st1 st3">110.00</text>
	
		<text transform="matrix(6.409196e-02 -1.1783 0.9985 5.431131e-02 1826.033 219.1318)" class="st1 st70">L=61.09</text>

</g>


<g id="_x100_">
	<polygon class="st0" points="1593,215 1637,215 1645,266 1602,267 	"/>
	
			<text transform="matrix(0.9874 -9.326888e-02 6.545000e-02 0.9979 1621.1606 246.251)" class="st1 st2">41</text>
	
			<text transform="matrix(-0.1994 -1.1631 0.9709 -0.2396 1608.7272 255.1493)" class="st1 st3">102.00</text>
	
			<text transform="matrix(1.18 1.134062e-02 -1.063000e-02 0.9999 1607.882 223.554)" class="st1 st3">55.00</text>
	
</g>
<g id="_x101_">
	<polygon class="st0" points="1547,215 1589,215 1597,265 1553,266 	"/>

			<text transform="matrix(0.9874 -9.326888e-02 6.545000e-02 0.9979 1572.4315 246.2507)" class="st1 st2">42</text>
	
			<text transform="matrix(-0.1994 -1.1631 0.9709 -0.2396 1559.4937 255.1494)" class="st1 st3">102.00</text>
		
			<text transform="matrix(1.18 1.134062e-02 -1.063000e-02 0.9999 1559.0916 223.5539)" class="st1 st3">55.00</text>
	
</g>
<g id="_x102_">
	<polygon class="st0" points="1500,215 1541,215 1548,265 1505,266 	"/>
	
			<text transform="matrix(0.9874 -9.326888e-02 6.545000e-02 0.9979 1523.4052 246.251)" class="st1 st2">43</text>
	
			<text transform="matrix(-0.1116 -1.1748 0.9908 -0.1355 1511.3743 255.6083)" class="st1 st3">102.00</text>
		
			<text transform="matrix(1.18 1.134062e-02 -1.063000e-02 0.9999 1510.0474 223.5537)" class="st1 st3">55.00</text>
	
</g>
<g id="_x103_">
	<polygon class="st0" points="1452,215 1493,215 1499,266 1457,267 1452,216 	"/>
	
			<text transform="matrix(0.9886 -7.915555e-02 5.550000e-02 0.9985 1475.0023 246.1271)" class="st1 st2">44</text>
	
			<text transform="matrix(-0.1083 -1.1751 0.9913 -0.1315 1462.7416 255.5062)" class="st1 st3">102.00</text>
	
			<text transform="matrix(1.18 1.134062e-02 -1.063000e-02 0.9999 1462.7341 223.5536)" class="st1 st3">55.00</text>
		
</g>
<g id="_x105_">
	<polygon class="st0" points="1357,215 1399,215 1403,267 1359,268 	"/>
	
			<text transform="matrix(0.99 -5.974603e-02 4.186999e-02 0.9991 1378.7117 246.0895)" class="st1 st2">46</text>
	
			<text transform="matrix(-9.447761e-02 -1.1763 0.9934 -0.1148 1367.9559 255.6323)" class="st1 st3">102.00</text>
	
			<text transform="matrix(1.18 1.134062e-02 -1.063000e-02 0.9999 1368.6625 223.5538)" class="st1 st3">55.00</text>
	
</g>
<g id="_x106_">
	<polygon class="st0" points="1307,215 1350,216 1353,268 1309,267 	"/>
	
			<text transform="matrix(0.9915 2.301968e-02 -1.612000e-02 0.9999 1328.4019 245.744)" class="st1 st2">47</text>
	
			<text transform="matrix(-4.372215e-02 -1.1792 0.9986 -5.322000e-02 1317.72 255.7616)" class="st1 st3">102.00</text>
		
			<text transform="matrix(1.18 1.134062e-02 -1.063000e-02 0.9999 1318.925 223.5538)" class="st1 st3">55.00</text>
	
</g>
<g id="_x107_">
	<polygon class="st0" points="1259,216 1301,215 1303,268 1260,267 	"/>
	
			<text transform="matrix(0.9905 5.003631e-02 -3.505000e-02 0.9994 1278.637 245.6671)" class="st1 st2">48</text>
	
			<text transform="matrix(-2.885308e-02 -1.1797 0.9994 -3.511000e-02 1266.406 255.7894)" class="st1 st3">102.00</text>
		
			<text transform="matrix(1.18 1.134062e-02 -1.063000e-02 0.9999 1270.8923 223.5536)" class="st1 st3">55.00</text>
	
</g>
<g id="_x108_">
	<polygon class="st0" points="1211,216 1253,216 1253,267 1210,267 1211,217 	"/>

			<text transform="matrix(0.9874 -9.326888e-02 6.545000e-02 0.9979 1228.1869 246.2496)" class="st1 st2">49</text>
	
			<text transform="matrix(-5.981851e-02 -1.1786 0.9974 -7.280999e-02 1218.1235 255.66)" class="st1 st3">102.00</text>
	
			<text transform="matrix(1.18 1.134062e-02 -1.063000e-02 0.9999 1224.2617 223.5536)" class="st1 st3">55.00</text>
	
</g>
<g id="_x109_">
	<polygon class="st0" points="1152,224 1164,217 1205,217 1204,267 1150,267 1150,224 	"/>
	
			<text transform="matrix(0.9918 6.119406e-03 -4.280000e-03 1 1172.5244 245.8506)" class="st1 st2">50</text>
	
			<text transform="matrix(5.483855e-02 -1.1788 0.9978 6.694000e-02 1157.5172 255.9373)" class="st1 st3">102.00</text>
	
			<text transform="matrix(1.18 1.134062e-02 -1.063000e-02 0.9999 1169.2297 223.5535)" class="st1 st3">55.00</text>
	
</g>


<g id="_x95_">
	<path class="st0" d="M1603,268h42l8,45c0,0-2,4,1,7c-43,2-43,2-43,2s5-9-2-10C1606,311,1603,268,1603,268z"/>
	
		<text transform="matrix(0.9874 -9.326888e-02 6.545000e-02 0.9979 1621.1605 293.4757)" class="st1 st2">36</text>
	
			<text transform="matrix(-0.1994 -1.1631 0.9709 -0.2396 1615.8213 302.373)" class="st1 st3">102.00</text>
		
			<text transform="matrix(1.18 1.085678e-02 -1.110000e-02 0.9999 1626.7927 316.3517)" class="st1 st3">55.00</text>
	
</g>
<g id="_x94_">
	<path class="st0" d="M1554,269h43l6,43c0,0-1,6,2,9c-43,0-43,0-43,0s2-6-2-10C1554,269,1554,269,1554,269z"/>
	
			<text transform="matrix(0.9874 -9.326888e-02 6.545000e-02 0.9979 1572.4316 293.4753)" class="st1 st2">35</text>
		
			<text transform="matrix(-0.1994 -1.1631 0.9709 -0.2396 1566.7158 302.373)" class="st1 st3">102.00</text>
	
			<text transform="matrix(1.18 1.085678e-02 -1.110000e-02 0.9999 1574.985 316.3519)" class="st1 st3">55.00</text>
	
</g>
<g id="_x93_">
	<path class="st0" d="M1506,269h42l6,42c0,0-3,7,1,10c-42,0-43,1-43,1s5-9-2-10C1506,313,1506,269,1506,269z"/>

			<text transform="matrix(0.9874 -9.326888e-02 6.545000e-02 0.9979 1523.4052 293.4753)" class="st1 st2">34</text>
	
			<text transform="matrix(-0.1752 -1.167 0.9774 -0.2112 1516.9236 302.4864)" class="st1 st3">102.00</text>
	
			<text transform="matrix(1.18 1.085678e-02 -1.110000e-02 0.9999 1526.8629 316.3519)" class="st1 st3">55.00</text>
	
</g>
<g id="_x91_">
	<path class="st0" d="M1408,269h44l4,44c0,0-2,2,0,9c-44,0-44,0-44,0L1408,269z"/>
	
			<text transform="matrix(0.9874 -9.326888e-02 6.545000e-02 0.9979 1426.8492 293.4748)" class="st1 st2">32</text>
		
			<text transform="matrix(-8.940324e-02 -1.1767 0.9941 -0.1087 1418.5857 302.8858)" class="st1 st3">102.00</text>
	
			<text transform="matrix(1.18 1.085678e-02 -1.110000e-02 0.9999 1428.8279 316.3524)" class="st1 st3">55.00</text>
	
</g>
<g id="_x90_">
	<path class="st0" d="M1361,270h42l3,44c0,0-4,3,1,8c-43,0-44,0-44,0l-3-52H1361z"/>

			<text transform="matrix(0.99 -5.974603e-02 4.186999e-02 0.9991 1378.7118 293.3141)" class="st1 st2">31</text>
	
			<text transform="matrix(-9.447761e-02 -1.1763 0.9934 -0.1148 1369.9556 302.8564)" class="st1 st3">102.00</text>
	
			<text transform="matrix(1.18 1.085678e-02 -1.110000e-02 0.9999 1369.811 317.3529)" class="st1 st3">55.00</text>
	
</g>
<g id="_x89_">
	<path class="st0" d="M1309,269h44l1,53l-43,1c0,0,4-7-1-10C1309,269,1309,269,1309,269z"/>
	
			<text transform="matrix(0.9915 2.301968e-02 -1.612000e-02 0.9999 1328.4017 292.9683)" class="st1 st2">30</text>
	
			<text transform="matrix(-4.372215e-02 -1.1792 0.9986 -5.322000e-02 1317.7203 302.9856)" class="st1 st3">102.00</text>
	
			<text transform="matrix(1.18 1.085678e-02 -1.110000e-02 0.9999 1325.2423 316.353)" class="st1 st3">55.00</text>
	
</g>
<g id="_x88_">
	<polygon class="st0" points="1260,269 1303,269 1304,321 1260,323 	"/>
	
			<text transform="matrix(0.9918 8.311285e-03 -5.820000e-03 1 1278.5929 293.0197)" class="st1 st2">29</text>
	
			<text transform="matrix(-2.883110e-02 -1.7656 0.9986 -5.254685e-02 1267.3136 303.0139)" class="st1 st71">102.00</text>
	
			<text transform="matrix(1.18 1.085678e-02 -1.110000e-02 0.9999 1268.892 316.3531)" class="st1 st3">55.00</text>
	
</g>
<g id="_x87_">
	<path class="st0" d="M1210,270h43v43c0,0-3,6,1,9c-33,0-44,0-44,0V270z"/>
	
			<text transform="matrix(0.9912 3.397907e-02 -2.380000e-02 0.9997 1228.1617 292.9136)" class="st1 st2">28</text>
		
			<text transform="matrix(1.876335e-03 -1.1801 1 2.390000e-03 1217.4674 303.0297)" class="st1 st3">102.00</text>
	
			<text transform="matrix(1.18 1.085678e-02 -1.110000e-02 0.9999 1222.2896 317.3535)" class="st1 st3">55.00</text>
		
</g>
<g id="_x86_">
	<polygon class="st0" points="1150,270 1148,315 1161,322 1203,322 1205,270 	"/>
	
			<text transform="matrix(0.9918 6.119406e-03 -4.280000e-03 1 1172.5245 293.0747)" class="st1 st2">27</text>
		
			<text transform="matrix(5.483855e-02 -1.1788 0.9978 6.694000e-02 1157.517 303.1615)" class="st1 st3">102.00</text>
	
			<text transform="matrix(1.18 1.085678e-02 -1.110000e-02 0.9999 1168.9513 316.3535)" class="st1 st3">55.00</text>
	
</g>

<g id="_x104_">
	<polygon class="st0" points="1405,215 1447,215 1451,267 1408,268 	"/>
	
			<text transform="matrix(-8.940324e-02 -1.1767 0.9941 -0.1087 1413.5012 255.6612)" class="st1 st3">102.00</text>
	
			<text transform="matrix(1.18 1.134062e-02 -1.063000e-02 0.9999 1416.1609 223.5536)" class="st1 st3">55.00</text>
		
			<text transform="matrix(0.9874 -9.326888e-02 6.545000e-02 0.9979 1427.5989 246.0658)" class="st1 st2">45</text>
	
</g>
<g id="_x99_">
	<polygon class="st0" points="1641,215 1684,215 1693,265 1651,266 	"/>
	
			<text transform="matrix(0.9918 0 0 1 1669.9608 246.271)" class="st1 st2">40</text>
		
			<text transform="matrix(1.1776 7.670552e-02 -4.921000e-02 0.9988 1657.093 223.4569)" class="st1 st3">55.00</text>
	
			<text transform="matrix(-0.1267 -1.1733 0.9881 -0.1535 1658.174 254.6422)" class="st1 st3">102.00</text>
	
</g>
<g id="_x98_">
	<polygon class="st0" points="1692,215 1731,214 1746,223 1754,264 1700,266 	"/>
	
			<text transform="matrix(-0.9644 -0.68 0.4397 -0.8981 1743.4456 226.2287)" class="st1 st3">21.21</text>
	
			<text transform="matrix(0.9918 0 0 1 1720.2998 245.8496)" class="st1 st2">39</text>
	
			<text transform="matrix(-0.2243 -1.1586 0.9633 -0.2686 1748.7437 253.3018)" class="st1 st3">87.00</text>
	
			<text transform="matrix(-0.2611 -1.1508 0.9506 -0.3106 1707.4117 254.9111)" class="st1 st3">102.00</text>
	
			<text transform="matrix(1.1792 -4.517366e-02 2.659000e-02 0.9997 1719.0319 261.4424)" class="st1 st3">65.00</text>
	
		<text transform="matrix(1.1797 2.828664e-02 -1.665000e-02 0.9999 1700.4143 221.9473)" class="st1 st3">50.00</text>

</g>
<g id="_x92_">
	<path class="st0" d="M1457,269h43l4,44c0,0-2,5,2,8c-44,1-44,1-44,1s5-6-1-11C1457,270,1457,269,1457,269z"/>
	
			<text transform="matrix(0.9886 -7.915555e-02 5.550000e-02 0.9985 1475.0023 293.3513)" class="st1 st2">33</text>
	
			<text transform="matrix(-0.1083 -1.1751 0.9913 -0.1315 1468.0328 302.7303)" class="st1 st3">102.00</text>
	
			<text transform="matrix(1.18 1.085678e-02 -1.110000e-02 0.9999 1477.8442 316.2507)" class="st1 st3">55.00</text>
	
</g>
<g id="_x96_">
	<path class="st0" d="M1651,268h43l10,52l-44,2c0,0,5-8-2-12C1654,308,1651,268,1651,268z"/>

		<text transform="matrix(0.9918 0 0 1 1670.6925 293.0739)" class="st1 st2">37</text>
	
			<text transform="matrix(-0.195 -1.1639 0.9721 -0.2344 1664.2479 302.4838)" class="st1 st3">102.00</text>
	
			<text transform="matrix(1.1778 7.347210e-02 -5.138000e-02 0.9987 1671.8203 315.904)" class="st1 st3">55.00</text>
	
</g>
<g id="_x97_">
	<text transform="matrix(0.833 -3.190983e-02 2.659000e-02 0.9997 1721.9795 272.9513)" class="st50 st72">65.00</text>
	<path class="st0" d="M1701,268h54l10,45l-11,7l-43,1c0,0,6-8-1-9C1708,311,1701,268,1701,268z"/>
	
			<text transform="matrix(0.9918 0 0 1 1729.4561 293.0739)" class="st1 st2">38</text>
	
			<text transform="matrix(-0.2534 -1.1526 0.9388 -0.3445 1758.9409 294.9245)" class="st1 st3">87.00</text>
	
			<text transform="matrix(-0.2611 -1.1508 0.9506 -0.3106 1715.0044 302.1359)" class="st1 st3">102.00</text>
	
		<text transform="matrix(0.8058 -0.8622 0.5964 0.8027 1753.7991 317.252)" class="st1 st73">21.21</text>
	
		<text transform="matrix(1.1797 2.828664e-02 -1.665000e-02 0.9999 1725.7434 316.3258)" class="st1 st3">50.00</text>

</g>

<g id="_x76_">
	<polygon class="st0" points="1614.7,351.5 1661.1,351.6 1669.4,409.2 1624,410.2 	"/>
	
			<text transform="matrix(0.9865 -0.1025 5.950000e-02 0.9982 1639.4937 385.4683)" class="st1 st2">17</text>
		
			<text transform="matrix(-0.1816 -1.166 0.9651 -0.2621 1635.4254 396.3513)" class="st1 st3">102.00</text>
		
			<text transform="matrix(1.18 1.247350e-02 -9.660000e-03 0.9999 1630.4595 361.6973)" class="st1 st3">55.00</text>
	
</g>
<g id="_x77_">
	<polygon class="st0" points="1566.1,351.4 1610.4,351.5 1618.8,407.9 1572.3,408.9 	"/>
	
			<text transform="matrix(0.9865 -0.1025 5.950000e-02 0.9982 1589.5406 385.4686)" class="st1 st2">18</text>
	
			<text transform="matrix(-0.1816 -1.166 0.9651 -0.2621 1585.4722 396.3509)" class="st1 st3">102.00</text>
	
			<text transform="matrix(1.18 1.247350e-02 -9.660000e-03 0.9999 1580.9756 361.6975)" class="st1 st3">55.00</text>
	
</g>
<g id="_x78_">
	<polygon class="st0" points="1516.5,351.2 1559.8,351.3 1567.1,407.8 1521.7,408.8 	"/>
	
			<text transform="matrix(0.9865 -0.1025 5.950000e-02 0.9982 1540.4579 385.4684)" class="st1 st2">19</text>
	
			<text transform="matrix(-0.1015 -1.1757 0.9889 -0.1488 1535.4514 396.7298)" class="st1 st3">102.00</text>
	
			<text transform="matrix(1.18 1.247350e-02 -9.660000e-03 0.9999 1529.9869 361.698)" class="st1 st3">55.00</text>
	
</g>
<g id="_x79_">
	<polygon class="st0" points="1465.9,351.1 1509.2,351.2 1515.3,408.8 1471,409.8 1465.9,352.2 	"/>
	
			<text transform="matrix(0.988 -8.704036e-02 5.045000e-02 0.9987 1489.2815 385.3746)" class="st1 st2">20</text>
	
			<text transform="matrix(-9.846629e-02 -1.176 0.9895 -0.1445 1481.9379 396.7429)" class="st1 st3">102.00</text>
	
			<text transform="matrix(1.18 1.247350e-02 -9.660000e-03 0.9999 1481.0671 361.6982)" class="st1 st3">55.00</text>
	
</g>
<g id="_x81_">
	<polygon class="st0" points="1365.7,350.9 1410,351 1414.1,409.7 1367.6,410.7 	"/>

			<text transform="matrix(0.9896 -6.571667e-02 3.805000e-02 0.9993 1387.5748 385.3121)" class="st1 st2">22</text>
	
			<text transform="matrix(-8.591019e-02 -1.177 0.992 -0.1262 1381.2095 396.7968)" class="st1 st3">102.00</text>
	
			<text transform="matrix(1.18 1.247350e-02 -9.660000e-03 0.9999 1380.5198 361.6982)" class="st1 st3">55.00</text>
	
</g>
<g id="_x82_">
	<polygon class="st0" points="1312.9,350.8 1358.3,352 1361.3,410.7 1314.9,409.4 	"/>

			<text transform="matrix(0.9915 2.533057e-02 -1.465000e-02 0.9999 1335.0118 384.96)" class="st1 st2">23</text>
	
			<text transform="matrix(-3.973346e-02 -1.1794 0.9983 -5.855000e-02 1326.4813 396.9799)" class="st1 st3">102.00</text>
	
			<text transform="matrix(1.18 1.247350e-02 -9.660000e-03 0.9999 1324.8567 361.6983)" class="st1 st3">55.00</text>
	
</g>
<g id="_x83_">
	<polygon class="st0" points="1262.3,351.8 1306.6,350.7 1308.5,410.5 1263.2,409.3 	"/>
	
			<text transform="matrix(0.9903 5.504490e-02 -3.186000e-02 0.9995 1283.7972 384.7859)" class="st1 st2">24</text>
	
			<text transform="matrix(-2.622149e-02 -1.1798 0.9992 -3.863000e-02 1275.7997 397.0294)" class="st1 st3">102.00</text>
	
			<text transform="matrix(1.18 1.247350e-02 -9.660000e-03 0.9999 1278.9978 361.6985)" class="st1 st3">55.00</text>
	
</g>
<g id="_x84_">
	<polygon class="st0" points="1211.6,351.6 1255.9,351.7 1255.8,409.3 1210.4,409.2 1211.6,352.8 	"/>
	
			<text transform="matrix(0.9865 -0.1025 5.950000e-02 0.9982 1228.3625 385.4678)" class="st1 st2">25</text>
	
			<text transform="matrix(-5.437832e-02 -1.1788 0.9968 -8.007000e-02 1222.1045 396.924)" class="st1 st3">102.00</text>
	
			<text transform="matrix(1.18 1.247350e-02 -9.660000e-03 0.9999 1224.6241 361.6992)" class="st1 st3">55.00</text>
	
</g>
<g id="_x85_">
	<polygon class="st0" points="1149.3,360.5 1162,352.6 1205.3,352.8 1204.1,409.2 1147.1,409 1147.2,360.5 	"/>

			<text transform="matrix(0.9918 6.724404e-03 -3.890000e-03 1 1168.8112 384.9733)" class="st1 st2">26</text>
	
			<text transform="matrix(4.984679e-02 -1.179 0.9973 7.363001e-02 1157.8787 397.2712)" class="st1 st3">102.00</text>
	
			<text transform="matrix(1.18 1.247350e-02 -9.660000e-03 0.9999 1166.3552 361.6995)" class="st1 st3">55.00</text>
	
</g>

<g id="_x19_">
	<path class="st0" d="M1625.1,411.3l44.3,0.1l8.3,50.8c0,0-2.1,4.5,1,7.9c-45.4,2.1-45.4,2.1-45.4,2.1s5.3-10.1-2.1-11.3
		C1628.1,459.8,1625.1,411.3,1625.1,411.3z"/>
	
		<text transform="matrix(0.9865 -0.1025 5.950000e-02 0.9982 1647.7509 441.1207)" class="st1 st2">19</text>
	

		<text transform="matrix(-0.1816 -1.166 0.9651 -0.2621 1642.1731 447.6452)" class="st1 st3">102.00</text>
	
		<text transform="matrix(1.18 1.195426e-02 -1.009000e-02 0.9999 1648.6859 465.3516)" class="st1 st3">55.00</text>
	
</g>
<g id="_x18_">
	<path class="st0" d="M1573.4,412.3l45.4,0.1l6.2,48.5c0,0-1.1,6.8,2.1,10.2c-45.4-0.1-45.4-0.1-45.4-0.1s2.1-6.8-2.1-11.3
		C1573.4,412.3,1573.4,412.3,1573.4,412.3z"/>

			<text transform="matrix(0.9865 -0.1025 5.950000e-02 0.9982 1597.7462 441.1207)" class="st1 st2">18</text>
	
			<text transform="matrix(-0.1816 -1.166 0.9651 -0.2621 1591.2367 447.6451)" class="st1 st3">102.00</text>
	
			<text transform="matrix(1.18 1.195426e-02 -1.009000e-02 0.9999 1594.8898 465.3515)" class="st1 st3">55.00</text>
		
</g>
<g id="_x17_">
	<path class="st0" d="M1522.7,412.2l44.3,0.1l6.2,47.4c0,0-3.2,7.9,1,11.3c-44.3-0.1-45.4,1-45.4,1s5.3-10.1-2.1-11.3
		C1522.6,461.8,1522.7,412.2,1522.7,412.2z"/>
	
			<text transform="matrix(0.9865 -0.1025 5.950000e-02 0.9982 1543.9496 441.1206)" class="st1 st2">17</text>
	
			<text transform="matrix(-0.1595 -1.1693 0.9729 -0.2313 1538.4507 447.7555)" class="st1 st3">102.00</text>
	
			<text transform="matrix(1.18 1.195426e-02 -1.009000e-02 0.9999 1543.9371 465.3513)" class="st1 st3">55.00</text>
	
</g>
<g id="_x15_">
	<path class="st0" d="M1419.3,411.9l46.4,0.1l4.1,49.7c0,0-2.1,2.3,0,10.2c-46.4-0.1-46.4-0.1-46.4-0.1L1419.3,411.9z"/>

			<text transform="matrix(0.9865 -0.1025 5.950000e-02 0.9982 1442.1792 441.1205)" class="st1 st2">15</text>
	
			<text transform="matrix(-8.128425e-02 -1.1773 0.9928 -0.1195 1436.4025 448.1103)" class="st1 st3">102.00</text>
	
			<text transform="matrix(1.18 1.195426e-02 -1.009000e-02 0.9999 1440.1346 465.3509)" class="st1 st3">55.00</text>
	
</g>
<g id="_x14_">
	<path class="st0" d="M1369.7,413l44.3,0.1l3,49.7c0,0-4.2,3.4,1,9c-45.4-0.1-46.4-0.1-46.4-0.1l-3-58.7L1369.7,413z"/>
	
			<text transform="matrix(0.9896 -6.571667e-02 3.805000e-02 0.9993 1389.5588 440.9644)" class="st1 st2">14</text>
	
			<text transform="matrix(-8.591019e-02 -1.177 0.992 -0.1262 1382.2848 448.0909)" class="st1 st3">102.00</text>
	
			<text transform="matrix(1.18 1.195426e-02 -1.009000e-02 0.9999 1388.2343 465.3509)" class="st1 st3">55.00</text>
	
</g>
<g id="_x13_">
	<path class="st0" d="M1314.9,411.7l46.4,0.1l0.9,59.8l-45.4,1c0,0,4.2-7.9-1-11.3C1314.9,411.7,1314.9,411.7,1314.9,411.7z"/>

			<text transform="matrix(0.9915 2.533057e-02 -1.465000e-02 0.9999 1332.6021 440.6121)" class="st1 st2">13</text>
	
			<text transform="matrix(-3.973346e-02 -1.1794 0.9983 -5.855000e-02 1328.6733 448.2739)" class="st1 st3">102.00</text>
	
			<text transform="matrix(1.18 1.195426e-02 -1.009000e-02 0.9999 1330.4557 465.3507)" class="st1 st3">55.00</text>
		
</g>
<g id="_x12_">
	<polygon class="st0" points="1263.2,411.6 1308.5,411.7 1309.5,470.4 1263,472.5 	"/>

			<text transform="matrix(0.9918 9.144396e-03 -5.290000e-03 1 1283.431 440.6963)" class="st1 st2">12</text>
	
			<text transform="matrix(-2.622149e-02 -1.1798 0.9992 -3.863000e-02 1274.5919 448.3235)" class="st1 st3">102.00</text>
	
			<text transform="matrix(1.18 1.195426e-02 -1.009000e-02 0.9999 1277.1432 465.3506)" class="st1 st3">55.00</text>
		
</g>
<g id="_x11_">
	<path class="st0" d="M1210.4,412.6l45.4,0.1l-0.1,48.5c0,0-3.2,6.8,1,10.2c-34.8-0.1-46.4-0.1-46.4-0.1L1210.4,412.6z"/>
	
			<text transform="matrix(0.9911 3.739086e-02 -2.163000e-02 0.9998 1227.0654 440.5739)" class="st1 st2">11</text>
	
			<text transform="matrix(1.711124e-03 -1.1801 1 2.630000e-03 1222.3373 448.4195)" class="st1 st3">102.00</text>
	
			<text transform="matrix(1.18 1.195426e-02 -1.009000e-02 0.9999 1224.8574 465.3503)" class="st1 st3">55.00</text>
	
</g>
<g id="_x10_">
	<polygon class="st0" points="1147.1,412.4 1144.9,463.2 1158.6,471.1 1202.9,471.2 1205.1,412.6 	"/>
	
			<text transform="matrix(0.9918 6.724404e-03 -3.890000e-03 1 1168.8109 440.6254)" class="st1 st2">10</text>
	
			<text transform="matrix(4.984679e-02 -1.179 0.9973 7.363001e-02 1158.8784 448.5653)" class="st1 st3">102.00</text>
	
			<text transform="matrix(1.18 1.195426e-02 -1.009000e-02 0.9999 1164.9701 465.3501)" class="st1 st3">55.00</text>
	
</g>
<g id="_x80_">
	<polygon class="st0" points="1416.3,351 1460.6,351.1 1464.7,409.8 1419.3,410.8 	"/>
	
			<text transform="matrix(-8.128425e-02 -1.1773 0.9928 -0.1195 1432.9009 396.8159)" class="st1 st3">102.00</text>
	
			<text transform="matrix(1.18 1.247350e-02 -9.660000e-03 0.9999 1431.7533 361.698)" class="st1 st3">55.00</text>
	
			<text transform="matrix(0.9865 -0.1025 5.950000e-02 0.9982 1439.7268 385.2532)" class="st1 st2">21</text>
	
</g>
<g id="_x75_">
	<polygon class="st0" points="1665.3,351.6 1710.7,351.7 1720,408.1 1675.7,409.2 	"/>
	
			<text transform="matrix(0.9918 0 0 1 1686.4658 385.0522)" class="st1 st2">16</text>
		
			<text transform="matrix(1.1771 8.436429e-02 -4.473000e-02 0.999 1677.1626 361.1723)" class="st1 st3">55.00</text>
	
			<text transform="matrix(-0.1152 -1.1744 0.9857 -0.1685 1682.2045 396.6691)" class="st1 st3">102.00</text>
		
</g>
<g id="_x74_">
	<polygon class="st0" points="1719.1,352.3 1760.3,351.3 1776.1,361.5 1784.4,407.8 1727.4,409.9 	"/>
	
		<text transform="matrix(-0.6918 -0.5368 0.4065 -0.9136 1773.7097 363.9077)" class="st1 st74">21.21</text>

			<text transform="matrix(0.9918 0 0 1 1748.3174 385.0522)" class="st1 st2">15</text>
		
	
		<text transform="matrix(-0.2221 -1.2625 0.956 -0.2933 1778.431 393.2324)" class="st1 st75">87.00</text>

			<text transform="matrix(-0.2383 -1.1558 0.941 -0.3383 1738.7603 396.0481)" class="st1 st3">102.00</text>
	
		<text transform="matrix(0.757 -3.191348e-02 2.416000e-02 0.9997 1750.0679 404.8543)" class="st1 st76">65.00</text>
	
		<text transform="matrix(1.1797 3.113065e-02 -1.513000e-02 0.9999 1728.6309 359.8141)" class="st1 st3">50.00</text>
	
</g>

<g id="_x16_">
	<path class="st0" d="M1471,412.1l45.4,0.1l4.1,49.7c0,0-2.1,5.6,2.1,9c-46.4,1-46.4,1-46.4,1s5.3-6.8-1-12.4
		C1471,413.2,1471,412.1,1471,412.1z"/>
	
			<text transform="matrix(0.988 -8.704036e-02 5.045000e-02 0.9987 1493.8701 441.0266)" class="st1 st2">16</text>
		
			<text transform="matrix(-9.846629e-02 -1.176 0.9895 -0.1445 1486.7158 448.0371)" class="st1 st3">102.00</text>
	
			<text transform="matrix(1.18 1.195426e-02 -1.009000e-02 0.9999 1492.0354 465.2337)" class="st1 st3">55.00</text>
	
</g>
<g id="_x20_">
	<path class="st0" d="M1675.7,411.4l45.4,0.1l10.4,58.7l-46.4,2.1c0,0,5.3-9-2.1-13.5C1678.8,456.6,1675.7,411.4,1675.7,411.4z"/>
	
		<text transform="matrix(0.9918 0 0 1 1698.7964 440.7043)" class="st1 st2">20</text>
	
		<text transform="matrix(-0.1776 -1.1666 0.9665 -0.2565 1694.4601 447.6657)" class="st1 st3">102.00</text>

		<text transform="matrix(1.1773 8.082402e-02 -4.670000e-02 0.9989 1697.4503 464.8189)" class="st1 st3">55.00</text>
	
</g>
<g id="_x21_">
	<path class="st0" d="M1728.5,411.6l57,0.1l10.4,50.8l-11.6,7.9l-45.4,1c0,0,6.4-9-1-10.2C1735.7,460.1,1728.5,411.6,1728.5,411.6z"
		/>

			<text transform="matrix(0.9918 0 0 1 1758.4819 440.7043)" class="st1 st2">21</text>
	
		<text transform="matrix(-0.3834 -1.1389 0.8624 -0.5062 1790.3134 442.1361)" class="st1 st77">87.00</text>
	
			<text transform="matrix(-0.2383 -1.1558 0.941 -0.3383 1748.1523 447.3423)" class="st1 st3">102.00</text>
	
	<text transform="matrix(0.6276 -0.739 0.5596 0.8288 1785.0507 465.9474)" class="st50 st78">21.21</text>
	<text transform="matrix(0.757 -3.191391e-02 2.416000e-02 0.9997 1752.3671 419.3981)" class="st50 st79">65.00</text>
	
		<text transform="matrix(1.1797 3.113065e-02 -1.513000e-02 0.9999 1756.3285 466.6572)" class="st1 st3">50.00</text>
	
</g>
<g id="_x50_">
	<polygon class="st0" points="1637.9,504.7 1687.1,504.8 1695.9,569.8 1647.8,571 	"/>

			<text transform="matrix(0.9845 -0.1201 8.721000e-02 0.9962 1664.463 545.2024)" class="st1 st2">50</text>
	
			<text transform="matrix(-0.227 -1.1581 0.9647 -0.2633 1658.7006 555.0787)" class="st1 st3">102.00</text>
	
			<text transform="matrix(1.1798 -2.283465e-02 9.860000e-03 0.9999 1650.7216 517.5499)" class="st1 st3">55.00</text>
	
</g>
<g id="_x49_">
	<polygon class="st0" points="1586.5,504.6 1633.4,504.7 1642.2,568.4 1593,569.6 	"/>
	
			<text transform="matrix(0.9845 -0.1201 8.721000e-02 0.9962 1608.2301 545.2019)" class="st1 st2">49</text>
	
			<text transform="matrix(-0.227 -1.1581 0.9647 -0.2633 1604.9763 555.0782)" class="st1 st3">102.00</text>
	
			<text transform="matrix(1.1798 -2.283465e-02 9.860000e-03 0.9999 1597.583 517.5502)" class="st1 st3">55.00</text>
	
</g>
<g id="_x48_">
	<polygon class="st0" points="1533.9,504.4 1579.7,504.5 1587.4,568.3 1539.3,569.5 	"/>

			<text transform="matrix(0.9845 -0.1201 8.721000e-02 0.9962 1554.8795 545.2023)" class="st1 st2">48</text>
	
			<text transform="matrix(-0.1378 -1.172 0.9869 -0.1616 1549.8539 552.1278)" class="st1 st3">102.00</text>
		
			<text transform="matrix(1.1798 -2.283465e-02 9.860000e-03 0.9999 1539.3187 517.5502)" class="st1 st3">55.00</text>
	
</g>
<g id="_x47_">
	<polygon class="st0" points="1480.2,504.3 1526.1,504.4 1532.6,569.4 1485.6,570.6 1480.2,505.6 	"/>

			<text transform="matrix(0.9861 -0.1062 7.708000e-02 0.997 1502.7865 545.1318)" class="st1 st2">47</text>
	
			<text transform="matrix(-0.1345 -1.1724 0.9875 -0.1577 1493.8727 553.303)" class="st1 st3">102.00</text>
	
			<text transform="matrix(1.1798 -2.283465e-02 9.860000e-03 0.9999 1489.7449 517.5505)" class="st1 st3">55.00</text>
	
</g>
<g id="_x46_">
	<polygon class="st0" points="1427.6,504.2 1474.6,504.3 1478.9,570.6 1430.8,571.8 	"/>
	
			<text transform="matrix(0.9845 -0.1201 8.721000e-02 0.9962 1447.233 545.2017)" class="st1 st2">46</text>

			<text transform="matrix(-0.1153 -1.1744 0.9908 -0.1354 1442.2722 553.3552)" class="st1 st3">102.00</text>
	
			<text transform="matrix(1.1798 -2.283465e-02 9.860000e-03 0.9999 1435.3396 517.5505)" class="st1 st3">55.00</text>
	
</g>
<g id="_x45_">
	<polygon class="st0" points="1373.9,504.1 1420.9,504.2 1425.2,570.5 1376,571.6 	"/>

			<text transform="matrix(0.988 -8.721890e-02 6.322000e-02 0.998 1395.6377 545.0573)" class="st1 st2">45</text>
	
			<text transform="matrix(-0.1204 -1.1739 0.99 -0.1414 1387.1633 553.1523)" class="st1 st3">102.00</text>
	
			<text transform="matrix(1.1798 -2.283465e-02 9.860000e-03 0.9999 1383.1379 517.5505)" class="st1 st3">55.00</text>
	
</g>
<g id="_x44_">
	<polygon class="st0" points="1318,503.9 1366.1,505.3 1369.3,571.6 1320.1,570.2 	"/>

			<text transform="matrix(0.9918 -5.921046e-03 4.280000e-03 1 1340.7721 544.7654)" class="st1 st2">44</text>
	
			<text transform="matrix(-6.883436e-02 -1.1781 0.9967 -8.106000e-02 1331.2391 553.1959)" class="st1 st3">102.00</text>
	
			<text transform="matrix(1.1798 -2.283465e-02 9.860000e-03 0.9999 1331.239 517.5506)" class="st1 st3">55.00</text>
	
</g>
<g id="_x43_">
	<polygon class="st0" points="1264.3,505.1 1311.3,503.9 1313.4,571.5 1265.3,570.1 	"/>
	
			<text transform="matrix(0.9769 -0.1714 0.1249 0.9922 1284.0074 545.4086)" class="st1 st2">43</text>

			<text transform="matrix(-5.371747e-02 -1.1789 0.998 -6.328000e-02 1271.8104 555.3268)" class="st1 st3">102.00</text>
	
			<text transform="matrix(1.1798 -2.283465e-02 9.860000e-03 0.9999 1273.3696 517.5508)" class="st1 st3">55.00</text>
	
</g>
<g id="_x42_">
	<polygon class="st0" points="1210.6,504.9 1257.6,505.1 1257.4,570.1 1209.3,569.9 1210.6,506.2 	"/>
	
			<text transform="matrix(0.9845 -0.1201 8.721000e-02 0.9962 1227.6703 545.2014)" class="st1 st2">42</text>
	
			<text transform="matrix(-8.519034e-02 -1.177 0.995 -0.1003 1219.7371 554.6016)" class="st1 st3">102.00</text>
	
			<text transform="matrix(1.1798 -2.283465e-02 9.860000e-03 0.9999 1217.5911 517.5511)" class="st1 st3">55.00</text>
	
</g>
<g id="_x41_">
	<polygon class="st0" points="1144.6,515 1158,506.1 1203.9,506.2 1202.6,569.9 1142.2,569.8 1142.4,515 	"/>

			<text transform="matrix(0.9915 -2.254361e-02 1.632000e-02 0.9999 1166.2432 544.8926)" class="st1 st2">41</text>
	
			<text transform="matrix(3.135486e-02 -1.1797 0.9993 3.711000e-02 1150.719 552.5037)" class="st1 st3">102.00</text>
	
			<text transform="matrix(1.1798 -2.283465e-02 9.860000e-03 0.9999 1160.2184 517.5513)" class="st1 st3">55.00</text>
	
</g>
<g id="_x51_">
	<polygon class="st0" points="1691.6,504.8 1739.7,504.9 1749.6,568.7 1702.6,569.8 	"/>

			<text transform="matrix(0.9914 -2.856384e-02 2.067000e-02 0.9998 1718.1178 544.8625)" class="st1 st2">51</text>

			<text transform="matrix(-0.2525 -1.1528 0.9565 -0.2918 1712.9004 551.6547)" class="st1 st3">102.00</text>

			<text transform="matrix(1.1794 4.152719e-02 -2.936000e-02 0.9996 1700.6371 517.1197)" class="st1 st3">55.00</text>
	
</g>
<g id="_x52_">
	<polygon class="st0" points="1748.7,504.9 1792.3,503.8 1809,515.3 1817.9,567.6 1757.4,570 	"/>

			<text transform="matrix(-0.987 -0.6469 0.4256 -0.9049 1802.0306 517.6072)" class="st1 st3">21.21</text>
	
			<text transform="matrix(0.9914 -2.856384e-02 2.067000e-02 0.9998 1775.464 537.923)" class="st1 st2">52</text>
	
			<text transform="matrix(-0.2522 -1.1528 0.9566 -0.2916 1810.0344 546.8488)" class="st1 st3">87.00</text>
	
			<text transform="matrix(-0.2894 -1.1441 0.9431 -0.3324 1769.1393 548.9068)" class="st1 st3">102.00</text>
	
			<text transform="matrix(1.1775 -7.835764e-02 4.770000e-02 0.9989 1780.8281 564.2715)" class="st1 st3">65.00</text>
	
			<text transform="matrix(1.1801 -6.160044e-03 3.740000e-03 1 1752.7749 513.144)" class="st1 st3">50.00</text>
	
</g>
<g id="_x31_">
	<path class="st0" d="M1648.9,572.3l47,0.1l8.8,57.4c0,0-2.2,5.1,1.1,8.9c-48.1,2.4-48.1,2.4-48.1,2.4s5.6-11.5-2.2-12.8
		C1652.2,627.1,1648.9,572.3,1648.9,572.3z"/>

			<text transform="matrix(-0.135 -1.1723 0.9824 -0.1865 1662.9509 610.9312)" class="st1 st3">102.00</text>
	
			<text transform="matrix(0.9845 -0.1201 8.721000e-02 0.9962 1672.1356 604.8802)" class="st1 st2">31</text>
	
			<text transform="matrix(1.1798 -2.330668e-02 9.380000e-03 1 1670.4908 626.663)" class="st1 st3">55.00</text>
	
</g>
<g id="_x32_">
	<path class="st0" d="M1594.1,573.4l48.1,0.1l6.6,54.8c0,0-1.1,7.6,2.2,11.5c-48.1-0.1-48.1-0.1-48.1-0.1s2.3-7.6-2.2-12.8
		C1594.1,573.4,1594.1,573.4,1594.1,573.4z"/>

			<text transform="matrix(-5.676210e-02 -1.1787 0.9927 -0.1208 1609.8727 606.6047)" class="st1 st3">102.00</text>
	
			<text transform="matrix(0.9845 -0.1201 8.721000e-02 0.9962 1618.1946 604.8798)" class="st1 st2">32</text>
		
			<text transform="matrix(1.1798 -2.330668e-02 9.380000e-03 1 1614.4648 627.7483)" class="st1 st3">55.00</text>
	
</g>
<g id="_x33_">
	<path class="st0" d="M1540.4,573.3l47,0.1l6.6,53.6c0,0-3.4,8.9,1.1,12.7c-47-0.1-48.1,1.2-48.1,1.2s5.6-11.5-2.2-12.8
		C1544,615,1540.4,573.3,1540.4,573.3z"/>

			<text transform="matrix(-0.1378 -1.172 0.9869 -0.1616 1554.9313 604.2226)" class="st1 st3">102.00</text>
	
			<text transform="matrix(0.9845 -0.1201 8.721000e-02 0.9962 1558.4841 604.8797)" class="st1 st2">33</text>
		
			<text transform="matrix(1.1798 -2.330668e-02 9.380000e-03 1 1556.6127 625.5967)" class="st1 st3">55.00</text>
	
</g>
<g id="_x34_">
	<path class="st0" d="M1485.6,573.2l48.1,0.1l4.3,56.1c0,0-2.3,6.4,2.2,10.2c-49.2,1.2-49.2,1.2-49.2,1.2s5.6-7.6-1.1-14
		C1485.6,574.4,1485.6,573.2,1485.6,573.2z"/>
	
			<text transform="matrix(-0.1345 -1.1724 0.9875 -0.1577 1498.5997 608.6917)" class="st1 st3">102.00</text>
		
			<text transform="matrix(0.9861 -0.1062 7.708000e-02 0.997 1504.7549 604.8092)" class="st1 st2">34</text>
	
			<text transform="matrix(1.1798 -2.330668e-02 9.380000e-03 1 1500.6899 627.7485)" class="st1 st3">55.00</text>
	
</g>
<g id="_x35_">
	<path class="st0" d="M1430.8,573l49.2,0.1l4.3,56.1c0,0-2.2,2.5,0,11.5c-49.2-0.1-49.2-0.1-49.2-0.1L1430.8,573z"/>

			<text transform="matrix(-5.413049e-02 -1.1788 0.998 -6.376000e-02 1444.0096 610.5435)" class="st1 st3">102.00</text>
	
			<text transform="matrix(0.9845 -0.1201 8.721000e-02 0.9962 1451.0007 604.8796)" class="st1 st2">35</text>
	
			<text transform="matrix(1.1798 -2.330668e-02 9.380000e-03 1 1445.1957 625.5972)" class="st1 st3">55.00</text>
	
</g>
<g id="_x36_">
	<path class="st0" d="M1378.2,574.2l47,0.1l3.2,56.1c0,0-4.5,3.8,1.1,10.2c-48.1-0.1-49.2-0.1-49.2-0.1l-3.2-66.3L1378.2,574.2z"/>
	
			<text transform="matrix(-5.413049e-02 -1.1788 0.998 -6.376000e-02 1390.1918 610.5438)" class="st1 st3">102.00</text>
	
			<text transform="matrix(0.988 -8.721890e-02 6.322000e-02 0.998 1397.4928 604.7355)" class="st1 st2">36</text>
		
			<text transform="matrix(1.1798 -2.330668e-02 9.380000e-03 1 1391.1368 629.5864)" class="st1 st3">55.00</text>
	
</g>
<g id="_x37_">
	<path class="st0" d="M1320.1,572.8l49.2,0.1l1,67.6l-48.1,1.2c0,0,4.5-8.9-1.1-12.7C1320.1,572.8,1320.1,572.8,1320.1,572.8z"/>

			<text transform="matrix(-6.883436e-02 -1.1781 0.9967 -8.106000e-02 1329.1484 610.8539)" class="st1 st3">102.00</text>
	
			<text transform="matrix(0.9918 -5.921046e-03 4.280000e-03 1 1342.8153 604.4435)" class="st1 st2">37</text>
	
			<text transform="matrix(1.1798 -2.330668e-02 9.380000e-03 1 1337.0773 628.7116)" class="st1 st3">55.00</text>
	
</g>
<g id="_x38_">
	<polygon class="st0" points="1265.3,572.6 1313.4,572.7 1314.3,639 1265.1,641.5 	"/>

			<text transform="matrix(-5.371747e-02 -1.1789 0.998 -6.328000e-02 1273.1737 611.2734)" class="st1 st3">102.00</text>
	
			<text transform="matrix(0.9916 -2.039141e-02 1.475000e-02 0.9999 1286.559 604.4824)" class="st1 st2">38</text>
	
			<text transform="matrix(1.1798 -2.330668e-02 9.380000e-03 1 1278.9807 630.3867)" class="st1 st3">55.00</text>
	
</g>
<g id="_x39_">
	<path class="st0" d="M1209.3,573.8l48.1,0.1l-0.1,54.8c0,0-3.4,7.6,1.1,11.5c-36.9-0.1-49.2-0.1-49.2-0.1L1209.3,573.8z"/>
	
			<text transform="matrix(-8.519034e-02 -1.177 0.995 -0.1003 1217.7367 612.962)" class="st1 st3">102.00</text>
	
			<text transform="matrix(0.9845 -0.1201 8.721000e-02 0.9962 1232.5311 604.8796)" class="st1 st2">39</text>
	
			<text transform="matrix(1.1798 -2.330668e-02 9.380000e-03 1 1225.165 633.4354)" class="st1 st3">55.00</text>
	
</g>
<g id="_x40_">
	<polygon class="st0" points="1142.2,573.6 1139.8,631 1154.4,639.9 1201.3,640 1203.7,573.8 	"/>
	
			<text transform="matrix(0.9915 -2.254361e-02 1.632000e-02 0.9999 1163.5422 604.5711)" class="st1 st2">40</text>
	
		<text transform="matrix(3.135476e-02 -1.1797 0.9993 3.711005e-02 1147.453 617.6266)" class="st1 st3">102.00</text>
	
			<text transform="matrix(1.1798 -2.330668e-02 9.380000e-03 1 1159.474 633.437)" class="st1 st3">55.00</text>
	
</g>
<g id="_x30_">
	<path class="st0" d="M1702.6,572.4l48.1,0.1l11,66.3l-49.2,2.4c0,0,5.6-10.2-2.2-15.3C1705.9,623.4,1702.6,572.4,1702.6,572.4z"/>
	
			<text transform="matrix(-0.1721 -1.1675 0.9872 -0.1597 1719.8524 606.8253)" class="st1 st3">102.00</text>
	
			<text transform="matrix(0.9914 -2.856384e-02 2.067000e-02 0.9998 1728.2448 604.541)" class="st1 st2">30</text>
	
			<text transform="matrix(1.1795 3.835276e-02 -3.156000e-02 0.9995 1725.2706 626.6425)" class="st1 st3">55.00</text>
		
</g>
<g id="_x29_">
	<path class="st0" d="M1758.6,572.5l60.4,0.1l11,57.4l-12.3,8.9l-48.1,1.2c0,0,6.7-10.2-1.1-11.5
		C1766.3,627.4,1758.6,572.5,1758.6,572.5z"/>
	
			<text transform="matrix(0.7917 -0.8751 0.6215 0.7834 1815.3239 635.6425)" class="st1 st80">21.21</text>
	
			<text transform="matrix(0.9914 -2.856384e-02 2.067000e-02 0.9998 1790.5841 603.9769)" class="st1 st2">29</text>
	
			<text transform="matrix(-0.3176 -1.1365 0.9207 -0.3902 1824.3202 606.1647)" class="st1 st3">87.00</text>
	
			<text transform="matrix(-0.2894 -1.1441 0.9431 -0.3324 1777.9612 609.9791)" class="st1 st3">102.00</text>
	
			<text transform="matrix(1.1775 -7.835764e-02 4.770000e-02 0.9989 1781.2371 581.4761)" class="st1 st3">65.00</text>
	
			<text transform="matrix(1.1801 -6.160044e-03 3.740000e-03 1 1780.9346 632.5392)" class="st1 st3">50.00</text>
	
</g>
</svg>
