<?xml version="1.0" encoding="utf-8"?>
<!-- Generator: Adobe Illustrator 22.0.1, SVG Export Plug-In . SVG Version: 6.00 Build 0)  -->
<svg version="1.1" id="Layer_1" xmlns="http://www.w3.org/2000/svg" xmlns:xlink="http://www.w3.org/1999/xlink" x="0px" y="0px" width="100%" height="100%"
	 viewBox="0 0 2120.9 1172" style="enable-background:new 0 0 2120.9 1172;" xml:space="preserve">
<style type="text/css">
	.st0{fill:#FFFFFF;stroke:#ED1C24;stroke-width:0.25;stroke-miterlimit:10;}
	.st1{font-family:'calibri'; font-weight:500;}
	.st2{font-size:25px;}
</style>
<image style="overflow:visible;" width="3000" height="1259" xlink:href="/uploads/CentennialRun_V03.jpg"  transform="matrix(1 0 0 1 -327.0327 0)">
</image>
<g id="a">
	<polygon id="XMLID_5_" class="st0" points="447.4,858.8 431.1,1023 372.9,1023 392,858.8 	"/>
	<text id="XMLID_4_" transform="matrix(1 0 0 1 385.8267 947.8011)" class="st1 st2">0000</text>
</g>
<g id="b">
	<polygon id="XMLID_73_" class="st0" points="475.4,857.4 458.8,1023 517.7,1021.4 530.8,851.4 	"/>
	<text id="XMLID_6_" transform="matrix(1 0 0 1 470.4152 947.8007)" class="st1 st2">0000</text>
</g>
<g id="c">
	<polygon id="XMLID_74_" class="st0" points="559.4,849.4 616.1,845.1 602.7,1021 544.7,1021 	"/>
	<text id="XMLID_7_" transform="matrix(1 0 0 1 554.0263 947.8006)" class="st1 st2">0000</text>
</g>
<g id="d">
	<polygon id="XMLID_75_" class="st0" points="643.3,841.3 700,835.7 689,1021 631.3,1021 	"/>
	<text id="XMLID_8_" transform="matrix(1 0 0 1 640.606 947.8015)" class="st1 st2">0000</text>
</g>
<g id="e">
	<polygon id="XMLID_76_" class="st0" points="728.2,832.8 784.4,827.9 775.2,1021 717.7,1019.6 	"/>
	<text id="XMLID_9_" transform="matrix(1 0 0 1 724.6699 947.8005)" class="st1 st2">0000</text>
</g>
<g id="f">
	<polygon id="XMLID_77_" class="st0" points="802.7,1019.8 861.3,1019.8 867.6,824.1 811.3,826.2 	"/>
	<text id="XMLID_10_" transform="matrix(1 0 0 1 809.7654 950.8949)" class="st1 st2">0000</text>
</g>
<g id="g">
	<polygon id="XMLID_78_" class="st0" points="895.4,824.1 951,822 947.7,1019.8 888.7,1019.8 	"/>
	<text id="XMLID_11_" transform="matrix(1 0 0 1 895.3765 950.8948)" class="st1 st2">0000</text>
</g>
<g id="h">
	<polygon id="XMLID_79_" class="st0" points="1034.3,822 977.6,822 975,1017.7 1034.3,1017.7 	"/>
	<text id="XMLID_12_" transform="matrix(1 0 0 1 979.9562 953.9884)" class="st1 st2">0000</text>
</g>
<g id="i">
	<polygon id="XMLID_80_" class="st0" points="1061,821.4 1117.3,820.6 1119.2,1017.7 1061,1017.7 	"/>
	<text id="XMLID_13_" transform="matrix(1 0 0 1 1065.0515 953.9888)" class="st1 st2">0000</text>
</g>
<g id="j">
	<polygon id="XMLID_81_" class="st0" points="1140.2,815 1205,815 1209.7,1020.7 1142,1020.7 	"/>
	<text id="XMLID_14_" transform="matrix(1 0 0 1 1148.0841 953.9885)" class="st1 st2">0000</text>
</g>
<g id="k">
	<polygon id="XMLID_82_" class="st0" points="1223,813.8 1287.6,813.8 1295.6,1020.7 1226.8,1020.7 	"/>
	<text id="XMLID_15_" transform="matrix(1 0 0 1 1234.7267 957.0828)" class="st1 st2">0000</text>
</g>
<g id="l">
	<polygon id="XMLID_83_" class="st0" points="1305.2,813.8 1370.9,812.8 1380.7,1019 1313.8,1020.7 	"/>
	<text id="XMLID_16_" transform="matrix(1 0 0 1 1318.7906 959.146)" class="st1 st2">0000</text>
</g>
<g id="m">
	<polygon id="XMLID_84_" class="st0" points="1392.4,817.1 1450.2,816.2 1461.9,1013.7 1403.9,1014.8 	"/>
	<text id="XMLID_17_" transform="matrix(1 0 0 1 1403.8861 959.1457)" class="st1 st2">0000</text>
</g>
<g id="n">
	<polygon id="XMLID_85_" class="st0" points="1486.1,1017.7 1553.2,1017.7 1536.9,810.2 1471.3,811.5 	"/>
	<text id="XMLID_18_" transform="matrix(1 0 0 1 1488.9814 959.1461)" class="st1 st2">0000</text>
</g>
<g id="o">
	<path id="XMLID_86_" class="st0" d="M1553.2,810.2c0,0,17.3-1.7,25.6,0.9c8.3,2.6,10.1,2.4,18.5,11.5s8,9.5,14.9,14s7.4,5,8.9,5.2
		s2.3,0,2.3,0l16,175.2l-68.1,0.7L1553.2,810.2z"/>
	<text id="XMLID_19_" transform="matrix(1 0 0 1 1573.0454 961.7247)" class="st1 st2">0000</text>
</g>
<g id="p">
	<path id="XMLID_87_" class="st0" d="M1641,851.7c0,0,12.5,6.6,23.6,7.2c11.1,0.6,18.5,1.6,24.6,0s7.2-2,7.2-2l64,159.2l-103.5,1.7
		L1641,851.7z"/>
	<text id="XMLID_20_" transform="matrix(1 0 0 1 1666.9082 959.1462)" class="st1 st2">0000</text>
</g>
<g id="q">
	<path id="XMLID_88_" class="st0" d="M1782.5,1011.1l196.6-1.1l-3-19.9l-227.6-153.5c0,0-3.8,6.6-9.9,10.1s-8.3,4.4-13,6.1
		s-6.6,2.1-6.6,2.1L1782.5,1011.1z"/>
	<text id="XMLID_21_" transform="matrix(1 0 0 1 1775.7273 934.3922)" class="st1 st2">0000</text>
</g>
<g id="r">
	<path id="XMLID_90_" class="st0" d="M1770.8,782.9c0,0,1.2,18.9-3.5,26.7s-6.8,9.7-6.8,9.7l216.1,146.2L1947,781L1770.8,782.9z"/>
	<text id="XMLID_22_" transform="matrix(1 0 0 1 1838.1309 838.9821)" class="st1 st2">0000</text>
</g>
<g id="s">
	<path id="XMLID_91_" class="st0" d="M1741.5,712.8c0,0,7,5.9,12.2,11.7c7.3,8.1,11.8,16.1,13.7,24.4s2,9.8,2.3,13.8s0,5.6,0,5.6
		l175.1-2l-8.6-55.9L1741.5,712.8z"/>
	<text id="XMLID_23_" transform="matrix(1 0 0 1 1821.1118 745.635)" class="st1 st2">0000</text>
</g>
<g id="t">
	<path id="XMLID_89_" class="st0" d="M1701.3,643.5c0,0,3.5,37,5.7,41.2s4.5,6.4,7.6,9.9s3.1,3.5,3.1,3.5l216-2.2l-8.7-54.7
		L1701.3,643.5z"/>
	<text id="XMLID_24_" transform="matrix(1 0 0 1 1791.7153 676.0114)" class="st1 st2">0000</text>
</g>
<g id="u">
	<polygon id="XMLID_92_" class="st0" points="1693.1,564.4 1700.3,629.5 1922,627 1912,561.4 	"/>
	<text id="XMLID_25_" transform="matrix(1 0 0 1 1782.4321 601.7462)" class="st1 st2">0000</text>
</g>
<g id="v">
	<polygon id="XMLID_93_" class="st0" points="1684.5,487.4 1692.1,550.6 1909.9,548.1 1899.7,485.7 	"/>
	<text id="XMLID_26_" transform="matrix(1 0 0 1 1769.5386 523.3553)" class="st1 st2">0000</text>
</g>
<g id="w">
	<polygon id="XMLID_94_" class="st0" points="1676.6,411.8 1684.5,473.8 1897.4,472.3 1887.8,410.8 	"/>
	<text id="XMLID_27_" transform="matrix(1 0 0 1 1762.8345 449.0902)" class="st1 st2">0000</text>
</g>
<g id="x">
	<polygon id="XMLID_96_" class="st0" points="1669.1,339.4 1669.3,340.8 1676.6,399.3 1885.3,397.4 1875.7,337.3 	"/>
	<text id="XMLID_95_" transform="matrix(1 0 0 1 1751.0005 372.5759)" class="st1 st2">0000</text>
</g>
<g id="y">
	<path id="XMLID_97_" class="st0" d="M1629.5,267.4c0,0,13.6,4.8,19.5,11.9c5.9,7,11.2,12.4,14.3,21.8c3,9.4,3,9.4,3,9.4l2.9,16.4
		l204.9-0.9l-9.5-62.9L1629.5,267.4z"/>
	<text id="XMLID_29_" transform="matrix(1 0 0 1 1735.5005 301.0759)" class="st1 st2">0000</text>
</g>
<g id="z">
	<path id="XMLID_98_" class="st0" d="M1516.1,604.7l9.4,129l80.5-0.9c0,0,9-0.3,12.3-4s5.7-7.5,5.3-11.5c-0.3-4-0.8-6.5-0.8-6.5
		l-9.5-107.5L1516.1,604.7z"/>
	<text id="XMLID_36_" transform="matrix(1 0 0 1 1542.8866 666.0253)" class="st1 st2">0000</text>
</g>
<g id="_x31_">
	<polygon id="XMLID_28_" class="st0" points="1435,604.5 1499.1,604.5 1508.2,733.8 1443.5,734.4 	"/>
	<text id="XMLID_31_" transform="matrix(1 0 0 1 1445.9231 673.5931)" class="st1 st2">0000</text>
</g>
<g id="_x32_">
	<polygon id="XMLID_99_" class="st0" points="1354.9,605.4 1418.8,604.5 1425.9,734.4 1361.9,734.4 	"/>
	<text id="XMLID_37_" transform="matrix(1 0 0 1 1364.5898 676.0114)" class="st1 st2">0000</text>
</g>
<g id="_x33_">
	<polygon id="XMLID_100_" class="st0" points="1274.9,606.9 1338.3,606.3 1344,736.4 1279,736.4 	"/>
	<text id="XMLID_38_" transform="matrix(1 0 0 1 1282.5898 676.0117)" class="st1 st2">0000</text>
</g>
<g id="_x34_">
	<path id="XMLID_102_" class="st0" d="M1160.6,607.3h97.6l3.7,130.1l-80.4,1c0,0-11.2-1.4-14.9-6.4s-4.3-6.6-4.3-14s0-7.4,0-7.4
		L1160.6,607.3z"/>
	<text id="XMLID_39_" transform="matrix(1 0 0 1 1183.9231 676.0115)" class="st1 st2">0000</text>
</g>
<g id="_x35_">
	<polygon id="XMLID_101_" class="st0" points="1159,529.6 1160.6,594.1 1334.1,591.5 1330.9,527.8 	"/>
	<text id="XMLID_40_" transform="matrix(1 0 0 1 1219.9231 566.6781)" class="st1 st2">0000</text>
</g>
<g id="_x36_">
	<polygon id="XMLID_103_" class="st0" points="1157.6,453.7 1159.9,517 1329.9,514.8 1327.7,452.9 	"/>
	<text id="XMLID_41_" transform="matrix(1 0 0 1 1214.7266 489.6665)" class="st1 st2">0000</text>
</g>
<g id="_x37_">
	<polygon id="XMLID_104_" class="st0" points="1156.2,380.7 1157.6,441.5 1327.1,438.8 1324.4,378.7 	"/>
	<text id="XMLID_42_" transform="matrix(1 0 0 1 1214.7263 416.5704)" class="st1 st2">0000</text>
</g>
<g id="_x38_">
	<path id="XMLID_105_" class="st0" d="M1156.2,367.6c0,0-1.7-9.1-5-17.4s-4.3-15.4-4-19c0.4-3.6,0.9-6,0.9-6l170.7-70.5l4.8,111.9
		L1156.2,367.6"/>
	<text id="XMLID_43_" transform="matrix(1 0 0 1 1214.7261 334.5704)" class="st1 st2">0000</text>
</g>
<g id="_x39_">
	<path id="XMLID_107_" class="st0" d="M1140.4,261.4c0,0,13.4,4,16.8,11.3s5.3,11.3,5.5,21.3c0.2,10.1,0,11.7,0,11.7l155.2-64.4
		l-4.7-110.8h-17.6L1140.4,261.4z"/>
	<text id="XMLID_44_" transform="matrix(1 0 0 1 1214.726 233.9037)" class="st1 st2">0000</text>
</g>
<g id="_x31_0_">
	<path id="XMLID_106_" class="st0" d="M1070,243.2c0,0,16.7-2.4,27.5-1c10.9,1.4,15.3,1.9,21.6,4.9c6.3,3,9.1,5.8,9.1,5.8
		l145.1-120.8l-135.5,0.8L1070,243.2z"/>
	<text id="XMLID_45_" transform="matrix(1 0 0 1 1126.7261 191.2372)" class="st1 st2">0000</text>
</g>
<g id="_x31_1_">
	<path id="XMLID_108_" class="st0" d="M1047.8,250.6c0,0-3.1,3.3-15,0s-16.2-5.4-23.9-5.6c-7.7-0.3-9.7,0-9.7,0l1.9-110.7l119.8-1
		L1047.8,250.6z"/>
	<text id="XMLID_46_" transform="matrix(1 0 0 1 1016.7261 188.5706)" class="st1 st2">0000</text>
</g>
<g id="_x31_2_">
	<polygon id="XMLID_109_" class="st0" points="905.5,135 984.8,135 983.5,243.1 902.5,244.7 	"/>
	<text id="XMLID_47_" transform="matrix(1 0 0 1 916.0596 188.5706)" class="st1 st2">0000</text>
</g>
<g id="_x31_3_">
	<polygon id="XMLID_110_" class="st0" points="831.8,135.8 890.3,135.8 886.4,245.4 827.3,245.4 	"/>
	<text id="XMLID_48_" transform="matrix(1 0 0 1 833.5596 191.2374)" class="st1 st2">0000</text>
</g>
<g id="_x31_4_">
	<path id="XMLID_112_" class="st0" d="M811,245.4c0,0-12-0.7-24.3,1.7s-12.3,2.4-12.3,2.4l-9.8,3.3l-8.7-22.6l-16.6-93h75.4
		L811,245.4z"/>
	<text id="XMLID_49_" transform="matrix(1 0 0 1 756.0596 188.5707)" class="st1 st2">0000</text>
</g>
<g id="_x31_5_">
	<path id="XMLID_113_" class="st0" d="M597.9,139.4L702,257.3c0,0,12-4.8,21.2-2c9.2,2.8,10.4,4.8,17.4,3.7s8.6-1.8,8.6-1.8
		l-10.8-28.7l-15.8-91.6L597.9,139.4z"/>
	<text id="XMLID_50_" transform="matrix(1 0 0 1 664.7262 199.9039)" class="st1 st2">0000</text>
</g>
<g id="_x31_6_">
	<path id="XMLID_111_" class="st0" d="M684.9,261.7c0,0-12.4,1.6-21.3,7.6c-8,5.4-9.4,9.9-11.4,13.7s-2.7,4.9-2,8.2
		c0.7,3.3,0.9,8,0.9,8l-122.5-74.1l-25.8-16.4c0,0-3.8-5.8-2.1-18.1c1.7-12.2,4.7-50.6,4.7-50.6l72.7-1.3L684.9,261.7z"/>
	<text id="XMLID_51_" transform="matrix(1 0 0 1 568.0596 228.5706)" class="st1 st2">0000</text>
</g>
<g id="_x31_7_">
	<path id="XMLID_114_" class="st0" d="M642.8,301.1c0,0-3.9,6.5-2.9,11.2c1,4.6,3.9,8.3,3.6,13.3s0,7.5,0,7.5l-157.4,2.2l12.5-120.8
		L642.8,301.1z"/>
	<text id="XMLID_52_" transform="matrix(1 0 0 1 530.7262 301.0759)" class="st1 st2">0000</text>
</g>
<g id="_x31_8_">
	<path id="XMLID_116_" class="st0" d="M637.8,345.8c0,0-10.8,15.4-12.4,29c-1.6,13.6-1.7,20.7-1.7,20.7L479,397.2l5.2-49.3
		L637.8,345.8z"/>
	<text id="XMLID_53_" transform="matrix(1 0 0 1 525.393 374.8254)" class="st1 st2">0000</text>
</g>
<g id="_x31_9_">
	<polygon id="XMLID_115_" class="st0" points="622,408.2 618.7,459.4 471.8,460.7 477.2,409.6 	"/>
	<text id="XMLID_54_" transform="matrix(1 0 0 1 513.393 441.4921)" class="st1 st2">0000</text>
</g>
<g id="_x32_0_">
	<polygon id="XMLID_119_" class="st0" points="470.4,474.5 616.8,471.9 613.1,524.4 464.8,525.9 470.4,474.5 470.4,473.6 	"/>
	<text id="XMLID_55_" transform="matrix(1 0 0 1 509.3929 504.8255)" class="st1 st2">0000</text>
</g>
<g id="_x32_1_">
	<polygon id="XMLID_117_" class="st0" points="463.1,539.1 458.3,591.7 608,591.4 611.9,537.7 	"/>
	<text id="XMLID_56_" transform="matrix(1 0 0 1 502.726 569.4921)" class="st1 st2">0000</text>
</g>
<g id="_x32_2_">
	<polygon id="XMLID_118_" class="st0" points="456,605.8 451.2,660 601.8,658.8 605.8,603.8 	"/>
	<text id="XMLID_57_" transform="matrix(1 0 0 1 498.726 639.4921)" class="st1 st2">0000</text>
</g>
<g id="_x32_3_">
	<path id="XMLID_120_" class="st0" d="M450.1,675.1l-12.3,101.6c0,0,40.3-3.1,69.6-4.8s15.5-1,33.8-2.5s40.7-2,46.5-4.5
		s13.5-5,14.8-11.3s1.7-10.8,0.7-28.5s-1.5-52.7-1.5-52.7L450.1,675.1z"/>
	<text id="XMLID_58_" transform="matrix(1 0 0 1 490.726 725.4921)" class="st1 st2">0000</text>
</g>
<g id="_x32_4_">
	<polygon id="XMLID_121_" class="st0" points="343.7,142.4 335.2,218.9 475.9,216.1 482.9,139.7 	"/>
	<text id="XMLID_71_" transform="matrix(1 0 0 1 381.1675 188.5704)" class="st1 st2">0000</text>
</g>
<g id="_x32_5_">
	<polygon id="XMLID_122_" class="st0" points="125.8,146.7 113.9,222.9 255,221.3 265.2,144.2 	"/>
	<text id="XMLID_72_" transform="matrix(1 0 0 1 160.7062 191.2377)" class="st1 st2">0000</text>
</g>
<g id="_x32_6_">
	<path id="XMLID_123_" class="st0" d="M689.1,613.7c0,0-2.5,46.2-1.8,62.3c0.6,16.1,1.2,41.3,4.5,52.8s3.9,21.5,11.1,23
		c7.2,1.5,7.8,2.7,31.6,0c23.8-2.7,54.6-6.2,54.6-6.2l4.1-79.6l1.8-53.3L689.1,613.7z"/>
	<text id="XMLID_59_" transform="matrix(1 0 0 1 715.627 682.8305)" class="st1 st2">0000</text>
</g>
<g id="_x32_7_">
	<polygon id="XMLID_124_" class="st0" points="694.5,546.7 691.2,600 876.8,597.8 876.8,544.9 	"/>
	<text id="XMLID_63_" transform="matrix(1 0 0 1 748.5785 576.5536)" class="st1 st2">0000</text>
</g>
<g id="_x32_8_">
	<polygon id="XMLID_125_" class="st0" points="698.2,480.5 695.1,533.1 879,530.7 879,478.5 	"/>
	<text id="XMLID_64_" transform="matrix(1 0 0 1 756.0593 513.4555)" class="st1 st2">0000</text>
</g>
<g id="_x32_9_">
	<polygon id="XMLID_127_" class="st0" points="703.1,416.6 699.8,467 880.9,465.7 881.7,451.4 866,416 	"/>
	<text id="XMLID_65_" transform="matrix(1 0 0 1 756.0598 449.0902)" class="st1 st2">0000</text>
</g>
<g id="_x33_0_">
	<path id="XMLID_126_" class="st0" d="M867.5,306.9l-3.8,95l-160.8,2.2c0,0-4.7-32.1,18.2-53.1c22.8-21,30.6-31.7,57.4-36.8
		s39.4-6.2,53.8-6.2S867.5,306.9,867.5,306.9z"/>
	<text id="XMLID_66_" transform="matrix(1 0 0 1 766.259 364.3577)" class="st1 st2">0000</text>
</g>
<g id="_x33_1_">
	<polygon id="XMLID_129_" class="st0" points="883.8,306.9 881.7,415 896.8,444.1 957.3,442.9 960.5,306.9 	"/>
	<text id="XMLID_67_" transform="matrix(1 0 0 1 895.3766 374.8251)" class="st1 st2">0000</text>
</g>
<g id="_x33_2_">
	<path id="XMLID_130_" class="st0" d="M976,306.9c0,0,24.3-0.2,34.3,3.4s17.6,5.6,25.3,11s17.1,12.2,21.5,18.2s11.6,14.7,13.6,21.7
		s5,15.3,5.8,21.4s0.5,17.4,0.6,24.4s0,35.3,0,35.3l-103.3,0.9L976,306.9z"/>
	<text id="XMLID_68_" transform="matrix(1 0 0 1 991.8774 378.7479)" class="st1 st2">0000</text>
</g>
<g id="_x33_3_">
	<polygon id="XMLID_128_" class="st0" points="895.4,519.7 897.8,456.4 1076.2,455 1076.2,517.8 	"/>
	<text id="XMLID_69_" transform="matrix(1 0 0 1 955.7878 495.6473)" class="st1 st2">0000</text>
</g>
<g id="_x33_4_">
	<polygon id="XMLID_131_" class="st0" points="895.4,532.8 893.7,597.1 1077,595.4 1076.2,531.5 894.6,533.1 	"/>
	<text id="XMLID_70_" transform="matrix(1 0 0 1 955.7876 569.4919)" class="st1 st2">0000</text>
</g>
<g id="_x33_5_">
	<path id="XMLID_133_" class="st0" d="M812.9,612.7L807,744c0,0,38.1-2.6,50.7-2.6s14.6,0.5,14.6,0.5l3.5-130.4L812.9,612.7z"/>
	<text id="XMLID_60_" transform="matrix(1 0 0 1 814.8557 682.8308)" class="st1 st2">0000</text>
</g>
<g id="_x33_6_">
	<polygon id="XMLID_132_" class="st0" points="892.3,611.6 888.8,741 954.5,741 955.8,611.6 	"/>
	<text id="XMLID_61_" transform="matrix(1 0 0 1 895.3762 682.8306)" class="st1 st2">0000</text>
</g>
<g id="_x33_7_">
	<path id="XMLID_134_" class="st0" d="M972.8,611.6L971,739.8h87.8c0,0,7.3,1,11.6-3.9c4.3-4.9,5.8-7.8,6-9.4c0.3-1.7,0-2.8,0-2.8
		l0.1-114.7H972.4L972.8,611.6z"/>
	<text id="XMLID_62_" transform="matrix(1 0 0 1 998.465 679.7462)" class="st1 st2">0000</text>
</g>
<g id="_x33_8_">
	<polygon id="XMLID_135_" class="st0" points="1348.6,527.8 1351.4,592.3 1611.7,589.2 1606.1,524.6 	"/>
	<text id="XMLID_35_" transform="matrix(1 0 0 1 1458.406 561.4496)" class="st1 st2">0000</text>
</g>
<g id="_x33_9_">
	<polygon id="XMLID_136_" class="st0" points="1344.1,451.9 1348.6,513.5 1605,511.8 1599.2,449.1 	"/>
	<text id="XMLID_34_" transform="matrix(1 0 0 1 1450.1362 485.6666)" class="st1 st2">0000</text>
</g>
<g id="_x34_0_">
	<path id="XMLID_137_" class="st0" d="M1341.5,378.7l2.6,60.9l253.3-3.5c0,0,0.3-32.3-5-39.9c-5.2-7.6-8-11.4-13-14.9s-8-5.2-8-5.2
		L1341.5,378.7z"/>
	<text id="XMLID_33_" transform="matrix(1 0 0 1 1440.5116 412.5704)" class="st1 st2">0000</text>
</g>
<g id="_x34_1_">
	<path id="XMLID_139_" class="st0" d="M1525.4,304.2c0,0-6.2,9.9-6.7,17.4s-0.5,10.8,2.6,16.3s5.9,8.1,9.8,13.3s9.1,11.8,9.1,11.8
		l-200.5,2.6l-2.5-59.9L1525.4,304.2z"/>
	<text id="XMLID_32_" transform="matrix(1 0 0 1 1413.2094 339.4188)" class="st1 st2">0000</text>
</g>
<g id="_x34_2_">
	<path id="XMLID_140_" class="st0" d="M1554.5,125.7l-228.5,4.7l10.1,161.7l196.6-2.4c0,0,4.2-7.2,12.8-12.1s11.9-7.3,16.6-7.8
		s6.5-0.5,6.5-0.5L1554.5,125.7z"/>
	<text id="XMLID_30_" transform="matrix(1 0 0 1 1418.7208 208.6622)" class="st1 st2">0000</text>
</g>
</svg>
