<?xml version="1.0" encoding="utf-8"?>
<!-- Generator: Adobe Illustrator 22.0.1, SVG Export Plug-In . SVG Version: 6.00 Build 0)  -->
<svg version="1.1" xmlns="http://www.w3.org/2000/svg" xmlns:xlink="http://www.w3.org/1999/xlink" x="0px" y="0px"
	 viewBox="0 0 3333 2500" style="enable-background:new 0 0 3333 2500;" xml:space="preserve"  width="100%" height="80%">
<style type="text/css">
	.st0{fill:#FFD2DF;}
	.st1{display:none;}
	.st2{font-family:'ArialMT';}
	.st3{font-size:72px !important;}
</style>

	
		<image style="overflow:visible;" width="3333" height="2500" xlink:href="dashboard/plat-data/cottage.jpg" transform="matrix(1 0 0 0.9999 0 0)">
	</image>

<g id="_x1_">
	<polygon class="st0" points="880,382 869,461 545,464 562,384 	"/>
	<text transform="matrix(1 0 0 1 701 432)" class="st2 st3">1</text>
</g>
<g id="_x2_">
	<polygon class="st0" points="865,490 854,573 521,577 538,493 	"/>
	<text transform="matrix(1 0 0 1 683 548.3335)" class="st2 st3">2</text>
</g>
<g id="_x3_">
	<polygon class="st0" points="850,603 839,690 497,694 514,606 	"/>
	<text transform="matrix(1 0 0 1 666 665)" class="st2 st3">3</text>
</g>
<g id="_x4_">
	<polygon class="st0" points="835,722 823,812 471,816 489,725 	"/>
	<text transform="matrix(1 0 0 1 650 785)" class="st2 st3">4</text>
</g>
<g id="_x5_">
	<polygon class="st0" points="819,845 807,940 444,944 462,848 	"/>
	<text transform="matrix(1 0 0 1 630.6421 909.6089)" class="st2 st3">5</text>
</g>
<g id="_x6_">
	<path class="st0" d="M435,978l368-4c0,0-11,79-7,97l-387,37L435,978z"/>
	<text transform="matrix(1 0 0 1 609.6436 1045.6021)" class="st2 st3">6</text>
</g>
<g id="_x7_">
	<path class="st0" d="M495,1137l308-31c0,0,3,65,28,99l36,53l-31,20c0,0-87-24-160,13l-33,19L495,1137z"/>
	<text transform="matrix(1 0 0 1 683 1208)" class="st2 st3">7</text>
</g>
<g id="_x8_">
	<path class="st0" d="M401,1146l39-4l166,194c0,0-74,43-77,108l-190-4L401,1146z"/>
	<text transform="matrix(1 0 0 1 440 1336)" class="st2 st3">8</text>
</g>
<g id="_x9_">
	<path class="st0" d="M330,1480l191,6c0,0-18,97,37,117l-301,228L330,1480z"/>
	<text transform="matrix(1 0 0 1 375 1608)" class="st2 st3"> 9</text>
</g>
<g id="_x10_">
	<path class="st0" d="M243,1897l345-266c0,0,42,51,110,41l-51,246l-409,4L243,1897z"/>
	<text transform="matrix(1 0 0 1 498.1475 1812.0635)" class="st2 st3">10</text>
</g>
<g id="_x11_">
	<path class="st0" d="M747,1674c0,0,82,3,124-41l196,237l-17,41l-351,5L747,1674z"/>
	<text transform="matrix(1 0 0 1 822.1328 1813.5615)" class="st2 st3">11</text>
</g>
<g id="_x12_">
	<path class="st0" d="M911,1605l178,213l102-249c0,0-27-4-63-37l-62-59l-48-52l-29,22c0,0,4,55-17,93C972,1536,946,1584,911,1605z"
		/>
	<text transform="matrix(1 0 0 1 1025.6226 1619.0732)" class="st2 st3">12</text>
</g>
<g id="_x13_">
	<path class="st0" d="M1231,1590c0,0,60,31,129,41l-36,277l-220,3L1231,1590z"/>
	<text transform="matrix(1 0 0 1 1225.1128 1788.0635)" class="st2 st3">13</text>
</g>
<g id="_x14_">
	<path class="st0" d="M1409,1638c0,0,66,12,112,7h74l-1,260l-218,3L1409,1638z"/>
	<text transform="matrix(1 0 0 1 1464.6011 1793.5635)" class="st2 st3">14</text>
</g>
<g id="_x15_">
	<polygon class="st0" points="1643,1644 1844,1641 1853,1902 1645,1904 	"/>
	<text transform="matrix(1 0 0 1 1722.0889 1793.5635)" class="st2 st3">15</text>
</g>
<g id="_x16_">
	<polygon class="st0" points="1893,1641 2093,1641 2114,1897 1903,1901 	"/>
	<text transform="matrix(1 0 0 1 1979 1785)" class="st2 st3">16</text>
</g>
<g id="_x17_">
	<path class="st0" d="M1273,1321l48,38c0,0,52,49,140,52l104.8,2l153.3-1l-243-232L1273,1321z"/>
	<text transform="matrix(1 0 0 1 1442 1320)" class="st2 st3">17</text>
</g>
<g id="_x18_">
	<polygon class="st0" points="1123,1175 1326,1041 1446,1153 1242,1293 	"/>
	<text transform="matrix(1 0 0 1 1254.1108 1172.0942)" class="st2 st3">18</text>
</g>
<g id="_x19_">
	<path class="st0" d="M1050,923c0,0-10,93-3,125c0,0,6,43,32,68l20,29l200-131l-99-93L1050,923z"/>
	<text transform="matrix(1 0 0 1 1112.1172 1026.1021)" class="st2 st3">19</text>
</g>
<g id="_x20_">
	<path class="st0" d="M1221,886l-8-8l93-142c0,0-19-17-95-15l-143,2l-15,165L1221,886z"/>
	<text transform="matrix(1 0 0 1 1117 819)" class="st2 st3">20</text>
</g>
<g id="_x21_">
	<path class="st0" d="M1347,748c0,0,32,4,67,40l97,87l-173,119l-95-88L1347,748z"/>
	<text transform="matrix(1 0 0 1 1331.6079 892.1089)" class="st2 st3">21</text>
</g>
<g id="_x22_">
	<polygon class="st0" points="1365,1022 1539,900 1671,1019 1496,1143 	"/>
	<text transform="matrix(1 0 0 1 1478.1001 1027.1025)" class="st2 st3">22</text>
</g>
<g id="_x23_">
	<polygon class="st0" points="1526,1171 1701,1044 1838,1166 1663,1298 	"/>
	<text transform="matrix(1 0 0 1 1645.0913 1182.5938)" class="st2 st3">23</text>
</g>
<g id="_x24_">
	<path class="st0" d="M1694,1330l176-135l145,138c0,0,48,39,46,76l-279,3L1694,1330z"/>
	<text transform="matrix(1 0 0 1 1825.583 1337.5859)" class="st2 st3"></text>
</g>
<g id="_x25_">
	<polygon class="st0" points="2377,1757 2377.3,1759 2395,1900 2648,1898 2655,1943 2758,1943 2724,1751 	"/>
	<text transform="matrix(1 0 0 1 2538 1840)" class="st2 st3"></text>
</g>
<g id="_x28_">
	<polygon class="st0" points="2706,1645 2366,1651 2352,1535 2679,1495 	"/>
	<text transform="matrix(1 0 0 1 2505.5547 1598.5908)" class="st2 st3"></text>

</g>
<g id="_x29_">
	<path class="st0" d="M2323,1383l319-71l9,15l20,126l-323,40C2348,1493,2346,1415,2323,1383z"/>
	<text transform="matrix(1 0 0 1 2477.5508 1424.082)" class="st2 st3"></text>

	
</g>
<g id="_x30_">
	<path class="st0" d="M2240,1235l176-104l192,147l-299,65C2309,1343,2287,1278,2240,1235z"/>
		<text transform="matrix(1 0 0 1 2377.5547 1261.0908)" class="st2 st3"></text>
	
	
</g>
<g id="_x27_">
	<polygon class="st0" points="2983,1646 2800.5,1647.5 2743,1351 2943,1461 	"/>
		<text transform="matrix(1 0 0 1 2841 1544)" class="st2 st3"></text>
	
</g>
<g id="_x26_">
	<polygon class="st0" points="2819.5,1750.5 3118.5,1747.5 3162.5,1934.5 2855.5,1940.5 	"/>

		<text transform="matrix(1 0 0 1 2957 1857)" class="st2 st3"></text>
</g>
<g id="_x31_">
	<polygon class="st0" points="2383,1105 2210.9,1202.1 2047.9,1058.1 2185,953 	"/>
	<text transform="matrix(1 0 0 1 2167.0654 1093.5991)" class="st2 st3"></text>
</g>
<g id="_x32_">
	<polygon class="st0" points="2153,929 2018,1031 1849,888 1977,795 	"/>
	<text transform="matrix(1 0 0 1 1963.0752 925.1079)" class="st2 st3">32</text>
</g>
<g id="_x33_">
	<polygon class="st0" points="1950,768 1815,863 1664,733 1841,611 	"/>
	<text transform="matrix(1 0 0 1 1781 756)" class="st2 st3">33</text>
</g>
<g id="_x34_">
	<polygon class="st0" points="1816,585 1635,706 1537,628 1678,489 	"/>
	<text transform="matrix(1 0 0 1 1632 616)" class="st2 st3">34</text>
</g>
<g id="_x35_">
	<path class="st0" d="M1419,579l104-192c0,0,96,25,148,59l-169,166C1502,612,1455,585,1419,579z"/>
	<text transform="matrix(1 0 0 1 1497 520)" class="st2 st3">35</text>
</g>
<g id="_x36_">
	<path class="st0" d="M1276,551c0,0,55,0,105,17l105-190l-6-2l-178,2L1276,551z"/>
	<text transform="matrix(1 0 0 1 1326 483)" class="st2 st3">36</text>
</g>
<g id="_x37_">
	<polygon class="st0" points="1263,378 1235,551 1084,551 1099,380 	"/>
	<text transform="matrix(1 0 0 1 1143 479)" class="st2 st3">37</text>
</g>
</svg>
