<?xml version="1.0" encoding="utf-8"?>
<!-- Generator: Adobe Illustrator 23.0.5, SVG Export Plug-In . SVG Version: 6.00 Build 0)  -->
<svg version="1.1" id="_x30_0.RGB_x5F_color.0000_xA0_Image"
	 xmlns="http://www.w3.org/2000/svg" xmlns:xlink="http://www.w3.org/1999/xlink" x="0px" y="0px" width="100%" height="100%"
	 viewBox="0 0 645.7 228" style="enable-background:new 0 0 645.7 228;" xml:space="preserve">
<style type="text/css">
	.st0{fill:none;stroke:#ED1C24;stroke-width:0.15;stroke-miterlimit:10;}
	.st1{fill:#010101;}
	.st2{font-family: 'calibri'; font-weight: 600;}
	.st3{font-size:4px;}
	.st4{font-size:4.0012px;}
	.st5{font-size:3.9994px;}
	.st6{font-size:4.0006px;}
	.st7{font-size:3.9988px;}
	.st8{font-size:3.9992px;}
	.st9{font-size:4.0008px;}
	.st10{fill:#9E9E9E;}
	.st11{font-size:9.6496px;}
</style>
<image style="overflow:visible;enable-background:new;" width="2000" height="839" xlink:href="/uploads/crh.jpg"  transform="matrix(0.4047 0 0 0.4047 -83.4447 -45.4801)">
</image>
<g id="_x31_">
	<polygon class="st0" points="61.1,78.8 63,64.4 72.4,64.4 70.7,78.9 	"/>
	<text transform="matrix(0.9849 -0.1733 0.1733 0.9849 63.1083 73.7939)" class="st1 st2 st3">0000</text>
</g>
<g id="_x32_">
	<polygon class="st0" points="72.7,78.8 74.7,64.4 84.4,64.5 82.7,78.9 	"/>
	<text transform="matrix(0.9808 -0.1949 0.1949 0.9808 74.7949 74.3024)" class="st1 st2 st3">0000</text>
</g>
<g id="_x33_">
	<polygon class="st0" points="85,78.8 87,64.4 96.3,64.4 94.6,78.9 	"/>
	<text transform="matrix(0.9832 -0.1824 0.1824 0.9832 86.7233 74.1154)" class="st1 st2 st3">0000</text>
</g>
<g id="_x34_">
	<polygon class="st0" points="97,78.7 98.7,64.4 108,64.3 106.5,78.9 	"/>
	<text transform="matrix(0.9867 -0.1625 0.1625 0.9867 98.8419 74.0001)" class="st1 st2 st3">0000</text>
</g>
<g id="_x35_">
	<polygon class="st0" points="108.9,78.8 110.5,64.4 120.2,64.5 118.8,78.8 	"/>
	<text transform="matrix(0.9771 -0.2128 0.2128 0.9771 110.8267 74.1698)" class="st1 st2 st3">0000</text>
</g>
<g id="_x36_">
	<polygon class="st0" points="121.2,78.8 122.7,64.5 132,64.4 130.9,78.9 	"/>
	<text transform="matrix(0.9862 -0.1656 0.1656 0.9862 122.8601 74.1003)" class="st1 st2 st3">0000</text>
</g>
<g id="_x37_">
	<polygon class="st0" points="58.5,97.5 60.4,83.1 70,83 68.1,97.7 	"/>
	<text transform="matrix(0.987 -0.1609 0.1609 0.987 60.5023 91.755)" class="st1 st2 st3">0000</text>
</g>
<g id="_x38_">
	<polygon class="st0" points="70.4,97.4 72.4,83.1 82.3,83.1 80.5,97.7 	"/>
	<text transform="matrix(0.9902 -0.1397 0.1397 0.9902 72.5208 91.6087)" class="st1 st2 st3">0000</text>
</g>
<g id="_x39_">
	<polygon class="st0" points="82.8,97.3 84.6,83 93.8,83 92.4,97.5 	"/>
	<text transform="matrix(0.9909 -0.1344 0.1344 0.9909 84.538 91.4998)" class="st1 st2 st3">0000</text>
</g>
<g id="_x40_">
	<polygon class="st0" points="94.8,97.5 96.5,83 106.1,83.1 104.4,97.7 	"/>
	<text transform="matrix(0.9876 -0.1571 0.1571 0.9876 96.7102 91.8533)" class="st1 st2 st3">0000</text>
</g>
<g id="A">
	<polygon class="st0" points="106.7,97.5 108.3,83.1 118.1,83.2 116.6,97.6 	"/>
	<text transform="matrix(0.99 -0.1411 0.1411 0.99 108.6222 91.8791)" class="st1 st2 st3">0000</text>
</g>
<g id="B">
	<polygon class="st0" points="119.1,97.5 120.7,82.9 130.1,83 128.6,97.6 	"/>
	<text transform="matrix(0.9884 -0.1522 0.1522 0.9884 120.9196 91.948)" class="st1 st2 st4">0000</text>
</g>
<g id="C">
	<polygon class="st0" points="124,40.6 125.6,26.2 134.9,26.2 133.7,42.7 125.7,42.7 	"/>
	<text transform="matrix(0.982 -0.1887 0.1887 0.982 125.8048 36.6625)" class="st1 st2 st5">0000</text>
</g>
<g id="D">
	<polygon class="st0" points="135.7,42.5 137.1,26.2 146.8,26.1 144.9,42.6 	"/>
	<text transform="matrix(0.9763 -0.2163 0.2163 0.9763 137.4023 36.6289)" class="st1 st2 st3">0000</text>
</g>
<g id="E">
	<polygon class="st0" points="147.3,42.5 148.6,26.1 158.1,26.2 156.6,42.7 	"/>
	<text transform="matrix(0.9719 -0.2354 0.2354 0.9719 148.9368 36.9668)" class="st1 st2 st3">0000</text>
</g>
<g id="F">
	<polygon class="st0" points="158.7,42.8 160.2,26.1 169.6,26.2 168.1,42.8 	"/>
	<text transform="matrix(0.9656 -0.2599 0.2599 0.9656 160.3274 37.239)" class="st1 st2 st5">0000</text>
</g>
<g id="G">
	<polygon class="st0" points="170.5,42.9 171.6,25.9 181.5,26.1 180.3,43 	"/>
	<text transform="matrix(0.9621 -0.2728 0.2728 0.9621 172.2812 36.8808)" class="st1 st2 st3">0000</text>
</g>
<g id="H">
	<polygon class="st0" points="182.6,42.7 183.6,26.3 195.6,26.2 192,43.2 	"/>
	<text transform="matrix(0.9821 -0.1884 0.1884 0.9821 184.7217 36.6196)" class="st1 st2 st3">0000</text>
</g>
<g id="I">
	<polygon class="st0" points="194,43.4 197.8,26.1 210.7,26.3 203.2,45.1 	"/>
	<text transform="matrix(0.9929 -0.1187 0.1187 0.9929 197.3905 36.8432)" class="st1 st2 st3">0000</text>
</g>
<g id="J">
	<polygon class="st0" points="205.2,45.4 212.6,26.3 225.7,26.4 214,48.2 	"/>
	<text transform="matrix(1 0 0 1 210.157 37.9361)" class="st1 st2 st3">0000</text>
</g>
<g id="K">
	<polygon class="st0" points="215.8,48.8 228.1,26.1 238,26.4 224.6,52 	"/>
	<text transform="matrix(1 0 0 1 222.0271 40.693)" class="st1 st2 st3">0000</text>
</g>
<g id="L">
	<polygon class="st0" points="226.3,52.6 240.3,26.2 251.2,26.4 235.8,56 	"/>
	<text transform="matrix(0.9997 -2.602590e-02 2.602590e-02 0.9997 233.7182 42.8691)" class="st1 st2 st4">0000</text>
</g>
<g id="M">
	<polygon class="st0" points="237.6,56.4 253.5,26.1 263.7,26.2 246.6,59.6 	"/>
	<text transform="matrix(0.999 4.502016e-02 -4.502016e-02 0.999 244.9879 45.2418)" class="st1 st2 st3">0000</text>
</g>
<g id="N">
	<polygon class="st0" points="248.3,60.3 265.9,26.2 275.9,26.4 256.9,63.5 	"/>
	<text transform="matrix(1 0 0 1 256.5759 47.6676)" class="st1 st2 st3">0000</text>
</g>
<g id="O">
	<polygon class="st0" points="259,64.1 265.5,51 274.7,54.3 267.6,67.3 	"/>
	<text transform="matrix(1 0 0 1 262.8366 60.0126)" class="st1 st2 st3">0000</text>
</g>
<g id="P">
	<polygon class="st0" points="269.5,67.8 276.7,54.8 286.6,58.5 278.4,71.6 	"/>
	<text transform="matrix(1 0 0 1 274.1089 64.2531)" class="st1 st2 st3">0000</text>
</g>
<g id="Q">
	<polygon class="st0" points="280.5,72.4 288.7,59.1 297.7,62.1 288.7,76.3 	"/>
	<text transform="matrix(1 0 0 1 285.2158 67.9018)" class="st1 st2 st3">0000</text>
</g>
<g id="R">
	<polygon class="st0" points="290.9,77.1 299.4,63.7 308,67.6 299.7,81.3 	"/>
	<text transform="matrix(1 0 0 1 295.524 73.3641)" class="st1 st2 st3">0000</text>
</g>
<g id="S">
	<polygon class="st0" points="185.4,77 188.3,65 195.3,66 200.2,67.7 193.5,80.2 	"/>
	<text transform="matrix(1 0 0 1 188.423 72.8216)" class="st1 st2 st3">0000</text>
</g>
<g id="T">
	<polygon class="st0" points="195.5,81.2 202.5,68.4 210.9,71.5 204,84.6 	"/>
	<text transform="matrix(1 0 0 1 199.7478 77.0216)" class="st1 st2 st3">0000</text>
</g>
<g id="U">
	<polygon class="st0" points="206.3,85.3 213.2,72.2 221.7,75.3 214.9,88.2 210.6,87.1 	"/>
	<text transform="matrix(1 0 0 1 210.3909 80.9374)" class="st1 st2 st3">0000</text>
</g>
<g id="V">
	<polygon class="st0" points="217.3,89 223.9,76.1 233.1,79.4 226.8,91.7 	"/>
	<text transform="matrix(1 0 0 1 221.607 84.752)" class="st1 st2 st3">0000</text>
</g>
<g id="W">
	<polygon class="st0" points="228.8,92.4 235.2,80.1 243.9,83.3 237.8,95 	"/>
	<text transform="matrix(1 0 0 1 232.799 88.6798)" class="st1 st2 st3">0000</text>
</g>
<g id="X">
	<polygon class="st0" points="240,95.8 246,84 255,87.3 248.9,98.2 	"/>
	<text transform="matrix(1 0 0 1 243.6425 92.2798)" class="st1 st2 st3">0000</text>
</g>
<g id="Y">
	<polygon class="st0" points="251,99.3 257.1,88 266.9,92 258.9,105.5 	"/>
	<text transform="matrix(1 0 0 1 254.8336 96.6832)" class="st1 st2 st3">0000</text>
</g>
<g id="Z">
	<polygon class="st0" points="260.6,106.6 268.8,92.9 277.7,97 269.2,110.3 262.8,108.6 	"/>
	<text transform="matrix(1 0 0 1 265.5072 102.4807)" class="st1 st2 st3">0000</text>
</g>
<g id="_x60_">
	<polygon class="st0" points="271.6,110.9 279.6,97.7 288,101.6 281,113.5 	"/>
	<text transform="matrix(1 0 0 1 276.3519 107.159)" class="st1 st2 st3">0000</text>
</g>
<g id="a">
	<polygon class="st0" points="283.2,114 290.1,102.7 299.1,106.6 293.6,117.8 288.1,115.4 	"/>
	<text transform="matrix(1 0 0 1 287.7583 111.6553)" class="st1 st2 st3">0000</text>
</g>
<g id="b">
	<polygon class="st0" points="295.8,118.6 301.4,107.3 311.1,110.7 306.6,123.4 	"/>
	<text transform="matrix(1 0 0 1 299.7964 115.9576)" class="st1 st2 st3">0000</text>
</g>
<g id="c">
	<polygon class="st0" points="329,131.9 332.1,114.9 342.1,116 340.8,134.3 	"/>
	<text transform="matrix(0.9952 -9.784656e-02 9.784656e-02 0.9952 331.836 125.6496)" class="st1 st2 st3">0000</text>
</g>
<g id="d">
	<polygon class="st0" points="343.2,134.8 344.6,116 354.5,116.5 353.5,135.2 346.1,135.4 	"/>
	<text transform="matrix(0.9867 -0.1624 0.1624 0.9867 345.1996 127.5626)" class="st1 st2 st3">0000</text>
</g>
<g id="e">
	<polygon class="st0" points="356.3,135.1 357.1,116.7 366.5,117.1 365.9,135.1 	"/>
	<text transform="matrix(0.9905 -0.1375 0.1375 0.9905 357.736 127.5803)" class="st1 st2 st3">0000</text>
</g>
<g id="f">
	<polygon class="st0" points="368.5,134.5 369.4,117.3 378.8,117.7 378.1,134.3 	"/>
	<text transform="matrix(0.9898 -0.1425 0.1425 0.9898 369.8073 127.5992)" class="st1 st2 st3">0000</text>
</g>
<g id="g">
	<polygon class="st0" points="380.5,134.4 381.3,117.8 390.8,118.4 390.4,135.1 387.5,134.2 	"/>
	<text transform="matrix(0.9933 -0.1159 0.1159 0.9933 382.0569 127.59)" class="st1 st2 st4">0000</text>
</g>
<g id="h">
	<polygon class="st0" points="404.3,139.5 404.5,119.2 414.7,119 417.1,136.3 405.3,139.7 	"/>
	<text transform="matrix(0.9831 -0.1831 0.1831 0.9831 406.4706 130.3484)" class="st1 st2 st3">0000</text>
</g>
<g id="i">
	<polygon class="st0" points="420,135.3 417,118.8 426.6,117.3 431.5,131.9 	"/>
	<text transform="matrix(0.989 -0.1477 0.1477 0.989 420.2453 128.1195)" class="st1 st2 st5">0000</text>
</g>
<g id="j">
	<polygon class="st0" points="434.1,131.1 429.1,116.7 438.1,114 445.3,130.1 441.1,129.2 	"/>
	<text transform="matrix(0.9938 -0.1115 0.1115 0.9938 432.8087 124.6316)" class="st1 st2 st6">0000</text>
</g>
<g id="k">
	<polygon class="st0" points="448.1,130.6 440.4,113.3 449.3,110.6 458.7,131.5 456.8,132.7 	"/>
	<text transform="matrix(1 0 0 1 445.2693 122.8433)" class="st1 st2 st3">0000</text>
</g>
<g id="l">
	<polygon class="st0" points="460.7,129.9 451.6,110 460.9,107.1 468.9,124.6 	"/>
	<text transform="matrix(1 0 0 1 456.2781 118.972)" class="st1 st2 st3">0000</text>
</g>
<g id="m">
	<polygon class="st0" points="471,123.8 463.1,106.6 472,103.7 478.9,118.7 	"/>
	<text transform="matrix(1 0 0 1 467.3624 114.6207)" class="st1 st2 st3">0000</text>
</g>
<g id="n">
	<polygon class="st0" points="480.9,117.3 474.3,103.2 483.2,100.5 488.9,112.3 	"/>
	<text transform="matrix(1 0 0 1 478.1493 110.2562)" class="st1 st2 st3">0000</text>
</g>
<g id="o">
	<polygon class="st0" points="490.5,110.7 485.3,99.7 493.9,97 499.4,108.4 	"/>
	<text transform="matrix(1 0 0 1 488.4886 105.3624)" class="st1 st2 st3">0000</text>
</g>
<g id="p">
	<polygon class="st0" points="501.7,107.5 496.3,96.4 504.9,93.7 510.6,105.2 	"/>
	<text transform="matrix(1 0 0 1 499.233 101.6873)" class="st1 st2 st3">0000</text>
</g>
<g id="q">
	<polygon class="st0" points="513.1,105.7 507.3,92.9 516.4,90.1 523.7,104.6 520.3,102 518.3,104.2 	"/>
	<text transform="matrix(1 0 0 1 510.7453 98.6426)" class="st1 st2 st3">0000</text>
</g>
<g id="_x36_6">
	<polygon class="st0" points="337.9,92.3 326,90.5 330.7,74.7 340.2,77.1 	"/>
	<text transform="matrix(0.9892 -0.1466 0.1466 0.9892 329.7714 85.7164)" class="st1 st2 st3">0000</text>
</g>
<g id="_x34_3">
	<polygon class="st0" points="331.3,70.4 331.3,58.8 346.7,58.7 347.2,73.2 342,73 	"/>
	<text transform="matrix(0.9769 -0.2135 0.2135 0.9769 336.0504 67.4766)" class="st1 st2 st7">0000</text>
</g>
<g id="_x34_4">
	<polygon class="st0" points="349.6,73.3 349.2,58.9 358.5,58.8 358.9,73.8 	"/>
	<text transform="matrix(0.9829 -0.1842 0.1842 0.9829 350.3097 68.1835)" class="st1 st2 st3">0000</text>
</g>
<g id="_x34_5">
	<polygon class="st0" points="361.3,74 360.9,58.8 370.2,58.5 370.8,74.4 	"/>
	<text transform="matrix(0.9804 -0.1971 0.1971 0.9804 362.1649 68.5807)" class="st1 st2 st3">0000</text>
</g>
<g id="_x34_6">
	<polygon class="st0" points="373.1,74.4 372.6,58.5 381.9,58.4 382.5,74.9 	"/>
	<text transform="matrix(0.9868 -0.1619 0.1619 0.9868 373.8353 68.671)" class="st1 st2 st3">0000</text>
</g>
<g id="_x34_7">
	<polygon class="st0" points="384.8,75 384.1,58.5 394,58.4 394.7,74.8 389.4,75.2 	"/>
	<text transform="matrix(0.9847 -0.1744 0.1744 0.9847 385.6071 68.57)" class="st1 st2 st3">0000</text>
</g>
<g id="_x34_8">
	<polygon class="st0" points="397,74.6 396.4,58.6 405.8,58.4 406.7,74.1 	"/>
	<text transform="matrix(0.9832 -0.1826 0.1826 0.9832 397.7698 68.5246)" class="st1 st2 st3">0000</text>
</g>
<g id="_x34_9">
	<polygon class="st0" points="408.8,73.8 408.1,58.6 417.3,58.4 418.3,73 	"/>
	<text transform="matrix(0.9817 -0.1907 0.1907 0.9817 409.4111 68.0963)" class="st1 st2 st4">0000</text>
</g>
<g id="_x35_0">
	<polygon class="st0" points="420.5,72.7 419.9,58.5 429,58.3 429.8,72.2 	"/>
	<text transform="matrix(0.9887 -0.1498 0.1498 0.9887 421.0858 67.5283)" class="st1 st2 st3">0000</text>
</g>
<g id="_x35_1">
	<polygon class="st0" points="432.9,71.8 431.4,58.3 449.5,58.3 453.1,65.9 	"/>
	<text transform="matrix(0.9926 -0.1214 0.1214 0.9926 436.2198 66.0845)" class="st1 st2 st3">0000</text>
</g>
<g id="_x36_5">
	<polygon class="st0" points="340.7,92.4 342.6,77.2 352.9,77.7 352,93.1 	"/>
	<text transform="matrix(0.991 -0.1341 0.1341 0.991 343.1328 86.7352)" class="st1 st2 st6">0000</text>
</g>
<g id="_x36_4">
	<polygon class="st0" points="354.5,93.1 355.1,78 364.5,78.4 363.8,93.7 	"/>
	<text transform="matrix(0.9767 -0.2144 0.2144 0.9767 355.7329 88.0676)" class="st1 st2 st8">0000</text>
</g>
<g id="_x36_3">
	<polygon class="st0" points="375.9,94.2 366.4,93.8 367,78.5 376.3,78.9 	"/>
	<text transform="matrix(0.9805 -0.1966 0.1966 0.9805 367.7357 88.3204)" class="st1 st2 st3">0000</text>
</g>
<g id="_x36_2">
	<polygon class="st0" points="387.8,94.9 378.3,94.4 378.8,79.1 388.2,79.4 	"/>
	<text transform="matrix(0.98 -0.1988 0.1988 0.98 379.5309 89.0337)" class="st1 st2 st7">0000</text>
</g>
<g id="_x36_1">
	<polygon class="st0" points="390.1,95 390.6,79.5 400,78.8 399.6,95.6 	"/>
	<text transform="matrix(0.9873 -0.1588 0.1588 0.9873 391.3481 89.1795)" class="st1 st2 st3">0000</text>
</g>
<g id="_x36_0">
	<polygon class="st0" points="402,95.5 402.4,78.6 410.3,78 414.3,95.3 	"/>
	<text transform="matrix(0.9873 -0.1588 0.1588 0.9873 403.2704 89.2252)" class="st1 st2 st3">0000</text>
</g>
<g id="_x35_9">
	<polygon class="st0" points="416.8,95.2 412.6,77.8 421,77.3 427.5,92.6 	"/>
	<text transform="matrix(0.9924 -0.1234 0.1234 0.9924 415.5759 87.5167)" class="st1 st2 st4">0000</text>
</g>
<g id="_x35_8">
	<polygon class="st0" points="429.7,91.5 423.5,76.9 432.9,76.1 438.7,88.8 	"/>
	<text transform="matrix(0.9877 -0.1564 0.1564 0.9877 427.3625 85.373)" class="st1 st2 st3">0000</text>
</g>
<g id="_x35_7">
	<polygon class="st0" points="441.2,88.4 435.5,75.7 444,73.1 449.7,85.6 	"/>
	<text transform="matrix(0.9944 -0.1058 0.1058 0.9944 438.5522 82.2505)" class="st1 st2 st3">0000</text>
</g>
<g id="_x35_6">
	<polygon class="st0" points="452,84.9 446.3,72.4 455,69.8 460.7,82.2 	"/>
	<text transform="matrix(0.994 -0.1097 0.1097 0.994 449.5674 79.0709)" class="st1 st2 st6">0000</text>
</g>
<g id="_x35_5">
	<polygon class="st0" points="462.8,81.4 449.8,53.6 460.1,53.8 471.5,78.8 	"/>
	<text transform="matrix(1 0 0 1 456.9717 67.8779)" class="st1 st2 st3">0000</text>
</g>
<g id="_x35_4">
	<polygon class="st0" points="473.8,78.1 462.1,53.3 472.1,53.4 482.8,75.5 	"/>
	<text transform="matrix(1 0 0 1 468.7662 66.1894)" class="st1 st2 st3">0000</text>
</g>
<g id="_x31_6">
	<path class="st0" d="M272,48.9v-9l23.4,8l0.1,2.5c-1.2,1.4-1.2,4.1-0.2,6.6L272,48.9z"/>
	<text transform="matrix(0.9906 -0.137 0.137 0.9906 278.9082 49.6876)" class="st1 st2 st3">0000</text>
</g>
<g id="_x31_7">
	<path class="st0" d="M296,46l-22.9-7.9l6.3-12.4l12-0.1L301.8,40C299.5,41.8,297.5,43.7,296,46L296,46z"/>
	<text transform="matrix(0.949 -0.3153 0.3153 0.949 284.0176 37.2955)" class="st1 st2 st3">0000</text>
</g>
<g id="_x31_8">
	<path class="st0" d="M303.8,39.2l-9.6-13.4l18.1-0.1v11.8C309.4,37.7,306.6,38.2,303.8,39.2L303.8,39.2z"/>
	<text transform="matrix(0.9717 -0.2362 0.2362 0.9717 301.9926 33.2899)" class="st1 st2 st3">0000</text>
</g>
<g id="_x31_9">
	<polygon class="st0" points="314.8,37.3 314.5,25.7 323.8,25.7 324,37.5 	"/>
	<text transform="matrix(0.9823 -0.1873 0.1873 0.9823 315.4062 33.5401)" class="st1 st2 st3">0000</text>
</g>
<g id="_x32_0">
	<polygon class="st0" points="326.2,37.4 326.1,25.7 335.7,25.6 335.9,37.5 	"/>
	<text transform="matrix(0.9766 -0.2153 0.2153 0.9766 327.2637 33.5838)" class="st1 st2 st4">0000</text>
</g>
<g id="_x32_1">
	<polygon class="st0" points="338,37 338,25.5 347.4,25.5 347.8,37.2 	"/>
	<text transform="matrix(0.9494 -0.314 0.314 0.9494 339.2477 33.8614)" class="st1 st2 st3">0000</text>
</g>
<g id="_x32_2">
	<polygon class="st0" points="350.3,36.8 349.9,25.5 359.3,25.4 359.6,37 	"/>
	<text transform="matrix(0.9596 -0.2813 0.2813 0.9596 351.1477 33.6793)" class="st1 st2 st3">0000</text>
</g>
<g id="_x32_3">
	<polygon class="st0" points="361.9,36.6 361.5,25.2 370.5,25.2 370.9,36.9 	"/>
	<text transform="matrix(0.9733 -0.2297 0.2297 0.9733 362.6533 33.6475)" class="st1 st2 st6">0000</text>
</g>
<g id="_x32_4">
	<polygon class="st0" points="373.3,36.9 372.9,25.3 382,25.1 382.7,37.1 	"/>
	<text transform="matrix(0.9737 -0.228 0.228 0.9737 374.1871 33.5148)" class="st1 st2 st4">0000</text>
</g>
<g id="_x32_5">
	<polygon class="st0" points="384.9,36.5 384.6,25 394,24.9 394.6,36.7 	"/>
	<text transform="matrix(0.9648 -0.2628 0.2628 0.9648 385.9552 33.2439)" class="st1 st2 st7">0000</text>
</g>
<g id="_x32_6">
	<polygon class="st0" points="396.8,36.6 396.3,25 406.1,24.9 406.7,36.7 	"/>
	<text transform="matrix(0.9751 -0.2219 0.2219 0.9751 397.7909 32.9707)" class="st1 st2 st3">0000</text>
</g>
<g id="_x32_7">
	<polygon class="st0" points="408.8,36.3 408.1,25.1 417.4,25 418.3,36.5 	"/>
	<text transform="matrix(0.9636 -0.2675 0.2675 0.9636 409.6884 33.2364)" class="st1 st2 st9">0000</text>
</g>
<g id="_x32_8">
	<polygon class="st0" points="420.3,36.4 419.8,25.1 429.6,25 430.5,36.4 	"/>
	<text transform="matrix(0.9614 -0.275 0.275 0.9614 421.6827 33.3526)" class="st1 st2 st7">0000</text>
</g>
<g id="_x32_9">
	<polygon class="st0" points="432.6,36.4 432,25 441.6,24.8 442.6,36.4 	"/>
	<text transform="matrix(0.9719 -0.2354 0.2354 0.9719 433.5634 33.1712)" class="st1 st2 st3">0000</text>
</g>
<g id="_x33_0">
	<polygon class="st0" points="444.8,36.4 444,24.8 453.1,24.8 454,36.3 	"/>
	<text transform="matrix(0.9624 -0.2716 0.2716 0.9624 445.5237 33.2062)" class="st1 st2 st3">0000</text>
</g>
<g id="_x33_1">
	<polygon class="st0" points="456.6,36.3 455.5,24.7 464.4,24.6 465.5,36.4 	"/>
	<text transform="matrix(0.9762 -0.2168 0.2168 0.9762 456.8842 32.7024)" class="st1 st2 st3">0000</text>
</g>
<g id="_x33_2">
	<polygon class="st0" points="468.1,36 466.8,24.6 477.5,24.5 477.1,36.2 	"/>
	<text transform="matrix(0.977 -0.2134 0.2134 0.977 468.6414 32.1281)" class="st1 st2 st6">0000</text>
</g>
<g id="_x33_3">
	<polygon class="st0" points="479.5,36.5 480,24.6 493.3,24.4 489,38.4 	"/>
	<text transform="matrix(0.9824 -0.1866 0.1866 0.9824 481.9067 32.493)" class="st1 st2 st5">0000</text>
</g>
<g id="_x33_4">
	<polygon class="st0" points="500.3,42.4 491.3,38.8 496,24.1 511.6,24.1 	"/>
	<text transform="matrix(0.9909 -0.1348 0.1348 0.9909 496.2907 33.6919)" class="st1 st2 st3">0000</text>
</g>
<g id="_x33_5">
	<path class="st0" d="M509.7,48.4c-2.6-2.3-5.2-3.8-7.9-5.1l11.9-19.2l18-0.2l0.3,2.8L509.7,48.4z"/>
	<text transform="matrix(0.9969 -7.912207e-02 7.912207e-02 0.9969 511.4482 36.4759)" class="st1 st2 st6">0000</text>
</g>
<g id="_x33_6">
	<path class="st0" d="M518.2,56.1c-2-2.3-4.2-4.5-6.6-6.5l21.2-20.8l2.2,16.9L518.2,56.1z"/>
	<text transform="matrix(1 0 0 1 521.7524 46.2544)" class="st1 st2 st3">0000</text>
</g>
<g id="_x33_7">
	<polygon class="st0" points="524.9,64.7 519.7,57.2 535.6,47.4 538,63.6 	"/>
	<text transform="matrix(1 0 0 1 526.3258 59.1516)" class="st1 st2 st3">0000</text>
</g>
<g id="_x33_8">
	<polygon class="st0" points="541.5,63.2 537.1,35.1 547.2,34.8 551.1,63.1 	"/>
	<text transform="matrix(0.9863 -0.1651 0.1651 0.9863 540.5364 50.9001)" class="st1 st2 st3">0000</text>
</g>
<g id="_x34_2">
	<polygon class="st0" points="551.7,41.9 550.6,33.9 577.4,33.6 578.5,41.6 	"/>
	<text transform="matrix(0.9872 -0.1595 0.1595 0.9872 560.0178 39.58)" class="st1 st2 st3">0000</text>
</g>
<g id="_x36_7">
	<polygon class="st0" points="536.8,32.4 535.2,23.8 575.9,23.5 576.7,31.8 	"/>
	<text transform="matrix(0.9872 -0.1595 0.1595 0.9872 552.7825 29.2858)" class="st1 st2 st3">0000</text>
</g>
<g id="_x33_9">
	<polygon class="st0" points="553.5,63.2 551.1,45.2 560.1,45 562.9,63.1 	"/>
	<text transform="matrix(0.9773 -0.2119 0.2119 0.9773 553.1356 55.8059)" class="st1 st2 st3">0000</text>
</g>
<g id="_x34_1">
	<polygon class="st0" points="580.1,52 564.9,52.1 563.8,44.2 578.9,43.9 	"/>
	<text transform="matrix(0.9826 -0.1855 0.1855 0.9826 568.172 50.2842)" class="st1 st2 st8">0000</text>
</g>
<g id="_x34_0">
	<polygon class="st0" points="566.6,63 565.4,54.5 580.8,54.2 582,62.9 	"/>
	<text transform="matrix(0.9841 -0.1776 0.1776 0.9841 569.7041 60.9906)" class="st1 st2 st3">0000</text>
</g>
<g id="z">
	<polygon class="st0" points="602.4,31.6 601.2,23.4 616.6,23.4 617.9,31.5 	"/>
	<text transform="matrix(1 0 0 1 605.7581 28.9276)" class="st1 st2 st3">0000</text>
</g>
<g id="y">
	<polygon class="st0" points="604.2,41.4 603,33.8 618.4,33.4 619.8,41.3 	"/>
	<text transform="matrix(1 0 0 1 607.4001 39.2854)" class="st1 st2 st3">0000</text>
</g>
<g id="x">
	<polygon class="st0" points="606.1,51.7 604.7,43.6 620.2,43.4 621.6,51.5 	"/>
	<text transform="matrix(1 0 0 1 608.7581 49.1696)" class="st1 st2 st3">0000</text>
</g>
<g id="w">
	<polygon class="st0" points="607.6,61.5 606.5,53.9 621.8,53.5 623.3,61.5 	"/>
	<text transform="matrix(1 0 0 1 610.5265 59.2117)" class="st1 st2 st3">0000</text>
</g>
<g id="v">
	<polygon class="st0" points="609.4,71.7 608.1,63.9 623.5,63.8 625,71.8 	"/>
	<text transform="matrix(1 0 0 1 612.0107 69.4433)" class="st1 st2 st3">0000</text>
</g>
<g id="u">
	<path class="st0" d="M594.5,89.5c-3.9-0.1-7.3-1-10.4-2.5l2.5,16.1l10-0.4L594.5,89.5z"/>
	<text transform="matrix(0.9829 -0.1844 0.1844 0.9829 586.5919 97.6246)" class="st1 st2 st4">0000</text>
</g>
<g id="t">
	<polygon class="st0" points="574.4,103.5 572,85.7 581.3,85.3 584.1,103.1 	"/>
	<text transform="matrix(0.9809 -0.1947 0.1947 0.9809 574.3038 96.4006)" class="st1 st2 st6">0000</text>
</g>
<g id="s">
	<polygon class="st0" points="562.2,104.3 559.8,85.7 569.4,85.6 572.1,103.9 	"/>
	<text transform="matrix(0.9787 -0.2055 0.2055 0.9787 562.1252 96.9025)" class="st1 st2 st4">0000</text>
</g>
<g id="r">
	<polygon class="st0" points="550.6,105.6 547.7,85.9 557.2,85.6 559.9,104.5 	"/>
	<text transform="matrix(0.9736 -0.2281 0.2281 0.9736 550.2462 97.6595)" class="st1 st2 st5">0000</text>
</g>
<g id="_x31_1">
	<path class="st0" d="M187.2,122.1c1.7-4.7,1.1-8.6-1.2-12.2l5.8-4.3l21.9,16.5l-7.5,5.7L187.2,122.1z"/>
	<text transform="matrix(1 0 0 1 193.7355 118.4231)" class="st1 st2 st3">0000</text>
</g>
<g id="_x31_2">
	<path class="st0" d="M188.1,141.6l-7.8-10.9c2.5-1.7,4.6-3.9,6-6.6l17.5,5.5L188.1,141.6z"/>
	<text transform="matrix(1 0 0 1 186.542 133.1334)" class="st1 st2 st3">0000</text>
</g>
<g id="_x31_3">
	<path class="st0" d="M168.2,149.2l1.1-14.9c3.2-0.1,6.3-0.8,9.2-2.2l7.8,11.1l-10.3,7.5l-4.8-0.1L168.2,149.2z"/>
	<text transform="matrix(0.9891 -0.1471 0.1471 0.9891 172.5256 143.6786)" class="st1 st2 st3">0000</text>
</g>
<g id="_x31_4">
	<path class="st0" d="M163.5,147.3l-18.8-8.5l8.7-13.7c3.1,5.1,5.8,7.3,11.1,8.6L163.5,147.3z"/>
	<text transform="matrix(0.9944 -0.1059 0.1059 0.9944 151.9967 138.6087)" class="st1 st2 st3">0000</text>
</g>
<g id="_x31_5">
	<path class="st0" d="M127.8,133.1l1.1-12c7.8-0.3,15.4,0.5,22.6,2.9l-8.5,14.4l-12.2-5.6L127.8,133.1z"/>
	<text transform="matrix(0.9843 -0.1764 0.1764 0.9843 135.8705 130.4598)" class="st1 st2 st3">0000</text>
</g>
<g id="_x31_0">
	<path class="st0" d="M179.7,104.1c-4.2-2.2-8.9-2.3-13.8-1.3l8.3-16.3l10,3.9l3.2,7L179.7,104.1z"/>
	<text transform="matrix(0.9969 -7.858697e-02 7.858697e-02 0.9969 173.6227 97.4851)" class="st1 st2 st3">0000</text>
</g>
<g id="_x36_8">
	<path class="st10" d="M288.6,57.1l-22-7.8l14-28.5l337.8-1.9l9.7,52.5l-0.9,21.4c-0.5,8.9-9.2,15.1-20.7,16l-60,3.9l-37-42.8
		c-10.3-11.2-21.8-17.2-34.6-17.6l-27.6,0.1l6.8,13.9c0.5,0.9,0.3,2-0.5,2.3c-34.3,11.5-76.3,12-125.1,3.5c-11.2-2-21.5-5-30.2-9.9
		C295.6,60,292.3,58.5,288.6,57.1L288.6,57.1z"/>
	<text id="Future_Phase" transform="matrix(0.9969 -7.858754e-02 7.858754e-02 0.9969 405.5296 48.8259)" class="st1 st2 st11">Future Phase</text>
</g>
</svg>
