<?xml version="1.0" encoding="utf-8"?>
<!-- Generator: Adobe Illustrator 23.0.5, SVG Export Plug-In . SVG Version: 6.00 Build 0)  -->
<svg version="1.1" id="Layer_1" xmlns="http://www.w3.org/2000/svg" xmlns:xlink="http://www.w3.org/1999/xlink" x="0px" y="0px"
	 width="24px" height="24px" viewBox="0 0 24 24" style="enable-background:new 0 0 24 24;" xml:space="preserve">
<style type="text/css">
	.st0{fill:#FFFFFF;}
</style>
<g>
	<g>
		<path class="st0" d="M20.6,10.7c-0.1-0.4-0.5-0.7-1-0.7h-7.2c-0.5,0-0.8,0.3-1,0.7L10,14.8l0,5.5c0,0.4,0.3,0.7,0.7,0.7h0.6
			c0.4,0,0.7-0.4,0.7-0.8V19h8v1.2c0,0.4,0.3,0.8,0.7,0.8h0.6c0.4,0,0.7-0.3,0.7-0.7l0-1.4v-4.1L20.6,10.7z M12.4,11h7.2l1,3h-9.3
			L12.4,11z M12,17c-0.6,0-1-0.5-1-1c0-0.5,0.4-1,1-1s1,0.4,1,1C13,16.5,12.6,17,12,17z M20,17c-0.5,0-1-0.5-1-1c0-0.5,0.5-1,1-1
			s1,0.4,1,1C21,16.5,20.5,17,20,17z"/>
		<polygon class="st0" points="14,9 15,9 15,3 7,3 7,8 2,8 2,21 3,21 3,9 8,9 8,4 14,4 		"/>
		<rect x="5" y="11" class="st0" width="2" height="2"/>
		<rect x="10" y="5" class="st0" width="2" height="2"/>
		<rect x="5" y="15" class="st0" width="2" height="2"/>
		<rect x="5" y="19" class="st0" width="2" height="2"/>
	</g>
</g>
</svg>
