<?xml version="1.0" encoding="utf-8"?>
<!-- Generator: Adobe Illustrator 23.0.5, SVG Export Plug-In . SVG Version: 6.00 Build 0)  -->
<svg version="1.1" id="Layer_1" xmlns="http://www.w3.org/2000/svg" xmlns:xlink="http://www.w3.org/1999/xlink" x="0px" y="0px" width="100%" height="100%"
	  viewBox="0 0 1667.3 1049.4" style="enable-background:new 0 0 1667.3 1049.4;"
	 xml:space="preserve">
<style type="text/css">
	.st0{fill:none;stroke:#ED1F24;stroke-width:0.25;stroke-miterlimit:10;}
	.st1{fill:#231F20;}
	.st2{font-family:'calibri'; font-weight:600}
	.st3{font-size:14.6675px;}
	.st4{fill:#9e9e9e;}
	.st5{font-size:42.7274px;font-family:'calibri'; font-weight:600}
</style>
<image style="overflow:visible;enable-background:new    ;" width="3000" height="1848" xlink:href="/uploads/gardner_V02.jpg"  transform="matrix(0.6376 0 0 0.6376 -14.2958 -73.3142)">
</image>
<g id="Layer_3">
	<polygon id="XMLID_27_" class="st0" points="863,408.7 864.2,470.3 878.4,470.3 878.4,470.3 887.3,470 887.3,470 904,470 
		902.7,408.1 	"/>
	<text id="XMLID_4_" transform="matrix(1 0 0 1 868.7033 441.7003)" class="st1 st2 st3">oooo</text>
</g>
<g id="Layer_4">
	<polygon id="XMLID_5_" class="st0" points="811.5,409.3 817.3,472.5 834.6,471.6 834.6,471.6 843.2,471.3 843.2,471.3 856.2,471 
		855.6,408.4 	"/>
	<text id="XMLID_6_" transform="matrix(1 0 0 1 819.2961 441.7003)" class="st1 st2 st3">oooo</text>
</g>
<g id="Layer_5">
	<path id="XMLID_28_" class="st0" d="M803.5,409.6l6.8,63.5l-18.2,2.8l0,0l-9.9,1.8l0,0l-12,3.1c0,0-6.5,1.5-8.3-1.8
		c-1.8-3.4-8.9-20-8.9-20s-4-11.1-5.2-17.3s-2.8-17-2.8-21.3c0-4.3,0-5.9,0-5.9L803.5,409.6z"/>
	<text id="XMLID_7_" transform="matrix(1 0 0 1 762.2228 446.1661)" class="st1 st2 st3">oooo</text>
</g>
<g id="Layer_6">
	<path id="XMLID_29_" class="st0" d="M745.2,409.6c0,0,63.8-4.3,69.1-4.3c5.2,0,40.4-0.9,40.4-0.9s0.3-2.5-2.5-15.7
		s-5.5-25.3-5.5-25.3l-103.9,8L745.2,409.6z"/>
	<text id="XMLID_8_" transform="matrix(1 0 0 1 779.1286 388.4688)" class="st1 st2 st3">oooo</text>
</g>
<g id="Layer_7">
	<polygon id="XMLID_30_" class="st0" points="739.9,333.8 742.4,367.7 845.4,358.7 838.9,325.7 	"/>
	<text id="XMLID_9_" transform="matrix(1 0 0 1 775.3015 348.2862)" class="st1 st2 st3">oooo</text>
</g>
<g id="Layer_8">
	<polygon id="XMLID_31_" class="st0" points="737.5,296.5 739.9,329.8 838,322 831.2,288.7 	"/>
	<text id="XMLID_10_" transform="matrix(1 0 0 1 770.5119 311.295)" class="st1 st2 st3">oooo</text>
</g>
<g id="Layer_9">
	<path id="XMLID_33_" class="st0" d="M830.6,285.4l-6.5-31.4l-75.8,3.4c0,0,0.9,4.6-4.6,10.8c-5.5,5.9-7.1,9.2-7.4,12.9l0.6,11.7
		L830.6,285.4z"/>
	<text id="XMLID_11_" transform="matrix(1 0 0 1 770.5119 272.7081)" class="st1 st2 st3">oooo</text>
</g>
<g id="Layer_10">
	<path id="XMLID_32_" class="st0" d="M739.6,243.1L739,236l67.2-72.5l17.9,87.3l-75.2,3.4C748.9,247.7,739.6,243.1,739.6,243.1z"/>
	<text id="XMLID_12_" transform="matrix(1 0 0 1 767.0099 225.5225)" class="st1 st2 st3">oooo</text>
</g>
<g id="Layer_11">
	<path id="XMLID_2_" class="st0" d="M711.3,232.3l-24.7-71.2l42.2,2.8l2.2-16.6l71.2-1.8l2.5,13.6l-69.1,75.2
		C722.4,228.3,711.3,232.3,711.3,232.3z"/>
	<text id="XMLID_13_" transform="matrix(1 0 0 1 725.5441 189.4913)" class="st1 st2 st3">oooo</text>
</g>
<g id="Layer_12">
	<path id="XMLID_1_" class="st0" d="M705.1,234.5l-26.5-74H484.3l-1.8,31.4l204.4,54.3C686.9,246.2,693.4,237.3,705.1,234.5z"/>
	<text id="XMLID_14_" transform="matrix(1 0 0 1 586.5231 194.9014)" class="st1 st2 st3">oooo</text>
</g>
<g id="Layer_13">
	<path id="XMLID_3_" class="st0" d="M698,275.2v2.5l-225.1,17.9l8.6-99.6l205,54.6C681.4,269.6,698,275.2,698,275.2z"/>
	<text id="XMLID_15_" transform="matrix(1 0 0 1 550.5075 255.1827)" class="st1 st2 st3">oooo</text>
</g>
<g id="Layer_14">
	<polygon id="XMLID_37_" class="st0" points="701.1,281.7 702.6,313.4 469.2,333.1 472,299.2 	"/>
	<text id="XMLID_16_" transform="matrix(1 0 0 1 571.5519 307.4678)" class="st1 st2 st3">oooo</text>
</g>
<g id="Layer_15">
	<polygon id="XMLID_39_" class="st0" points="702.6,317.4 705.1,351.6 465.2,370.8 468.3,336.5 	"/>
	<text id="XMLID_17_" transform="matrix(1 0 0 1 576.9748 344.4571)" class="st1 st2 st3">oooo</text>
</g>
<g id="Layer_16">
	<polygon id="XMLID_40_" class="st0" points="465.2,375.1 461.8,409.3 706.6,389.6 704.2,355.3 	"/>
	<text id="XMLID_18_" transform="matrix(1 0 0 1 576.9748 384.6417)" class="st1 st2 st3">oooo</text>
</g>
<g id="Layer_17">
	<polygon id="XMLID_42_" class="st0" points="709.7,428.7 457.8,456.8 460.6,414.5 706.6,393.6 	"/>
	<text id="XMLID_19_" transform="matrix(1 0 0 1 568.3581 424.4835)" class="st1 st2 st3">oooo</text>
</g>
<g id="Layer_18">
	<path id="XMLID_35_" class="st0" d="M707.9,484.2l-40.4-10.5l-213.7,24.4l2.2-36.4l253.7-28.4c0,0,4.3,21.3,7.7,29.6
		c0,0,1.5,6.5-0.3,9.2C716.8,472.2,711.3,479.6,707.9,484.2z"/>
	<text id="XMLID_20_" transform="matrix(1 0 0 1 571.5519 467.5323)" class="st1 st2 st3">oooo</text>
</g>
<g id="Layer_19">
	<path id="XMLID_38_" class="st0" d="M710.3,508.6v2.5l-149.8,90l-118.1,2.8l10.2-101.4l213.4-24.7l41.9,10.8v4.3
		C707.9,493.2,702,498.4,710.3,508.6z"/>
	<text id="XMLID_21_" transform="matrix(1 0 0 1 537.1022 539.6212)" class="st1 st2 st3">oooo</text>
</g>
<g id="Layer_20">
	<path id="XMLID_36_" class="st0" d="M735.6,523.1l-1.8,41.6l5.9,44.1l-41.3-4.3l-54.6,1.5l-68.4,1.8l-2.5-6.5l142.4-86.9
		C715,514.1,719.6,521.8,735.6,523.1z"/>
	<text id="XMLID_22_" transform="matrix(1 0 0 1 664.6559 573.4063)" class="st1 st2 st3">oooo</text>
</g>
<g id="Layer_21">
	<path id="XMLID_41_" class="st0" d="M807.1,498.7l-29.3,5.9c-7.1,1.8-10.5,6.5-10.5,6.5c-8.6,10.2-24.4,12-24.4,12l-1.5,36.7
		l70.6-2.2l0.9-56.1C812.1,498.1,807.1,498.7,807.1,498.7z"/>
	<text id="XMLID_23_" transform="matrix(1 0 0 1 762.2228 535.1573)" class="st1 st2 st3">oooo</text>
</g>
<g id="Layer_22">
	<polygon id="XMLID_43_" class="st0" points="742.4,564.4 748.9,611.9 811.8,610.9 811.8,562.2 	"/>
	<text id="XMLID_24_" transform="matrix(1 0 0 1 762.2228 591.2569)" class="st1 st2 st3">oooo</text>
</g>
<g id="Layer_23">
	<path id="XMLID_47_" class="st0" d="M924.3,495l-62.9,0.6c0,0-3.7,0.3-4,2.8s-0.3,5.2-0.3,5.2V549l68.1-1.2L924.3,495z"/>
	<text id="XMLID_26_" transform="matrix(1 0 0 1 877.6589 526.2325)" class="st1 st2 st3">oooo</text>
</g>
<g id="Layer_24">
	<polygon id="XMLID_48_" class="st0" points="858.3,553 858.3,595.5 927.1,594.9 925.8,553 	"/>
	<text id="XMLID_25_" transform="matrix(1 0 0 1 877.6589 575.6495)" class="st1 st2 st3">oooo</text>
</g>
<g id="Layer_25">
	<path id="XMLID_44_" class="st4" d="M860.2,408.4l47.5-0.9l0.6,68.4l21.9-1.8L928,581.3c-0.9,11.7-0.6,55.8-0.6,55.8l3.1,64.7
		l1.5,4.9l2.8,0.9l12.3,2.2l144,5.5l13.6,74.9l154.8,0.9l-46.2-659.2L811.8,126l-6.5,18.2L860.2,408.4z"/>
	<text id="Future_Area" transform="matrix(1 0 0 1 974.5729 414.6124)" class="st1 st2 st5">Future Area</text>
</g>
</svg>
