<svg id="Layer_1" data-name="Layer 1" xmlns="http://www.w3.org/2000/svg" xmlns:xlink="http://www.w3.org/1999/xlink" viewBox="0 0 1130.33 772.71"><defs><style>.cls-1{fill:#fff;stroke:#231f20;stroke-miterlimit:10;}.cls-2{font-size:21px;fill:#231f20;font-family:ArialMT, Arial;}</style></defs><title>hi_svg2</title><image width="774" height="683" transform="translate(-5.07 -5.97) scale(1.48 1.16)" xlink:href="springhomes.jpg"/><g id="_1" data-name="1"><path class="cls-1" d="M322.76,80.47l93.89-1.06,13.76,72.71s-38.12,2.12-78,16.23l-17.29-10.94Z"/><text class="cls-2" transform="translate(369.87 124.59)">1</text></g><g id="_2" data-name="2"><path class="cls-1" d="M443.47,79.41l226.82-2.82-124.7,93.65s-26.83-14.59-89.88-18.36Z"/><text class="cls-2" transform="translate(522.34 121.06)">1</text></g><g id="_3" data-name="3"><path class="cls-1" d="M564.88,180.12,702.29,76.59l17-.94,84.7,144.94-193.88,3.29S598.29,205.53,564.88,180.12Z"/><text class="cls-2" transform="translate(676.22 171.18)">1</text></g><g id="_4" data-name="4"><path class="cls-1" d="M621.35,240.35l188.24-1.88,30.12,56-222.12,2.82A347.79,347.79,0,0,0,621.35,240.35Z"/><text class="cls-2" transform="translate(717.87 275.65)">1</text></g><g id="_5" data-name="5"><path class="cls-1" d="M613.82,314.71l234.36-3.77,32.47,57.41-268.71,2.36a123.9,123.9,0,0,1-1.65-24C610.51,334.87,613.12,323.88,613.82,314.71Z"/><text class="cls-2" transform="translate(728.45 349.06)">1</text></g><g id="_6" data-name="6"><polygon class="cls-1" points="615.24 390 889.59 386.24 928.18 454.47 871.24 455.88 878.76 485.53 635.47 487.41 615.24 390"/><text class="cls-2" transform="translate(746.1 447.18)">1</text></g><g id="_7" data-name="7"><polygon class="cls-1" points="611.47 533.06 701.82 531.18 735.24 685.53 638.76 685.06 611.47 533.06"/><text class="cls-2" transform="translate(659.98 615.88)">1</text></g><g id="_8" data-name="8"><polygon class="cls-1" points="723.94 531.65 809.12 528.82 844.88 682.24 755.47 684.12 723.94 531.65"/><text class="cls-2" transform="translate(774.34 610.94)">1</text></g><g id="_9" data-name="9"><polygon class="cls-1" points="830.29 529.29 915 526.94 953.59 680.35 864.65 683.18 830.29 529.29"/><text class="cls-2" transform="translate(883.04 606)">1</text></g><g id="_10" data-name="10"><polygon class="cls-1" points="934.76 528.35 1005.35 524.12 1088.18 677.06 972.41 681.76 934.76 528.35"/><text class="cls-2" transform="translate(993.87 606)">1</text></g><g id="_11" data-name="11"><polygon class="cls-1" points="336.18 532.12 420.88 529.76 446.29 683.18 355.94 682.71 336.18 532.12"/><text class="cls-2" transform="translate(386.81 615.18)">1</text></g><g id="_12" data-name="12"><polygon class="cls-1" points="216.65 531.65 302.29 530.24 323.47 683.65 234.06 686 216.65 531.65"/><text class="cls-2" transform="translate(262.57 617.29)">1</text></g><g id="_13" data-name="13"><polygon class="cls-1" points="111.71 534.47 197.82 531.65 217.12 685.53 125.82 686.47 111.71 534.47"/><text class="cls-2" transform="translate(155.98 616.59)">1</text></g><g id="_14" data-name="14"><polygon class="cls-1" points="192.18 396.59 356.41 393.76 371 492.59 204.41 494 192.18 396.59"/><text class="cls-2" transform="translate(271.04 450)">1</text></g><g id="_15" data-name="15"><polygon class="cls-1" points="170.53 321.76 328.65 318 351.71 362.71 354.06 374.47 188.88 376.82 170.53 321.76"/><text class="cls-2" transform="translate(256.22 354)">1</text></g><g id="_16" data-name="16"><path class="cls-1" d="M159.24,246.94l137.41-2.35s3.76,24.47,24.47,55.53l-157.18,2.82Z"/><text class="cls-2" transform="translate(230.81 280.59)">1</text></g><g id="_17" data-name="17"><path class="cls-1" d="M148.41,175.41l143.06-2.82,30.59,16.94s-21.18,18.35-24,39.53L155,230.47Z"/><text class="cls-2" transform="translate(223.04 206.47)">1</text></g></svg>