<?xml version="1.0" encoding="utf-8"?>
<!-- Generator: Adobe Illustrator 16.0.0, SVG Export Plug-In . SVG Version: 6.00 Build 0)  -->
<!DOCTYPE svg PUBLIC "-//W3C//DTD SVG 1.1//EN" "http://www.w3.org/Graphics/SVG/1.1/DTD/svg11.dtd">
<svg version="1.1" id="Layer_1" xmlns="http://www.w3.org/2000/svg" xmlns:xlink="http://www.w3.org/1999/xlink" x="0px" y="0px"
	 width="100%" height="100%" viewBox="0 0 360 415.2" style="enable-background:new 0 0 360 415.2;" xml:space="preserve">
<style type="text/css">
	.st0{font-weight:700;}
	.st1{font-size:5px;}
	.st2{font-size:5px;}
	.st3{font-size:6px;}
	.st4{font-size:7px;}
	.st5{font-size:8px;}
	.st6{font-size:9px;}
	.st7{font-size:5.5px;}
	.st8{opacity:0.7;fill:#D8B08A;}
	.st9{font-size:10px;}
	.st10{font-size:11px;}
	.st11{opacity:0.7;fill:#E50A39;}
</style>
<image style="overflow:visible;enable-background:new;" width="1500" height="1730" xlink:href="/uploads/preserve.jpg"  transform="matrix(0.24 0 0 0.24 -4.882813e-004 0)">
</image>
<g id="_x31_">
	<path class="st8" d="M239.165,405.245l5.96-0.27l-28.813-60.25c0,0-6.688,3-28.813,3l24.5,58.75l17.979-0.814
		c0,0,0.438-0.812,1.458-0.957c0,0-0.104-0.979,1.083-1.396c0,0-0.52-1.083,1.896-0.875c0,0,0.354,0.271,0.291,0.5
		c0,0,0.543-0.812,1.084-0.396c0,0,0.249,0.249,0.604,0.291c0,0,0.146,0.146,0.146,0.292c0,0,0.666-1.229,1.521,1.083
		C238.063,404.204,238.663,404.181,239.165,405.245z"/>
	<text transform="matrix(-0.9306 0.3659 -0.3659 -0.9306 218.0762 370.7944)" class="st0 st10">1</text>
</g>
<g id="_x32_">
	<path class="st8" d="M157.715,395.595L194,403.35l-22-56.875c-18.25-3.5-26.125-7.75-26.125-7.75l-30.25,47.875l31.677,6.77
		c0,0,0.489-0.999,2.052-0.978c0,0-0.104-1.707,1-1.854c0,0,1.104-0.417,1.375,0.896c0,0,0.5,0.437,1.354,0.271
		c0,0,0.604-0.021,0.708-0.271c0,0,1.292-0.812,1.938,1.542c0,0,0.313,0.312,0.625,0.291
		C156.354,393.267,158.951,393.256,157.715,395.595z"/>
	<text transform="matrix(-0.9745 -0.2245 0.2245 -0.9745 158.8672 363.9897)" class="st0 st10">2</text>
</g>
<g id="_x33_">
	<path class="st8" d="M134.375,332.725l-33.875,50.75l-24.5-5l-10.5-28.25L115,317.1C115,317.1,123.875,327.225,134.375,332.725z"/>
	<text transform="matrix(-0.6535 -0.7569 0.7569 -0.6535 105.7495 347.521)" class="st0 st10">3</text>
</g>
<g id="_x34_">
	<path class="st8" d="M98.583,288.516c0,0,2.006,10.133,9,19.5l-46.167,30.709L48.25,302.85L98.583,288.516z"/>
	<text transform="matrix(-0.4144 -0.9101 0.9101 -0.4144 81.3926 310.7183)" class="st0 st9">4</text>
</g>
<g id="_x35_">
	<path class="st8" d="M97,259.433c0,0-1.75,10.001-0.5,19.084L46.917,292.6l2.333-29.917L97,259.433z"/>
		<text transform="matrix(-0.1391 -0.9903 0.9903 -0.1391 73.3018 275.9194)" class="st0 st6">5</text>
</g>
<g id="_x36_">
	<polygon class="st8" points="98.917,233.35 97.583,250.433 50.583,253.516 53.75,236.183 	"/>
	<text transform="matrix(-0.0239 -0.9997 0.9997 -0.0239 76.9653 245.2153)" class="st0 st5">6</text>
</g>
<g id="_x37_">
	<polygon class="st8" points="100.563,210.1 99.5,225.163 55.188,228.038 58.125,212.6 	"/>
	<text transform="matrix(-0.0239 -0.9997 0.9997 -0.0239 79.9653 221.3403)" class="st0 st5">7</text>
</g>
<g id="_x38_">
	<polygon class="st8" points="102.25,189.163 101.188,202.85 59.25,205.475 61.938,191.663 	"/>
	<text transform="matrix(-0.0239 -0.9997 0.9997 -0.0239 82.5493 199.0908)" class="st0 st4">8</text>
</g>
<g id="_x33_1">
	<path class="st8" d="M229.594,193.489l3.948,9.903l36.25-9.958l-6.334-12.833l-37.791,3.042l1.239,3.107
		c0,0,1.25-0.118,1.656,1.038c0,0,1.219-0.219,1.344,0.844c0,0,1.469,0.125,0.656,1.188c0,0,0.375,0.875-0.344,1.25
		c0,0,0.25,0.781-0.313,1.063C229.906,192.131,229.063,193.034,229.594,193.489z"/>
	<text transform="matrix(-0.2591 -0.9659 0.9659 -0.2591 249.5625 192.9585)" class="st0 st4">31</text>
</g>
<g id="_x33_2">
	<path class="st8" d="M222.554,168.251l1.363,9.182L261,174.559c-2.333-4.375-3.167-11.875-3.167-11.875l-36.458-2.375l0.476,3.206
		c0,0,0.713,0.377,0.213,0.877c0,0,1.312-0.125,1.479,0.771c0,0,0.583,1.021-0.188,1.542c0,0,0.938,0.747,0.084,1.25
		C223.438,167.955,222.815,168.548,222.554,168.251z"/>
	<text transform="matrix(-0.0935 -0.9956 0.9956 -0.0935 243.6416 172.1157)" class="st0 st3">32</text>
</g>
<g id="_x33_3">
	<path class="st8" d="M259.375,146.788c0,0-1.813,5.625-1.813,10.5l-36.813-2.375l-0.313-2.063l4.438-11.938L259.375,146.788z"/>
	<text transform="matrix(0.1328 -0.9911 0.9911 0.1328 242.4014 152.8335)" class="st0 st2">33</text>
</g>
<g id="_x33_4">
	<polygon class="st8" points="263.188,132.663 260.563,141.975 226.563,136.475 230.125,127.163 	"/>
	<text transform="matrix(0.2019 -0.9794 0.9794 0.2019 246.3496 137.9258)" class="st0 st2">34</text>
</g>
<g id="_x33_5">
	<polygon class="st8" points="266.5,119.6 264.25,128.225 231.5,123.038 234.813,114.6 	"/>
	<text transform="matrix(0.1405 -0.9901 0.9901 0.1405 250.5029 124.5786)" class="st0 st2">35</text>
</g>
<g id="_x33_6">
	<path class="st8" d="M267.625,115.538c0,0,1.25-5.125,4.313-8.688l-29.25-7.688l-3.125,2.375L236,110.85L267.625,115.538z"/>
	<text transform="matrix(0.2756 -0.9613 0.9613 0.2756 254.9033 110.813)" class="st0 st1">36</text>
</g>
<g id="_x33_7">
	<path class="st8" d="M258.938,87.038L282,97.35c0,0-6.063,4.625-7.5,6.188l-27.875-7.188L258.938,87.038z"/>
	<text transform="matrix(0.4863 -0.8738 0.8738 0.4863 265.9453 98.457)" class="st0 st1">37</text>
</g>
<g id="_x33_8">
	<path class="st8" d="M285.168,94.54l-22.855-10.002l9.625-7.438l29.5,11.438c0,0-3.721,1.319-7.472,2.93
		c0,0-0.622-1.008-1.575-0.914c0,0-0.516,0.109-0.547-0.031c0,0-0.578-0.375-0.844,0.141c0,0-0.203,0.172-0.094,0.391
		c0,0-0.516,0-0.516,0.531c0,0-0.063,0.188-0.578,0.047c0,0-0.938,0.109-0.531,0.938c0,0,0.313,0.344,0.047,0.625
		c0,0-0.156,0.375-0.797,0.406c0,0-0.203,0.344-0.203,0.688c0,0-0.313,0-0.797-0.172c0,0-0.25-0.328-0.797-0.281
		C286.734,93.834,285.492,93.824,285.168,94.54z"/>
	<text transform="matrix(0.6291 -0.7774 0.7774 0.6291 280.0332 88.8169)" class="st0 st1">38</text>
</g>
<g id="_x33_9">
	<path class="st8" d="M283.438,77.725l20.813-12.667c0,0,11.625,5.042,11.563,12.042c0,0,0.323,6.25-8.938,9.563L283.438,77.725z"/>
	<text transform="matrix(0.8092 0.5876 -0.5876 0.8092 300.1533 75.8965)" class="st0 st1">39</text>
</g>
<g id="_x34_0">
	<path class="st8" d="M282.352,72.739l16.523-9.701L285,58.1l-16.204,9.057c0.15,0.286,0.892,0.693,0.892,0.693
		c0.5,0.104,0.833,0.563,0.833,0.563c1.041,0.313,0.625,0.788,0.625,0.788c-0.375,0.267-0.271,0.587-0.271,0.587
		c0.271,0.625-0.229,0.833-0.229,0.833c-0.063,0.563-0.638,1.208-0.638,1.208l7.575,2.883c0,0,0.376-0.924,1.209-1.258
		c0,0,0.521-0.521,0.125-0.917c0,0-0.458-0.271-0.063-0.5c0,0,0.375-0.167,0.583-0.104c0,0-0.188-0.458,0.396-0.375
		c0,0,1.063-0.437,1.729,0.458C281.563,72.017,282.161,72.851,282.352,72.739z"/>
	<text transform="matrix(0.7969 0.6041 -0.6041 0.7969 278.9199 66.0488)" class="st0 st1">40</text>
</g>
<g id="_x34_1">
	<path class="st8" d="M259.373,67.435l20.168-11.168L266.333,51.6l-18.047,9.563c0,0,0.12,0.344-0.317,0.75
		c0,0-0.188,0.531,0.313,0.594c0,0,1.164,0.611-0.699,1.024l6.806,2.662c0,0-0.325-0.967,0.175-1.561c0,0,0-0.656,0.75-0.875
		c0,0,0.219-0.469,0.875-0.625c0,0,0.906-0.563,1.531,0.125c0,0,0.656,0.438,1.125,0.188c0,0,1.094,0.281,0.219,1.438
		c0,0,0.313,0.656-0.25,0.938c0,0-0.375,0.675,0.156,0.587C258.969,66.406,259.402,67.051,259.373,67.435z"/>
	<text transform="matrix(0.6752 0.7376 -0.7376 0.6752 260.2422 58.2158)" class="st0 st1">41</text>
</g>
<g id="_x34_2">
	<path class="st8" d="M234.928,59.784l4.135,1.379l21.979-11.104c0,0-27.291-7.958-48.979,2.104l6.506,2.168
		c0,0-0.048-0.543,0.265-0.647c0,0-0.479-0.646,0.188-1.292c0,0,0.271-0.75,0.709-0.792c0,0,0.438-0.833,1.396-0.667
		c0,0,0.521-0.208,0.833,0.167c0,0-0.041,0.25,0.479,0.146c0,0,1.063-0.208,1,0.542c0,0,0.042,0.521-0.375,0.896
		c0,0-0.333,0.104,0.063,0.188c0,0,0.5,0.667-0.188,0.708c0,0-0.375,0.554,0.313,0.537c0,0,0.625,0.755,0.125,0.9l-1.264,0.495
		l9.244,3.082c0,0-0.064-0.452,0.123-0.723c0,0-0.313-0.688,0.25-1.375c0,0,0.126-0.646,0.584-0.688c0,0,0.5-0.708,1.375-0.708
		c0,0,0.582-0.458,0.979,0.208c0,0,0.646-0.146,0.854,0.146c0,0,1.063-0.104,0.667,0.583c0,0,0.104,0.208-0.167,0.313
		c0,0,0.354,0.333-0.25,0.563c0,0,0.563,0.479-0.083,1c0,0-0.125,0.542,0.188,0.5C235.875,58.413,236.835,59.092,234.928,59.784z"/>
	<text transform="matrix(0.9995 -0.0321 0.0321 0.9995 234.6514 53.7788)" class="st0 st1">42</text>
</g>
<g id="_x34_3">
	<path class="st8" d="M229.979,63.885l-1.312,4.173l-26.791-2.042l2.125-6.292c0,0,1-3.092,4.5-5.608l21.022,6.914
		c0,0-0.397,1.153,0.123,1.653C229.646,62.684,229.373,63.483,229.979,63.885z"/>
	<text transform="matrix(0.1454 -0.9894 0.9894 0.1454 216.4834 64.4009)" class="st0 st1">43</text>
</g>
<g id="_x34_4">
	<path class="st8" d="M227.398,73.482l-1.272,3.743l-27.25-2.083l2.25-6.542l26.376,2.185c0,0-0.376,0.315-0.293,0.815
		c0,0-0.749,0.292-0.458,0.979c0,0,0.063,0.5,0.458,0.479C227.209,73.059,227.171,73.531,227.398,73.482z"/>
	<text transform="matrix(0.1409 -0.99 0.99 0.1409 214.0039 75.1123)" class="st0 st1">44</text>
</g>
<g id="_x34_5">
	<path class="st8" d="M223.302,85.283l-1.509,3.567l-27.667-3.792l3.625-7.042l27.708,2.167l-0.294,0.695
		c0,0,0.21,0.326-0.561,0.222c0,0-1.021,0.021-1.125,0.583c0,0-0.229,0.708,0.271,1.042c0,0,0.125,0.25,0.333,0.25
		c0,0,0.001,0.542-0.521,0.854c0,0-0.729,0.188-0.729,0.604c0,0-0.084,0.792,0.521,0.667L223.302,85.283z"/>
	<text transform="matrix(0.1409 -0.99 0.99 0.1409 210.4414 84.9248)" class="st0 st1">45</text>
</g>
<g id="_x34_6">
	<path class="st8" d="M219.939,92.1c0,0,0.207,0.479-0.272,0.521c0,0-0.229,0.146-0.229,0.313c0,0-0.479-0.667-0.75-0.417
		c0,0-0.438,0.125,0,1.042c0,0-0.326,0.271-0.194,0.542c0,0-0.615,0.907,0.456,1.131l-1.948,3.932l-28.75-4.146l3.958-6.917
		l27.73,3.92"/>
	<text transform="matrix(0.1409 -0.99 0.99 0.1409 204.8164 95.9248)" class="st0 st1">46</text>
</g>
<g id="_x34_7">
	<path class="st8" d="M213.522,107.151l-1.688,3.658l-30.125-4.333l4.625-8.042l28.479,4.138c0,0-0.105,0.32-0.501,0.445
		c0,0-0.251,0.167-0.042,0.583c0,0-0.875-0.104-0.875,0.396c0,0-0.229,0.791,0.438,0.958c0,0-0.041,0.313-0.479,0.333
		c0,0-0.479,0.479,0.146,0.708C213.5,105.996,212.565,107.035,213.522,107.151z"/>
	<text transform="matrix(0.187 -0.9824 0.9824 0.187 199.3838 106.6938)" class="st0 st1">47</text>
</g>
<g id="_x34_8">
	<path class="st8" d="M208.034,119.221l-2.116,4.254l-31.375-4.375l5.167-8.917l28.713,4.309c0,0-0.859,0.003-0.589,0.732
		c0,0-0.396,0.979,0.417,0.979c0,0,0.499,0.083,0.041,0.354c0,0-0.416,0.333-0.583,0.708c0,0-0.687,0-0.708,0.521
		c0,0-0.271,0.792,0.438,0.854C207.438,118.642,207.38,119.217,208.034,119.221z"/>
	<text transform="matrix(0.187 -0.9824 0.9824 0.187 194.1123 119.2778)" class="st0 st2">48</text>
</g>
<g id="_x34_9">
	<path class="st8" d="M203.416,130.706l-2.415,6.728l-34.042-4.875l5.333-9.542l31.744,4.6c0,0,0.308,0.14-0.349,0.359
		c0,0-0.656-0.156-0.266,0.844c0,0-0.547,0.422-0.125,1.063C203.297,129.881,202.941,130.234,203.416,130.706z"/>
	<text transform="matrix(0.187 -0.9824 0.9824 0.187 187.8838 132.8608)" class="st0 st2">49</text>
</g>
<g id="_x35_0">
	<path class="st8" d="M199.185,142.974l0.316-0.916l-34.75-5.042c0,0-3.833,7.958-5,14l35.875,2.25l1.687-4.876
		c0,0-1.083,0.146-0.938-1.041c0,0-0.834-0.125-0.396-0.833c0,0,1.104-1.416,1.75-1.375c0,0,0.188-0.229-0.208-0.292
		c0,0-0.563-0.083-0.229-0.875c0,0-0.457-0.521,0.334-0.854c0,0,0.854-0.458,0.833,0.25
		C198.458,143.371,198.953,142.682,199.185,142.974z"/>
	<text transform="matrix(0.0895 -0.996 0.996 0.0895 181.0469 147.6914)" class="st0 st2">50</text>
</g>
<g id="_x35_1">
	<path class="st8" d="M194.668,158.559l-0.5,10.542l-37.625,0.458c0,0,0.375-9.042,1.833-13.208L194.668,158.559z"/>
	<text transform="matrix(0.0895 -0.996 0.996 0.0895 177.7964 166.5254)" class="st0 st3">51</text>
</g>
<g id="_x35_2">
	<polygon class="st8" points="194.501,174.892 196.543,187.142 156.834,189.559 156.251,175.309 	"/>
	<text transform="matrix(-0.0508 -0.9987 0.9987 -0.0508 178.0742 184.7876)" class="st0 st3">52</text>
</g>
<g id="_x35_3">
	<polygon class="st8" points="197.626,193.559 200.751,212.267 176.626,219.142 159.001,220.183 157.459,196.142 	"/>
	<text transform="matrix(-0.0508 -0.9987 0.9987 -0.0508 180.4023 209.0024)" class="st0 st4">53</text>
</g>
<g id="_x35_4">
	<path class="st8" d="M198.875,281.851l-27.458-54.75l-11.667,0.833l2.5,37.25c7.123,17.613,22.68,18.592,31.043,17.695
		c0,0-0.25-0.592,0.208-0.862c0,0-0.438-0.541,0.354-0.916c0,0,0.959-0.438,1.396,0.271c0,0,0.229,0.187,0.313-0.354
		c0,0,0.52-0.479,1.291,0.25c0,0,1.021-0.604,1.604,0.438C198.459,281.705,198.666,282.018,198.875,281.851z"/>
	<text transform="matrix(-0.2843 -0.9587 0.9587 -0.2843 178.1899 262.1099)" class="st0 st4">54</text>
</g>
<g id="_x39__1_">
	<polygon class="st8" points="104.688,170.6 102.875,182.788 63.125,185.1 65.813,170.288 	"/>
	<text transform="matrix(-0.0239 -0.9997 0.9997 -0.0239 84.6323 178.5908)" class="st0 st7">9</text>
</g>
<g id="_x31_0">
	<polygon class="st8" points="109.625,153.725 106.063,164.788 66.938,164.788 69.313,151.163 	"/>
	<text transform="matrix(0.109 -0.994 0.994 0.109 88.1406 161.1973)" class="st0 st7">10</text>
</g>
<g id="_x31_1">
	<polygon class="st8" points="116.281,138.381 111.563,148.506 72.375,146.017 82.083,134.475 	"/>
	<text transform="matrix(0.2838 -0.9589 0.9589 0.2838 96.4697 144.7983)" class="st0 st7">11</text>
</g>
<g id="_x31_2">
	<path class="st8" d="M124.531,124.756c0,0-3.781,5.031-5.875,8.969l-32.969-3.656l8.844-10.313L124.531,124.756z"/>
	<text transform="matrix(0.2842 -0.9588 0.9588 0.2842 106.147 129.8921)" class="st0 st2">12</text>
</g>
<g id="_x31_3">
	<polygon class="st8" points="133.469,112.381 127.344,120.6 97.719,115.663 104.531,107.569 	"/>
	<text transform="matrix(0.2285 -0.9736 0.9736 0.2285 116.6699 116.0586)" class="st0 st1">13</text>
</g>
<g id="_x31_4">
	<polygon class="st8" points="135.938,108.538 141.688,101.006 113.688,96.538 107.531,104.006 	"/>
	<text transform="matrix(0.3489 -0.9372 0.9372 0.3489 125.5273 105.1196)" class="st0 st1">14</text>
</g>
<g id="_x31_5">
	<polygon class="st8" points="144.156,97.413 149.313,90.506 122.188,86.319 116.531,93.163 	"/>
	<text transform="matrix(0.2712 -0.9625 0.9625 0.2712 133.4697 93.9219)" class="st0 st1">15</text>
</g>
<g id="_x31_6">
	<polygon class="st8" points="151.594,87.1 156.438,80.631 130.188,76.881 124.906,83.256 	"/>
	<text transform="matrix(0.2712 -0.9625 0.9625 0.2712 141.6885 84.2344)" class="st0 st1">16</text>
</g>
<g id="_x31_7">
	<polygon class="st8" points="158.5,77.475 162.813,70.475 136.031,68.225 132.438,73.975 	"/>
	<text transform="matrix(0.2712 -0.9625 0.9625 0.2712 148.209 74.5469)" class="st0 st1">17</text>
</g>
<g id="_x31_8">
	<polygon class="st8" points="166.875,61.881 164.219,67.444 137.781,65.381 141.5,59.725 	"/>
	<text transform="matrix(0.1843 -0.9829 0.9829 0.1843 153.144 66.0054)" class="st0 st1">18</text>
</g>
<g id="_x31_9">
	<polygon class="st8" points="171.375,53.819 168.188,59.256 143.125,57.1 147.625,50.069 	"/>
	<text transform="matrix(0.1843 -0.9829 0.9829 0.1843 157.7065 57.3179)" class="st0 st1">19</text>
</g>
<g id="_x32_0">
	<path class="st8" d="M175.751,49.414l-2.501,1.936l-24.063-3.531l2.75-4.406l6.563-2.531l19.181,5.567c0,0-0.869,0.37-0.9,0.698
		C176.781,47.147,175.222,46.712,175.751,49.414z"/>
	<text transform="matrix(0.4584 -0.8887 0.8887 0.4584 164.1138 48.3579)" class="st0 st1">20</text>
</g>
<g id="_x32_1">
	<path class="st8" d="M188.851,42.054l1.556-0.86l-15.031-6.969L162.75,39.35l18.764,5.283c0,0,0.314-0.611,0.564-0.549
		c0,0,0.141-0.703,1.203-0.797c0,0,0.188-0.5,0.797-0.094c0,0,0.266,0.578,0.469,0.328c0,0,0-0.203-0.266-0.438
		c0,0,0-0.422,0.234-0.547c0,0,0.031-0.609,0.984-0.594c0,0-0.453-0.156-0.438-0.484c0,0-0.234-0.391,0.109-0.703
		c0,0,0.359-0.219,0.828,0c0,0,0.172-0.547,0.75-0.359c0,0,0.641-0.109,0.813,0.578c0,0,0.641-0.203,0.672,0.797
		C188.234,41.772,188.749,42.11,188.851,42.054z"/>
	<text transform="matrix(0.5939 -0.8046 0.8046 0.5939 177.3726 41.416)" class="st0 st1">21</text>
</g>
<g id="_x32_2">
	<path class="st8" d="M200.943,38.125c2.053-0.5,3.619-0.838,3.619-0.838l-10.75-8.406l-14.125,4l12.602,5.792
		c0,0,0.305-0.495,0.836-0.182c0,0,0.922-0.297,1.203-0.063c0,0,0.203,0.281,0.297,0.078c0,0,0.75-0.234,0.813,0.016
		c0,0-0.083,1.113,0.254,1.012c0.275-0.083,0.558-0.167,0.844-0.249c0,0,0.23-0.482,0.043-0.638c0,0-0.203-0.781,0.125-1.453
		c0,0,0.484-0.859,1.25-0.75c0,0,0.766-0.141,0.875,0.125c0,0,0.938-0.297,1.172,0.547c0,0,0.938,0.063,0.813,1.063L200.943,38.125z
		"/>
	<text transform="matrix(0.8269 -0.5623 0.5623 0.8269 192.3857 36.1304)" class="st0 st1">22</text>
</g>
<g id="_x32_3">
	<path class="st8" d="M214.407,35.699l6.069-0.843l-5.914-9.162l-9.375,0.219l-6.875,1.906l9.043,6.763c0,0,0.738-0.373,0.895,0.237
		c0,0,0.875-0.094,0.672,0.688l0.311,0.479l0.486,0.365l0.637-0.089c0,0-0.012-0.411,0.207-0.411c0,0,0.156-0.406-0.063-0.688
		c0,0-0.266-0.125-0.188-0.438c0,0,0.109-0.625,0.641-0.391c0,0,0.266,0.328,0.328,0.25c0,0,0.203-0.263,0.016-0.374
		c0,0-0.094-0.345,0.234-0.423c0,0,0.453-0.5,0.781-0.203c0,0,0.578-0.406,0.781,0.25c0,0,0.516-0.044,0.484,0.376
		c0,0,0.313,0.092,0.313,0.264c0,0,0.406,0.031,0.047,0.531C213.938,35.006,214.049,35.672,214.407,35.699z"/>
	<text transform="matrix(0.9128 -0.4083 0.4083 0.9128 209.3154 31.9707)" class="st0 st1">23</text>
</g>
<g id="_x32_4">
	<path class="st8" d="M235.938,34.235l-4.876,0.122c0.202-0.384,0.048-0.991,0.048-0.991c0.141-0.422-0.094-0.672-0.094-0.672
		c0.188-1.25-0.922-0.453-0.922-0.453c-0.797-1-1.344-0.203-1.344-0.203c-1.031,0.016-1.313,0.75-1.313,0.75
		c-0.406,0.453-0.188,0.906-0.188,0.906c-0.266,0.406-0.172,0.762-0.172,0.762l-0.766,0.019l-6.219-8.938l17.156-0.563l0.23,6.204
		c0,0-0.777,0.03-0.59,1.015c0,0,0.313,0.578-0.094,0.641c0,0-0.141-0.078-0.125-0.5c0,0-0.344-0.281-0.563,0.344
		c0,0-0.063,0.313,0.047,0.484C236.156,33.163,235.75,33.495,235.938,34.235z"/>
	<text transform="matrix(0.9994 -0.034 0.034 0.9994 228.1924 30.3135)" class="st0 st1">24</text>
</g>
<g id="_x32_5">
	<path class="st8" d="M243.115,31.505l-0.459-6.28c10.594,0.875,17.094,2,17.094,2l-3.52,5.888c0,0-0.324,0.081-0.293-0.232
		c0,0,0.25-0.531-0.328-0.641c0,0-1.453-0.531-1.578,0.063c0,0-0.219,0.453-0.484,0.375c0,0-0.125,0.264,0.078,0.444
		c0,0,0.156,0.478-0.141,0.321c0,0,0.016-0.188-0.203-0.406c0,0-0.516-0.328-0.734,0.297c0,0-0.172,0.266,0.156,0.688
		c0,0,0.141,0.641-0.156,0.742l-0.093,0.359c-1.92-0.167-3.915-0.283-5.547-0.359c0,0-0.095-0.336-0.438-0.414
		c0,0-0.234-0.281,0.406-0.313c0,0,0.391-1.328-0.797-1.094c0,0,0.141-0.656-0.578-1.016c0,0,0.125-0.734-0.859-0.453
		c0,0-0.531-0.141-0.703,0.25c0,0-0.844-0.25-0.828,0.078l-0.016-0.328"/>
	<text transform="matrix(0.9983 0.058 -0.058 0.9983 247.457 30.8633)" class="st0 st1">25</text>
</g>
<g id="_x32_6">
	<path class="st8" d="M261.953,33.839l3.484-5.989l14.25,1.531l2.844,0.917l-9.141,6.821c-0.13,0.097-0.494-0.828-0.494-0.828
		c-0.167-0.163-0.167-0.545-0.167-0.545c-0.042-0.646-1.041-0.792-1.041-0.792c-0.771-0.167-1.25,0.542-1.25,0.542
		c-0.208,0.229-0.396-0.104-0.396-0.104c-0.667-0.313-1.188,0.188-1.188,0.188c-0.334,0.521,0.063,1.188,0.063,1.188
		c0.438,0.083,0.167,0.353,0.167,0.353c-0.333,0.166-0.367,0.535-0.367,0.535c-2.026-0.601-4.088-1.001-5.618-1.25
		c0,0,0.152-0.409-0.348-0.867c0,0-0.146-0.188,0.188-0.271c0,0,0.541-0.666-0.792-1.146
		C262.146,34.121,261.83,34.05,261.953,33.839z"/>
	<text transform="matrix(0.9542 0.2991 -0.2991 0.9542 268.04 32.7642)" class="st0 st1">26</text>
</g>
<g id="_x32_7">
	<path class="st8" d="M278.863,40.093l5.051,1.543c0,0-0.023-0.786,0.289-1.021c0,0,0.266-0.578,1.125-0.531
		c0,0,0.625-0.688,1.328-0.313c0,0,0.578,0.109,0.703,0.281c0,0,0.688-0.359,0.75,0.094c0,0,0.359,0.469,0.063,1.078
		c0,0,0.297,0.563-0.359,1c0,0-0.166,0.501,0.097,0.5l12.758-6.667L287.5,31.725l-9.101,6.992c0,0-0.009,0.445-0.478,0.555
		c0,0-0.281,0.141,0,0.219C277.922,39.491,278.773,39.399,278.863,40.093z"/>
	<text transform="matrix(0.9086 0.4178 -0.4178 0.9086 285.1689 37.7559)" class="st0 st1">27</text>
</g>
<g id="_x32_8">
	<path class="st8" d="M304.561,47.221l11.553-6.399l-10.447-3.388l-12.791,7l6.865,2.4c0,0,0.213-0.421,0.197-0.733
		c0,0-0.047-0.828,0.484-0.625c0,0,0.281,0.219,0.328,0.359c0,0,0.25,0.016,0.25-0.219c0,0,0.047-1,0.781-0.859
		c0,0,0.516-0.391,1.047,0.031c0,0,0.594-0.5,1.172,0.422c0,0,0.422,0.109,0.422,0.813c0,0,0.828,0.484-0.016,0.906
		C304.406,46.928,304.184,47.327,304.561,47.221z"/>
	<text transform="matrix(0.833 0.5533 -0.5533 0.833 302.335 42.5518)" class="st0 st1">28</text>
</g>
<g id="_x32_9">
	<path class="st8" d="M320.022,53.066l12.269-7.174l-10.916-3.708l-12.667,7.375l7.288,2.42c0,0-0.043-0.363,0.238-0.425
		c0,0-0.484-0.203-0.234-0.656c0,0-0.141-0.828,0.625-0.891c0,0,0.5-0.219,0.859,0.219c0,0,0.469,0.203,0.516-0.141
		c0,0,0.25-0.75,0.844-0.344c0,0,0.672-0.156,1.156,0.5c0,0,0.438,0.016,0.578,0.422c0,0,0.125,0.203-0.281,0.359
		c0,0-0.016,0.438,0.203,0.453c0,0,0.609,0.422-0.188,1c0,0-0.594,0.078-0.516,0.313C319.797,52.788,319.783,53.206,320.022,53.066z
		"/>
	<text transform="matrix(0.7826 0.6225 -0.6225 0.7826 318.8506 46.8569)" class="st0 st1">29</text>
</g>
<g id="_x33_0">
	<path class="st8" d="M334.162,59.41l0.88,0.398l24.25-5.583l-21.417-6.875l-13.042,7.833l4.656,2.11c0,0,0.261-0.693,0.948-0.693
		c0,0,0.234-0.703,1.031-0.734c0,0,0.641-0.797,2.047,0.266c0,0,1.109-0.047,1.109,0.375c0,0,0.266,0.516-0.438,0.859
		c0,0-0.203,0.438,0.188,0.5c0,0,0.578,0.031,0.453,0.5c0,0,0.047,0.438-0.5,0.469C334.328,58.834,334.074,58.986,334.162,59.41z"/>
	<text transform="matrix(0.6911 0.7228 -0.7228 0.6911 335.6924 53.2759)" class="st0 st1">30</text>
</g>
</svg>
