<?xml version="1.0" encoding="utf-8"?>
<!-- Generator: Adobe Illustrator 16.0.0, SVG Export Plug-In . SVG Version: 6.00 Build 0)  -->
<!DOCTYPE svg PUBLIC "-//W3C//DTD SVG 1.1//EN" "http://www.w3.org/Graphics/SVG/1.1/DTD/svg11.dtd">
<svg version="1.1" id="Layer_1" xmlns="http://www.w3.org/2000/svg" xmlns:xlink="http://www.w3.org/1999/xlink" x="0px" y="0px"
	 width="288px" height="219.84px" viewBox="0 0 288 219.84" style="enable-background:new 0 0 288 219.84;" xml:space="preserve">
<style type="text/css">
	g polygon, g path , g polyline, g rect {
	fill : #d8b08a;
	stroke : #fff;
	stroke-width:0.7;
	stroke-miterlimit:10;
	}
	g text{font-size:4px;
				font-family:'Tahoma';
				}
				
			#Group_5 path , #Group_69 path , #Group_37 polygon{
				fill : #ede671!important;
			}
</style>
<image style="overflow:visible;" width="1200" height="916" xlink:href="/dashboard/plat-data/regent.jpg"  transform="matrix(0.24 0 0 0.24 0 0)">
</image>
<g id="Group_1">
	<polygon id="_x31_" class="st0" points="111.938,36.813 126.375,39.625 124.281,52 109.75,49.25 	"/>
	<text transform="matrix(1 0 0 1 115.9844 45.625)" class="st2 st1">1</text>
</g>
<g id="Group_2">
	<polygon id="_x32_" class="st0" points="107.688,61.313 109.75,49.25 124.281,52 122.281,64.063 	"/>
	<text transform="matrix(1 0 0 1 114.2344 58.125)" class="st2 st1">2</text>
</g>
<g id="Group_3">
	<polygon id="_x33_" class="st0" points="105.5,74.375 107.688,61.313 122.281,64.063 120.125,76.813 	"/>
	<text transform="matrix(1 0 0 1 112.8179 70.041)" class="st2 st1">3</text>
</g>
<g id="Group_4">
	<path id="_x34_" class="st0" d="M116.938,91.563c1.516,0.016,1.563-0.672,1.688-1.625s1.5-13.125,1.5-13.125L105.5,74.375
		l-0.938,17.188H116.938z"/>
	<text transform="matrix(1 0 0 1 110.8857 85.4365)" class="st2 st1">4</text>
</g>
<g id="Group_5" data-size="10,635"	 data-price="$43,900" >
	<path class="st0" data-size="10,635"	 data-price="$43,900"  d="M98.188,81.75c0,0-0.375,9.001-0.438,10.875c-4.167,1.25-6.729,2.771-8.25,3.875
		c-1.176,0.89-0.833,0.834-1.938,1.25s-2.375-0.207-2.875-0.75s-0.875-2-0.875-2l-1.25-5.094c0,0-0.505-2.336,0-3.469
		c0.585-1.312,1.396-3.125,1.375-5.188C85.781,81.297,98.188,81.75,98.188,81.75z"/>
	<text transform="matrix(1 0 0 1 88.5522 89.5684)" class="st2 st1">5</text>
</g>
<g id="Group_6">
	<path class="st0" d="M91.313,61.625l6.875,20.125c0,0-12.229-0.478-14.25-0.5c0.021-3.105-1.257-4.874-3.125-6.543
		C82.017,73.221,91.313,61.625,91.313,61.625z"/>
	<text transform="matrix(1 0 0 1 88.1357 76.8125)" class="st2 st1">6</text>
</g>
<g id="Group_7">
	<path class="st0" d="M69.438,57.125l21.875,4.5c0,0-9.333,11.604-10.5,13.082c-1.208-1.459-4.375-2.187-7.063-1.457
		C73.104,71,69.438,57.125,69.438,57.125z"/>
	<text transform="matrix(1 0 0 1 77.3857 67.5)" class="st2 st1">7</text>
</g>
<g id="Group_8">
	<path class="st0" d="M54.063,72v-2.375l15.375-12.5c0,0,3.625,13.938,4.313,16.125c-2.958,0.792-4.228,2.928-5.25,4.625
		C66.377,77,54.063,72,54.063,72z"/>
	<text transform="matrix(1 0 0 1 64.5522 71.084)" class="st2 st1">8</text>
</g>
<g id="Group_9">
	<path class="st0" d="M54.813,91.125l-0.438-7.75L54.063,72c0,0,12.125,4.96,14.438,5.875c-1.188,2.957-0.12,7.483,1.547,8.484
		c1.714,1.03,1.594,1.344,2.5,2.422c0.578,0.693,1.203,1.844,1.203,1.844L54.813,91.125z"/>
	<text transform="matrix(1 0 0 1 59.4688 84.3389)" class="st2 st1">9</text>
</g>
<g id="Group_10">
	<polygon class="st0" points="55.75,102.813 54.813,91.125 73.75,90.625 77,102.125 	"/>
	<text transform="matrix(1 0 0 1 62.7188 97.8857)" class="st2 st1">10</text>
</g>
<g id="Group_11">
	<path class="st0" d="M56.75,114.438l-1-11.625L77,102.125c0,0,1.208,1.751,1.688,2.25s0.873,1.475,0,3.375
		s-2.813,6.125-2.813,6.125L56.75,114.438z"/>
	<text transform="matrix(1 0 0 1 64.9688 109.3857)" class="st2 st1">11</text>
</g>
<g id="Group_12">
	<polygon class="st0" points="57.875,126.188 56.75,114.438 75.875,113.875 74.708,125.625 	"/>
	<text transform="matrix(1 0 0 1 64.9688 122)" class="st2 st1">12</text>
</g>
<g id="Group_13">
	<polygon class="st0" points="58.375,137.688 57.875,126.188 74.708,125.625 75.167,137.188 	"/>
	<text transform="matrix(1 0 0 1 64.9688 133.167)" class="st2 st1">13</text>
</g>
<g id="Group_14">
	<polygon class="st0" points="58.875,149.375 58.375,137.688 75.167,137.188 75.625,149 	"/>
	<text transform="matrix(1 0 0 1 64.9688 144.334)" class="st2 st1">14</text>
</g>
<g id="Group_15">
	<polygon class="st0" points="59.375,161.5 58.875,149.375 75.625,149 76.125,160.938 	"/>
	<text transform="matrix(1 0 0 1 65.4688 156.541)" class="st2 st1">15</text>
</g>
<g id="Group_16" data-size="10,285"	 data-price="$41,900" >
	<polygon class="st0" data-size="10,285"	 data-price="$41,900"  points="59.75,173.25 59.375,161.5 76.125,160.938 76.625,172.75 	"/>
	<text transform="matrix(1 0 0 1 65.4688 168.374)" class="st2 st1">16</text>
</g>
<g id="Group_17">
	<path class="st0" d="M60.313,187.063L59.75,173.25l16.875-0.5l0.313,11.875c0,0,0.231,1.854-2.188,1.938
		S60.313,187.063,60.313,187.063z"/>
	<text transform="matrix(1 0 0 1 65.4688 181.291)" class="st2 st1">17</text>
</g>
<g id="Group_18">
	<path class="st0" d="M41.188,173.875l18.563-0.625l0.563,13.813L43.604,188c0,0-2.002-0.038-2.083-2.792
		S41.188,173.875,41.188,173.875z"/>
	<text transform="matrix(1 0 0 1 48.1353 181.959)" class="st2 st1">18</text>
</g>
<g id="Group_19">
	<polygon class="st0" points="40.667,162.458 59.375,161.5 59.75,173.25 41.188,173.875 	"/>
	<text transform="matrix(1 0 0 1 48.1353 169.209)" class="st2 st1">19</text>
</g>
<g id="Group_20" data-size="11,003"	 data-price="$36,900" >
	<polygon class="st0" data-size="11,003"	 data-price="$36,900"  points="40.417,151.042 58.927,150.625 59.375,161.5 40.667,162.458 	"/>
	<text transform="matrix(1 0 0 1 47.4688 158.043)" class="st2 st1">20</text>
</g>
<g id="Group_21">
	<polygon class="st0" points="39.958,139.583 58.433,139.041 58.875,149.375 58.927,150.625 40.417,151.042 	"/>
	<text transform="matrix(1 0 0 1 46.6353 146.25)" class="st2 st1">21</text>
</g>
<g id="Group_22">
	<polygon class="st0" points="39.417,128.5 57.952,127.956 58.375,137.688 58.433,139.041 39.958,139.583 	"/>
	<text transform="matrix(1 0 0 1 45.6353 135.1406)" class="st2 st1">22</text>
</g>
<g id="Group_23">
	<polygon class="st0" points="39.208,117.25 56.967,116.703 57.875,126.188 57.952,127.956 39.417,128.5 	"/>
	<text transform="matrix(1 0 0 1 45.2188 123.9277)" class="st2 st1">23</text>
</g>
<g id="Group_24" data-size="10,484"	 data-price="$38,999" >
	<polygon class="st0" data-size="10,484"	 data-price="$38,999"  points="38.708,106.208 55.996,105.674 56.75,114.438 56.967,116.703 39.208,117.25 	"/>
	<text transform="matrix(1 0 0 1 45.2188 112.9697)" class="st2 st1">24</text>
</g>
<g id="Group_25">
	<polygon class="st0" points="38.417,94.958 55.07,94.337 55.75,102.813 55.996,105.674 38.708,106.208 	"/>
	<text transform="matrix(1 0 0 1 44.3018 101.3125)" class="st2 st1">25</text>
</g>
<g id="Group_26" data-size="9,798"	 data-price="$37,900" >
	<polygon class="st0" data-size="9,798"	 data-price="$37,900"  points="38.042,83.583 54.375,83.375 54.813,91.125 55.07,94.337 38.417,94.958 	"/>
	<text transform="matrix(1 0 0 1 43.5518 90.625)" class="st2 st1">26</text>
</g>
<g id="Group_27">
	<polygon class="st0" points="37.5,72.416 54.063,72 54.375,83.375 38.042,83.583 	"/>
	<text transform="matrix(1 0 0 1 42.8848 79.125)" class="st2 st1">27</text>
</g>
<g id="Group_28">
	<polygon class="st0" points="37.25,61.208 54.063,60.791 54.063,69.625 54.063,72 37.5,72.416 	"/>
	<text transform="matrix(1 0 0 1 42.8848 68.125)" class="st2 st1">28</text>
</g>
<g id="Group_29">
	<polygon class="st0" points="36.792,50.042 53.708,49.583 54.063,60.791 37.25,61.208 	"/>
	<text transform="matrix(1 0 0 1 42.2178 56.6563)" class="st2 st1">29</text>
</g>
<g id="Group_30">
	<polygon class="st0" points="36.417,38.875 53.208,38.25 53.708,49.583 36.792,50.042 	"/>
	<text transform="matrix(1 0 0 1 42.2178 45.625)" class="st2 st1">30</text>
</g>
<g id="Group_31">
	<path class="st0" d="M43.375,24.167l11.75,2.333l-1.917,11.75l-16.792,0.625V36c0,0,0.215-3.311,4.048-5.686
		C43.465,27.813,43.375,24.167,43.375,24.167z"/>
	<text transform="matrix(1 0 0 1 44.3018 33.792)" class="st2 st1">31</text>
</g>
<g id="Group_32">
	<polygon class="st0" points="87.417,211.334 86.5,194.584 98.083,193.667 98.917,210.667 	"/>
	<text transform="matrix(1 0 0 1 90.2627 203.459)" class="st2 st1">32</text>
</g>
<g id="Group_33">
	<polygon class="st0" points="110.25,193.167 98.083,193.667 98.917,210.667 111.083,209.667 	"/>
	<text transform="matrix(1 0 0 1 102.75 203.125)" class="st2 st1">33</text>
</g>
<g id="Group_34">
	<path class="st0" d="M123.167,208.917l-12.083,0.75l-0.833-16.5l10.417-0.75c0,0,2.117-0.04,2.167,2.084
		S123.167,208.917,123.167,208.917z"/>
	<text transform="matrix(1 0 0 1 114.5835 202.5)" class="st2 st1">34</text>
</g>
<g id="Group_35">
	<path class="st0" d="M146.584,207.917l-0.917-16.916l-9.75,0.416c0,0-2.5-0.271-2.5,2.25s0,14.584,0,14.584L146.584,207.917z"/>
	<text transform="matrix(1 0 0 1 137.7505 201.418)" class="st2 st1">35</text>
</g>
<g id="Group_36">
	<polygon class="st0" points="156.917,190.417 157.75,207.334 146.584,207.917 145.667,191.001 	"/>
	<text transform="matrix(1 0 0 1 149.501 201.041)" class="st2 st1">36</text>
</g>
<g id="Group_37" data-size="10,197"	 data-price="$49,900" >
	<polygon class="st0" data-size="10,197"	 data-price="$49,900"  points="168.667,189.751 169.334,206.751 157.75,207.334 156.917,190.417 	"/>
	<text transform="matrix(1 0 0 1 161.168 200.625)" class="st2 st1">37</text>
</g>
<g id="Group_38">
	<path class="st0" d="M180.25,188.667l0.834,17.5l-11.75,0.584l-0.667-17c0,0,6.229-0.125,7.771-0.23S180.25,188.667,180.25,188.667
		z"/>
	<text transform="matrix(1 0 0 1 172.585 200.125)" class="st2 st1">38</text>
</g>
<g id="Group_39">
	<path class="st0" d="M192.541,190.729l3.376,14.521l-14.833,0.916l-0.834-17.5c0,0,1.834-0.708,3.5,0s3.313,1.73,5.313,2
		S192.541,190.729,192.541,190.729z"/>
	<text transform="matrix(1 0 0 1 185.251 199.627)" class="st2 st1">39</text>
</g>
<g id="Group_40">
	<path class="st0" d="M213.583,195.751l0.375,8.958l-18.041,0.542c0,0-2.98-12.917-3.376-14.521c2.006-0.62,4.6-2.808,5.167-4.313
		C198.752,187.031,213.583,195.751,213.583,195.751z"/>
	<text transform="matrix(1 0 0 1 199.085 198.043)" class="st2 st1">40</text>
</g>
<g id="Group_41">
	<path class="st0" d="M213.083,175.751l0.5,20c0,0-14.745-8.651-15.875-9.334c0.714-1.058,1.354-3.854,0.875-6.791
		C199.819,179.296,213.083,175.751,213.083,175.751z"/>
	<text transform="matrix(1 0 0 1 204.3545 186.418)" class="st2 st1">41</text>
</g>
<g id="Group_42">
	<path class="st0" d="M212.791,165.001l0.292,10.75c0,0-13.37,3.563-14.5,3.875c-0.083-1.36-1.521-3.329-2.666-5.25
		c-0.542-2.063,0.291-9.084,0.291-9.084L212.791,165.001z"/>
	<text transform="matrix(1 0 0 1 202.7705 172.668)" class="st2 st1">42</text>
</g>
<g id="Group_43">
	<polygon class="st0" points="195.917,153.584 212.5,153.251 212.791,165.001 196.208,165.292 	"/>
	<text transform="matrix(1 0 0 1 202.1045 160.75)" class="st2 st1">43</text>
</g>
<g id="Group_44">
	<polygon class="st0" points="195.625,141.876 212.125,141.501 212.5,153.251 195.917,153.584 	"/>
	<text transform="matrix(1 0 0 1 201.4375 148.876)" class="st2 st1">44</text>
</g>
<g id="Group_45">
	<polygon class="st0" points="195.25,130.209 211.833,129.792 212.125,141.501 195.625,141.876 	"/>
	<text transform="matrix(1 0 0 1 202.1045 137.459)" class="st2 st1">45</text>
</g>
<g id="Group_46">
	<path class="st0" d="M211.458,112.709l0.375,17.083l-16.583,0.417l-0.5-14.916c0,0,0.081-2.151,2.291-2.209
		S211.458,112.709,211.458,112.709z"/>
	<text transform="matrix(1 0 0 1 201.8125 123.75)" class="st2 st1">46</text>
</g>
<g id="Group_47">
	<path class="st0" d="M210.667,88.25l0.458,16.042c0,0-13,0.01-14.75,0S194.417,102,194.417,102s0.083-6.75-0.625-11.792
		C196.375,90.031,210.667,88.25,210.667,88.25z"/>
	<text transform="matrix(1 0 0 1 200.9375 98.25)" class="st2 st1">47</text>
</g>
<g id="Group_48">
	<path class="st0" d="M210.25,72.958l0.417,15.292c0,0-14.927,1.729-16.875,1.958c-0.417-4.271-1.708-7.739-2.584-10.583
		C192.726,79.094,210.25,72.958,210.25,72.958z"/>
	<text transform="matrix(1 0 0 1 199.9375 84.3389)" class="st2 st1">48</text>
</g>
<g id="Group_49">
	<path class="st0" d="M210,61.5l0.25,11.458c0,0-17.084,5.917-19.042,6.667c-1.074-3.667-1.591-3.933-2.083-6
		c-0.469-1.969-0.021-3.75-0.178-7.208C191.51,65.844,210,61.5,210,61.5z"/>
	<text transform="matrix(1 0 0 1 197.4375 71.084)" class="st2 st1">49</text>
</g>
<g id="Group_50">
	<path class="st0" d="M209.625,46.75L210,61.5c0,0-19.334,4.459-21.053,4.917c-0.178-1.729-1.791-4.073-4.072-5.292
		c0.707-1.365,8.958-17.292,8.958-17.292L209.625,46.75z"/>
	<text transform="matrix(1 0 0 1 194.75 57.125)" class="st2 st1">50</text>
</g>
<g id="Group_51" data-size="16,261"	 data-price="$43,900" >
	<path class="st0" data-size="16,261"	 data-price="$43,900"  d="M168.542,39.167l25.291,4.667c0,0-8.052,15.635-8.958,17.292c-1.844-1.156-5.625-0.906-7.167-0.25
		C177.188,59.656,168.542,39.167,168.542,39.167z"/>
	<text transform="matrix(1 0 0 1 179.5674 52.625)" class="st2 st1">51</text>
</g>
<g id="Group_52">
	<path class="st0" d="M158.208,37.25l10.334,1.917c0,0,8.374,19.865,9.166,21.708c-2.864,1.333-3.629,3.01-4.396,5.333
		c-2.056-0.562-19.396-5.292-19.396-5.292l1.209-6.375L158.208,37.25z"/>
	<text transform="matrix(1 0 0 1 162.9219 56.125)" class="st2 st1">52</text>
</g>
<g id="Group_53">
	<path class="st0" d="M174.844,73.25c-1.604,1.156-12.761,9.792-12.761,9.792l-3.333-1.458L151,77.667l2.041-11.708l0.875-5.042
		c0,0,17.115,4.719,19.396,5.292C172.844,68.344,173.146,70.938,174.844,73.25z"/>
	<text transform="matrix(1 0 0 1 158.8369 73.25)" class="st2 st1">53</text>
</g>
<g id="Group_54">
	<path class="st0" d="M184.208,86.917l-9.542,2.25l-8.125-3.792l-4.458-2.333c0,0,11.302-8.729,12.761-9.792
		c2.521,2.563,2.864,2.228,4.156,3.042C183.501,78.917,184.208,86.917,184.208,86.917z"/>
	<text transform="matrix(1 0 0 1 173.5 83.042)" class="st2 st1">54</text>
</g>
<g id="Group_55">
	<path class="st0" d="M173.5,104.75l1.166-15.583l9.542-2.25l1.125,5.625l0.292,10.75c0,0,0.25,1.291-1.75,1.458
		S173.5,104.75,173.5,104.75z"/>
	<text transform="matrix(1 0 0 1 177.708 97.8857)" class="st2 st1">55</text>
</g>
<g id="Group_56">
	<path class="st0" d="M166.674,85.437l7.992,3.73L173.5,104.75c0,0-7.594-0.454-12.459-2.667
		C161.737,100.026,166.674,85.437,166.674,85.437z"/>
	<text transform="matrix(1 0 0 1 166.6738 96.7188)" class="st2 st1">56</text>
</g>
<g id="Group_57">
	<path class="st0" d="M158.629,81.522l3.454,1.52l4.591,2.395c0,0-5.05,14.855-5.633,16.646c-4.666-1.458-7.01-2.615-10.041-4.427
		C152.042,95.583,158.629,81.522,158.629,81.522z"/>
	<text transform="matrix(1 0 0 1 156.9238 93.2188)" class="st2 st1">57</text>
</g>
<g id="Group_58">
	<path class="st0" d="M146.719,76.844L151,77.667l7.629,3.855c0,0-7.004,14.821-7.629,16.134c-3.438-1.531-6.063-2.563-9.156-3.563
		C142.445,91.967,146.719,76.844,146.719,76.844z"/>
	<text transform="matrix(1 0 0 1 146.7188 89.5684)" class="st2 st1">58</text>
</g>
<g id="Group_59">
	<path class="st0" d="M133.833,74.583l12.885,2.26l-4.875,17.25c0,0-4.51-1.01-6.76-1.427c-1.577-0.629-3.226-0.359-2.833-3.875
		S133.833,74.583,133.833,74.583z"/>
	<text transform="matrix(1 0 0 1 136.4688 85.4365)" class="st2 st1">59</text>
</g>
<g id="Group_60">
	<polygon class="st0" points="135.958,63.083 152.997,66.208 151,77.667 146.719,76.844 133.833,74.583 	"/>
	<text transform="matrix(1 0 0 1 140.7344 71.6875)" class="st2 st1">60</text>
</g>
<g id="Group_61">
	<polygon class="st0" points="137.875,51.417 155.125,54.542 153.916,60.917 152.997,66.208 135.958,63.083 	"/>
	<text transform="matrix(1 0 0 1 142.7344 60.166)" class="st2 st1">61</text>
</g>
<g id="Group_62">
	<path class="st0" d="M144.209,34.542c3.017,0.583,13.999,2.708,13.999,2.708l-3.083,17.292l-17.25-3.125l2.333-13.5
		C140.208,37.917,141.192,33.958,144.209,34.542z"/>
	<text transform="matrix(1 0 0 1 145.542 46.916)" class="st2 st1">62</text>
</g>
<g id="Group_63">
	<path class="st0" d="M101.438,101c0.123,4.596,0.563,21,0.563,21s-15.906,0.469-18.75,0.563
		C84.344,110.719,92.219,102.406,101.438,101z"/>
	<text transform="matrix(1 0 0 1 91.3125 115.916)" class="st2 st1">63</text>
</g>
<g id="Group_64">
	<polygon class="st0" points="102.438,134.438 83.813,134.875 83.25,122.563 102,122 102,124.875 	"/>
	<text transform="matrix(1 0 0 1 91.3125 129.793)" class="st2 st1">64</text>
</g>
<g id="Group_65">
	<polygon class="st0" points="102.75,146.688 84.313,147.375 83.813,134.875 102.438,134.438 102.438,136.5 	"/>
	<text transform="matrix(1 0 0 1 91.3125 143.168)" class="st2 st1">65</text>
</g>
<g id="Group_66">
	<polygon class="st0" points="103.25,159.438 84.75,159.875 84.313,147.375 102.75,146.688 102.75,148.313 	"/>
	<text transform="matrix(1 0 0 1 91.3125 155.25)" class="st2 st1">66</text>
</g>
<g id="Group_67">
	<polygon class="st0" points="103.844,171.688 85.375,172.313 84.75,159.875 103.25,159.438 	"/>
	<text transform="matrix(1 0 0 1 91.8125 167.0938)" class="st2 st1">67</text>
</g>
<g id="Group_68">
	<path class="st0" d="M104.031,184.406c0,0-13.813,0.781-15.969,0.938s-2.219-2.313-2.219-2.313l-0.469-10.719l18.469-0.625
		L104.031,184.406z"/>
	<text transform="matrix(1 0 0 1 92.625 179.625)" class="st2 st1">68</text>
</g>
<g id="Group_69" data-size="11,880"	 data-price="$39,900" >
	<path class="st0" data-size="11,880"	 data-price="$39,900"  d="M122,171.219c0,0,0.234,9.094,0.25,10.5s-0.83,1.749-2,1.813s-16.219,0.875-16.219,0.875l-0.188-12.719
		L122,171.219z"/>
	<text transform="matrix(1 0 0 1 109.75 178.5195)" class="st2 st1">69</text>
</g>
<g id="Group_70" data-size="11,475"	 data-price="$34,900" >
	<polygon class="st0" data-size="11,475"	 data-price="$34,900"  points="121.563,159.438 122,171.219 103.844,171.688 103.25,159.438 	"/>
	<text transform="matrix(1 0 0 1 109.75 166.7695)" class="st2 st1">70</text>
</g>
<g id="Group_71">
	<polygon class="st0" points="121.281,147.625 121.563,159.438 103.25,159.438 102.75,148.313 	"/>
	<text transform="matrix(1 0 0 1 109.75 155.25)" class="st2 st1">71</text>
</g>
<g id="Group_72">
	<polygon class="st0" points="120.844,135.875 121.281,147.625 102.75,148.313 102.75,146.688 102.438,136.375 	"/>
	<text transform="matrix(1 0 0 1 109.25 143.168)" class="st2 st1">72</text>
</g>
<g id="Group_73">
	<polygon class="st0" points="120.563,124.281 120.844,135.875 102.438,136.375 102.563,134.438 102,124.719 	"/>
	<text transform="matrix(1 0 0 1 108.9165 131.6563)" class="st2 st1">73</text>
</g>
<g id="Group_74">
	<polygon class="st0" points="120.333,112.438 120.563,124.281 102,124.719 102,122 101.758,112.97 	"/>
	<text transform="matrix(1 0 0 1 108.9165 119.918)" class="st2 st1">74</text>
</g>
<g id="Group_75">
	<path class="st0" d="M119.938,102.75c0.219,2.344,0.396,9.688,0.396,9.688l-18.575,0.532L101.438,101c0,0,2.375-0.516,3.656-0.5
		c1.75,0,12.75,0,12.75,0S119.719,100.406,119.938,102.75z"/>
	<text transform="matrix(1 0 0 1 109.25 108.2813)" class="st2 st1">75</text>
</g>
<g id="Group_76">
	<path class="st0" d="M161.041,111.208c0.086,3.668,0.418,17.917,0.418,17.917l-11.834,0.25l-0.375-11.313c0,0,0.041-9.115,0-11.771
		C155.584,109.667,157.204,109.92,161.041,111.208z"/>
	<text transform="matrix(1 0 0 1 152.5938 120.7813)" class="st2 st1">76</text>
</g>
<g id="Group_77">
	<path class="st0" d="M149.25,106.292v11.771l-18.438,0.516c0,0,0.031-13.672,0-15.703s3.5-1.5,3.5-1.5s5.844,1.281,8.094,1.875
		S149.25,106.292,149.25,106.292z"/>
	<text transform="matrix(1 0 0 1 137.0313 112.4375)" class="st2 st1">77</text>
</g>
<g id="Group_78">
	<polygon class="st0" points="149.625,129.375 131.313,129.792 130.813,118.578 149.25,118.063 	"/>
	<text transform="matrix(1 0 0 1 138.2813 125.125)" class="st2 st1">78</text>
</g>
<g id="Group_79">
	<polygon class="st0" points="150.156,140.375 131.5,140.906 131.313,129.792 149.625,129.375 	"/>
	<text transform="matrix(1 0 0 1 137.7505 137)" class="st2 st1">79</text>
</g>
<g id="Group_80">
	<polygon class="st0" points="150.438,151.563 131.813,152.125 131.5,140.906 150.156,140.375 	"/>
	<text transform="matrix(1 0 0 1 138.2813 147.375)" class="st2 st1">80</text>
</g>
<g id="Group_81">
	<polygon class="st0" points="150.875,162.75 132.25,163.5 131.813,152.125 150.438,151.563 	"/>
	<text transform="matrix(1 0 0 1 138.2813 158.709)" class="st2 st1">81</text>
</g>
<g id="Group_82">
	<path class="st0" d="M144.75,165.563l0.75,16.396c0,0-9.416,0.542-11.083,0.583s-1.542-2.166-1.542-2.166l-0.5-14.292
		L144.75,165.563z"/>
	<text transform="matrix(1 0 0 1 137.0313 175.041)" class="st2 st1">82</text>
</g>
<g id="Group_83" data-size="9,121"	 data-price="$42,900" >
	<polygon class="st0" data-size="9,121"	 data-price="$42,900"  points="155.667,165.376 156.417,181.417 145.5,181.959 144.75,165.563 	"/>
	<text transform="matrix(1 0 0 1 148.1152 175.041)" class="st2 st1">83</text>
</g>
<g id="Group_84">
	<polygon class="st0" points="166.709,165.042 167.375,180.834 156.417,181.417 155.667,165.376 	"/>
	<text transform="matrix(1 0 0 1 159.3652 174.625)" class="st2 st1">84</text>
</g>
<g id="Group_85">
	<path class="st0" d="M168.667,162.459l15.292,13.708c0,0-3.917,4.499-9.084,4.542c-4.335,0.072-7.5,0.125-7.5,0.125l-0.666-15.792
		L168.667,162.459z"/>
	<text transform="matrix(1 0 0 1 170.082 174.625)" class="st2 st1">85</text>
</g>
<g id="Group_86">
	<path class="st0" d="M170.5,159.834l16.917-0.563c0,0,0.082,4.231,0.208,9.021s-3.666,7.874-3.666,7.874l-15.292-13.708
		L170.5,159.834z"/>
	<text transform="matrix(1 0 0 1 177.709 166.7695)" class="st2 st1">86</text>
</g>
<g id="Group_87">
	<polygon class="st0" points="170.083,148.876 187.25,148.376 187.417,159.271 170.5,159.834 	"/>
	<text transform="matrix(1 0 0 1 176.875 155.25)" class="st2 st1">87</text>
</g>
<g id="Group_88">
	<polygon class="st0" points="169.791,137.793 186.791,137.459 187.25,148.376 170.083,148.876 	"/>
	<text transform="matrix(1 0 0 1 176.125 144.75)" class="st2 st1">88</text>
</g>
<g id="Group_89">
	<polygon class="st0" points="169.583,126.834 186.291,126.459 186.791,137.459 169.791,137.793 	"/>
	<text transform="matrix(1 0 0 1 175.334 133.166)" class="st2 st1">89</text>
</g>
<g id="Group_90">
	<path class="st0" d="M169.25,113.001c0,0,13.083,0.71,14.958,0.417c2.188,0.082,2.083,2.25,2.083,2.25v10.791l-16.708,0.375
		L169.25,113.001z"/>
	<text transform="matrix(1 0 0 1 175.334 121.459)" class="st2 st1">90</text>
</g>
</svg>
