<?xml version="1.0" encoding="utf-8"?>
<!-- Generator: Adobe Illustrator 22.0.1, SVG Export Plug-In . SVG Version: 6.00 Build 0)  -->
<svg version="1.1" id="Layer_1" xmlns="http://www.w3.org/2000/svg" xmlns:xlink="http://www.w3.org/1999/xlink" x="0px" y="0px" width="100%" height="100%"
	 viewBox="0 0 2441.9 1148" style="enable-background:new 0 0 2441.9 1148;" xml:space="preserve">
<style type="text/css">
	.st0{fill:#FFFFFF;stroke:#ED1C24;stroke-miterlimit:10;}
	.st1{font-family:'calibri'; font-weight:'600'}
	.st2{font-size:52px;}
	.st3{fill:#FFFFFF;stroke:#000000;stroke-miterlimit:10;}
</style>
<image style="overflow:visible;" width="3000" height="1376" xlink:href="/uploads/Saddle Creek_Buglers_V01.jpg"  transform="matrix(1 0 0 1 -273.0273 -33.0033)">
</image>
<g id="a">
	<polygon id="XMLID_20_" class="st0" points="687.7,144.1 646.3,465 493.6,433.3 542,153.1 638.1,144.1 	"/>
	<text id="XMLID_4_" transform="matrix(1 0 0 1 541.964 297.5892)" class="st1 st2">0000</text>
</g>
<g id="b">
	<polygon id="XMLID_5_" class="st0" points="725.9,136 687.7,477.2 861.5,484.5 889.1,136 	"/>
	<text id="XMLID_6_" transform="matrix(1 0 0 1 735.4545 308.0889)" class="st1 st2">0000</text>
</g>
<g id="c">
	<polygon id="XMLID_21_" class="st0" points="923.3,136 898.9,481.2 1077.6,481.2 1088.1,136 	"/>
	<text id="XMLID_7_" transform="matrix(1 0 0 1 942.4442 320.0882)" class="st1 st2">0000</text>
</g>
<g id="d">
	<polygon id="XMLID_22_" class="st0" points="1123.1,136 1287.2,136 1292.8,481.2 1113.3,481.2 	"/>
	<text id="XMLID_8_" transform="matrix(1 0 0 1 1150.9336 320.0884)" class="st1 st2">0000</text>
</g>
<g id="e">
	<path id="XMLID_24_" class="st0" d="M1322.1,136l6.5,341.2c0,0,70.7,6.5,117.8-13.8c47.1-20.3,60.9-30.9,60.9-30.9L1487.8,136
		H1322.1z"/>
	<text id="XMLID_9_" transform="matrix(1 0 0 1 1360.9231 320.0886)" class="st1 st2">0000</text>
</g>
<g id="f">
	<path id="XMLID_25_" class="st0" d="M1539.8,403.2c0,0,38.2-19.2,75.2-15.7s63.5,11,63.5,11L1840,136h-320L1539.8,403.2z"/>
	<text id="XMLID_10_" transform="matrix(1 0 0 1 1587.4119 263.0914)" class="st1 st2">0000</text>
</g>
<g id="g">
	<path id="XMLID_27_" class="st3" d="M1725,407c0,0,27,15.5,36,22.5s26,28,31,39s7.5,19.5,7.5,19.5l380-1.5L2089,134l-206,2
		L1725,407z"/>
	<text id="XMLID_11_" transform="matrix(1 0 0 1 1915.8955 326.0883)" class="st1 st2">0000</text>
</g>
<g id="h">
	<path id="XMLID_28_" class="st0" d="M1806.5,529c0,0-3.5,32-11,43.5s-13.2,22.2-27.2,31.2s-18,10.7-18,10.7l292.3,359.7h258.7
		L2190,529H1806.5z"/>
	<text id="XMLID_12_" transform="matrix(1 0 0 1 2019.3901 740.0676)" class="st1 st2">0000</text>
</g>
<g id="i">
	<path id="XMLID_26_" class="st0" d="M1557,613c0,0,43,18.5,72.5,20s49-0.5,61-2.5s16.5-3.5,16.5-3.5l285,356h-404.6L1557,613z"/>
	<text id="XMLID_13_" transform="matrix(1 0 0 1 1644.4089 816.5637)" class="st1 st2">0000</text>
</g>
<g id="j">
	<path id="XMLID_29_" class="st0" d="M1518.9,602.8c0,0-13.5-4.3-17.8-4.8s-43.8,0-43.8,0l-122.7,15l11.6,370h199.3L1518.9,602.8z"
		/>
	<text id="XMLID_14_" transform="matrix(1 0 0 1 1390.9216 816.5636)" class="st1 st2">0000</text>
</g>
<g id="k">
	<path id="XMLID_31_" class="st0" d="M1297.1,613c0,0-9.3,2.6-24.7,3.5c-15.4,0.9-57.8,4-67.1,4c-9.3,0-59.1,0-73.7,0
		s-19.9,0-19.9,0l-7.1,362.5l199.9,2.1L1297.1,613z"/>
	<text id="XMLID_15_" transform="matrix(1 0 0 1 1159.933 816.5638)" class="st1 st2">0000</text>
</g>
<g id="l">
	<polygon id="XMLID_30_" class="st0" points="1073.3,619.7 889,621.3 862.7,987.3 1063.3,987.3 	"/>
	<text id="XMLID_16_" transform="matrix(1 0 0 1 910.9455 816.564)" class="st1 st2">0000</text>
</g>
<g id="m">
	<polygon id="XMLID_32_" class="st0" points="665.5,619.7 851,622 822,987.3 621,987.3 	"/>
	<text id="XMLID_17_" transform="matrix(1 0 0 1 681.457 816.5631)" class="st1 st2">0000</text>
</g>
<g id="n">
	<path id="XMLID_34_" class="st0" d="M449.6,582.7c0,0,51.4,18.7,100.9,25.3s77.5,8.2,77.5,8.2l-49,371.1H379.9L449.6,582.7z"/>
	<text id="XMLID_18_" transform="matrix(1 0 0 1 460.9681 801.5647)" class="st1 st2">0000</text>
</g>
<g id="o">
	<polygon id="XMLID_33_" class="st0" points="413.3,571.6 241.3,522 138.6,987.3 336.9,987.3 	"/>
	<text id="XMLID_19_" transform="matrix(1 0 0 1 231.4796 762.5663)" class="st1 st2">0000</text>
</g>
</svg>
