<?xml version="1.0" encoding="utf-8"?>
<!-- Generator: Adobe Illustrator 23.0.5, SVG Export Plug-In . SVG Version: 6.00 Build 0)  -->
<svg version="1.1" id="Layer_1" xmlns="http://www.w3.org/2000/svg" xmlns:xlink="http://www.w3.org/1999/xlink" x="0px" y="0px"
	  width="100%" height="100%" viewBox="0 0 388.6 191.3" style="enable-background:new 0 0 388.6 191.3;" xml:space="preserve"
	>
<style type="text/css">
	.st0{fill:#FFFFFF;stroke:#ED1C24;stroke-width:0.25;stroke-miterlimit:10;}
	.st1{font-family:'calibri'; font-weight:'600'}
	.st2{font-size:7.2898px;}
	.st3{font-size:7.2897px;}
	.st4{font-size:7.2896px;}
	.st5{font-size:7.2899px;}
	.st6{font-size:7.2892px;}
</style>
<image style="overflow:visible;enable-background:new    ;" width="3000" height="1376" xlink:href="/uploads/Saddle Creek_Blacksmith_V01.jpg"  transform="matrix(0.1429 0 0 0.1429 -0.1643 -1.2155)">
</image>
<g id="a">
	<polygon id="XMLID_5_" class="st0" points="126.1,79.5 122.4,104.5 140.9,104 144,79.5 	"/>
	<text id="XMLID_4_" transform="matrix(1 0 0 1 126.1138 93.3947)" class="st1 st2">0000</text>
</g>
<g id="b">
	<path id="XMLID_29_" class="st0" d="M149.5,79.5l-2.5,25l28.4-0.5l0.8-14.2c0,0,0.1-3.2-0.9-4.7c-1-1.5-2.2-3-4-3.8
		c-1.8-0.8-4.5-1.6-5.8-1.8s-3-0.5-5-0.4s-11,0-11,0V79.5z"/>
	<text id="XMLID_14_" transform="matrix(1 0 0 1 154.1978 93.3947)" class="st1 st2">0000</text>
</g>
<g id="c">
	<polygon id="XMLID_28_" class="st0" points="121.7,108.5 119.6,123.1 174.6,122.7 175.3,107.9 	"/>
	<text id="XMLID_6_" transform="matrix(1 0 0 1 138.9771 118.0564)" class="st1 st2">0000</text>
</g>
<g id="d">
	<path id="XMLID_31_" class="st0" d="M120.5,79.5c0,0-4.2,0.3-6.1,1.3c-1.9,1-3.6,2-5.6,2.5c-2,0.5-4,0.9-4.6,0.8
		c-0.5,0-0.5,0-0.5,0l-16.1,35.3l25.7,2.9L120.5,79.5z"/>
	<text id="XMLID_7_" transform="matrix(1 0 0 1 100.1714 101.1149)" class="st1 st2">0000</text>
</g>
<g id="e">
	<path id="XMLID_30_" class="st0" d="M98.1,83.4c0,0-2-0.3-3.4-1.3c-1.4-1-1.5-1.2-1.9-1.6c-0.4-0.5-0.4-0.5-0.4-0.5L53.1,92.2
		l29.2,24.6L98.1,83.4z"/>
	<text id="XMLID_8_" transform="matrix(1 0 0 1 73.4439 93.6838)" class="st1 st2">0000</text>
</g>
<g id="f">
	<path id="XMLID_32_" class="st0" d="M92.6,71.4c0,0-1.5,1.5-1.7,2.7c-0.1,1.2-0.2,1.7,0,2.6c0.2,0.9,0.3,1.1,0.3,1.1L52,88.5
		l8.9-30.5L92.6,71.4z"/>
	<text id="XMLID_9_" transform="matrix(1 0 0 1 65.0132 76.0373)" class="st1 st2">0000</text>
</g>
<g id="g">
	<path id="XMLID_33_" class="st0" d="M95.9,68.3c0,0,1.2-1.4,3.4-2c2.2-0.6,4.1-0.7,4.1-0.7l1.9-22.5H65l-3,11L95.9,68.3z"/>
	<text id="XMLID_10_" transform="matrix(1 0 0 1 78.3716 54.8361)" class="st1 st2">0000</text>
</g>
<g id="h">
	<path id="XMLID_34_" class="st0" d="M124.6,69.1c0,0-4.3,0.4-6.6-0.8c-2.3-1.2-2.9-2.3-5.5-2.5c-2.6-0.2-4,0-4,0l2-22.6l18.4-0.3
		L124.6,69.1z"/>
	<text id="XMLID_11_" transform="matrix(1 0 0 1 110.4634 56.9543)" class="st1 st2">0000</text>
</g>
<g id="i">
	<polygon id="XMLID_35_" class="st0" points="130.2,68.8 147.6,68.8 150.6,42.9 134.1,42.9 	"/>
	<text id="XMLID_12_" transform="matrix(1 0 0 1 132.9732 56.9543)" class="st1 st2">0000</text>
</g>
<g id="j">
	<polygon id="XMLID_36_" class="st0" points="155.8,42.9 153.2,68.3 170.5,68.3 172,42.4 	"/>
	<text id="XMLID_13_" transform="matrix(1 0 0 1 155.774 56.9543)" class="st1 st2">0000</text>
</g>
<g id="k">
	<path id="XMLID_37_" class="st0" d="M206.5,42.4l-17.5,22.4c0,0-2-0.3-5.3-0.4c-3.3-0.1-7.4,2.3-7.4,2.3l1-23.8l0-0.5H206.5z"/>
	<text id="XMLID_15_" transform="matrix(1 0 0 1 178.7095 54.1672)" class="st1 st2">0000</text>
</g>
<g id="l">
	<path id="XMLID_38_" class="st0" d="M193.5,66c0,0,2.2,0.8,3.3,2.1c1.2,1.5,1.2,2.4,1.2,2.4l33.2-3.5L229.8,42h-17.6L193.5,66z"/>
	<text id="XMLID_16_" transform="matrix(1 0 0 1 208.0835 59.3107)" class="st1 st2">0000</text>
</g>
<g id="m">
	<path id="XMLID_39_" class="st0" d="M198.7,73.9c0,0,0.1,2.6-1.6,4.1c-1.7,1.6-3.6,3.2-4.2,4.4c-0.5,0.9-0.6,3.1-0.6,3.1l41.3-0.4
		l-2.2-14.6L198.7,73.9z"/>
	<text id="XMLID_17_" transform="matrix(1 0 0 1 206.1568 81.1857)" class="st1 st2">0000</text>
</g>
<g id="n">
	<polygon id="XMLID_40_" class="st0" points="192.2,89.5 192.2,103.3 235.8,102.8 233.9,89.1 	"/>
	<text id="XMLID_18_" transform="matrix(1 0 0 1 206.1568 98.1179)" class="st1 st2">0000</text>
</g>
<g id="o">
	<polygon id="XMLID_41_" class="st0" points="191.8,106.9 191.4,121.5 238,121.5 236.3,106.6 	"/>
	<text id="XMLID_19_" transform="matrix(1 0 0 1 206.1568 116.1247)" class="st1 st2">0000</text>
</g>
<g id="p">
	<polygon id="XMLID_42_" class="st0" points="236,42 236.9,54.8 266.8,54.2 265.1,41.6 	"/>
	<text id="XMLID_20_" transform="matrix(1 0 0 1 244.1079 49.9592)" class="st1 st2">0000</text>
</g>
<g id="q">
	<path id="XMLID_44_" class="st0" d="M237.3,57.5l1.6,15.6l30.8-3.2c0,0-1.8-6.9-2-8.9c-0.3-2.3-0.3-3.7-0.3-3.7L237.3,57.5z"/>
	<text id="XMLID_21_" transform="matrix(1 0 0 1 246.3521 66.2785)" class="st1 st2">0000</text>
</g>
<g id="r">
	<path id="XMLID_43_" class="st0" d="M239.2,77.3l3,18.9L277.1,86c0,0-3.7-6.2-4.2-7.4c-0.5-1.2-0.8-1.9-1.3-3.2
		c-0.5-1.3-0.7-1.8-0.7-1.8L239.2,77.3z"/>
	<text id="XMLID_22_" transform="matrix(0.9977 -6.766086e-02 6.766086e-02 0.9977 250.5297 85.9516)" class="st1 st2">0000</text>
</g>
<g id="s">
	<polygon id="XMLID_45_" class="st0" points="279.6,89.6 290.5,103.8 245.3,120.4 242.5,101.1 	"/>
	<text id="XMLID_23_" transform="matrix(0.9752 -0.2212 0.2212 0.9752 257.3159 106.8638)" class="st1 st2">0000</text>
</g>
<g id="t">
	<polygon id="XMLID_46_" class="st0" points="279.6,41.4 281.3,52.8 319.3,52 313.7,41.1 	"/>
	<text id="XMLID_24_" transform="matrix(1 0 0 1 291.4849 49.0568)" class="st1 st2">0000</text>
</g>
<g id="u">
	<polygon id="XMLID_47_" class="st0" points="281.8,55.8 284.7,68.6 325.5,64.4 321,55.5 	"/>
	<text id="XMLID_25_" transform="matrix(1 0 0 1 294.7017 63.8137)" class="st1 st2">0000</text>
</g>
<g id="v">
	<path id="XMLID_1_" class="st0" d="M331.3,75.3l-3.9-7.6l-41.1,4.7c0,0,2.9,7.7,7.7,13.1L331.3,75.3z"/>
	<text id="XMLID_26_" transform="matrix(0.9882 -0.1533 0.1533 0.9882 302.3425 78.4265)" class="st1 st2">0000</text>
</g>
<g id="w">
	<polygon id="XMLID_49_" class="st0" points="333.1,78.9 339.9,91.7 306.6,101.1 296.7,89.3 	"/>
	<text id="XMLID_27_" transform="matrix(0.971 -0.2389 0.2389 0.971 313.3366 93.4134)" class="st1 st2">0000</text>
</g>
</svg>
