
<?xml version="1.0" encoding="utf-8"?>
<!-- Generator: Adobe Illustrator 16.0.0, SVG Export Plug-In . SVG Version: 6.00 Build 0)  -->
<svg version="1.1" id="Layer_2" xmlns="http://www.w3.org/2000/svg" xmlns:xlink="http://www.w3.org/1999/xlink" x="0px" y="0px"
	 width="100%" height="100%" viewBox="0 0 835.337 705.024" style="enable-background:new 0 0 835.337 705.024;">
<style type="text/css">
	.st0{font-size:6.4939;}
	.st1{font-family:'MyriadPro-Regular';}
	.st2{font-size:7;}
	.st3{font-size:8;}
	.st4{font-size:9;}
	.st5{font-size:10.178;}
	.st6{opacity:0.5;fill:#D8B08A;}
</style>
<image style="overflow:visible;enable-background:new    ;" width="1500" height="1730" xlink:href="./dashboard/plat-data/preserve.jpg"  transform="matrix(0.24 0 0 0.24 -4.882813e-004 0)">
</image>
<image style="overflow:visible;" width="2000" height="1688" xlink:href="./dashboard/plat-data/savannah.jpg"  transform="matrix(0.4177 0 0 0.4177 0 0)">
</image>
<g id="_x32_1">
	<path class="st6" d="M804.668,242.563l7.375,28.375l-45.438-2.313l-0.896-5.375c0,0,1.541-0.5,0-2.083c0,0,1.459-0.625,0.292-2
		c0,0-0.083-0.583,0.5-0.583c0,0,0.541-1.333-1.042-2.125c0,0-1.124,0.042-1.291,0.75l-3.917-16.833L804.668,242.563z"/>
	<text transform="matrix(0.0693 0.9976 -0.9976 0.0693 783.7109 252.0693)" class="st1 st2">21</text>
</g>
<g id="_x31_08">
	<polygon class="st6" points="624.668,229.875 627.855,263.25 672.793,265.625 668.418,232 	"/>
	<text transform="matrix(-0.0693 -0.9976 0.9976 -0.0693 650.1396 253.6143)" class="st1 st2">108</text>
</g>
<g id="_x31_07">
	<polygon class="st6" points="620.293,191 624.23,224.5 667.543,226.438 662.355,192.5 	"/>
	<text transform="matrix(-0.0693 -0.9976 0.9976 -0.0693 645.4727 214.4482)" class="st1 st2">107</text>
</g>
<g id="_x31_06">
	<polygon class="st6" points="609.751,139.25 615.918,164.333 652.668,164.333 645.584,138.417 	"/>
	<text transform="matrix(0.9994 -0.0355 0.0355 0.9994 625.5635 153.4829)" class="st1 st0">106</text>
</g>
<g id="_x32_20">
	<path class="st6" d="M48.168,540.083L4.334,591.75l38.583,21.835h1.25l0.583,0.583c0,0,1,0.416,1.75,0l1.667-0.166l1.25-0.167
		h1.667v0.518l0.833-0.601l0.583-0.084l5-5.75c0,0-1.333-0.25,0-2.5c0,0,0.667-0.543,1.042-0.074c0,0-0.719-1.25,1.094-2.781
		c0,0-0.688-3.281,2.563-3.094c0,0,0.594-0.125,0.75-0.688c0,0-0.219-2.188,1.625-2.188c0,0,1.156-0.375,1.531,0.406l26.5-32.813
		L48.168,540.083z"/>
	<text transform="matrix(0.8639 0.5037 -0.5037 0.8639 39.2603 577.2178)" class="st1 st5">220</text>
</g>
<g id="_x32_21">
	<path class="st6" d="M103.168,481.583l-45.5,43.167l38.25,28.584c0,0,0.417-1.541,2.667-1.333c0,0-0.416-2.5,2.292-2.792l0.5-0.042
		l19.292-19.458c0,0-1.417-0.833-1-2.208c0,0,0.125-1.125,1.375-1.25c0,0-0.291-1.542,1.167-2.125c0,0-0.917-3.292,2.75-2.917
		c0,0-0.333-2.083,1.625-2.458c0,0,1.708-0.333,2.25,1.5l0.875,0.167l12.167-11.459L103.168,481.583z"/>
	<text transform="matrix(0.7672 0.6414 -0.6414 0.7672 92.7603 515.1006)" class="st1 st5">221</text>
</g>
<g id="_x32_35">
	<polygon class="st6" points="239.918,551.875 283.918,582.375 248.418,624 203.918,591.625 	"/>
	<text transform="matrix(0.7672 0.6414 -0.6414 0.7672 235.835 585.4336)" class="st1 st5">235</text>
</g>
<g id="_x32_36">
	<polygon class="st6" points="285.668,506.25 326.293,537.125 291.043,574.563 249.543,541.25 	"/>
	<text transform="matrix(0.7672 0.6414 -0.6414 0.7672 279.5015 536.4336)" class="st1 st5">236</text>
</g>
<g id="_x32_37">
	<polygon class="st6" points="332.418,460 373.043,487.875 334.168,529.625 292.793,499.375 	"/>
	<text transform="matrix(0.7672 0.6414 -0.6414 0.7672 325.2617 492.7676)" class="st1 st5">237</text>
</g>
<g id="_x32_38">
	<polygon class="st6" points="359.501,416.834 334.335,451.334 379.501,472.667 404.168,437.5 	"/>
	<text transform="matrix(0.9029 0.4299 -0.4299 0.9029 361.1646 444.75)" class="st1 st5">238</text>
</g>
<g id="_x32_39">
	<polygon class="st6" points="378.834,360.334 366.501,402.667 416.001,410.834 426.668,368 	"/>
	<text transform="matrix(0.9969 0.0789 -0.0789 0.9969 389.8096 385.583)" class="st1 st5">239</text>
</g>
<g id="_x32_40">
	<polygon class="st6" points="389.584,314.25 379.751,353.333 427.751,359.417 435.918,320.167 	"/>
	<text transform="matrix(0.9969 0.0789 -0.0789 0.9969 399.6685 338.9946)" class="st1 st4">240</text>
</g>
<g id="_x32_41">
	<polygon class="st6" points="398.418,277.833 390.918,308.25 436.918,313.833 443.335,283.5 	"/>
	<text transform="matrix(0.9894 0.1449 -0.1449 0.9894 409.1958 298.4556)" class="st1 st4">241</text>
</g>
<g id="_x32_42">
	<polygon class="st6" points="408.334,238.333 399.668,272.25 444.501,277.5 451.501,243.667 	"/>
	<text transform="matrix(0.9894 0.1449 -0.1449 0.9894 419.668 260.0786)" class="st1 st3">242</text>
</g>
<g id="_x32_43">
	<polygon class="st6" points="419.168,194.417 410.668,228 453.418,232.75 460.501,199.083 	"/>
	<text transform="matrix(0.9894 0.1449 -0.1449 0.9894 429.5625 214.9375)" class="st1 st0">243</text>
</g>
<g id="_x32_2_1_">
	<path class="st6" d="M113.751,473l37.167-32l36.167,27.916l-16.667,14.417c0,0-1-0.666-2.333,0.792c0,0-1.167-0.001-1.833-0.959
		c0,0-0.458-1.166-1.542-0.791c0,0-2.167,0.291-1.417,2.333c0,0-0.083,0.459-1.417,0.292c0,0-1.792,0.374-1.458,2.416
		c0,0-1.292,0.75-1.167,2.292c0,0-1.125,0.042-0.833,1.167c0,0-0.333,1.249,0.958,1.416c0,0-1,1.042,0.042,1.292L149.626,502
		L113.751,473z"/>
	<text transform="matrix(0.7706 0.6373 -0.6373 0.7706 142.0176 468.8926)" class="st1 st5">222</text>
</g>
<g id="_x32_23">
	<path class="st6" d="M199.335,398.083l36.5,25.417l-26.167,24.083c0,0-1.083,0.876-2,0.209c0,0-0.542-0.625-0.917-0.625
		c0,0-0.125-1.334-1.5-0.667c0,0-2.042,0.458-1.125,2.083c0,0-0.333,0.584-1.083,0.167c0,0-2-0.292-1.708,2.125
		c0,0-0.25,1.376-0.875,1.542c0,0,0.333,0.666-0.542,0.916c0,0-1.083-0.208-0.583,1.917c0,0,0.417,0.708,1.167,0.625l-0.375,0.583
		l-4.875,4.709l-36.833-26.5L199.335,398.083z"/>
	<text transform="matrix(0.7706 0.6373 -0.6373 0.7706 190.2676 427.1426)" class="st1 st5">223</text>
</g>
<g id="_x32_24">
	<path class="st6" d="M228.793,358.688l42.938,15.25l-5,7.25c0,0-0.375-1.063-1.5-0.5c0,0-1.688,0.875-0.813,2.063
		c0,0-0.375,0.875-1.125,0c0,0-2,0.063-1.563,2.375c0,0-1.875,1.688-1.688,2.938c0,0,0.125,1,0.813,1l-11.375,18.625l-44-16.438
		L228.793,358.688z"/>
	<text transform="matrix(0.9133 0.4072 -0.4072 0.9133 232.9873 381.8721)" class="st1 st5">224</text>
</g>
<g id="_x32_25">
	<path class="st6" d="M244.751,318.833l-13.083,32.833l45.75,6c0,0,1-0.416,0.917-2.083c0,0,0.333-2.166,1.75-1.5l10-28.667
		L244.751,318.833z"/>
	<text transform="matrix(0.9872 0.1596 -0.1596 0.9872 254.6494 338.9951)" class="st1 st5">225</text>
</g>
<g id="_x32_26">
	<path class="st6" d="M261.668,276.5l-13.917,36.333l45.5,5.25l6.667-19.583c0,0,1.083-1.5,0.333-2.5c0,0-0.554-0.667,0.265-1.5
		c0,0,0.985-1-0.848-1.083c0,0,0-1.75,1.5-2.333c0,0-0.667-2.584,2.083-2.917l2.417-6.25L261.668,276.5z"/>
	<text transform="matrix(0.9872 0.1596 -0.1596 0.9872 269.1494 298.9951)" class="st1 st4">226</text>
</g>
<g id="_x32_27">
	<path class="st6" d="M274.418,242.667l-10.583,28.25L307.501,276l2.333-6.667c0,0-0.417-1.5,0.5-2.25c0,0-2.896-0.365,0-2.896
		c0,0,0.49-0.031,0.458-1.281c0,0-0.25-1.031,1.594-1.688l4.656-13.656L274.418,242.667z"/>
	<text transform="matrix(0.9872 0.1596 -0.1596 0.9872 281.1494 261.2451)" class="st1 st3">227</text>
</g>
<g id="_x32_28">
	<path class="st6" d="M286.48,210.75l-10,26.5l41.625,4.188c0,0-0.375-2,1.188-2.875c0,0-0.188-1.438,1.5-2.875L326.668,219
		c0,0,0.563-1.75,0-2.625c0,0-0.438-0.688-0.188-0.813L286.48,210.75z"/>
	<text transform="matrix(0.9923 0.1237 -0.1237 0.9923 293.2085 229.0073)" class="st1 st0">228</text>
</g>
<g id="_x32_29">
	<path class="st6" d="M299.543,176.313l-11.375,29.5l39.438,4.375c0,0,0.563-1,2-1.063l0.625-1.313l5.063-14.563
		c0,0,1-1.375,0-2.188c0,0,0.576-2.063,0.444-2.438c0,0-1.079-1.125,0.02-2c0,0,1.099-2.625,3.036-3.813l0.625-2.25L299.543,176.313
		z"/>
	<text transform="matrix(0.9923 0.1237 -0.1237 0.9923 308.043 194.417)" class="st1 st0">229</text>
</g>
<g id="_x32_30">
	<polygon class="st6" points="310.48,143.75 301.418,171.625 341.293,174.688 349.105,147.125 	"/>
	<text transform="matrix(0.9923 0.1237 -0.1237 0.9923 320.2095 161.0835)" class="st1 st0">230</text>
</g>
<g id="_x32_31">
	<polygon class="st6" points="310.293,116.75 311.23,138.688 350.293,136.375 348.668,114.625 	"/>
	<text transform="matrix(0.999 -0.0457 0.0457 0.999 325.2617 128.7759)" class="st1 st0">231</text>
</g>
<g id="_x32_32">
	<polygon class="st6" points="306.043,85.438 309.668,111.688 347.418,108.313 342.98,82.188 	"/>
	<text transform="matrix(0.9958 -0.0918 0.0918 0.9958 321.5317 99.667)" class="st1 st0">232</text>
</g>
<g id="_x39_7">
	<path class="st6" d="M584.584,70.875l33-0.375l4.084,15.708c0,0,0.417,1.167,0,1.167c0,0-1.25-0.708-1.417,1.167
		c0,0,0.208,1.375-0.5,1.292c0,0-0.958,0.625-0.125,1.667c0,0,0.084,0.833-0.333,0.833l-28.25,0.25c0,0,0.708-1.708,0.458-1.958
		c0,0,0.126-1.917,0.542-1.917c0,0,0.791-0.958-0.334-1.833c0,0-0.999,0.042-1.291,0.417c0,0-1.793-0.75-1.959-0.708L584.584,70.875
		z"/>
	<text transform="matrix(0.9994 -0.0355 0.0355 0.9994 600.8135 84.4478)" class="st1 st0">97</text>
</g>
<g id="_x39_8">
	<path class="st6" d="M543.418,71.375l3.833,21.583h0.458c0,0-0.708-2.042,0.542-2.708c0,0-0.374-2.458,1.417-2.042
		c0,0-0.167-1.917,1.833-0.917c0,0,0.458-1.25,3.083,0.25c0,0,0.75-0.333,1.542,0.625c0,0,0.376-1.083,1.417,0.042
		c0,0,0.667,0.625,0,1.792c0,0-0.209,1-0.292,1.417c0,0-0.001,1.167-0.167,1.542l23.917-0.542l-4.625-21.542L543.418,71.375z"/>
	<text transform="matrix(0.9994 -0.0355 0.0355 0.9994 558.8135 84.9478)" class="st1 st0">98</text>
</g>
<g id="_x39_6">
	<path class="st6" d="M497.21,71.833l39.708-0.458l3.5,21.625h-17.5c0,0-0.542-2.333,0.625-3.458c0,0,1.042-1-0.75-1.5l-0.917,0.125
		c0,0-0.416-0.917-1.791-0.667c0,0-0.751-0.916-1.584-0.708c0,0-0.833,0-1.333,0.792c0,0-0.666-0.75-1.458-0.083
		c0,0-0.334,0.375-0.167,1.083c0,0-1.167-0.333-1.625,0.75c0,0-0.334,0.708,0.083,1.167c0,0-0.917,0.25-0.75,1.25
		c0,0-0.25,0.917,0.667,1.25l-0.25,0.25h-13.917L497.21,71.833z"/>
	<text transform="matrix(0.9994 -0.0355 0.0355 0.9994 514.8135 84.4473)" class="st1 st0">96</text>
</g>
<g id="_x39_5">
	<path class="st6" d="M490.543,71.833l2.625,21.667h-10.917c0,0-0.208-0.917,0.542-1c0,0-0.501-2.167,0.208-2.542
		c0,0,0.793-1.167-0.416-1.542c0,0-0.459-0.083-1.209,0.125c0,0-0.291-0.792-1.958-0.542c0,0-0.376-0.875-1.792-0.708
		c0,0-0.749,0-1.041,0.292c0,0-1.375-0.208-1.875,1.25c0,0-1.334-0.417-1.334,2.083c0,0-0.791,0.125-0.666,1.333
		c0,0-0.209,0.708,0.791,1.042l-0.583,0.542h-13.875l-1.417-21.792L490.543,71.833z"/>
	<text transform="matrix(0.9994 -0.0355 0.0355 0.9994 470.8135 84.4478)" class="st1 st0">95</text>
</g>
<g id="_x39_4">
	<path class="st6" d="M415.605,72.563h33L449.793,94l-29.083,0.333c0,0-0.667-1.25,0.208-1.583c0,0-0.791-1.417,0.167-2.042
		c0,0,1.041-0.875-0.042-1.542c0,0-0.583-0.333-1.458-0.083c0,0-0.75-0.792-2.208-0.333c0,0-0.292-0.875-1.417-0.75L415.605,72.563z
		"/>
	<text transform="matrix(0.9994 -0.0355 0.0355 0.9994 429.5635 84.9473)" class="st1 st0">94</text>
</g>
<g id="_x31_05">
	<polygon class="st6" points="567.168,139.667 571.834,164.833 608.668,164.833 602.918,139.25 	"/>
	<text transform="matrix(0.9999 0.012 -0.012 0.9999 582.1367 153.2476)" class="st1 st0">105</text>
</g>
<g id="_x31_04">
	<polygon class="st6" points="510.001,140.333 513.085,165.667 557.501,165.667 553.001,139.667 	"/>
	<text transform="matrix(0.9999 0.012 -0.012 0.9999 526.8027 153.584)" class="st1 st0">104</text>
</g>
<g id="_x31_03">
	<polygon class="st6" points="467.085,140.75 470.835,166.417 506.168,165.583 503.168,140.333 	"/>
	<text transform="matrix(0.9999 0.012 -0.012 0.9999 480.8027 154.9175)" class="st1 st0">103</text>
</g>
<g id="_x31_02">
	<polygon class="st6" points="422.835,141.25 423.752,166.417 460.835,166.083 459.002,140.75 	"/>
	<text transform="matrix(0.9999 0.012 -0.012 0.9999 434.9697 154.5845)" class="st1 st0">102</text>
</g>
<g id="_x32_2">
	<path class="st6" d="M791.918,203.5l11.063,31.938l-43.688-0.563c0,0,0.625-1.313,0-2.188c0,0,0.75-1,0.438-2.125
		c0,0,1.375-1.188-0.438-2.125c0,0-1.25-0.188-1.625,0.125l-5.125-16.25c0,0,0.438-1.125,0-2.188c0,0,1-0.938,0.438-1.563
		c0,0-0.875-0.938,0.313-1.25c0,0,0.688-0.688-0.375-1.313c0,0-0.813-0.688,0.625-0.5c0,0,0.875-1.625-0.625-1.625l-2.625-0.375
		H791.918z"/>
	<text transform="matrix(0.2127 0.9771 -0.9771 0.2127 773.3633 216.312)" class="st1 st2">22</text>
</g>
<g id="_x32_3">
	<path class="st6" d="M777.105,171.75l11.625,24.813l-41.25,1.375l-5.5-12.688c0,0,0.125-0.688,0-2c0,0,0.938-1.625,0-2.313
		c0,0,2.375-1.313,0-2.188c0,0,1.5-0.438,0.875-1.563c0,0-1.563-1.563-3.313,0c0,0-0.438-1.063-1.75-1.75l-0.688-2.063
		L777.105,171.75z"/>
	<text transform="matrix(0.2421 0.9703 -0.9703 0.2421 759.5215 181.647)" class="st1 st2">23</text>
</g>
<g id="_x32_4">
	<path class="st6" d="M757.043,137.625l16.313,27.313l-38.75,3.688l-6.563-11.375c0,0,0.563-1.938-0.313-2.375
		c0,0,1.563-1.375,0.438-2.313c0,0,1.313-1.25,0.438-2.188c0,0,1.063-1.25-0.563-1.813c0,0-0.188,0-0.938,0.25
		c0,0-0.313-0.625-2.063-0.5c0,0-0.563-1.063-2.188-1l-3.5-6.063L757.043,137.625z"/>
	<text transform="matrix(0.3464 0.9381 -0.9381 0.3464 741.4209 148.9766)" class="st1 st2">24</text>
</g>
<g id="_x32_5">
	<path class="st6" d="M738.168,107.375l15.438,25.813l-35.125,3.188c0,0,0.75-1.375,0-1.375c0,0,0.875-1,0-2.063
		c0,0,1.25-1.063,0-1.875c0,0-0.5-0.375-1.438,0.125c0,0-2.438-2-4-1.125l-7.875-13.25c0,0,0.563-1.063-0.625-1.625
		c0,0,1.5-1.063,0.813-2.438c0,0,0.875-1.438,0.188-2.125L738.168,107.375z"/>
	<text transform="matrix(0.3524 0.9358 -0.9358 0.3524 723.7793 118.3716)" class="st1 st2">25</text>
</g>
<g id="_x32_6">
	<path class="st6" d="M724.793,79.25l11.188,24.063l-37.125,1.438l-4.125-9.25c0,0,0.521-0.666,0-1.583c0,0,0.813-0.625,0.438-1.917
		c0,0,0.583-0.75,0.333-1.792c0,0,1.416-2-1.042-2.167l-0.5,0.167c0,0-0.959-0.542-1.75-0.375l-0.625-0.5l-3-6.708L724.793,79.25z"
		/>
	<text transform="matrix(0.2822 0.9593 -0.9593 0.2822 708.8584 88.6436)" class="st1 st2">26</text>
</g>
</svg>
