<?xml version="1.0" encoding="utf-8"?>
<!-- Generator: Adobe Illustrator 23.0.5, SVG Export Plug-In . SVG Version: 6.00 Build 0)  -->
<svg version="1.1" id="Layer_1" xmlns="http://www.w3.org/2000/svg" xmlns:xlink="http://www.w3.org/1999/xlink" x="0px" y="0px"
	 width="100%" height="100%"  viewBox="0 0 542.4 226.8" style="enable-background:new 0 0 542.4 226.8;" xml:space="preserve"
	>
<style type="text/css">
	.st0{fill:none;stroke:#ED1C24;stroke-width:0.25;stroke-miterlimit:10;}
	.st1{font-family:'calibri'; font-weight:600}
	.st2{font-size:4.1652px;}
	.st3{fill:none;stroke:#ED1F24;stroke-width:0.25;stroke-miterlimit:10;}
</style>
<image style="overflow:visible;enable-background:new;" width="3000" height="1259" id="XMLID_1_" xlink:href="/uploads/SPRINGROSE.jpg"  transform="matrix(0.1811 0 0 0.1811 0.1205 -0.5)">
</image>
<g id="XMLID_55_">
	<path id="XMLID_5_" class="st0" d="M104.8,156.9l-4,24.8l12.7-0.3l2.9-19.7c0,0-2.5-0.5-4.8-2.2s-3.3-2.4-4.7-2.5
		C105.4,156.7,104.8,156.9,104.8,156.9z"/>
	<text id="XMLID_4_" transform="matrix(1 0 0 1 103.6172 170.998)" class="st1 st2">oooo</text>
</g>
<g id="Layer_3">
	<path id="XMLID_57_" class="st3" d="M119.1,162l-2.7,19.4h13.3l2.4-19.1c0,0-8.5,0.6-10.5,0.1S119.1,162,119.1,162z"/>
	<text id="XMLID_6_" transform="matrix(1 0 0 1 119.5538 171.9941)" class="st1 st2">oooo</text>
</g>
<g id="Layer_4">
	<polygon id="XMLID_56_" class="st3" points="134.7,162.5 132.4,181.1 146.1,181.1 148.1,162.5 	"/>
	<text id="XMLID_7_" transform="matrix(1 0 0 1 135.0372 171.9941)" class="st1 st2">oooo</text>
</g>
<g id="Layer_5">
	<polygon id="XMLID_58_" class="st3" points="150.3,162.5 148.3,181.4 162,180.9 163.7,162.5 	"/>
	<text id="XMLID_8_" transform="matrix(1 0 0 1 151.4263 171.9941)" class="st1 st2">oooo</text>
</g>
<g id="Layer_6">
	<polygon id="XMLID_59_" class="st3" points="166.2,162.1 164.6,181.1 178.2,180.5 179.5,162.1 	"/>
	<text id="XMLID_9_" transform="matrix(1 0 0 1 167.3629 171.9941)" class="st1 st2">oooo</text>
</g>
<g id="Layer_7">
	<polygon id="XMLID_60_" class="st3" points="181.7,162.1 195.2,161.8 194.1,180.7 180.4,180.7 	"/>
	<text id="XMLID_10_" transform="matrix(1 0 0 1 183.3897 171.9941)" class="st1 st2">oooo</text>
</g>
<g id="Layer_8">
	<polygon id="XMLID_61_" class="st3" points="197.5,161.8 196.5,181.1 210.2,180.7 210.7,161.8 	"/>
	<text id="XMLID_11_" transform="matrix(1 0 0 1 198.7833 171.9941)" class="st1 st2">oooo</text>
</g>
<g id="Layer_9">
	<polygon id="XMLID_62_" class="st3" points="226.9,152 226.2,181.1 212.7,181.1 213.9,152.4 	"/>
	<text id="XMLID_12_" transform="matrix(1 0 0 1 214.8101 168.0098)" class="st1 st2">oooo</text>
</g>
<g id="Layer_10">
	<polygon id="XMLID_63_" class="st3" points="229.2,152.3 242,152.3 242.2,181.1 228.7,181.1 	"/>
	<text id="XMLID_13_" transform="matrix(1 0 0 1 230.4752 168.0098)" class="st1 st2">oooo</text>
</g>
<g id="Layer_11">
	<polygon id="XMLID_64_" class="st3" points="244.5,152.3 257.6,152.3 258.2,181.1 244.8,181.1 	"/>
	<text id="XMLID_14_" transform="matrix(1 0 0 1 246.502 168.0098)" class="st1 st2">oooo</text>
</g>
<g id="Layer_12">
	<polygon id="XMLID_65_" class="st3" points="319.6,151.1 321.1,176.6 332.7,176.6 330.3,150.8 	"/>
	<text id="XMLID_36_" transform="matrix(1 0 0 1 321.0225 163.5127)" class="st1 st2">oooo</text>
</g>
<g id="Layer_13">
	<polygon id="XMLID_66_" class="st3" points="332.4,150.8 334.1,176.6 345.9,176.2 343.1,150.5 	"/>
	<text id="XMLID_71_" transform="matrix(1 0 0 1 333.8506 163.5127)" class="st1 st2">oooo</text>
</g>
<g id="Layer_14">
	<polygon id="XMLID_67_" class="st3" points="347.2,150.8 357.7,150.5 361,174.8 349,175.7 	"/>
	<text id="XMLID_25_" transform="matrix(1 0 0 1 348.9717 163.5127)" class="st1 st2">oooo</text>
</g>
<g id="Layer_15">
	<polygon id="XMLID_18_" class="st3" points="380.9,150.8 384.6,175.7 396.3,175.1 392.2,150.8 	"/>
	<text id="XMLID_69_" transform="matrix(1 0 0 1 383.6514 163.5127)" class="st1 st2">oooo</text>
</g>
<g id="Layer_16">
	<polygon id="XMLID_68_" class="st3" points="382.1,131.3 382.6,135 383.9,144.2 414.1,143.9 413.3,138.9 414.8,141 419.8,138.8 
		415.2,128 393.6,128.5 381.8,128.7 	"/>
	<text id="XMLID_45_" transform="matrix(1 0 0 1 394.4268 137.4951)" class="st1 st2">oooo</text>
</g>
<g id="Layer_17">
	<polygon id="XMLID_70_" class="st3" points="382.5,116.8 382.5,127.7 413.9,127.1 414.3,125.5 410.2,116.3"/>
	<text id="XMLID_46_" transform="matrix(1 0 0 1 392.4952 122.2832)" class="st1 st2">oooo</text>
</g>
<g id="Layer_18">
	<polygon id="XMLID_72_" class="st3" points="382.5,105.3 382.5,115.8 408.9,115.4 409.3,113.9 405.4,105 	"/>
	<text id="XMLID_47_" transform="matrix(1 0 0 1 389.7188 111.417)" class="st1 st2">oooo</text>
</g>
<g id="Layer_20">
	<polygon id="XMLID_26_" class="st3" points="383.1,104.3 375.2,96.2 392.5,79.8 394.4,79.8 404.9,102.5 404.6,103.9 	"/>
	<text id="XMLID_48_" transform="matrix(1 0 0 1 385.252 96.1748)" class="st1 st2">oooo</text>
</g>
<g id="Layer_21">
	<path id="XMLID_74_" class="st3" d="M388.4,79.8l-27.9,0.3l1.6,12.7c0,0,3.3-0.5,5,0s5.7,1.8,5.7,1.8L388.4,79.8z"/>
	<text id="XMLID_49_" transform="matrix(1 0 0 1 365.4522 86.5166)" class="st1 st2">oooo</text>
</g>
<g id="Layer_22">
	<path id="XMLID_75_" class="st3" d="M359,92.5c0,0-3-0.1-7.1,1.1s-4.9,1.6-4.9,1.6l-1.3-15h11.7L359,92.5z"/>
	<text id="XMLID_50_" transform="matrix(1 0 0 1 347.2217 87.7236)" class="st1 st2">oooo</text>
</g>
<g id="Layer_23">
	<path id="XMLID_73_" class="st3" d="M345.7,97.5c0,0-1.9,2.4-2.3,3.7c-0.4,1.3-0.8,3.7-0.8,3.7l-17.8,0.5l-0.5-10.3l17.6-0.4
		L345.7,97.5z"/>
	<text id="XMLID_51_" transform="matrix(1 0 0 1 328.1456 100.5215)" class="st1 st2">oooo</text>
</g>
<g id="Layer_24">
	<path id="XMLID_76_" class="st3" d="M325.2,106.3l0.8,10l19.4-0.5l0.3-1.3c0,0-1-0.7-2-4.2c-1.1-3.5-1.1-4.5-1.1-4.5L325.2,106.3z"
		/>
	<text id="XMLID_52_" transform="matrix(1 0 0 1 329.836 112.2319)" class="st1 st2">oooo</text>
</g>
<g id="Layer_25">
	<polygon id="XMLID_78_" class="st3" points="326.4,117.9 329.4,127.7 349.5,127 349,124.1 346.3,117.3 	"/>
	<text id="XMLID_53_" transform="matrix(1 0 0 1 333.337 123.3398)" class="st1 st2">oooo</text>
</g>
<g id="Layer_26">
	<polygon id="XMLID_79_" class="st3" points="329.5,129.4 330.7,148.1 351.4,147.5 351.4,144.7 349.9,129.4 	"/>
	<text id="XMLID_54_" transform="matrix(1 0 0 1 336.2344 138.5518)" class="st1 st2">oooo</text>
</g>
<g id="Layer_27">
	<polygon id="XMLID_77_" class="st3" points="394.9,150.8 398.7,174.8 410,174.6 405.5,150.2 	"/>
	<text id="XMLID_17_" transform="matrix(1 0 0 1 396.6299 163.0898)" class="st1 st2">oooo</text>
</g>
<g id="Layer_28">
	<polygon id="XMLID_80_" class="st3" points="407.8,150.5 418.3,150.2 423.2,174.1 412.2,174.8 	"/>
	<text id="XMLID_16_" transform="matrix(1 0 0 1 410.001 163.0898)" class="st1 st2">oooo</text>
</g>
<g id="Layer_29">
	<polygon id="XMLID_81_" class="st3" points="420.8,150.2 425.3,174.1 439.9,173.7 429.4,149.4 	"/>
	<text id="XMLID_15_" transform="matrix(1 0 0 1 424.8214 163.0898)" class="st1 st2">oooo</text>
</g>
<g id="Layer_30">
	<path id="XMLID_83_" class="st3" d="M102.8,125.9l-2.2,12.7c0,0,5.7-0.6,8.6-0.4c2.9,0.2,4.1,0.4,4.1,0.4l2-12.7
		C115.3,125.9,102.8,125.9,102.8,125.9z"/>
	<text id="XMLID_24_" transform="matrix(1 0 0 1 103.6172 133.6924)" class="st1 st2">oooo</text>
</g>
<g id="Layer_31">
	<path id="XMLID_84_" class="st3" d="M119.1,125.9l-1.8,12.7c0,0,5.7-0.7,8.9,1c3.3,1.7,3.4,2,3.4,2l2-15.7
		C131.6,125.9,119.1,125.9,119.1,125.9z"/>
	<text id="XMLID_23_" transform="matrix(1 0 0 1 119.5538 134.6885)" class="st1 st2">oooo</text>
</g>
<g id="Layer_32">
	<polygon id="XMLID_82_" class="st3" points="135,126.1 147.4,125.9 145.9,141.5 132.9,141.9 	"/>
	<text id="XMLID_22_" transform="matrix(1 0 0 1 135.0372 134.6885)" class="st1 st2">oooo</text>
</g>
<g id="Layer_33">
	<polygon id="XMLID_85_" class="st3" points="150.5,125.9 163.1,125.5 161.7,141.5 148.8,141.5 	"/>
	<text id="XMLID_21_" transform="matrix(1 0 0 1 151.4263 134.6885)" class="st1 st2">oooo</text>
</g>
<g id="Layer_34">
	<polygon id="XMLID_86_" class="st3" points="166.4,125.5 179,125.3 177.8,141.1 165,141.5 	"/>
	<text id="XMLID_20_" transform="matrix(1 0 0 1 167.3629 134.6885)" class="st1 st2">oooo</text>
</g>
<g id="Layer_35">
	<polygon id="XMLID_87_" class="st3" points="182.8,125.3 198.4,124.9 197.4,141.5 181.7,141.3 	"/>
	<text id="XMLID_19_" transform="matrix(1 0 0 1 184.5972 134.6885)" class="st1 st2">oooo</text>
</g>
<g id="Layer_36">
	<polygon id="XMLID_88_" class="st3" points="119.9,101.5 107.1,99.6 109.8,87.4 122,87.4 	"/>
	<text id="XMLID_34_" transform="matrix(1 0 0 1 109.6387 94.96)" class="st1 st2">oooo</text>
</g>
<g id="Layer_37">
	<polygon id="XMLID_89_" class="st3" points="125.1,87.4 123,101.5 138.1,101.5 139.8,87.1 	"/>
	<text id="XMLID_33_" transform="matrix(1 0 0 1 126.5709 94.96)" class="st1 st2">oooo</text>
</g>
<g id="Layer_38">
	<polygon id="XMLID_90_" class="st3" points="142.9,87.4 157.5,87.1 156.2,101.5 141,101.5 	"/>
	<text id="XMLID_32_" transform="matrix(1 0 0 1 144.6807 94.96)" class="st1 st2">oooo</text>
</g>
<g id="Layer_39">
	<polygon id="XMLID_91_" class="st3" points="160.7,87.1 159.3,101.5 174.4,101.5 175.5,87.1 	"/>
	<text id="XMLID_31_" transform="matrix(1 0 0 1 162.6392 94.96)" class="st1 st2">oooo</text>
</g>
<g id="Layer_40">
	<polygon id="XMLID_92_" class="st3" points="178.7,86.8 193.6,86.5 192.8,101.5 177.7,101.5 	"/>
	<text id="XMLID_30_" transform="matrix(1 0 0 1 181.3526 94.4771)" class="st1 st2">oooo</text>
</g>
<g id="Layer_41">
	<polygon id="XMLID_93_" class="st3" points="196.1,101.5 211,100.9 215.6,85.9 196.7,86.8 	"/>
	<text id="XMLID_29_" transform="matrix(1 0 0 1 199.5528 93.9639)" class="st1 st2">oooo</text>
</g>
<g id="Layer_42">
	<path id="XMLID_94_" class="st3" d="M219.1,85.9h8.5l14.9,14.8l-16.8,7.1c0,0-2.4-3.4-6.6-5.1c-4.2-1.6-5.1-1.9-5.1-1.9L219.1,85.9
		z"/>
	<text id="XMLID_27_" transform="matrix(1 0 0 1 220.545 98.9517)" class="st1 st2">oooo</text>
</g>
<g id="Layer_43">
	<path id="XMLID_96_" class="st3" d="M226.7,111.4c0,0,1.1,3,0.3,6.2s-1.4,4.7-1.4,4.7l25.1-0.4v-19L226.7,111.4z"/>
	<text id="XMLID_28_" transform="matrix(1 0 0 1 232.105 118.2686)" class="st1 st2">oooo</text>
</g>
<g id="Layer_44">
	<polygon id="XMLID_95_" class="st3" points="110.8,77.2 123,77 125.1,63.4 113.2,64 	"/>
	<text id="XMLID_44_" transform="matrix(1 0 0 1 113.7584 70.6704)" class="st1 st2">oooo</text>
</g>
<g id="Layer_45">
	<polygon id="XMLID_97_" class="st3" points="128.7,62.9 143.2,62.9 141.4,76.2 126.6,76.6 	"/>
	<text id="XMLID_43_" transform="matrix(1 0 0 1 130.0572 70.3384)" class="st1 st2">oooo</text>
</g>
<g id="Layer_46">
	<polygon id="XMLID_98_" class="st3" points="145.9,63.2 144.3,76.6 158.9,76.6 160.4,62.9 	"/>
	<text id="XMLID_42_" transform="matrix(1 0 0 1 146.6275 70.7612)" class="st1 st2">oooo</text>
</g>
<g id="Layer_47">
	<polygon id="XMLID_99_" class="st3" points="162,76.6 176.6,76.6 177.7,62.9 163.3,62.9 	"/>
	<text id="XMLID_41_" transform="matrix(1 0 0 1 165.19 70.7612)" class="st1 st2">oooo</text>
</g>
<g id="Layer_48">
	<polygon id="XMLID_100_" class="st3" points="180.8,62.7 195.3,62.5 194.5,76.3 179.8,76.6 	"/>
	<text id="XMLID_40_" transform="matrix(1 0 0 1 182.5753 70.7612)" class="st1 st2">oooo</text>
</g>
<g id="Layer_49">
	<polygon id="XMLID_101_" class="st3" points="198.4,62.5 212.9,62.2 212.3,76.3 197.7,76.3 	"/>
	<text id="XMLID_39_" transform="matrix(1 0 0 1 200.5943 70.7612)" class="st1 st2">oooo</text>
</g>
<g id="Layer_50">
	<polygon id="XMLID_102_" class="st3" points="215.8,61.9 230,61.7 230,75.9 215.3,76.3 	"/>
	<text id="XMLID_38_" transform="matrix(1 0 0 1 218.1602 70.7612)" class="st1 st2">oooo</text>
</g>
<g id="Layer_51">
	<polygon id="XMLID_103_" class="st3" points="233.2,75.7 247.8,75.7 247.8,61.7 233.4,61.7 	"/>
	<text id="XMLID_37_" transform="matrix(1 0 0 1 235.3946 71.2441)" class="st1 st2">oooo</text>
</g>
<g id="Layer_52">
	<polygon id="XMLID_104_" class="st3" points="250.6,61.7 265.1,61.7 265.5,75.7 250.6,75.7 	"/>
	<text id="XMLID_35_" transform="matrix(1 0 0 1 253.0816 71.2441)" class="st1 st2">oooo</text>
</g>
</svg>
