<?xml version="1.0" encoding="utf-8"?>
<!-- Generator: Adobe Illustrator 22.0.1, SVG Export Plug-In . SVG Version: 6.00 Build 0)  -->
<svg version="1.1" id="Layer_1" xmlns="http://www.w3.org/2000/svg" xmlns:xlink="http://www.w3.org/1999/xlink" x="0px" y="0px" width="100%" height="100%"
	 viewBox="0 0 612 315" style="enable-background:new 0 0 612 315;" xml:space="preserve">
<style type="text/css">
	.st0{fill:none;stroke:#ED1C24;stroke-width:0.25;stroke-miterlimit:10;}
	.st1{font-family:'calibri'; font-weight:600;}
	.st2{font-size:4.5023px;}
	.st3{fill-rule:evenodd;clip-rule:evenodd;fill:#9E9E9E;}
	.st4{font-family:'calibri';font-weight:600;}
	.st5{font-size:12px;}
</style>
<image style="overflow:visible;enable-background:new    ;" width="3000" height="1391" xlink:href="/uploads/TodHunter_V03.jpg"  transform="matrix(0.2814 0 0 0.2814 -123.2621 -16.8728)">
</image>
<g id="a">
	<polygon class="st0" points="129.4,250.9 118.5,276.9 138.4,274.7 140.7,250.9 	"/>
	<text transform="matrix(1 0 0 1 127.7402 264.0508)" class="st1 st2">0000</text>
</g>
<g id="b">
	<polygon class="st0" points="123.1,249.3 111.2,245.7 94.7,267.6 111.8,274.3 	"/>
	<text transform="matrix(1 0 0 1 106.3545 260.6738)" class="st1 st2">0000</text>
</g>
<g id="c">
	<polygon class="st0" points="107.9,245.7 98.3,240.2 72.4,260 88.6,266.1 	"/>
	<text transform="matrix(1 0 0 1 88.5322 254.2021)" class="st1 st2">0000</text>
</g>
<g id="d">
	<polygon class="st0" points="93.5,238.3 67.6,256.2 58.6,244.9 87,231 	"/>
	<text transform="matrix(1 0 0 1 73.2432 243.416)" class="st1 st2">0000</text>
</g>
<g id="e">
	<path class="st0" d="M55.3,240.9l28.1-14.2c0,0-2.7-3.1-3.8-5.2c-1-2.2-1-3.7-1-3.7l-32.2,12.1L55.3,240.9z"/>
	<text transform="matrix(1 0 0 1 61.3311 230.2832)" class="st1 st2">0000</text>
</g>
<g id="f">
	<path class="st0" d="M78.1,215.3c0,0-0.5-2-0.8-4.1c-0.4-2.2-0.6-3.1-0.6-3.1l-31.2,4.5l0.9,13.3L78.1,215.3z"/>
	<text transform="matrix(1 0 0 1 56.4541 216.6836)" class="st1 st2">0000</text>
</g>
<g id="g">
	<polygon class="st0" points="45.1,208 76,203.7 75.2,193.4 44.5,198.5 	"/>
	<text transform="matrix(1 0 0 1 55.8906 201.957)" class="st1 st2">0000</text>
</g>
<g id="h">
	<polygon class="st0" points="44.5,195.9 43.6,186.3 74.1,182 74.9,191.3 	"/>
	<text transform="matrix(1 0 0 1 55.3281 189.8574)" class="st1 st2">0000</text>
</g>
<g id="i">
	<polygon class="st0" points="42.2,169.1 39,162.7 70.9,153.5 72.7,164.8 	"/>
	<text transform="matrix(1 0 0 1 52.9834 163.7813)" class="st1 st2">0000</text>
</g>
<g id="j">
	<polygon class="st0" points="43.6,182 43.1,173.5 73.2,169.1 73.8,177.6 	"/>
	<text transform="matrix(1 0 0 1 53.9209 176.4434)" class="st1 st2">0000</text>
</g>
<g id="k">
	<path class="st0" d="M68.9,149.3c0,0-0.6-2.6-5.7-6.7c-5.1-4.1-5.1-4-5.1-4l-23.6,14.3l2.8,6.3L68.9,149.3z"/>
	<text transform="matrix(1 0 0 1 47.6367 150.8374)" class="st1 st2">0000</text>
</g>
<g id="l">
	<path class="st0" d="M92.3,155.6l-0.4-2.7l-2-5.9c0,0-0.9-2.1,1.9-3.7c2.8-1.6,2.8-1.6,2.8-1.6l22.9-8.9l6,8.4l-2,10.2L92.3,155.6z
		"/>
	<text transform="matrix(1 0 0 1 101.8516 148.1172)" class="st1 st2">0000</text>
</g>
<g id="m">
	<path class="st0" d="M106.4,122.9l-14.8-11.3l-22.1,13.7l10.6,7.9c0,0,0.2,0.3,1.5,0s1.3-0.3,1.3-0.3L106.4,122.9z"/>
	<text transform="matrix(1 0 0 1 81.5918 124.4097)" class="st1 st2">0000</text>
</g>
<g id="n">
	<polygon class="st0" points="65.1,122.4 57.6,117.7 81.4,103.4 87.9,108.9 	"/>
	<text transform="matrix(1 0 0 1 69.4912 113.8105)" class="st1 st2">0000</text>
</g>
<g id="o">
	<path class="st0" d="M137,100.1c0,0-0.4,1.5-4.4,6c-3.9,4.5-9.9,9.8-9.9,9.8l-17-13.1l3-3.6L137,100.1z"/>
	<text transform="matrix(1 0 0 1 115.7334 105.4629)" class="st1 st2">0000</text>
</g>
<g id="p">
	<polygon class="st0" points="139.8,89.2 137.9,96.3 110.9,95.7 112.8,88.5 	"/>
	<text transform="matrix(1 0 0 1 120.2363 93.457)" class="st1 st2">0000</text>
</g>
<g id="q">
	<polygon class="st0" points="142.5,78.7 140.6,85.7 113.3,84.9 112.5,77.8 	"/>
	<text transform="matrix(1 0 0 1 122.3936 82.6699)" class="st1 st2">0000</text>
</g>
<g id="r">
	<path class="st0" d="M112.1,74.4l-0.7-6.9l26.9,0.8c0,0-0.2,1.5,1,2.4c1.2,0.8,2.6,2,3.1,2.6c0.5,0.6,0.8,1.8,0.8,1.8L112.1,74.4z"
		/>
	<text transform="matrix(1 0 0 1 121.1738 72.4463)" class="st1 st2">0000</text>
</g>
<g id="s">
	<path class="st0" d="M138.1,64.8l-26.4-0.6l2.3-7.7l8.9-6.4l19.5,9.5c0,0-1.9,0.9-2.8,2.3S138.1,64.8,138.1,64.8z"/>
	<text transform="matrix(1 0 0 1 120.7051 60.2524)" class="st1 st2">0000</text>
</g>
<g id="t">
	<polygon class="st0" points="144.4,58.7 125.6,48.4 135.7,41.3 150.7,41.3 153.9,55.5 	"/>
	<text transform="matrix(1 0 0 1 137.5889 50.1226)" class="st1 st2">0000</text>
</g>
<g id="u">
	<path class="st0" d="M156.3,55.5c0,0,3.3-0.1,5.8,0.4s3.3,0.8,3.3,0.8l11.9-14.1l-3.5-1.5h-18.2L156.3,55.5z"/>
	<text transform="matrix(1 0 0 1 158.8809 48.3403)" class="st1 st2">0000</text>
</g>
<g id="v">
	<path class="st0" d="M168.1,57.7c0,0,1.5,0.6,2,1.5c0.5,0.8,0.9,1.7,0.9,1.7l25.6-4.8l-4.6-7.7L181.2,44L168.1,57.7z"/>
	<text transform="matrix(1 0 0 1 176.6084 54.7183)" class="st1 st2">0000</text>
</g>
<g id="w">
	<path class="st0" d="M171.3,64.2c0,0,0.8,1.4,0.7,2.3s-0.7,2.4-0.7,2.4l25.8,0.9c0,0,2.9-4.4,2.8-5.3c0-0.9-2-5.3-2-5.3L171.3,64.2
		z"/>
	<text transform="matrix(1 0 0 1 180.8291 66.5371)" class="st1 st2">0000</text>
</g>
<g id="x">
	<path class="st0" d="M161.4,79.2c0,0,0.2-3.4,2.2-5c2-1.5,2.2-1.8,2.2-1.8l29.7,0.6l-3.7,6.9L161.4,79.2z"/>
	<text transform="matrix(1 0 0 1 172.8564 77.3237)" class="st1 st2">0000</text>
</g>
<g id="y">
	<polygon class="st0" points="160.5,82.7 158.9,89.7 186.5,90.6 190.2,83.4 	"/>
	<text transform="matrix(1 0 0 1 169.292 87.7354)" class="st1 st2">0000</text>
</g>
<g id="z">
	<polygon class="st0" points="158.2,93.5 158.1,96.9 157,100 183.6,102.3 185.5,97.5 185.1,93.8 	"/>
	<text transform="matrix(1 0 0 1 166.3838 98.4282)" class="st1 st2">0000</text>
</g>
<g id="_x31_">
	<path class="st0" d="M152.1,109.5l28.1,7.6l2.6-11.1l-27.8-2.2c0,0-0.3,2.1-1.1,3.3S152.1,109.5,152.1,109.5z"/>
	<text transform="matrix(1 0 0 1 162.4912 109.9648)" class="st1 st2">0000</text>
</g>
<g id="_x32_">
	<polygon class="st0" points="149.2,113.3 144,118.9 164.8,129.3 176.2,120.3 	"/>
	<text transform="matrix(1 0 0 1 152.7363 120.9863)" class="st1 st2">0000</text>
</g>
<g id="_x33_">
	<path class="st0" d="M160.9,132.6l-11.9,9.7l-22.3-13c0,0,5.8-2.3,8.2-4c2.3-1.6,4.6-3.5,4.6-3.5L160.9,132.6z"/>
	<text transform="matrix(1 0 0 1 139.3701 132.0073)" class="st1 st2">0000</text>
</g>
<g id="_x34_">
	<polygon class="st0" points="93.6,159.4 94.6,167.5 124.3,163.2 123.1,155.2 	"/>
	<text transform="matrix(1 0 0 1 103.915 162.2813)" class="st1 st2">0000</text>
</g>
<g id="_x35_">
	<polygon class="st0" points="95.1,171.8 96,180.2 126,175.7 124.9,167.5 	"/>
	<text transform="matrix(1 0 0 1 105.6973 175.0371)" class="st1 st2">0000</text>
</g>
<g id="_x36_">
	<polygon class="st0" points="96.8,184.4 97.5,193 127.9,188.7 126.9,180 	"/>
	<text transform="matrix(1 0 0 1 106.917 187.5117)" class="st1 st2">0000</text>
</g>
<g id="_x37_">
	<polygon class="st0" points="98.1,197.5 99.1,206.3 130,201.4 128.5,193 	"/>
	<text transform="matrix(1 0 0 1 109.2617 200.6436)" class="st1 st2">0000</text>
</g>
<g id="_x38_">
	<path class="st0" d="M132.3,205.9l3.9,2.9l-16.9,20.5c0,0-7.4-2.9-10.8-6.3c-3.4-3.4-6.8-7.5-7.8-9.8s-1-2.3-1-2.3L132.3,205.9z"/>
	<text transform="matrix(1 0 0 1 114.7021 215.6514)" class="st1 st2">0000</text>
</g>
<g id="_x39_">
	<polygon class="st0" points="177.1,209.7 177.1,231.9 189.8,231.5 190.1,209.3 	"/>
	<text transform="matrix(1 0 0 1 179.0469 221.4668)" class="st1 st2">0000</text>
</g>
<g id="_x31_0">
	<path class="st0" d="M197.1,208.4v22.5c0,0,11.8-0.1,14.6-0.5c2.7-0.4,3.1-0.6,3.1-0.6l-6-21.9L197.1,208.4z"/>
	<text transform="matrix(1 0 0 1 199.9639 220.9043)" class="st1 st2">0000</text>
</g>
<g id="_x31_1">
	<polygon class="st0" points="215.3,206.6 221.7,228.5 243.8,218.5 224.9,203.4 	"/>
	<text transform="matrix(1 0 0 1 221.6309 215.6514)" class="st1 st2">0000</text>
</g>
<g id="_x31_2">
	<polygon class="st0" points="228.1,201.1 250.6,213.5 260.9,200.6 232.3,193.6 	"/>
	<text transform="matrix(1 0 0 1 238.2334 202.5195)" class="st1 st2">0000</text>
</g>
<g id="_x31_3">
	<polygon class="st0" points="239.8,180.9 235.2,189.3 263,196.2 267.8,188.1 	"/>
	<text transform="matrix(1 0 0 1 246.4873 189.2939)" class="st1 st2">0000</text>
</g>
<g id="_x31_4">
	<polygon class="st0" points="246.8,168.7 242.3,176.9 270.1,183.6 274.6,175.7 	"/>
	<text transform="matrix(1 0 0 1 253.9912 176.9131)" class="st1 st2">0000</text>
</g>
<g id="_x31_5">
	<polygon class="st0" points="250.1,164.5 277.6,171.4 281.9,163.5 254.6,157 	"/>
	<text transform="matrix(1 0 0 1 260.9316 164.8125)" class="st1 st2">0000</text>
</g>
<g id="_x31_6">
	<polygon class="st0" points="253.5,143.7 254.9,152.9 283.1,159.4 286.8,155.3 287.5,151.5 	"/>
	<text transform="matrix(1 0 0 1 265.1533 152.9009)" class="st1 st2">0000</text>
</g>
<g id="_x31_7">
	<polygon class="st0" points="289.5,147.8 252.8,139.1 251.6,130.5 293.1,140.1 	"/>
	<text transform="matrix(1 0 0 1 267.334 140.7305)" class="st1 st2">0000</text>
</g>
<g id="_x31_8">
	<polygon class="st0" points="284.6,134.2 252.2,126.7 259.4,117.9 284.3,126 284.6,130.5 283.7,131.4 	"/>
	<text transform="matrix(1 0 0 1 264.0273 126.6611)" class="st1 st2">0000</text>
</g>
<g id="_x31_9">
	<path class="st0" d="M287,122.5l-24.6-8.1l6.6-7.4l10.8-3.2l11.7,15.8c0,0-2.3,0.6-3.2,1.3C287.4,121.7,287,122.5,287,122.5z"/>
	<text transform="matrix(1 0 0 1 273.7354 114.4204)" class="st1 st2">0000</text>
</g>
<g id="_x32_0">
	<path class="st0" d="M296.5,118.1c0,0,2.2-0.7,3.7-0.5s1.5,0.2,1.5,0.2l12.6-16.6l-12.1-4l-16.5,5.1L296.5,118.1z"/>
	<text transform="matrix(1 0 0 1 295.6133 106.6118)" class="st1 st2">0000</text>
</g>
<g id="_x32_1">
	<text transform="matrix(1 0 0 1 322.5566 114.4204)" class="st1 st2">0000</text>
	<path class="st0" d="M312.7,120.1c0,0,1.4,0.2,2.2,0.9c0.8,0.7,2.1,1.7,2.1,1.7l25-7.9l-6-7.4l-11.2-3.2L312.7,120.1z"/>
</g>
<g id="_x32_2">
	<path class="st0" d="M319.6,128.6l25.2-7.6l7.1,9.1l-3.2,6.7l-28.3-3.9c0,0,0.6-1.6,0.1-2.7C320,129.1,319.6,128.6,319.6,128.6z"/>
	<text transform="matrix(1 0 0 1 332.124 130.46)" class="st1 st2">0000</text>
</g>
<g id="_x32_3">
	<polygon class="st0" points="318.9,134 315.5,140.7 342.5,147.2 347.2,138.2 	"/>
	<text transform="matrix(1 0 0 1 325.5117 140.4492)" class="st1 st2">0000</text>
</g>
<g id="_x32_4">
	<polygon class="st0" points="313.9,144.7 309.6,152.1 336.8,158.7 340.7,151.2 	"/>
	<text transform="matrix(1 0 0 1 319.6025 152.127)" class="st1 st2">0000</text>
</g>
<g id="_x32_5">
	<path class="st0" d="M334.9,162.7l-6.7,13.7l-23.6-5.9c0,0-3.2-0.4-3.5-1.5c-0.3-1.1-0.1-1.2,0.8-2.7c0.9-1.5,2.6-5,2.6-5l2.9-5.3
		L334.9,162.7z"/>
	<text transform="matrix(1 0 0 1 312.708 166.9941)" class="st1 st2">0000</text>
</g>
<g id="_x32_6">
	<polygon class="st0" points="321.6,190.3 314.5,204.4 286,197.1 293.4,183.8 	"/>
	<text transform="matrix(1 0 0 1 298.8262 194.3594)" class="st1 st2">0000</text>
</g>
<g id="_x32_7">
	<polygon class="st0" points="312.4,208.9 307.6,218.1 279.1,209.5 284.3,200.4 	"/>
	<text transform="matrix(1 0 0 1 290.3848 209.2734)" class="st1 st2">0000</text>
</g>
<g id="_x32_8">
	<polygon class="st0" points="276.7,213.7 271,220.7 297.1,234.8 301.7,231.4 305.5,223 	"/>
	<text transform="matrix(1 0 0 1 283.0684 222.9902)" class="st1 st2">0000</text>
</g>
<g id="_x32_9">
	<polygon class="st0" points="292.3,238.5 279.6,248.5 258.8,231.3 267.9,224 	"/>
	<text transform="matrix(1 0 0 1 270.0771 236.2637)" class="st1 st2">0000</text>
</g>
<g id="_x33_0">
	<polygon class="st0" points="243.8,239.1 253.3,234.4 274.1,251.8 258.8,259.6 	"/>
	<text transform="matrix(1 0 0 1 252.3965 246.9092)" class="st1 st2">0000</text>
</g>
<g id="_x33_1">
	<polygon class="st0" points="225.7,244.9 237.4,241.9 252.2,262.3 234.8,268 	"/>
	<text transform="matrix(1 0 0 1 233.2383 254.2012)" class="st1 st2">0000</text>
</g>
<g id="_x33_2">
	<polygon class="st0" points="220.5,246.1 227.3,269.6 209.1,270.4 208.9,246.9 	"/>
	<text transform="matrix(1 0 0 1 212.2744 258.8447)" class="st1 st2">0000</text>
</g>
<g id="_x33_3">
	<polygon class="st0" points="377.1,226.7 389.2,229.7 398,209 385.4,206.5 	"/>
	<text transform="matrix(1 0 0 1 382.8691 219.7783)" class="st1 st2">0000</text>
</g>
<g id="_x33_4">
	<polygon class="st0" points="404.4,211.4 417.2,213.8 408.8,234.8 396.3,231.6 	"/>
	<text transform="matrix(1 0 0 1 402.2852 222.9902)" class="st1 st2">0000</text>
</g>
<g id="_x33_5">
	<polygon class="st0" points="416.1,236.3 423.8,215.6 436.3,218.4 428.5,239.6 	"/>
	<text transform="matrix(1 0 0 1 421.6074 228.2441)" class="st1 st2">0000</text>
</g>
<g id="_x33_6">
	<polygon class="st0" points="443.2,220.3 435.7,241.5 448.3,244.5 455.8,223.1 	"/>
	<text transform="matrix(1 0 0 1 441.3047 233.0273)" class="st1 st2">0000</text>
</g>
<g id="_x33_7">
	<polygon class="st0" points="462.7,225.1 455.9,246.2 470.9,250.3 476.2,227.6 	"/>
	<text transform="matrix(1 0 0 1 461.9404 238.2793)" class="st1 st2">0000</text>
</g>
<g id="_x33_8">
	<polygon class="st0" points="481.3,229.3 492.4,229.8 498.1,253 483,253.3 478.2,252.1 	"/>
	<text transform="matrix(1 0 0 1 482.9512 242.2891)" class="st1 st2">0000</text>
</g>
<g id="_x33_9">
	<polygon class="st0" points="499.7,229.3 509.9,228.3 523.8,250.3 505.5,252.6 	"/>
	<text transform="matrix(1 0 0 1 504.8057 240.2266)" class="st1 st2">0000</text>
</g>
<g id="_x34_0">
	<polygon class="st0" points="516.3,226.7 530.4,248.8 546.6,242.9 526.1,223 	"/>
	<text transform="matrix(1 0 0 1 524.1279 234.3867)" class="st1 st2">0000</text>
</g>
<g id="_x34_1">
	<path class="st0" d="M530.4,220.5l21.4,19.8l12.8-8.8l-27.2-15.8c0,0-1.6,2-3.2,2.8S530.4,220.5,530.4,220.5z"/>
	<text transform="matrix(1 0 0 1 541.293 226.6953)" class="st1 st2">0000</text>
</g>
<g id="_x34_2">
	<path class="st0" d="M545.9,206.1l30.4,10.6l-8.1,11l-26.9-15.4C541.3,212.3,544.3,211.2,545.9,206.1z"/>
	<text transform="matrix(1 0 0 1 552.501 216.2148)" class="st1 st2">0000</text>
</g>
<g id="_x34_3">
	<path class="st0" d="M550.2,195.2l31.5,5l-3.5,12.3L548.2,202C548.2,202,550.9,199,550.2,195.2z"/>
	<text transform="matrix(1 0 0 1 559.8643 202.5195)" class="st1 st2">0000</text>
</g>
<g id="_x34_4">
	<path class="st0" d="M549.7,183.5c0,0,0.8,3.5,0.9,4.6c0.1,1.1,0,2.6,0,2.6l31.1,5l-1.4-12.2L549.7,183.5L549.7,183.5z"/>
	<text transform="matrix(1 0 0 1 561.1777 188.8252)" class="st1 st2">0000</text>
</g>
<g id="_x34_5">
	<polygon class="st0" points="545.6,171 548.4,178.8 578.4,178.8 574.3,169 	"/>
	<text transform="matrix(1 0 0 1 557.6133 175.0371)" class="st1 st2">0000</text>
</g>
<g id="_x34_6">
	<polygon class="st0" points="540.3,158.4 543.5,166.4 572.5,164.8 569,156.7 	"/>
	<text transform="matrix(1 0 0 1 551.3291 162.75)" class="st1 st2">0000</text>
</g>
<g id="_x34_7">
	<polygon class="st0" points="535.5,146.2 538.4,154.3 567.1,152.5 563.5,144.2 	"/>
	<text transform="matrix(1 0 0 1 545.6074 149.9932)" class="st1 st2">0000</text>
</g>
<g id="_x34_8">
	<polygon class="st0" points="528.6,129 531.8,137.1 559.9,135.3 556.4,127.2 	"/>
	<text transform="matrix(1 0 0 1 539.1348 132.8281)" class="st1 st2">0000</text>
</g>
<g id="_x34_9">
	<polygon class="st0" points="524.1,117.5 527.1,125.2 554.7,123.6 551.3,116 	"/>
	<text transform="matrix(1 0 0 1 535.4775 121.4082)" class="st1 st2">0000</text>
</g>
<g id="_x35_0">
	<polygon class="st0" points="519.6,106.7 522.5,113.8 549.7,112.1 546.7,104.7 	"/>
	<text transform="matrix(1 0 0 1 530.9746 109.9648)" class="st1 st2">0000</text>
</g>
<g id="_x35_1">
	<polygon class="st0" points="515,95.5 518.1,102.8 545,101.2 542,94 	"/>
	<text transform="matrix(1 0 0 1 525.8164 99.1782)" class="st1 st2">0000</text>
</g>
<g id="_x35_2">
	<polygon class="st0" points="510.9,84.9 513.8,91.9 540.5,90.4 537.5,83.5 	"/>
	<text transform="matrix(1 0 0 1 520.751 88.4854)" class="st1 st2">0000</text>
</g>
<g id="_x35_3">
	<polygon class="st0" points="506.9,74.6 509.4,81.4 535.8,80 533,73 	"/>
	<text transform="matrix(1 0 0 1 516.249 77.7925)" class="st1 st2">0000</text>
</g>
<g id="_x35_4">
	<polygon class="st0" points="502.6,64.4 505.5,71.2 531.3,69.6 528.6,62.9 	"/>
	<text transform="matrix(1 0 0 1 512.7783 67.7563)" class="st1 st2">0000</text>
</g>
<g id="_x35_5">
	<path class="st0" d="M526.9,59.6l-2.8-7.4l-7.5-4.7l-17.9,9.9c0,0,1.2,0.9,1.8,1.8c0.6,0.9,0.8,2,0.8,2L526.9,59.6z"/>
	<text transform="matrix(1 0 0 1 507.9941 56.5005)" class="st1 st2">0000</text>
</g>
<g id="_x35_6">
	<polygon class="st0" points="512.5,45.3 494.4,54.7 490.9,53.4 487.6,37.4 500,37.4 	"/>
	<text transform="matrix(1 0 0 1 493.4561 45.2451)" class="st1 st2">0000</text>
</g>
<g id="_x35_7">
	<polygon class="st0" points="475.2,53.4 456.9,41.2 465.3,37 477,37 480.1,52.2 	"/>
	<text transform="matrix(1 0 0 1 465.9736 44.2134)" class="st1 st2">0000</text>
</g>
<g id="_x35_8">
	<polygon class="st0" points="471,55.3 468.3,58.1 444,54.7 447.5,46 452.8,43.1 	"/>
	<text transform="matrix(1 0 0 1 451.0596 52.186)" class="st1 st2">0000</text>
</g>
<g id="_x35_9">
	<path class="st0" d="M469.7,66.5l-25.4,1.7l-2.6-7.7l0.8-2.9l25.8,3.5C468.2,61.1,467,63.2,469.7,66.5z"/>
	<text transform="matrix(1 0 0 1 449.3711 63.8169)" class="st1 st2">0000</text>
</g>
<g id="_x36_0">
	<path class="st0" d="M483.2,72.1c-6.3-0.5-7.7-2.4-7.7-2.4L446,71.4l4.9,7l37.1-2.3C487.6,72.2,483.2,72.1,483.2,72.1z"/>
	<text transform="matrix(1 0 0 1 461.9404 74.228)" class="st1 st2">0000</text>
</g>
<g id="_x36_1">
	<polygon class="st0" points="454.8,81.5 464,87.9 492,86.5 489.4,79.6 	"/>
	<text transform="matrix(1 0 0 1 471.1318 84.2646)" class="st1 st2">0000</text>
</g>
<g id="_x36_2">
	<polygon class="st0" points="466.7,91.3 469.2,98.7 495.8,97.1 493.5,90 	"/>
	<text transform="matrix(1 0 0 1 477.792 94.3945)" class="st1 st2">0000</text>
</g>
<g id="_x36_3">
	<polygon class="st0" points="470.3,102.2 473,110 500,108.2 497.4,100.7 	"/>
	<text transform="matrix(1 0 0 1 481.2627 106.0254)" class="st1 st2">0000</text>
</g>
<g id="_x36_4">
	<polygon class="st0" points="474.2,113.4 476.9,121 504.3,119.3 501.6,111.9 	"/>
	<text transform="matrix(1 0 0 1 485.2021 117.0938)" class="st1 st2">0000</text>
</g>
<g id="_x36_5">
	<path class="st0" d="M478.2,124.8l4.3,13.5l26.7-2.2c0,0,0.9-1,0.6-2.3c-0.3-1.3-0.3-1.3-0.3-1.3l-3.7-9.5L478.2,124.8z"/>
	<text transform="matrix(1 0 0 1 489.6104 130.46)" class="st1 st2">0000</text>
</g>
<g id="_x36_6">
	<path class="st0" d="M495.7,150.5l7.2,20.2l20.3-1.5l-5.9-15.6c0,0-0.5-3.4-2.3-3.5s-1.8-0.1-1.8-0.1L495.7,150.5z"/>
	<text transform="matrix(1 0 0 1 505.4619 160.2168)" class="st1 st2">0000</text>
</g>
<g id="_x36_7">
	<path class="st0" d="M524.9,173.2c0,0,3.7,9.1,3.8,11.6c0.1,2.4,0.1,2.4,0.1,2.4l-37.3-5.8L488,178l13.1-3L524.9,173.2z"/>
	<text transform="matrix(1 0 0 1 506.0244 180.1953)" class="st1 st2">0000</text>
</g>
<g id="_x36_8">
	<path class="st0" d="M528.1,191.6l-36.9-5.6v0.6l19.1,23.3C527.6,201.5,528.1,191.6,528.1,191.6z"/>
	<text transform="matrix(1 0 0 1 505.4619 196.6104)" class="st1 st2">0000</text>
</g>
<g id="_x36_9">
	<path class="st0" d="M485.9,188.8l-4.5,1.2l-6.7,21.5c0,0,7.9,2.4,15.2,2.1s14.6-1.7,14.6-1.7L485.9,188.8z"/>
	<text transform="matrix(1 0 0 1 482.4814 204.0205)" class="st1 st2">0000</text>
</g>
<g id="_x37_0">
	<polygon class="st0" points="462,186.6 455.2,206.8 467.5,209.9 474.3,189.9 	"/>
	<text transform="matrix(1 0 0 1 460.252 199.3301)" class="st1 st2">0000</text>
</g>
<g id="_x37_1">
	<polygon class="st0" points="443.5,182.1 436.1,202.2 448.1,205.2 455.2,185.3 	"/>
	<text transform="matrix(1 0 0 1 441.3047 195.2031)" class="st1 st2">0000</text>
</g>
<g id="_x37_2">
	<polygon class="st0" points="424.7,177.9 437,180.9 429.3,200.6 417.2,197.6 	"/>
	<text transform="matrix(1 0 0 1 422.3574 190.3262)" class="st1 st2">0000</text>
</g>
<g id="_x37_3">
	<polygon class="st0" points="418.3,176.4 406.4,173.6 398.6,193.1 410.3,196.1 	"/>
	<text transform="matrix(1 0 0 1 403.9736 186.293)" class="st1 st2">0000</text>
</g>
<g id="_x37_4">
	<path class="st0" d="M489.9,150.8l7.4,20.6l-13.1,2.8l-7.1-21.8c0,0,0.3-0.9,0.7-0.9c0.5-0.1,0.5-0.1,0.5-0.1L489.9,150.8z"/>
	<text transform="matrix(1 0 0 1 482.4814 162.2813)" class="st1 st2">0000</text>
</g>
<g id="_x37_5">
	<path class="st0" d="M463.1,155.4l-6.2,18.8l5.3,1.4l16.5-1l-6.5-19.6C472.2,155.1,468.4,156.2,463.1,155.4z"/>
	<text transform="matrix(1 0 0 1 463.0654 166.4082)" class="st1 st2">0000</text>
</g>
<g id="_x37_6">
	<path class="st0" d="M456.9,154l-6.9,18.7l-12.7-3l-8.7-7.9l22.9-10.4C454.2,153.5,456.9,154,456.9,154z"/>
	<text transform="matrix(1 0 0 1 439.8975 162.2803)" class="st1 st2">0000</text>
</g>
<g id="_x37_7">
	<path class="st0" d="M445.6,144c0,0,0.1,0.9,0.8,1.9s1.3,1.7,1.3,1.7l-23,10.7l-8-7.5v-8.3L445.6,144z"/>
	<text transform="matrix(1 0 0 1 425.7344 149.9932)" class="st1 st2">0000</text>
</g>
<g id="_x37_8">
	<path class="st0" d="M447.5,136.3l-22.5-12.7l-7.9,5.8v8.9l28,1.7C446,137.6,447.5,136.3,447.5,136.3z"/>
	<text transform="matrix(1 0 0 1 424.7021 133.7661)" class="st1 st2">0000</text>
</g>
<g id="_x37_9">
	<path class="st0" d="M456.4,131.4l-6.7-17l-14.4,1.1l-6.3,5.1l22.3,12.7C451.4,133.3,453.6,131.3,456.4,131.4z"/>
	<text transform="matrix(1 0 0 1 439.5225 123.2842)" class="st1 st2">0000</text>
</g>
<g id="_x38_0">
	<path class="st0" d="M455.5,113.8l7,17.2c0,0,3.4-0.6,7.3,0.8c3.9,1.4,5.9,2.3,5.9,2.3l-7.8-21.3L455.5,113.8z"/>
	<text transform="matrix(1 0 0 1 460.8145 122.9092)" class="st1 st2">0000</text>
</g>
<g id="">
	<path class="st3" d="M482.3,259.9l-113.9-29l8.4-20l-54.5-13.8l-18.3,37.5c-12,21.5-58.6,41.9-99.9,41.4l-0.8-38.3l-31.4,1.4
		l1.4-34.2c20-0.4,46.4-3.1,49.1-6l27.1-43.9l-3.8-28.6l20.1-22.5L301.1,93l36.4,10l18,25.6L331.5,178l59.8,13.1l8.7-23.3l8.9-10.7
		l1.3-29.6l22-17.4l31.3-2.6l-4.1-13.7l-15.7-11.1l-8.9-22.1l7.4-17.5L462.6,33l36.1-0.2L525.9,48l53.6,125.6
		c9.1,27.1,3.6,52.1-26.6,73.4C532.1,258.2,508.4,262.3,482.3,259.9L482.3,259.9z"/>
	<text transform="matrix(1 0 0 1 453.3333 186.3333)" class="st4 st5">FUTURE PHASE</text>
</g>
</svg>
