<?xml version="1.0" encoding="utf-8"?>
<!-- Generator: Adobe Illustrator 16.0.0, SVG Export Plug-In . SVG Version: 6.00 Build 0)  -->

<!DOCTYPE svg PUBLIC "-//W3C//DTD SVG 1.1//EN" "http://www.w3.org/Graphics/SVG/1.1/DTD/svg11.dtd">
<svg version="1.1" id="_x30_0.RGB_x5F_color.0000_xA0_Image_1_"
	 xmlns="http://www.w3.org/2000/svg" xmlns:xlink="http://www.w3.org/1999/xlink" x="0px" y="0px"
	 style="margin-top: 4px; margin-left: 27px;"
    width="96%" height="85%"
	 viewBox="0 0 652 326" enable-background="new 0 0 652 326" xml:space="preserve">
<image overflow="visible" width="2000" height="1000"  xlink:href="dashboard/plat-data/8DBE3B64.jpg"  transform="matrix(0.326 0 0 0.326 0 0)">
</image>
<g id="_x31_">
	<path fill="none" stroke="#FC0303" stroke-width="0.15" stroke-miterlimit="10" d="M652,165.25l-32.25-108h-41.5l-0.666,2.833
		v47.833c0,0,2.584,8.75,4.167,17.417c0,0,2.417,8.167,5.667,15.417l1.166,2.5c0,0,2.291,0.313,3.229,2.938
		c0,0-0.625,0.375,0.313,1.625c0,0,1.188,1.375,0.188,3l-0.438,0.75c0,0,5.438,10.563,2.813,26.875c0,0-0.5,5.438-6.375,15.125
		c0,0-0.938,2.813-9.5,7.813c0,0-7.813,3.188-8.563,14.875l-0.813,2.563L652,217.875V165.25z"/>
	<text transform="matrix(1 0 0 1 610.7188 127.6563)" >1</text>
</g>
<g id="_x32_">
	<path fill="none" stroke="#FC0303" stroke-width="0.15" stroke-miterlimit="10" d="M503.75,42.625l32.5,8.75l-5.063,15
		l-31.875-8.688c0,0,0.438-0.938,0-1.875L503.75,42.625z"/>
	<text transform="matrix(1 0 0 1 513.9688 57.6875)" >1</text>
</g>
<g id="_x33_">
	<path fill="none" stroke="#FC0303" stroke-width="0.15" stroke-miterlimit="10" d="M493.563,69.438l3.313-8.5
		c0,0,2.75-0.063,1.75-1.875c0,0,0.75-0.375,0.688-1.375l31.875,8.688l-3,13.375l-33.625-8.188
		C494.563,71.563,494.625,70.125,493.563,69.438z"/>
	<text transform="matrix(1 0 0 1 510.2188 72.5)" >1</text>
</g>
<g id="_x34_">
	<path fill="none" stroke="#FC0303" stroke-width="0.15" stroke-miterlimit="10" d="M484.063,91.375c0,0,36.625,8.25,37.938,8.5
		l6.188-18.625v-1.5l-33.625-8.188c0,0,0.375,1.188-0.625,1.188c0,0,1.125,1.5-0.875,1.688c0,0,0.063,0.875-1.375,0.875
		c0,0-0.438,0.688-1.063,0.813l-5.875,12.813L484.063,91.375z"/>
	<text transform="matrix(1 0 0 1 502.6563 87.25)" >1</text>
</g>
<g id="_x35_">
	<path fill="none" stroke="#FC0303" stroke-width="0.15" stroke-miterlimit="10" d="M518,100.813l1.75,17.125v1.926l-34.126-7.672
		c0,0,0.687-0.754,0-1.629c0,0,0.501-0.5,0.501-1.75c0,0,1.563-1.438-1.375-2.375c0,0,1.125-1.063,0.313-2.063c0,0-0.813-0.125-1-1
		c0,0-0.502-1.188-2.626-0.438L481,98.813c0,0,0.438-4.75,1.813-5.5h1.25L518,100.813z"/>
	<text transform="matrix(1 0 0 1 497.4063 110.25)" >1</text>
</g>
<g id="_x36_">
	<path fill="none" stroke="#FC0303" stroke-width="0.15" stroke-miterlimit="10" d="M484.438,122.5
		c0.534-0.03,1.043,0.048,0.813,0.673c-0.084,0.226-0.466,0.263-0.487,0.514c-0.038,0.452,0.162,0.182,0.425,0.308
		c0.562,0.27,0.82,0.334,1.122,0.882c0.267,0.486,0.702,0.885,0.957,1.359c0.532,0.987-0.862,1.534-1.034,2.385
		c-0.121,0.604,0.078,0.835-0.607,0.941c-0.54,0.083-1.07-0.073-1.125,0.688l0.063,1.938c0,0,16.625,3.5,36.688,5.625L520.375,120
		c0,0-30.688-6.688-35-7.875h-1.313L484.438,122.5z"/>
	<text transform="matrix(1 0 0 1 500.375 128.583)" >1</text>
</g>
<g id="_x37_">
	<path fill="none" stroke="#FC0303" stroke-width="0.15" stroke-miterlimit="10" d="M521.25,137.813L519,160.938v1.563
		l-37.563-9.875c0,0-0.063-0.688,0.938-1.063c0,0,0.063-1.313,0.875-1.813c0,0,0.5-1.375-0.438-2.25c0,0-0.438-0.938,0.375-1.125
		c0,0,0.75-0.688-0.375-1.5c0,0,1.563-5.563,1.75-12.688C484.563,132.188,504.625,136.375,521.25,137.813z"/>
	<text transform="matrix(1 0 0 1 496.375 149.333)" >1</text>
</g>
<g id="_x38_">
	<path fill="none" stroke="#FC0303" stroke-width="0.15" stroke-miterlimit="10" d="M479.5,153.188c0,0-1.563,6.125-7.438,13.25
		c0,0-0.125,1.188-0.938,1.313c0,0,0.813,1.875-1.125,1.75c0,0,1,1.688-1.5,1.813V173l43.063,15.063l0.688-2.188L519,162.5
		l-37.563-9.875C481.438,152.625,481.375,153.625,479.5,153.188z"/>
	<text transform="matrix(1 0 0 1 493.75 172.333)" >1</text>
</g>
<g id="_x39_">
	<path fill="none" stroke="#FC0303" stroke-width="0.15" stroke-miterlimit="10" d="M417.625,178.188l-0.313,2.438l3.938,31.125
		l24.688-0.313v-2.375l-3.5-25.813c0,0,0-4.75-7.563-5.375L417.625,178.188z"/>
	<text transform="matrix(1 0 0 1 427.916 197.083)" >1</text>
</g>
<g id="_x40_">
	<polygon fill="none" stroke="#FC0303" stroke-width="0.15" stroke-miterlimit="10" points="414.563,178.188 418,209.375 
		418,211.75 395.313,211.75 395.313,209.5 392.438,178.5 	"/>
	<text transform="matrix(1 0 0 1 401.416 197.083)" >1</text>
</g>
<g id="_x41_">
	<path fill="none" stroke="#FC0303" stroke-width="0.15" stroke-miterlimit="10" d="M383.563,178.188
		c0.904,0.077,1.341,0.985,2.313,1.063c0.542,0.043,2.135,0.028,2.313-0.5l2.438,31.063v2.375h-22.688L366,178.5L383.563,178.188z"
		/>
	<text transform="matrix(1 0 0 1 375.3535 197.083)" >1</text>
</g>
<g id="_x42_">
	<path fill="none" stroke="#FC0303" stroke-width="0.15" stroke-miterlimit="10" d="M356.063,178.5
		c0.353-0.021,0.663,0.839,0.998,1.127c0.488,0.418,1.188,0.524,1.814,0.561c0.705,0.041,2.38-0.346,2.75-0.938l1.5,33.188
		l-23.688,0.375l-1.25-34L356.063,178.5z"/>
	<text transform="matrix(1 0 0 1 346.8535 197.083)" >1</text>
</g>
<g id="_x43_">
	<path fill="none" stroke="#FC0303" stroke-width="0.15" stroke-miterlimit="10" d="M332.813,179.875l0.563,37.5l-23.688,0.313v-25
		c0,0-0.375-9.875,14.313-13.313h4c0,0,1.418,2.291,3.834,0.458L332.813,179.875z"/>
	<text transform="matrix(1 0 0 1 318.6035 200.334)" >1</text>
</g>
<g id="_x44_">
	<path fill="none" stroke="#FC0303" stroke-width="0.15" stroke-miterlimit="10" d="M305.792,236.001
		c0.019,0.328,0.56,0.496,0.584,0.958c0.025,0.477-0.378,0.544-0.417,0.916c-0.084,0.794,1.569,1.359,2.04,1.789
		c0.662,0.604,0.151,1.484-0.091,2.128c-0.303,0.808,0.292,1.525,0.385,2.292c0,0.027,0,0.056,0,0.083l41.792-0.375l-0.834-24.083
		l-41.792,0.208c-0.462,0.898-0.801,0.705-1.625,0.959L305.792,236.001z"/>
	<text transform="matrix(1 0 0 1 323.6035 234.334)" >1</text>
</g>
<g id="_x45_">
	<path fill="none" stroke="#FC0303" stroke-width="0.15" stroke-miterlimit="10" d="M350.375,244.813l0.75,25.375h-43.563
		c0,0-0.563-0.5,0-1.438c0,0-0.25-0.75,0.125-1.375c0,0,1-2.188-2.188-3.688c0,0,1.875-0.563,0-2.063v-14.5
		c0,0,0.438-1.625,1.75-1.625c0,0,0.375,0.188,0.813-0.25L350.375,244.813z"/>
	<text transform="matrix(1 0 0 1 323.6035 260.2246)" >1</text>
</g>
<g id="_x46_">
	<path fill="none" stroke="#FC0303" stroke-width="0.15" stroke-miterlimit="10" d="M352.5,297.584l-0.917-26.833h-44
		c0,0-0.417,1.083-2.083,0.833v15.167c0,0,2.083-0.416,3.083,2.25c0,0,0.25,0.582-0.667,0.666c0,0,2,3.917,0.083,4.167
		c0,0-1.833,0.583-2.5,1.083v2.667H352.5z"/>
	<text transform="matrix(1 0 0 1 323.6035 287.0625)" >1</text>
</g>
<g id="_x47_">
	<path fill="none" stroke="#FC0303" stroke-width="0.15" stroke-miterlimit="10" d="M262.375,320.313l0.938-24.938
		c0,0,0.125-6.938-8.563-8.688h-41.313l-3.313,32.188L210.75,321L262.375,320.313z"/>
	<text transform="matrix(1 0 0 1 232.3535 308.3125)" >1</text>
</g>
<g id="_x48_">
	<path fill="none" stroke="#FC0303" stroke-width="0.15" stroke-miterlimit="10" d="M203,321l3.438-32.063l-0.625-1.875h-36.625
		c0,0-11,0.75-12.5,11.25l-3.375,21.125l1,2.125L203,321z"/>
	<text transform="matrix(1 0 0 1 177.4971 308.3125)" >1</text>
</g>
<g id="_x49_">
	<path fill="none" stroke="#FC0303" stroke-width="0.15" stroke-miterlimit="10" d="M110.167,292.417
		c-0.656-0.545-2.084-1.225-1.677-2.293c0.156-0.41,0.515-0.501,0.091-0.791c-0.375-0.257-0.733-0.275-0.916-0.781
		c-0.279-0.77,0.503-1.438-0.079-2.05c-0.314-0.33-0.528-0.524-0.46-1.093c0.055-0.462,0.28-0.846,0.509-1.242
		c0.179-0.31,0.347-0.634,0.562-0.914c0.293-0.382,0.761-0.518,1.175-0.717c-0.137-0.424-0.568-1.065-0.373-1.515
		c0.135-0.309,0.681-0.697,0.96-0.771c0.428-0.112,0.983-0.167,1.419-0.209c0.344-0.033,1.358,0.094,1.373-0.458
		c0,0,0.083-3.083,1.292-4.583L113,272.584l-47.958-6.208L57,290.792l1.375,2.334L110.167,292.417z"/>
	<text transform="matrix(1 0 0 1 80.375 282.8125)" >1</text>
</g>
<g id="_x50_">
	<path fill="none" stroke="#FC0303" stroke-width="0.15" stroke-miterlimit="10" d="M117.25,266.001
		c0.443-0.39-0.847-0.042-1.334-0.363c-0.5-0.33-0.792-0.314-0.916-0.971c-0.119-0.632-0.32-0.488-0.876-0.667
		c-0.503-0.162-0.952-0.797-1.114-1.32c-0.098-0.316-0.045-0.561-0.305-0.764c-0.156-0.122-0.396-0.087-0.562-0.164
		c-0.597-0.279-0.33-0.884-0.239-1.408c0.106-0.613,0.264-0.887,0.859-1.137c0.295-0.124,0.818-0.25,0.605-0.749
		c-0.085-0.198-0.422-0.303-0.538-0.501c-0.115-0.197-0.127-0.414-0.166-0.633c-0.086-0.492-0.335-0.718-0.492-1.157
		c-0.129-0.361-0.084-0.752,0.161-1.009c0.247-0.26,0.833-0.249,0.957-0.532l-37.833-27.25l-9.708,37.417l0.834,1.783l48.083,5.383
		C114.667,271.959,114.833,268.126,117.25,266.001z"/>
	<text transform="matrix(1 0 0 1 86.375 257.5)" >1</text>
</g>
<g id="_x51_">
	<path fill="none" stroke="#FC0303" stroke-width="0.15" stroke-miterlimit="10" d="M132.667,241.583
		c-0.192,0.176-0.531,0.269-0.758,0.397c-0.272,0.155-0.584,0.281-0.858,0.401c-0.328,0.145-0.563,0.246-0.634,0.617
		c-0.075,0.387,0.206,0.661,0.197,0.994c-0.565,0.134-0.754,0.214-1.018,0.757c-0.139,0.286-0.506,0.833-0.339,1.179
		c0.088,0.182,0.335,0.239,0.461,0.393c0.147,0.178,0.243,0.46,0.365,0.676c0.269,0.478,0.61,0.615,0.926,1.003
		c0.685,0.838-0.599,1.237-0.8,1.991c-0.125,0.466,0.021,1.052,0.458,1.291c0.243,0.134,0.424,0.085,0.629,0.336
		c0.157,0.191,0.22,0.465,0.37,0.666c0.463,0.623,0.932,0.197,1.576,0.22c0.143,0.662,0.494,1.226,0.467,1.954l0.292,2.375
		c0,0-5.208,0.918-7.375,3.334c-0.329,0.367-0.021-1.149-0.418-1.492c-0.546-0.472-1.507-0.234-2.161-0.265
		c-0.027-0.442,0.104-0.596,0.452-0.866c0.314-0.244,0.531-0.45,0.297-0.888c-0.26-0.483-1.11-0.754-1.577-0.78
		c-0.223-0.013-0.799,0.072-0.95-0.121c-0.142-0.183,0.02-0.456,0.106-0.619c0.128-0.243,0.266-0.222,0.212-0.586
		c-0.075-0.518-0.289-0.701-0.753-0.8c-0.452-0.096-0.689-0.197-1.06-0.488c-0.509-0.4-0.529-0.476-1.098-0.229
		c-0.834,0.361-1.861-0.089-2.686,0.377c-0.389,0.22-2.006,0.688-2.365,0.258l-33.792-25.75l-0.458-2.167l50.667-0.292l0.667,2.875
		L132.667,241.583z"/>
	<text transform="matrix(1 0 0 1 112.875 242.8418)" >1</text>
</g>
<g id="_x52_">
	<path fill="none" stroke="#FC0303" stroke-width="0.15" stroke-miterlimit="10" d="M179,254.751
		c-0.397-0.588-0.417-0.898-0.417-1.613c0-0.812,0.377-0.908,1.052-1.338c0.277-0.177,0.633-0.557,0.44-0.967
		c-0.138-0.292-0.805-0.313-0.953-0.707c-0.054-0.144,0.043-0.35,0-0.5c-0.086-0.308-0.161-0.146-0.422-0.34
		c-0.303-0.224-0.369-0.94-0.285-1.357c0.112-0.552,0.7-0.759,1.209-0.803c0.174-0.015,0.791,0.104,0.912-0.039
		c0.07-0.083,0.017-0.519,0.054-0.638c0.318-1.02,1.433-0.915,2.195-1.271c0.485-0.228,0.841-0.313,1.37-0.344
		c0.575-0.034,0.502-0.269,0.929-0.574c0.231-0.165,0.786-0.31,1.083-0.169c0.373,0.176,0.502,0.738,0.869,0.91
		c0.263,0.123,0.632,0.119,0.889,0.283c0.272,0.173,0.353,0.411,0.535,0.681c0.309,0.457,0.742,0.682,1.163,0.991
		c0.358,0.263,0.655,0.479,0.794,0.923c0.132,0.421,0.167,0.729,0.541,1.038l2.958-22.25l-0.292-1.875h-53.833l4.458,28.25
		l0.625,2.167L179,254.751z"/>
	<text transform="matrix(1 0 0 1 162.7441 241.3418)" >1</text>
</g>
<g id="_x53_">
	<path fill="none" stroke="#FC0303" stroke-width="0.15" stroke-miterlimit="10" d="M210.542,254.501
		c-0.214-0.165-0.248-0.934-0.032-1.157c0.235-0.246,0.684-0.147,0.917-0.417c0.305-0.352,0.105-0.638-0.124-1.016
		c-0.22-0.361-0.175-0.875-0.417-1.193c-0.252-0.331-0.732-0.285-0.992-0.761c-0.236-0.434-0.249-0.962,0.138-1.301
		c0.307-0.269,0.715-0.287,0.97-0.653c0.26-0.374,0.067-0.82,0.28-1.211c0.363-0.667,1.61-0.943,2.215-1.29
		c0.225-0.129,0.434-0.284,0.679-0.365c0.167-0.056,0.493-0.03,0.62-0.133c0.256-0.208,0.305-0.726,0.644-0.963
		c0.292-0.205,0.709-0.256,1.063-0.207c0.408,0.057,0.562,0.288,0.915,0.492c0.363,0.21,0.77,0.364,1.138,0.543
		c0.261,0.126,0.884,0.046,0.779,0.465l1.917-20.083v-0.875h-23.5l-3.5,27.917l0.542,2.208H210.542z"/>
	<text transform="matrix(1 0 0 1 203.6563 241.3418)" >1</text>
</g>
<g id="_x54_">
	<path fill="none" stroke="#FC0303" stroke-width="0.15" stroke-miterlimit="10" d="M246.063,245
		c-0.885-0.128-0.437,0.911-0.374,1.344c0.114,0.778-0.949,0.777-1.472,1.001c-0.588,0.251-1.411,0.862-1.249,1.602
		c0.074,0.336,0.213,0.51,0.162,0.866c-0.061,0.421-0.089,0.68,0.278,0.964c0.104,0.081,0.386,0.076,0.306,0.318
		c-0.035,0.105-0.29,0.163-0.37,0.255c-0.211,0.243-0.307,0.739-0.252,1.059c0.085,0.498,0.418,0.506,0.776,0.719
		c0.193,0.114,0.239,0.082,0.227,0.365c-0.01,0.222-0.083,0.346-0.281,0.445l0.021,0.021l-22.042,0.208v-1.25
		c1.792-0.875,1.292-2.791,1.292-2.791c0.708-0.5,0.667-1.292,0.667-1.292c0-1.083-1.958-1.417-1.958-1.417l2.292-23.333h23.208
		l-1.155,20.56L246.063,245z"/>
	<text transform="matrix(1 0 0 1 231.1807 241.3418)" >1</text>
</g>
<g id="_x55_">
	<path fill="none" stroke="#FC0303" stroke-width="0.15" stroke-miterlimit="10" d="M267.458,223.751
		c0.029,0.558,0.871,0.589,1.208,0.874c0.544,0.459,0.921,0.584,1.625,0.584l-0.667,18.66c0,0-0.667,10.757-14.25,9.965
		c-0.298-0.018,0.28-0.399,0.292-0.708c0.016-0.392-0.267-0.672-0.334-1.041c-0.067-0.368,0.007-0.793-0.083-1.169
		c-0.102-0.428-0.282-0.736-0.167-1.208c0.082-0.335,0.239-0.564,0.208-0.957c-0.073-0.933-1.017-1.561-1.835-1.837
		c-0.765-0.259-1.611-0.552-1.576-1.493c0.354,0.124,0.684,0.338,1.072,0.284c0.034-0.696-0.036-0.915-0.706-1.25
		c-0.535-0.268-0.908,0.083-1.458,0.048c-0.606-0.039-0.669-0.705-1.332-0.627c-0.422,0.051-0.594,0.372-1.082,0.375l1.5-20.5
		H267.458z"/>
	<text transform="matrix(1 0 0 1 254.6807 240.002)" >1</text>
</g>
<g id="_x56_">
	<path fill="none" stroke="#FC0303" stroke-width="0.15" stroke-miterlimit="10" d="M265.167,180.459
		c0.581,0.18,0.123,0.399-0.041,0.749c-0.062,0.133-0.156,0.383-0.085,0.543c0.148,0.333,0.292,0.068,0.536,0.206
		c0.197,0.111,0.262,0.151,0.173,0.41c-0.103,0.296-0.183,0.125-0.368,0.269c-0.279,0.216-0.481,0.593-0.383,1.022
		c0.198,0.862,1.133,1.158,1.677,1.758c0.31,0.341,0.646,0.577,1.157,0.421c0.252-0.077,0.38-0.379,0.641-0.446
		c0.304-0.079,0.409,0.123,0.65,0.226c0.32,0.136,0.458,0.082,0.708-0.157l-1.292,28.959c-0.461,0.318-1.156,0.359-1.604,0.738
		c-0.303,0.257-0.262,0.484-0.196,0.814c0.037,0.183,0.122,0.324,0.097,0.532c-0.02,0.163-0.172,0.162-0.111,0.417
		c0.08,0.336,0.506,0.379,0.453,0.758c-0.049,0.352-0.53,0.456-0.68,0.688c-0.175,0.271-0.054,0.53,0.045,0.726
		c0.176,0.351,0.167,0.358,0.165,0.785l-23.083,0.333l-0.458-2.458l2.875-37.125L265.167,180.459z"/>
	<text transform="matrix(1 0 0 1 253.4307 203.001)" >1</text>
</g>
<g id="_x57_">
	<polygon fill="none" stroke="#FC0303" stroke-width="0.15" stroke-miterlimit="10" points="239.875,220.209 217.063,220.563 
		216.375,217.938 220.375,181 242.688,181 243.167,182.75 	"/>
	<text transform="matrix(1 0 0 1 225.9307 203.001)" >1</text>
</g>
<g id="_x58_">
	<polygon fill="none" stroke="#FC0303" stroke-width="0.15" stroke-miterlimit="10" points="213.313,220.563 190.438,220.875 
		189.813,218.5 194.875,181 217.188,181 217.5,182.438 	"/>
	<text transform="matrix(1 0 0 1 198.9307 203.001)" >1</text>
</g>
<g id="_x59_">
	<path fill="none" stroke="#FC0303" stroke-width="0.15" stroke-miterlimit="10" d="M240.667,129.083
		c0.303-0.364,0.31-0.618,0.333-1.083c0.03-0.588,0.371-0.731,0.952-0.757c0.013-0.263-0.004-0.493,0.08-0.745
		c0.081-0.245,0.276-0.404,0.252-0.675c-0.022-0.25-0.261-0.468-0.357-0.69c-0.108-0.248-0.121-0.446-0.134-0.729
		c-0.025-0.537-0.089-1.016,0.123-1.521c0.217-0.518,0.677-0.811,1.041-1.176c0.324-0.326,0.555-0.721,0.829-1.084
		c0.318-0.422,0.516-0.427,0.175-0.864c-0.136-0.174-0.232-0.264-0.333-0.458c-0.099-0.19-0.105-0.425-0.206-0.593
		c-0.128-0.212-0.343-0.276-0.465-0.544c-0.075-0.166-0.09-0.416-0.171-0.581c-0.189-0.384-0.674-0.518-0.827-0.873
		c-0.061-0.141,0.024-0.389,0.002-0.544c-0.038-0.261-0.195-0.414-0.282-0.636c-0.142-0.362-0.057-0.826,0.241-1.115
		c0.172-0.167,0.426-0.193,0.552-0.405c0.066-0.112,0.094-0.344,0.148-0.478c0.345-0.854,1.214-1.257,0.894-2.325
		c-0.13-0.434-0.26-0.672-0.26-1.166c0-0.324,0.105-0.849-0.123-1.093c-0.117-0.126-0.352-0.157-0.491-0.282
		c-0.148-0.133-0.22-0.301-0.383-0.416c-0.435-0.305-0.958-0.064-0.877-0.76c0.041-0.355,0.473-0.75,0.459-1.074
		c-0.011-0.261-0.275-0.335-0.35-0.586c-0.052-0.178-0.022-0.434,0.143-0.492h-17.71l-3.042,21.371l0.5,2.417L240.667,129.083z"/>
	<text transform="matrix(1 0 0 1 229.7705 119.6904)" >1</text>
</g>
<g id="_x60_">
	<path fill="none" stroke="#FC0303" stroke-width="0.15" stroke-miterlimit="10" d="M159,221.25l-23.688,0.375L134.375,219
		l7.438-37.25h20.813c0,0,0.629,1.032,2.75,0.688l0.313,1.5L159,221.25z"/>
	<text transform="matrix(1 0 0 1 146.9307 203.001)" >1</text>
</g>
<g id="_x61_">
	<path fill="none" stroke="#FC0303" stroke-width="0.15" stroke-miterlimit="10" d="M124.042,158.958
		c0.28-0.14,0.139-0.659-0.065-0.754c-0.253-0.118-0.633,0.042-0.922-0.088c-0.534-0.24-0.54-0.966-0.346-1.441
		c0.083-0.205,0.377-0.411,0.405-0.646c0.023-0.195-0.242-0.521-0.322-0.817c-0.142-0.524-0.168-1.052-0.004-1.539
		c-0.463-0.038-0.568-0.726-0.611-1.09c-0.065-0.552,0.174-0.741,0.605-1.043c0.391-0.273,0.643-0.389,0.854-0.824
		c0.205-0.421,0.359-0.479,0.658-0.767c0.52-0.503,0.226-1.63,1.198-1.784c0.438-0.069,0.714,0.276,1.124,0.293
		c0.187,0.007,0.344-0.118,0.506-0.127c0.225-0.012,0.43,0.09,0.655,0.079c0.015-0.79,0.938-0.349,1.266-0.127
		c0.223,0.151,0.395,0.413,0.616,0.552c0.247,0.156,0.567,0.019,0.872,0.079c0.644,0.128,1.171,0.597,1.384,1.187
		c0.217,0.6,0.41,0.907,0.92,1.315l1.708-7.792c-0.313,0.006-0.196-0.413-0.532-0.242c-0.19,0.097-0.236,0.512-0.426,0.658
		c-0.583,0.447-1.559,0.443-2.042-0.073c-0.188-0.201-0.327-0.46-0.538-0.626c-0.231-0.182-0.678-0.217-0.872-0.425
		c-0.343-0.366-0.167-0.956-0.23-1.411c-0.887,0.108-0.569-1.177-0.486-1.642c0.055-0.313,0.108-0.654-0.071-0.906
		c-0.186-0.261-0.548-0.284-0.797-0.424c-0.041-0.303-0.028-0.91,0.077-1.159l-27.417-0.417l-3.958,12.167v0.184l0.5,0.003
		c0.441-0.023,0.992,0.075,1.313,0.375c0.313,0.294,0.581,0.638,0.905,0.908c0.277,0.23,0.675,0.402,0.565,0.835
		c-0.11,0.434-0.456,0.428-0.065,0.852c0.488,0.527,0.685,1.069,0.15,1.617c-0.162,0.166-0.504,0.509-0.495,0.756
		c0.007,0.171,0.217,0.266,0.283,0.407c0.075,0.16,0.062,0.31,0.062,0.499c0,0.331,0.036,0.731-0.154,1
		c-0.282,0.397-0.475,0.14-0.81,0.069c-0.047,0.256,0.151,0.501,0.121,0.776c-0.026,0.236-0.164,0.43-0.29,0.626
		c-0.123,0.193-0.235,0.4-0.431,0.554c-0.179,0.141-0.416,0.213-0.562,0.413L124.042,158.958z"/>
	<text transform="matrix(1 0 0 1 112.125 149.334)" >1</text>
</g>
<g id="_x62_">
	<path fill="none" stroke="#FC0303" stroke-width="0.15" stroke-miterlimit="10" d="M128.719,137.188
		c-0.277-0.669,0.104-1.546,0.383-2.132c0.168-0.353,0.31-0.686,0.664-0.875c0.268-0.143,0.595-0.226,0.859-0.313
		c0.337-0.111,0.645-0.225,0.813-0.555c0.145-0.286,0.1-0.853,0.375-1.041c0.333-0.228,1.015,0.11,1.382,0.159
		c0.378,0.05,0.661-0.093,1.015-0.157c0.509-0.092,1.069,0.124,1.572-0.023l3.031-11.813c-0.581-0.373-0.39-1.061-0.759-1.523
		c-0.307-0.385-0.758-0.603-1.272-0.539l-30-0.344l-5.125,17.188l0.813,1.759L128.719,137.188z"/>
	<text transform="matrix(1 0 0 1 116.625 129.125)" >1</text>
</g>
<g id="_x63_">
	<path fill="none" stroke="#FC0303" stroke-width="0.15" stroke-miterlimit="10" d="M136.844,118.313
		c0.103-0.167-0.252-0.785-0.281-1.039c-0.044-0.395,0.08-0.419,0.304-0.664c0.36-0.39-0.129-0.358-0.329-0.65
		c-0.134-0.196-0.072-0.552-0.029-0.772c0.075-0.387,0.158-0.622-0.155-0.945c-0.225-0.233-0.573-0.445-0.753-0.711
		c-0.154-0.229-0.246-0.722-0.163-1c0.102-0.343,0.518-0.423,0.782-0.625c0.267-0.205,0.242-0.402,0.304-0.717
		c0.083-0.418,0.266-0.842,0.507-1.165c0.503-0.674,1.178-0.708,1.831-1.085c0.525-0.304,0.608-1.128,1.2-1.221
		c0.645-0.102,1.02,0.526,1.626,0.533l1.719-6.969l-0.781-0.344l-30.781-0.375l-4.781,16.188l0.406,1.281L136.844,118.313z"/>
	<text transform="matrix(1 0 0 1 121.625 111.875)" >1</text>
</g>
<g id="_x64_">
	<path fill="none" stroke="#FC0303" stroke-width="0.15" stroke-miterlimit="10" d="M144,100.938
		c-0.009-0.23-0.154-0.353-0.351-0.453c-0.234-0.118-0.418,0.02-0.587-0.054c-0.168-0.073-0.229-0.378-0.335-0.524
		c-0.142-0.193-0.303-0.223-0.445-0.359c-0.227-0.217-0.138-0.439-0.124-0.735c0.007-0.142,0.039-0.367-0.001-0.501
		c-0.069-0.229-0.017-0.153-0.25-0.217c-0.154-0.042-0.237,0.014-0.374-0.07c-0.214-0.13-0.268-0.404-0.364-0.608
		c-0.173-0.366-0.224-0.533,0.098-0.854c0.206-0.205,0.572-0.247,0.641-0.5c0.11-0.406-0.242-0.629-0.499-0.82
		c-0.293-0.217-0.474-0.368-0.47-0.75c0.005-0.398,0.187-0.735,0.588-0.844c0.111-0.031,0.31,0.019,0.414-0.043
		c0.091-0.054,0.239-0.383,0.317-0.478c0.249-0.305,0.364-0.462,0.368-0.875c0.005-0.555-0.165-1.59,0.444-1.783
		c0.628-0.199,1.508,0.14,2.065-0.273c0.228-0.169,0.313-0.43,0.621-0.51c0.306-0.08,0.652,0.071,0.932,0.159l0.188-1.469
		c-0.232-0.261-0.44-0.117-0.688,0.005c-0.281,0.138-0.883,0.246-1.187,0.056c-0.263-0.165-0.258-0.626-0.562-0.798
		c-0.24-0.136-0.539-0.034-0.789-0.111c-0.513-0.159-0.885-1.021-0.516-1.471c0.104-0.127,0.229-0.089,0.274-0.243
		c0.042-0.143-0.09-0.205-0.119-0.312c-0.077-0.291,0.007-0.455,0.087-0.719l-26.625-0.375l-4.625,16.156L144,100.938z"/>
	<text transform="matrix(1 0 0 1 126.375 95.625)" >1</text>
</g>
<g id="_x65_">
	<path fill="none" stroke="#FC0303" stroke-width="0.15" stroke-miterlimit="10" d="M195.25,85.294
		c0.071-0.494-0.544-0.38-0.738-0.636c-0.236-0.311-0.089-0.833,0.104-1.086c0.238-0.313,0.604-0.419,0.386-0.839
		c-0.228-0.44-0.533-0.421-0.585-0.982c-0.015-0.163-0.001-0.336,0-0.5c0.003-0.341,0.102-0.339,0.201-0.585
		c0.204-0.505-0.219-0.596-0.327-1.082c-0.102-0.463,0.26-0.772,0.618-0.926c0.48-0.207,0.688-0.126,1.042-0.542
		c0.203-0.238,0.581-0.335,0.75-0.539c0.197-0.238,0.19-0.834,0.29-1.146c0.177-0.554,0.295-0.573,0.843-0.555
		c0.526,0.018,0.668,0.249,1.117,0.408c0.327,0.116,0.77,0.058,1.104,0.007c0.459-0.069,0.523-0.079,0.897,0.261
		c0.528,0.48,1.029,1.302,1.883,1.157l2.104-12.833v-0.938H182.5l-2.938,12.125c0,0,1.396,2.104-0.188,3.521
		c0,0-1.208,4,1.667,5.042c0,0,1.459,0.709,4.417,0.667L195.25,85.294z"/>
	<text transform="matrix(1 0 0 1 187.375 76.6875)" >1</text>
</g>
<g id="_x66_">
	<path fill="none" stroke="#FC0303" stroke-width="0.15" stroke-miterlimit="10" d=""/>
	<text transform="" >1</text>
</g>
<g id="_x67_">
	<path fill="none" stroke="#FC0303" stroke-width="0.15" stroke-miterlimit="10" d="M248.344,85.844
		c-0.306-0.736-1.127-0.929-1.641-1.469c-0.656-0.69,0.082-1.009,0.397-1.563c-0.009-0.03-0.03-0.048-0.062-0.055
		c-0.052-0.147-0.367-0.212-0.429-0.349c-0.054-0.119-0.017-0.327,0.021-0.47c0.096-0.357,0.294-0.608,0.483-0.907
		c0.519-0.821-0.624-0.885-0.677-1.625c-0.021-0.291,0.132-0.542,0.344-0.71c0.116-0.092,0.266-0.188,0.405-0.235
		c0.178-0.06,0.46-0.01,0.613-0.091c0.301-0.16,0.12-0.454,0.301-0.685c0.093-0.119,0.691-0.31,0.833-0.315
		c0.045-0.352-0.359-0.506-0.277-0.87c0.059-0.26,0.528-0.605,0.774-0.657c0.392-0.083,0.811,0.119,1.195,0.157
		c0.373,0.037,0.808,0.006,1.125-0.188l0.938-9.688V64.25l-22.469-0.313l-1.906,12.875c0.095,0.401,0.246,0.589,0.563,0.817
		c0.293,0.211,0.347,0.684,0.679,0.801c0.356,0.125,0.695-0.07,1.049,0.132c0.343,0.196,0.255,0.397,0.271,0.75
		c0.019,0.414,0.229,0.388,0.509,0.648c0.245,0.228,0.306,0.648,0.241,0.977c-0.056,0.288-0.263,0.387-0.119,0.712
		c0.137,0.309,0.354,0.496,0.337,0.888c-0.022,0.517-0.328,0.289-0.657,0.485c-0.311,0.186-0.28,0.474-0.402,0.758
		c-0.139,0.323-0.414,0.58-0.621,0.875c-0.178,0.254-0.314,0.68-0.57,0.843L248.344,85.844z"/>
	<text transform="matrix(1 0 0 1 237.625 77.0205)" >1</text>
</g>
<g id="_x68_">
	<path fill="none" stroke="#FC0303" stroke-width="0.15" stroke-miterlimit="10" d="M270.594,85.906
		c-0.074-0.272-0.367-0.608-0.531-0.818c-0.224-0.288-0.455-0.491-0.469-0.868c-0.015-0.39,0.242-0.491,0.383-0.811
		c0.187-0.423-0.211-0.57-0.258-0.94c-0.041-0.325,0.099-0.639,0.313-0.876c0.256-0.284,0.324-0.346,0.099-0.693
		c-0.204-0.315-0.346-0.436-0.349-0.838c-0.005-0.648,0.098-1.184,0.75-1.38c0.365-0.11,0.418-0.191,0.654-0.469
		c0.236-0.278,0.499-0.468,0.665-0.806c0.161-0.328,0.265-0.637,0.493-0.939c0.295-0.391,0.633-0.182,1.087-0.248
		c0.217-0.031,0.323-0.094,0.541-0.063c0.201,0.029,0.345,0.193,0.507,0.246c0.418,0.135,0.612-0.223,0.958-0.308
		c0.502-0.123,0.515,0.179,0.72,0.501c0.16,0.252,0.438,0.42,0.688,0.499l0.688-11.219v-1.5h-22.5c0,0-1.499,12.082-1.5,12.094
		c-0.001,0.011,0.459,0.344,0.523,0.362c0.2,0.059,0.385-0.062,0.582-0.01c0.375,0.1,0.55,0.556,0.902,0.717
		c-0.134-1.018,0.788-1.604,1.586-1.83c0.336-0.095,0.222-0.001,0.451-0.293c0.121-0.153,0.234-0.525,0.423-0.618
		c0.14-0.068,0.337,0.028,0.47-0.045c0.113-0.063,0.384-0.351,0.491-0.453c0.073-0.069,0.14,0.022,0.211-0.087
		c0.038-0.057,0.011-0.261,0.039-0.347c0.078-0.239,0.136-0.386,0.342-0.533c0.395-0.284,0.871-0.184,1.201,0.125
		c0.327,0.305,0.492,0.706,0.956,0.753c0.198,0.021,0.548-0.148,0.742-0.038c0.265,0.151,0.14,0.433,0.275,0.629
		c0.193,0.28,0.563,0.273,0.805,0.498c0.266,0.246,0.272,0.522,0.311,0.86c0.458,0.023,0.917,0.497,1.264,0.757
		c0.388,0.29,0.204,0.643,0.366,1.023c0.181,0.424,0.652,0.695,0.864,1.125c0.185,0.375,0.123,0.936,0.32,1.27
		c0.24,0.407,0.728,0.052,1,0.433c0.247,0.345,0.234,0.958,0.388,1.348c0.169,0.427,0.528,0.731,0.744,1.136
		c0.173,0.326,0.263,0.697,0.454,1.029c0.232,0.404,0.256,0.755,0.259,1.219c0.004,0.603,0.234,0.499,0.792,0.499
		c0.111,0,0.222,0,0.333,0"/>
	<text transform="matrix(1 0 0 1 264.125 75.1904)" >1</text>
</g>
<g id="_x69_">
	<polygon fill="none" stroke="#FC0303" stroke-width="0.15" stroke-miterlimit="10" points="186.125,220.563 161.938,220.875 
		161.438,218.625 167.625,181.313 191.313,181.313 191.313,183.438 	"/>
	<text transform="matrix(1 0 0 1 172.6807 203.001)" >1</text>
</g>
<g id="_x70_">
	<polygon fill="none" stroke="#FC0303" stroke-width="0.15" stroke-miterlimit="10" points="198.292,105 194.625,126.292 
		194.875,128.833 219.042,129.125 222.375,107.167 222.125,105 	"/>
	<text transform="matrix(1 0 0 1 204.9375 119.6904)" >1</text>
</g>
<g id="_x71_">
	<path fill="none" stroke="#FC0303" stroke-width="0.15" stroke-miterlimit="10" d="M197.375,105l-19.583-0.208
		c0,0-4.417-0.417-5.25,4.875l-3.708,16.5l0.625,2.5h24.458l3.458-22.167V105z"/>
	<text transform="matrix(1 0 0 1 180.4375 119.6904)" >1</text>
</g>
<g id="_x72_">
	<path fill="none" stroke="#FC0303" stroke-width="0.15" stroke-miterlimit="10" d="M183.292,157.125
		c-0.106-0.366-0.391-0.661-0.449-1.06c-0.09-0.619,0.207-0.77,0.489-1.242c0.319-0.532-0.174-0.498-0.444-0.874
		c-0.239-0.333-0.158-0.81,0.098-1.125c0.402-0.496,0.41-0.526,0.015-1.117c-0.229-0.341-0.444-0.848-0.241-1.25
		c0.186-0.367,0.7-0.542,1.034-0.718c0.399-0.211,0.724-0.579,1.122-0.74c0.458-0.185,0.473-0.083,0.303-0.627
		c-0.112-0.358-0.264-0.596-0.071-0.947c0.343-0.625,1.136-0.277,1.729-0.383c0.283-0.051,0.525-0.292,0.833-0.252
		c0.359,0.046,0.55,0.388,0.959,0.335c0.302-0.039,0.439-0.295,0.749-0.292c0.254,0.003,0.489,0.223,0.666,0.458L192.25,133
		l-0.25-1.792h-25.708l-3.375,19c0,0-0.541,2.208,0.292,2.917c0.328,0.279,0.548-0.289,1-0.292c0.55-0.003,0.745-0.039,0.708-0.625
		c-0.021-0.337-0.022-0.745-0.083-1.083c-0.081-0.453-0.553-0.503-0.542-1.009c0.012-0.527,0.436-0.603,0.872-0.73
		c0.603-0.176,0.882-0.291,1.209-0.822c0.245-0.398,0.342-0.655,0.835-0.741c0.483-0.084,0.857,0.088,1.293,0.135
		c0.36,0.039,0.821-0.107,1.164,0.006c0.364,0.12,0.769,0.604,1.085,0.836c0.314,0.231,0.693,0.418,1,0.689
		c0.368,0.325,0.461,0.454,0.998,0.427c0.585-0.029,0.804-0.178,1.166,0.341c0.25,0.358,0.196,0.731,0.503,1.023
		c0.364,0.348,0.554,0.377,0.624,0.928c0.021,0.161,0.093,0.375,0.035,0.54c-0.078,0.219-0.338,0.267-0.277,0.535
		c0.241,0.071,0.532,0.732,0.445,0.967c-0.106,0.286-0.743,0.486-0.933,0.79c-0.19,0.305-0.08,0.637-0.182,0.956
		c-0.138,0.431-0.336,0.594-0.338,1.085L183.292,157.125z"/>
	<text transform="matrix(1 0 0 1 174.9375 145.6904)" >1</text>
</g>
<g id="_x73_">
	<path fill="none" stroke="#FC0303" stroke-width="0.15" stroke-miterlimit="10" d="M210.5,156.917
		c-0.134-0.242-0.418-0.223-0.584-0.374c-0.279-0.255-0.153-0.701-0.014-1.1c0.1-0.286,0.28-0.646,0.397-0.901
		c0.071-0.155,0.219-0.428,0.362-0.54c-0.065-0.215-0.361-0.744-0.563-0.769c-0.051-0.438,0.108-1.029-0.097-1.431
		c-0.26-0.51-0.631-0.24-0.584-0.96c0.031-0.481,0.097-0.749,0.555-0.883c0.314-0.092,1.016-0.353,0.369-0.675
		c-0.077-0.455,0.153-0.581,0.485-0.741c0.432-0.208,0.724-0.313,1.082-0.669c0.592-0.588,1.797-0.512,2.135-1.292
		c0.33-0.759,0.984-0.9,1.679-0.345c0.251,0.201,0.358,0.579,0.697,0.682c0.274,0.083,0.708-0.003,0.998-0.003l1.625-14.125
		l-0.25-1.792l-24.875,0.208l-2.458,16.708c0.231,0.239,0.827,0.431,0.961,0.707c0.176,0.361-0.205,0.75-0.296,1.044
		c-0.277,0.894,0.898,1.184,1.3,1.789c0.311,0.467,0.173,0.726,0.033,1.168c-0.142,0.447,0.024,0.701,0.085,1.125
		c0.023,0.161,0.033,0.43,0,0.585c-0.047,0.22-0.217,0.288-0.294,0.454c-0.164,0.356-0.031,0.721-0.04,1.077
		c-0.011,0.45-0.239,0.898-0.708,1.05H210.5z"/>
	<text transform="matrix(1 0 0 1 200.4375 145.6904)" >1</text>
</g>
<g id="_x74_">
	<path fill="none" stroke="#FC0303" stroke-width="0.15" stroke-miterlimit="10" d="M243.417,130.75
		c-0.302,0.067-0.291,0.625-0.25,0.917c0.061,0.426,0.315,0.615,0.539,0.948c0.228,0.338,0.326,0.607,0.15,1.009
		c-0.112,0.256-0.42,0.771-0.716,0.703c-0.098-0.348-0.151-0.579-0.516-0.586c-0.22-0.004-0.591,0.167-0.741,0.311
		c-0.21,0.203-0.198,0.553-0.341,0.773c-0.15,0.23-0.403,0.222-0.68,0.416c-0.231,0.162-0.411,0.372-0.365,0.677
		c0.031,0.21,0.427,0.552,0.046,0.668c-0.458,0.139-0.806-0.892-1.454-0.737c-0.011,0.207-0.042,0.481,0.032,0.665
		c0.084,0.208,0.21,0.235,0.253,0.487c0.068,0.398-0.051,0.69,0.138,1.032c0.251,0.455,0.45,0.572,0.237,1.135
		c-0.233,0.618-0.038,0.774,0.661,0.792c0.481,0.012,0.745-0.22,1.079-0.551c0.207-0.204,0.729-0.785,1.085-0.538
		c0.287,0.2,0.113,0.943,0.133,1.213c0.031,0.424,0.327,0.643,0.457,1.042c0.188,0.577-0.041,0.749-0.636,0.833
		c-0.484,0.068-0.867,0.109-1.204,0.482c-0.37,0.408-0.316,0.784-0.367,1.319c-0.049,0.522-0.269,0.933-0.417,1.439
		c-0.191,0.658,0.069,0.999,0.428,1.584c0.281,0.458,0.214,0.776,0.238,1.3c0.013,0.288-0.043,0.352,0.199,0.512
		c0.208,0.137,0.575,0.082,0.798,0.164c0.403,0.148,0.453,0.563,0.287,0.988c-0.22,0.565-0.843,0.838-0.743,1.535
		c0.057,0.395,0.32,0.585,0.563,0.884c0.228,0.28,0.351,0.584,0.521,0.875l0.042,3.417l-24.417,0.292
		c-0.122-0.333,0.052-0.62,0.082-0.946c0.149,0.49,1.198,0.214,1.429-0.096c0.211-0.284,0.068-0.564,0.037-0.912
		c-0.03-0.345,0.081-0.448,0.192-0.71c0.171-0.406,0.229-0.57,0.511-0.845c0.214-0.208,0.334-0.396,0.374-0.7
		c0.067-0.515-0.093-1.133-0.53-1.422c0.139,0.081,0.534,0.38,0.688,0.333c0.137-0.042,0.348-0.62,0.344-0.744
		c-0.02-0.602-0.611-0.911-1.042-1.208c-0.451-0.311-0.907-0.688-1.368-1.051c-0.455-0.358-0.509-0.519-0.509-1.117L220.458,131
		L243.417,130.75z"/>
	<text transform="matrix(1 0 0 1 226.9375 145.6904)" >1</text>
</g>
<g id="_x75_">
	<path fill="none" stroke="#FC0303" stroke-width="0.15" stroke-miterlimit="10" d="M359.125,155.417
		c-0.217-0.294-0.602-0.725-0.668-1.091c-0.069-0.384,0.388-0.786,0.325-1.084c-0.043-0.208-0.252-0.13-0.394-0.287
		c-0.148-0.164-0.16-0.452-0.139-0.664c0.041-0.404,0.317-0.764,0.57-1.07c0.112-0.137,0.496-0.415,0.381-0.64
		c-0.086-0.168-0.439-0.06-0.585-0.195c-0.173-0.16-0.197-0.907-0.108-1.139c0.134-0.346,0.665-0.454,0.777-0.79
		c0.101-0.3-0.063-0.737,0.059-1.074c0.205-0.566,1.009-1.221,1.614-1.301l-0.916-17.5l-22,0.25l0.792,26.583H359.125z"/>
	<text transform="matrix(1 0 0 1 345.375 143.958)" >1</text>
</g>
<g id="_x76_">
	<path fill="none" stroke="#FC0303" stroke-width="0.15" stroke-miterlimit="10" d="M363.416,144.458
		c0.231-0.103,0.858,0.281,1.103,0.413c0.418,0.226,0.867,0.555,1.357,0.671c0.354,0.084,0.816-0.117,1.133,0.038
		c0.648,0.317-0.017,0.664,0.072,1.044c0.084,0.361,1.012,0.438,1.323,0.675c0.342,0.26,0.521,0.825,0.554,1.239
		c0.013,0.162-0.05,0.39-0.003,0.544c0.061,0.2,0.235,0.33,0.293,0.542c0.141,0.518-0.225,0.434-0.376,0.834
		c-0.187,0.492,0.112,1.043-0.115,1.55c-0.065,0.145-0.218,0.337-0.256,0.491c-0.058,0.237,0.041,0.381,0.082,0.666
		c0.063,0.443-0.133,1.067-0.54,1.304c-0.447,0.26-0.767,0.17-1.127,0.614l21.209-0.208c-0.472-0.212-0.981-0.629-1.416-0.917
		c-0.455-0.303-0.619-0.866-0.959-1.3c-0.328-0.418-0.563-0.926-0.305-1.488c0.238-0.516,0.804-0.506,1.214-0.718
		c0.029-0.223-0.047-0.409,0.007-0.618c0.031-0.119,0.207-0.222,0.214-0.335c0.011-0.166-0.134-0.266-0.155-0.405
		c-0.071-0.455,0.172-0.842-0.058-1.269c-0.156-0.291-0.355-0.351-0.378-0.696c-0.018-0.265,0.133-0.537,0.306-0.702
		c0.297-0.285,1.024-0.429,1.446-0.384l-1.416-17.458h-24.042L363.416,144.458z"/>
	<text transform="matrix(1 0 0 1 370.625 144.166)" >1</text>
</g>
<g id="_x77_">
	<path fill="none" stroke="#FC0303" stroke-width="0.15" stroke-miterlimit="10" d="M394.958,154.958
		c0.518-0.265,0.592-1.169,0.716-1.659c0.293-0.003,0.895-0.417,1.129-0.587c0.481-0.351,0.151-0.972,0.485-1.298
		c0.137-0.134,0.434-0.064,0.578-0.207c0.174-0.171,0.248-0.507,0.26-0.739c0.022-0.444-0.16-0.936-0.467-1.249
		c-0.322-0.33-0.634-0.717-0.952-1.062c-0.322-0.347-1.019-0.493-1.243-0.879c-0.272-0.466,0.344-0.5,0.327-0.904
		c-0.014-0.322-0.567-0.673-0.818-0.822c-0.406-0.241-0.662-0.406-0.981-0.77c-0.396-0.452-0.819-0.74-1.45-0.741
		c-0.487-0.001-0.815,0.281-1.248,0.457c-0.305,0.123-0.73,0.092-1.002,0.209L389,128.583l26.478-0.417l1.897,16.667
		c-0.213,0.337-0.91,0.24-1.252,0.382c-0.345,0.143-0.502,0.503-0.747,0.732c-0.321,0.299-0.832,0.398-1.119,0.759
		c-0.297,0.374-0.203,0.896-0.04,1.285c0.273,0.651,0.302,1.64,0.324,2.383c0.023,0.771-1.016,1.025-0.958,1.956
		c0.024,0.387,0.235,0.477,0.532,0.659c0.384,0.234,0.425,0.341,0.624,0.72c0.381,0.72,1.159,0.719,1.844,0.999L394.958,154.958z"/>
	<text transform="matrix(1 0 0 1 399.625 143.958)" >1</text>
</g>
<g id="_x78_">
	<path fill="none" stroke="#FC0303" stroke-width="0.15" stroke-miterlimit="10" d="M418.708,144.417
		c0.426,0.31,0.851,0.199,1.125-0.209c0.114-0.171,0.202-0.467,0.398-0.572c0.319-0.173,0.303,0.036,0.58,0.242
		c0.408,0.304,0.875,0.552,1.272,0.872c0.207,0.167,0.235,0.2,0.551,0.25c0.313,0.049,0.581,0.103,0.823,0.311
		c0.122,0.105,0.485,0.487,0.502,0.646c0.025,0.25-0.257,0.267-0.284,0.47c-0.052,0.372,0.82,0.807,1.084,1.083
		c0.236,0.248,0.52,0.526,0.655,0.825c0.071,0.158,0.03,0.318,0.091,0.487c0.164,0.458,0.859,1.22,0.635,1.723
		c-0.063,0.138-0.517,0.295-0.644,0.417c-0.191,0.184-0.307,0.381-0.415,0.672c-0.202,0.545-0.153,0.904-0.707,1.117
		c-0.471,0.181-0.462,0.253-0.582,0.751c-0.086,0.355-0.132,0.738-0.335,1.041c0,0,11.875,0.959,17.625-3.833
		c0.304-0.253,0.063-0.667-0.24-0.96c-0.196-0.189-0.554-0.222-0.718-0.422c-0.598-0.728,0.558-1.233,0.21-1.917
		c-0.193-0.381-0.298-0.445-0.294-0.909c0.003-0.366,0.047-0.513,0.333-0.751c0.229-0.191,0.566-0.303,0.668-0.624
		c0.11-0.348-0.12-0.524-0.218-0.799c-0.298-0.835,0.535-1.664,1.332-1.828c0.345-0.072,1.066,0.189,1.293-0.131
		c0.215-0.304-0.055-0.872,0.257-1.242c0.675-0.806,1.837-0.471,2.637-0.256c0.43,0.116,0.671-0.091,1.03-0.161
		c0.461-0.09,0.745,0.261,1.127,0.417c0,0,1.667-5.833-0.625-13.25l-0.5-0.219L417,128.167l-0.292,1.917L418.708,144.417z"/>
	<text transform="matrix(1 0 0 1 427.916 142)" >1</text>
</g>
<g id="_x79_">
	<path fill="none" stroke="#FC0303" stroke-width="0.15" stroke-miterlimit="10" d="M420.219,105.313l2.313,22.563l24.844-0.219
		c0.048-0.477-0.362-0.794-0.632-1.116c-0.267-0.318-0.623-0.784-0.682-1.204c-0.147-1.058,1.504-1.157,1.163-2.21
		c-0.096-0.298-0.156-0.491-0.106-0.813c0.067-0.439,0.374-0.382,0.63-0.689c0.248-0.298,0-0.582,0.071-0.928
		c0.053-0.256,0.247-0.557,0.399-0.75c0.244-0.311,0.56-0.44,0.964-0.383c0.113,0.017,0.319,0.15,0.443,0.096
		c0.139-0.061,0.115-0.219,0.211-0.315c0.235-0.236,0.566-0.128,0.851-0.256c0.317-0.144,0.342-0.365,0.344-0.682l-1.594-11.281
		c-0.551-0.034-1.004,0.407-1.57,0.406c-0.291,0-0.516,0.042-0.743-0.156c-0.168-0.147-0.272-0.368-0.437-0.532
		c-0.7-0.7-2.157-0.703-2.313-1.843l-23.031-0.25C421.344,104.75,421.188,105.219,420.219,105.313z"/>
	<text transform="matrix(1 0 0 1 431.625 119.8633)" >1</text>
</g>
<g id="_x80_">
	<path fill="none" stroke="#FC0303" stroke-width="0.15" stroke-miterlimit="10" d="M393.906,104.531
		c-0.18,0.307-0.104,0.638-0.359,0.938c-0.21,0.245-0.55,0.436-0.803,0.625c-0.265,0.198-0.534,0.396-0.746,0.665
		c-0.306,0.388-0.501,0.366-1.029,0.366l1.469,20.75h28.531v-1.781L419,105.344c-0.155,0.306-0.432,0.449-0.656,0.718
		c-0.304,0.363-0.399,0.36-0.914,0.376c-0.415,0.013-0.782,0.16-1.148,0.313c-0.291,0.121-0.67,0.405-0.998,0.347
		c-0.372-0.066-0.519-0.476-0.813-0.668c-0.257-0.167-0.542-0.151-0.76-0.389c-0.108-0.12-0.122-0.295-0.272-0.417
		c-0.119-0.096-0.3-0.112-0.406-0.216c-0.21-0.203-0.256-0.561-0.469-0.75L393.906,104.531z"/>
	<text transform="matrix(1 0 0 1 403.1875 119.6904)" >1</text>
</g>
<g id="_x81_">
	<path fill="none" stroke="#FC0303" stroke-width="0.15" stroke-miterlimit="10" d="M366.094,104.375
		c-0.057,0.19-0.08,0.411-0.242,0.571c-0.187,0.183-0.244,0.154-0.351,0.399c-0.189,0.438-0.293,0.845-0.813,0.905
		c-0.326,0.038-0.477,0.05-0.693,0.281c-0.217,0.23-0.202,0.396-0.313,0.656c-0.243,0.567-0.868,0.469-1.399,0.469l0.438,20.219
		h28.5l-1.156-20.75c-0.568-0.007-1.125,0.293-1.726,0.071c-0.262-0.097-0.412-0.344-0.632-0.5c-0.322-0.229-0.543-0.2-0.93-0.228
		c-0.858-0.062-0.904-0.525-0.728-1.226c0.078-0.31,0.174-0.478-0.171-0.588c-0.307-0.099-0.563-0.038-0.846-0.249L366.094,104.375z
		"/>
	<text transform="matrix(1 0 0 1 372.9375 119.6904)" >1</text>
</g>
<g id="_x83_">
	<path fill="none" stroke="#FC0303" stroke-width="0.15" stroke-miterlimit="10" d="M336.563,127.875h24.25l-0.5-20.563
		c-0.44,0.02-0.649-0.384-1.056-0.438c-0.17-0.023-0.337,0.07-0.506,0.032c-0.303-0.068-0.392-0.383-0.597-0.611
		c-0.246-0.272-0.448-0.29-0.467-0.67c-0.006-0.132-0.019-0.318,0.028-0.438c0.072-0.187,0.281-0.25,0.249-0.489
		c-0.411-0.108-0.867,0.124-1.121-0.355c-2.801,0.005-5.601,0.011-8.401,0.017c-1.601,0.003-3.2,0.007-4.801,0.01
		c-0.666,0.001-1.334-0.012-1.999,0.007c-1.083,0.03-2.131,0.321-3.22,0.379c-0.031,0.201-0.196,0.513-0.379,0.619
		c-0.245,0.143-0.428-0.002-0.553,0.25c-0.111,0.224,0.082,0.534,0.134,0.75c0.072,0.301,0.062,0.458,0.241,0.718
		c0.304,0.439,0.764,0.785,0.759,1.324c-0.004,0.478-0.371,0.887-0.452,1.369c0.336,0.098,0.646,0.415,0.703,0.758
		c0.091,0.536-0.234,0.578-0.606,0.757c-0.674,0.326-0.393,1.041-0.811,1.605c-0.204,0.274-0.545,0.448-0.42,0.877
		c0.104,0.358,0.398,0.435,0.336,0.874c-0.028,0.197-0.187,0.283-0.129,0.48c0.041,0.136,0.282,0.209,0.366,0.329
		c0.282,0.402-0.076,0.511-0.063,0.893c0.594,0.085,1.555,0.724,0.954,1.393c0.206,0.099,0.322,0.344,0.29,0.573
		c-0.046,0.332-0.172,0.252-0.426,0.351c-0.591,0.23-0.113,0.646-0.608,0.959c-0.152,0.096-0.322,0.033-0.428,0.164
		c-0.125,0.155,0.03,0.449-0.161,0.629c-0.184,0.173-0.503,0.085-0.664,0.289c-0.089,0.112-0.074,0.518-0.089,0.658v2.667
		c0,0,1.124,0.25,1.208,1.417C337.625,125.458,338.5,126.792,336.563,127.875z"/>
	<text transform="matrix(1 0 0 1 346.8535 119.8633)" >1</text>
</g>
<g id="_x84_">
	<path fill="none" stroke="#FC0303" stroke-width="0.15" stroke-miterlimit="10" d="M353.417,87.208
		c-0.036-0.403-0.4-0.703-0.377-1.126c0.026-0.481,0.618-0.49,0.671-0.829c0.076-0.492-0.814-0.609-1.045-0.877
		c-0.353-0.409-0.176-0.973,0.253-1.198c0.51-0.267,0.803-0.169,0.497-0.807c-0.232-0.485-0.372-0.84-0.053-1.33
		c0.484-0.74,1.974-0.688,2.096-1.542c0.057-0.399-0.057-0.667,0.249-1c0.228-0.249,0.576-0.374,0.876-0.5V65.708h-22.417V78
		c0,0,1.5,0.167,1.875,2.25c0,0,2.875,0.667,1.5,1.833c0,0,1.124,0.666-0.042,1.708c0,0,1.458,1.542-0.625,1.917
		c0,0-1.499,0.792-1.291,1.333l0.333,0.208h17.458"/>
	<text transform="matrix(1 0 0 1 342.3535 78.792)" >1</text>
</g>
<g id="_x85_">
	<path fill="none" stroke="#FC0303" stroke-width="0.15" stroke-miterlimit="10" d="M378.208,87.667
		c0.022-0.379-0.109-1.046-0.332-1.342c-0.293-0.389-0.94-0.461-1.139-0.929c-0.312-0.734,0.23-0.938,0.714-1.23
		c0.64-0.388,0.053-0.502-0.446-0.557c-0.002-0.019-0.005-0.037-0.008-0.055c-0.202-0.313,0.043-0.975,0.253-1.18
		c0.278-0.272,0.645-0.343,0.459-0.834c-0.191-0.509-1.01-1.375-0.012-1.801c0.372-0.159,0.917,0.136,1.262-0.114
		c0.261-0.189,0.219-0.609,0.447-0.865c0.289-0.323,0.604-0.435,0.801-0.799c0.179-0.329,0.432-0.738,0.918-0.669L380.458,66
		l-22.75-0.292v12.375c0.022,0.208,0.419,0.346,0.616,0.244c0.26-0.134,0.146-0.4,0.509-0.452c0.639-0.091,0.874,0.485,1.249,0.836
		c0.438,0.41,1.159,0.378,1.595,0.821c0.609,0.619-0.094,0.615-0.629,0.642c-0.063,0.388,0.326,0.685,0.495,0.993
		c0.112,0.206,0.099,0.396,0.29,0.546c0.097,0.076,0.378,0.122,0.511,0.204c0.329,0.203,0.669,0.516,0.697,0.917
		c0.027,0.396-0.323,0.595-0.375,0.966c-0.061,0.429,0.227,0.746,0.125,1.169c-0.054,0.224-0.221,0.226-0.284,0.402
		c-0.105,0.295,0.121,0.478,0.204,0.723c0.339,0.997-1.204,0.986-1.753,1.489L378.208,87.667z"/>
	<text transform="matrix(1 0 0 1 366 78.792)" >1</text>
</g>
<g id="_x86_">
	<path fill="none" stroke="#FC0303" stroke-width="0.15" stroke-miterlimit="10" d="M403.75,87.833
		c-0.123-0.395-0.603-0.618-0.834-0.948c-0.131-0.188-0.212-0.298-0.166-0.552c0.044-0.244,0.266-0.318,0.337-0.55
		c0.209-0.681-0.539-0.508-0.746-0.823c-0.153-0.233,0.075-0.865,0.167-1.084c0.145-0.346,0.443-0.695,0.408-1.084
		c-0.037-0.411-0.484-0.636-0.419-1.114c0.166-1.222,1.635-0.56,2.136-1.259c0.148-0.208,0.108-0.394,0.284-0.59
		c0.144-0.159,0.332-0.144,0.377-0.379c0.028-0.146-0.117-0.472-0.128-0.659c-0.011-0.176-0.003-0.36,0.006-0.535
		c0.116-0.075,0.257-0.13,0.411-0.132l-0.75-11.875L382.083,66l0.25,11.583c0.219-0.037,0.376,0.083,0.583,0.083
		c0.186,0,0.309-0.123,0.5-0.084c0.389,0.078,0.577,0.543,0.822,0.803c0.294,0.312,0.723,0.468,1.045,0.763
		c0.187,0.171,0.782,0.676,0.751,0.977c-0.033,0.319-0.33,0.206-0.444,0.33c-0.14,0.153-0.147,0.264-0.132,0.503
		c0.033,0.516,0.324,0.68,0.664,1.011c0.283,0.275,0.639,0.808,0.432,1.232c-0.18,0.367-0.694,0.293-0.639,0.799
		c0.038,0.345,0.405,0.605,0.418,1.03c0.017,0.533-0.314,0.892-0.615,1.304c-0.241,0.331-0.429,0.698-0.787,0.862
		c-0.334,0.153-0.991,0.357-1.348,0.345L403.75,87.833z"/>
	<text transform="matrix(1 0 0 1 391.2188 79.75)" >1</text>
</g>
<g id="_x87_">
	<path fill="none" stroke="#FC0303" stroke-width="0.15" stroke-miterlimit="10" d="M428.125,87.833
		c-0.654-0.224-0.857-1.287-1.354-1.709c-0.456-0.388-1.02-0.703-0.762-1.457c0.158-0.466,0.716-0.472,0.701-1.002
		c-0.012-0.442-0.425-0.813-0.254-1.289c0.137-0.38,0.617-0.672,0.626-1.125c0.008-0.433-0.428-0.603-0.365-1.072
		c0.06-0.451,0.42-0.856,0.865-0.96c0.213-0.05,0.454,0.038,0.668-0.009c0.258-0.057,0.213-0.078,0.424-0.237
		c0.247-0.187,0.692-0.363,0.869-0.638c0.111-0.173,0.066-0.353,0.207-0.541c0.107-0.144,0.387-0.328,0.415-0.376l-1.25-11.208
		h-22.541l-0.292,2.667l1.083,9.208c0.195,0.037,0.295,0.235,0.493,0.244c0.195-0.819,1.286-0.575,1.835-0.28
		c0.02,0.586,0.635,0.685,1.018,0.945c0.418,0.285,0.47,0.578,0.446,1.08c-0.033,0.716,0.016,0.645,0.607,1.055
		c0.307,0.212,0.738,0.484,0.965,0.823c0.313,0.465,0.367,1.709,0.212,2.292c-0.043,0.165-0.223,0.28-0.263,0.433
		c-0.078,0.297,0.083,0.43,0.137,0.733c0.102,0.563-0.085,0.765-0.522,1.061c-0.641,0.433-1.256,0.929-1.886,1.366H428.125z"/>
	<text transform="matrix(1 0 0 1 416.708 79.75)" >1</text>
</g>
<g id="_x88_">

	<path fill="none" stroke="#FC0303" stroke-width="0.15" stroke-miterlimit="10" d="M456.958,78.708
		c-0.2-0.342-0.468-0.633-0.873-0.667c-0.231-0.019-0.372,0.105-0.582,0.127c-0.363,0.038-0.406-0.1-0.657-0.261
		c-0.365-0.234-0.849-0.489-1.306-0.535c-0.551-0.056-0.601,0.361-0.915,0.753c-0.279,0.348-0.626,0.462-0.966,0.716
		c-0.41,0.307-0.582,0.526-1.191,0.533c-0.559,0.006-0.762-0.017-0.843,0.583c-0.059,0.436,0.07,0.9,0.002,1.333
		c-0.107,0.688-0.561,1.25-0.502,2.002c0.026,0.338,0.181,0.369-0.039,0.703c-0.188,0.285-0.494,0.457-0.588,0.804
		c-0.096,0.355,0.038,0.55,0.219,0.748c0.299,0.326,0.397,0.497,0.585,0.909c0.164,0.362,0.761,1.505,1.156,1.542l-17.75-0.25
		c0.194-0.346,0.693-0.294,1.049-0.333c0.482-0.053,0.843-0.189,1.159-0.584c0.237-0.297,0.549-0.702,0.584-1.084
		c0.033-0.365-0.108-0.75-0.042-1.123c0.091-0.512,0.427-0.413,0.708-0.75c0.232-0.277,0.147-0.869,0.042-1.217
		c-0.258-0.853-1.119-1.375-1.077-2.317c0.196,0.035,0.256,0.22,0.452,0.286c0.119,0.04,0.331-0.001,0.455-0.007
		c-0.146-0.281-0.138-0.617-0.33-0.87c-0.217-0.284-0.646-0.452-0.959-0.594c-0.31-0.14-0.42-0.156-0.582-0.455
		c-0.15-0.277-0.181-0.601-0.377-0.855c-0.18-0.234-0.422-0.284-0.791-0.221c-0.079,0.013-0.22,0.037-0.291,0.083
		c-0.104,0.069-0.128,0.226-0.164,0.252c-0.312,0.218-1.077,0.203-1.294-0.167"/>
	<text transform="matrix(1 0 0 1 439.708 79.75)" >1</text>
</g>
<g id="_x89_">
	<path fill="none" stroke="#FC0303" stroke-width="0.15" stroke-miterlimit="10" d="M310.833,65.458L310.5,77.625
		c0,0,0.583,0.542,0.333,1.125c0,0,1.875,0.25,2,2c0,0,1.083,1,0,1.542c0,0,1.125,0.875-0.667,1.833c0,0,0.75,2.084-1.667,1.792
		v1.125h18c0,0,0.375-1-0.375-1.25c0,0-0.917-0.75-0.167-1.792c0,0,0.583-1,0-1.375c0,0-0.5-1.541,1-1.833
		c0,0,1.084-0.583,0.959-1.333c0,0-0.791-1.625,2.125-1.708V65.625L310.833,65.458z"/>
	<text transform="matrix(1 0 0 1 311.458 75.1904)" >1</text>
</g>
<g id="_x90_">
	<path fill="none" stroke="#FC0303" stroke-width="0.15" stroke-miterlimit="10" d="M544.25,224.875l-10.375,52.5l-72.625,0.75
		v-2.792v-1.416c0,0,7.166-3.668,3.333-14.584c0,0-3.25-12.832-19.5-15.166c0,0-8-1.834-17.333,0.916l-2.167-16.916l0.334-2.084
		L544.25,224.875z"/>
	<text transform="matrix(1 0 0 1 489.5 253.291)" >1</text>
</g>
<g id="_x91_">
	<path fill="none" stroke="#FC0303" stroke-width="0.15" stroke-miterlimit="10" d="M427.916,279.5l-60.5,0.666l-3-53.166
		L422,226.416l2.25,19.667v2.333c0,0-9,6.501-5.5,15.334c0,0,1.332,5.667,9.166,10.917V279.5z"/>
	<text transform="matrix(1 0 0 1 392.4375 253.876)" >1</text>
</g>
</svg>
