<?xml version="1.0" encoding="utf-8"?>
<!-- Generator: Adobe Illustrator 23.0.5, SVG Export Plug-In . SVG Version: 6.00 Build 0)  -->
<svg version="1.1" id="Layer_1" xmlns="http://www.w3.org/2000/svg" xmlns:xlink="http://www.w3.org/1999/xlink" x="0px" y="0px"
	 width="100%" height="100%" viewBox="0 0 3000 1382" style="enable-background:new 0 0 3000 1382;" xml:space="preserve">
<style type="text/css">
	.st0{fill:#FFFFFF;stroke:#ED1F24;stroke-miterlimit:10;}
	.st1{font-family:'calibri'; font-weight:'500'}
	.st2{font-size:29px;}
	.st3{fill:#FFFFFF;stroke:#ED1D24;stroke-miterlimit:10;}
	.st4{fill:#FFFFFF;stroke:#ED1C24;stroke-miterlimit:10;}
	.st5{fill:#9E9E9E;font-family:'calibri'; font-weight:'600'}
	.st6{font-size:61.9549px;}
</style>
<image style="overflow:visible;" width="3000" height="1382" xlink:href="/uploads/WATERBURY_V03.jpg" >
</image>
<g id="Layer_3">
	<path id="XMLID_5_" class="st0" d="M2017.5,977.9l2.5,100.4l140.4,1.2l31-63.2c0,0-47.1-16.7-73.5-22.9
		c-26.3-6.2-44.6-10.8-69.7-13C2023.1,978.2,2017.5,977.9,2017.5,977.9z"/>
	<text id="XMLID_4_" transform="matrix(1 0 0 1 2061.1858 1042.6842)" class="st1 st2">0000</text>
</g>
<g id="Layer_4">
	<polygon id="XMLID_109_" class="st0" points="1919.9,975.7 1930.1,1078 2005.4,1078 2003.9,977.9 	"/>
	<text id="XMLID_6_" transform="matrix(1 0 0 1 1933.6862 1036.684)" class="st1 st2">0000</text>
</g>
<g id="Layer_5">
	<polygon id="XMLID_110_" class="st0" points="1827,975.7 1835.4,1076.4 1915.5,1078 1905.9,975.7 	"/>
	<text id="XMLID_7_" transform="matrix(1 0 0 1 1840.6862 1033.684)" class="st1 st2">0000</text>
</g>
<g id="Layer_6">
	<polygon id="XMLID_111_" class="st0" points="1734.3,975.7 1739.8,1078 1820.8,1076.7 1813.2,975.7 	"/>
	<text id="XMLID_8_" transform="matrix(1 0 0 1 1746.6862 1033.684)" class="st1 st2">0000</text>
</g>
<g id="Layer_7">
	<polygon id="XMLID_112_" class="st0" points="1642.6,973.8 1647.3,1075.8 1726.4,1078 1720.9,973.8 	"/>
	<text id="XMLID_9_" transform="matrix(1 0 0 1 1654.6858 1036.6836)" class="st1 st2">0000</text>
</g>
<g id="Layer_8">
	<polygon id="XMLID_113_" class="st0" points="1557.8,973.8 1547.9,1127.2 1632.6,1129 1629.1,975.7 	"/>
	<text id="XMLID_10_" transform="matrix(1 0 0 1 1562.1858 1057.1836)" class="st1 st2">0000</text>
</g>
<g id="Layer_9">
	<polygon id="XMLID_114_" class="st0" points="1473.1,968.3 1442.7,1126.9 1534.2,1126.9 1544.1,973.8 	"/>
	<text id="XMLID_11_" transform="matrix(1 0 0 1 1469.6858 1057.1837)" class="st1 st2">0000</text>
</g>
<g id="Layer_10">
	<polygon id="XMLID_115_" class="st0" points="1391.6,958.1 1338.1,1124.9 1427.7,1126.9 1461.1,968.3 	"/>
	<text id="XMLID_12_" transform="matrix(1 0 0 1 1375.2637 1054.6838)" class="st1 st2">0000</text>
</g>
<g id="Layer_11">
	<polygon id="XMLID_116_" class="st0" points="1229.7,1123.7 1323,1125 1379.3,958.1 1310.7,944 	"/>
	<text id="XMLID_13_" transform="matrix(1 0 0 1 1279.6857 1049.1838)" class="st1 st2">0000</text>
</g>
<g id="Layer_12">
	<polygon id="XMLID_117_" class="st0" points="1116.3,1123.1 1213.6,1125 1298.9,941.9 1234.7,925.4 	"/>
	<text id="XMLID_14_" transform="matrix(1 0 0 1 1183.1857 1042.6844)" class="st1 st2">0000</text>
</g>
<g id="Layer_13">
	<polygon id="XMLID_118_" class="st0" points="1157.1,903.9 1221.7,923.1 1102.2,1119.8 1042.9,1059.4 	"/>
	<text id="XMLID_15_" transform="matrix(1 0 0 1 1102.1857 1013.6843)" class="st1 st2">0000</text>
</g>
<g id="Layer_14">
	<polygon id="XMLID_119_" class="st0" points="1084.4,876.7 988,1003.1 1033.1,1051.1 1147.6,901.3 	"/>
	<text id="XMLID_16_" transform="matrix(1 0 0 1 1033.5967 964.1843)" class="st1 st2">0000</text>
</g>
<g id="Layer_15">
	<polygon id="XMLID_120_" class="st0" points="1072.7,874.5 978.6,995.8 929.9,955.5 1012.4,853 	"/>
	<text id="XMLID_17_" transform="matrix(1 0 0 1 968.0952 928.684)" class="st1 st2">0000</text>
</g>
<g id="Layer_16">
	<polygon id="XMLID_121_" class="st0" points="999.7,850.8 920.8,947.8 872.1,906.8 938.2,827.5 	"/>
	<text id="XMLID_18_" transform="matrix(1 0 0 1 904.6857 893.184)" class="st1 st2">0000</text>
</g>
<g id="Layer_17">
	<path id="XMLID_123_" class="st0" d="M971.9,721.4l-0.3,65.4l80.2,31.9c0,0,5.6,2.4,9.7-0.9c2.1-1.7,43.1-66.3,43.1-66.3
		L971.9,721.4z"/>
	<text id="XMLID_19_" transform="matrix(1 0 0 1 998.1846 771.6899)" class="st1 st2">0000</text>
</g>
<g id="Layer_18">
	<polygon id="XMLID_122_" class="st0" points="990.8,670.8 971.6,710.3 1109.7,743.3 1135.8,693.8 	"/>
	<text id="XMLID_20_" transform="matrix(1 0 0 1 1025.6846 712.6899)" class="st1 st2">0000</text>
</g>
<g id="Layer_19">
	<polygon id="XMLID_124_" class="st0" points="1015.3,624 1156.7,636.3 1139.3,686 995,664 	"/>
	<text id="XMLID_21_" transform="matrix(1 0 0 1 1048.1846 660.6898)" class="st1 st2">0000</text>
</g>
<g id="Layer_20">
	<path id="XMLID_126_" class="st0" d="M1036.8,576c0,0,0.2,6-3.2,12.3c-3.3,6.3-14.3,28.8-14.3,28.8l139.5,12.3l11.5-47.6
		L1036.8,576z"/>
	<text id="XMLID_22_" transform="matrix(1 0 0 1 1068.6846 608.1897)" class="st1 st2">0000</text>
</g>
<g id="Layer_21">
	<polygon id="XMLID_125_" class="st0" points="1048.2,526.8 1038.6,569.5 1170.3,574.8 1179.3,531.5 	"/>
	<text id="XMLID_23_" transform="matrix(1 0 0 1 1081.6846 557.6897)" class="st1 st2">0000</text>
</g>
<g id="Layer_22">
	<polygon id="XMLID_127_" class="st0" points="1058.5,478.3 1050,519.7 1179.3,524.8 1187.8,483.3 	"/>
	<text id="XMLID_24_" transform="matrix(1 0 0 1 1090.1846 510.1897)" class="st1 st2">0000</text>
</g>
<g id="Layer_23">
	<polygon id="XMLID_128_" class="st0" points="1068.7,431 1060.3,471.8 1187.8,476.8 1196.3,436.8 	"/>
	<text id="XMLID_25_" transform="matrix(1 0 0 1 1102.1857 462.6897)" class="st1 st2">0000</text>
</g>
<g id="Layer_24">
	<polygon id="XMLID_129_" class="st0" points="1079,384.8 1070.5,425.3 1196.3,431 1205,390.5 	"/>
	<text id="XMLID_26_" transform="matrix(1 0 0 1 1109.6857 416.1899)" class="st1 st2">0000</text>
</g>
<g id="Layer_25">
	<path id="XMLID_130_" class="st0" d="M1090.2,339.5l-9.7,39.8l125.5,5.5l3.3-25.6c0,0,0.6-2.4-4.3-7.8s-7-7.6-7-7.6L1090.2,339.5z"
		/>
	<text id="XMLID_27_" transform="matrix(1 0 0 1 1113.6857 371.1899)" class="st1 st2">0000</text>
</g>
<g id="Layer_26">
	<path id="XMLID_131_" class="st0" d="M1201.7,312.3c0,0-10,4.5-10.5,10.4s2.5,14.3,2.5,14.3l-103.5-3.3l13.6-60.5l8.2-6.4
		L1201.7,312.3z"/>
	<text id="XMLID_28_" transform="matrix(1 0 0 1 1109.6855 322.6899)" class="st1 st2">0000</text>
</g>
<g id="Layer_27">
	<polygon id="XMLID_133_" class="st0" points="764.2,619.3 670.4,606.2 642.5,606.2 652.9,563.5 779.7,563.5 	"/>
	<text id="XMLID_92_" transform="matrix(1 0 0 1 675.701 596.6899)" class="st1 st2">0000</text>
</g>
<g id="Layer_28">
	<polygon id="XMLID_132_" class="st0" points="761.4,626.6 737.3,701.4 630.9,662.9 639.7,626.6 640,614.2 669.9,614.2 	"/>
	<text id="XMLID_93_" transform="matrix(1 0 0 1 667.701 651.6898)" class="st1 st2">0000</text>
</g>
<g id="Layer_29">
	<path id="XMLID_134_" class="st0" d="M707.7,743.3l-146.2,73.2l-55.8-67.8c0,0,24.9-6.5,46.5-19.7s32.2-21,33.8-22.9
		s11.4-3.9,16.4-2.1C607.2,705.9,707.7,743.3,707.7,743.3z"/>
	<text id="XMLID_94_" transform="matrix(1 0 0 1 563.0344 764.1899)" class="st1 st2">0000</text>
</g>
<g id="Layer_30">
	<path id="XMLID_136_" class="st0" d="M492.7,753.5l56.5,66.3l-143.5,32.9l24.3-85.5c0,0-1,2.7,30.9-5.5s31.3-8.2,31.3-8.2"/>
	<text id="XMLID_95_" transform="matrix(1 0 0 1 441.0347 805.9172)" class="st1 st2">0000</text>
</g>
<g id="Layer_31">
	<path id="XMLID_135_" class="st0" d="M554.2,657.7c0,0-10.8,17.2-56.2,43.7c-23.5,13.7-65.3,17.2-65.3,17.2l26.5-92.1L554.2,657.7z
		"/>
	<text id="XMLID_96_" transform="matrix(1 0 0 1 455.7012 678.8339)" class="st1 st2">0000</text>
</g>
<g id="Layer_32">
	<polygon id="XMLID_137_" class="st0" points="663.7,514.3 654.2,555.7 779.7,556.7 789.7,514.3 	"/>
	<text id="XMLID_91_" transform="matrix(1 0 0 1 690.201 543.3505)" class="st1 st2">0000</text>
</g>
<g id="Layer_33">
	<polygon id="XMLID_138_" class="st0" points="675.7,467.1 665.8,507.7 789.7,507.7 798.5,467.1 	"/>
	<text id="XMLID_90_" transform="matrix(1 0 0 1 699.7053 495.6897)" class="st1 st2">0000</text>
</g>
<g id="Layer_34">
	<polygon id="XMLID_139_" class="st0" points="685.7,421.7 676.9,460.5 799.6,461.7 807.6,421.7 	"/>
	<text id="XMLID_89_" transform="matrix(1 0 0 1 714.201 448.6862)" class="st1 st2">0000</text>
</g>
<g id="Layer_35">
	<polygon id="XMLID_140_" class="st0" points="696.4,376.6 687.8,416.2 808.7,416.2 816.9,376.6 	"/>
	<text id="XMLID_88_" transform="matrix(1 0 0 1 725.701 404.6897)" class="st1 st2">0000</text>
</g>
<g id="Layer_36">
	<polygon id="XMLID_141_" class="st0" points="707.1,332.1 698.2,371.2 816.9,371.2 826,332.1 	"/>
	<text id="XMLID_87_" transform="matrix(1 0 0 1 733.701 359.1897)" class="st1 st2">0000</text>
</g>
<g id="Layer_37">
	<polygon id="XMLID_142_" class="st0" points="717.5,289.2 708.9,326.2 826,327.3 834.8,290.1 	"/>
	<text id="XMLID_86_" transform="matrix(1 0 0 1 741.2021 316.1902)" class="st1 st2">0000</text>
</g>
<g id="Layer_38">
	<polygon id="XMLID_143_" class="st0" points="727,248.6 719.1,284 834.8,284 844.1,248.6 	"/>
	<text id="XMLID_85_" transform="matrix(1 0 0 1 749.2053 273.1917)" class="st1 st2">0000</text>
</g>
<g id="Layer_39">
	<path id="XMLID_145_" class="st0" d="M851.4,206.9l-7.3,36.1l-115.7-1.1c0,0,6.4-26.1,8.6-28.6s6.5-6.8,8.7-7
		S851.4,206.9,851.4,206.9z"/>
	<text id="XMLID_84_" transform="matrix(1 0 0 1 760.201 234.6899)" class="st1 st2">0000</text>
</g>
<g id="Layer_40">
	<path id="XMLID_146_" class="st0" d="M761.2,177c0,0,3.9,5.7,3.9,8.5s-1.1,7.6-3.9,10.7c-2.8,3.1-4.4,4.6-4.4,4.6H852l8.5-39.7
		l-14.6-15.6L761.2,177z"/>
	<text id="XMLID_83_" transform="matrix(1 0 0 1 779.7017 190.3406)" class="st1 st2">0000</text>
</g>
<g id="Layer_41">
	<polygon id="XMLID_144_" class="st0" points="601.1,534.9 589.6,580.3 471.7,580.3 485.3,534.9 	"/>
	<text id="XMLID_107_" transform="matrix(1 0 0 1 500.7078 564.6837)" class="st1 st2">0000</text>
</g>
<g id="Layer_42">
	<path id="XMLID_147_" class="st0" d="M587.5,587c0,0-2.9,22.2-7.7,32.3s-11.2,20.9-14.1,24.8c-2.9,3.9-4.3,6.1-4.3,6.1l-100.7-31.6
		l9.4-31.6H587.5z"/>
	<text id="XMLID_106_" transform="matrix(1 0 0 1 492.7075 617.0165)" class="st1 st2">0000</text>
</g>
<g id="Layer_43">
	<polygon id="XMLID_148_" class="st0" points="498.9,483 486.9,527 602.5,528.1 614.7,483 	"/>
	<text id="XMLID_105_" transform="matrix(1 0 0 1 516.7078 512.3521)" class="st1 st2">0000</text>
</g>
<g id="Layer_44">
	<polygon id="XMLID_149_" class="st0" points="626.5,433.6 615.6,477.2 500.7,477.2 513.1,433.6 	"/>
	<text id="XMLID_104_" transform="matrix(1 0 0 1 531.2078 462.6896)" class="st1 st2">0000</text>
</g>
<g id="Layer_45">
	<polygon id="XMLID_150_" class="st0" points="526.9,384.1 515.8,426.8 627.6,427.9 639.1,385.4 	"/>
	<text id="XMLID_103_" transform="matrix(1 0 0 1 544.2078 413.6901)" class="st1 st2">0000</text>
</g>
<g id="Layer_46">
	<polygon id="XMLID_151_" class="st0" points="540.5,336.8 529.8,379 639.1,379 650.7,338.3 	"/>
	<text id="XMLID_102_" transform="matrix(1 0 0 1 558.7078 367.1912)" class="st1 st2">0000</text>
</g>
<g id="Layer_47">
	<polygon id="XMLID_152_" class="st0" points="554.6,291.2 543.2,332.1 652.8,332.1 662.9,292.7 	"/>
	<text id="XMLID_101_" transform="matrix(1 0 0 1 574.2086 318.1912)" class="st1 st2">0000</text>
</g>
<g id="Layer_48">
	<polygon id="XMLID_153_" class="st0" points="567.2,247.2 556.6,285.6 662.9,286.4 674.3,247.2 	"/>
	<text id="XMLID_100_" transform="matrix(1 0 0 1 579.7089 273.1917)" class="st1 st2">0000</text>
</g>
<g id="Layer_49">
	<path id="XMLID_155_" class="st0" d="M669.5,202.8c0,0,10.2,7.1,10.3,12.1c0.2,5-5.2,27-5.2,27H569l10.7-39.1L669.5,202.8
		L669.5,202.8z"/>
	<text id="XMLID_99_" transform="matrix(1 0 0 1 593.2075 230.6915)" class="st1 st2">0000</text>
</g>
<g id="Layer_50">
	<path id="XMLID_156_" class="st0" d="M679.8,174c0,0-7.2,3.6-10,8.4c-2.8,4.8-3.4,14.5-3.4,14.5h-84.3l19-66.2L679.8,174z"/>
	<text id="XMLID_98_" transform="matrix(1 0 0 1 597.7078 183.1915)" class="st1 st2">0000</text>
</g>
<g id="Layer_51">
	<path id="XMLID_154_" class="st0" d="M686,169c0,0,9.2-5,20.6-6.2c11.4-1.2,11.4-1.2,11.4-1.2l16.9-47.3l-128.4-1.7l-3.1,10.5
		L686,169z"/>
	<text id="XMLID_97_" transform="matrix(1 0 0 1 655.0421 143.6917)" class="st1 st2">0000</text>
</g>
<g id="Layer_52">
	<path id="XMLID_157_" class="st0" d="M729.7,161.6c0,0,6.8-1.5,14.2,2.2c7.4,3.8,11.5,7.1,11.5,7.1l85.4-30.2L796,113.4h-50.2
		L729.7,161.6z"/>
	<text id="XMLID_108_" transform="matrix(1 0 0 1 745.7085 148.1915)" class="st1 st2">0000</text>
</g>
<g id="Layer_53">
	<path id="XMLID_159_" class="st0" d="M1209.3,306.7l-90.5-45.7l9.3-6.5l107.8-23.8h7.4l-2,68.9c0,0-6.6-3.1-18,0.6
		S1209.3,306.7,1209.3,306.7z"/>
	<text id="XMLID_29_" transform="matrix(1 0 0 1 1167.1855 276.1899)" class="st1 st2">0000</text>
</g>
<g id="Layer_54">
	<path id="XMLID_160_" class="st0" d="M1251,298.8c0,0,10.1-1.5,17.7,1.5s11,6.4,11,6.4l82.1-39.8l-53.1-25.1l-54.9-8.8L1251,298.8z
		"/>
	<text id="XMLID_30_" transform="matrix(1 0 0 1 1263.6855 277.6899)" class="st1 st2">0000</text>
</g>
<g id="Layer_55">
	<path id="XMLID_161_" class="st0" d="M1287.5,311.5c0,0,9.8,8.1,9.5,11.2s-2,10.1-2,10.1l140.8,5.5l32-24.5l-97.8-43.9
		L1287.5,311.5z"/>
	<text id="XMLID_31_" transform="matrix(1 0 0 1 1345.1855 316.1899)" class="st1 st2">0000</text>
</g>
<g id="Layer_56">
	<path id="XMLID_163_" class="st0" d="M1427.7,344.8l-35.7,27.5l-2.8,9.5l-123.6-3.5c0,0-2.2-15.5,6.1-21.8s13.3-9.3,15.8-13
		s2.5-3.8,2.5-3.8L1427.7,344.8z"/>
	<text id="XMLID_32_" transform="matrix(1 0 0 1 1308.6855 367.6899)" class="st1 st2">0000</text>
</g>
<g id="Layer_57">
	<polygon id="XMLID_162_" class="st0" points="1263.7,383.2 1257.9,422.6 1383.6,427.9 1389.7,388.8 	"/>
	<text id="XMLID_33_" transform="matrix(1 0 0 1 1288.6855 413.6899)" class="st1 st2">0000</text>
</g>
<g id="Layer_58">
	<polygon id="XMLID_164_" class="st0" points="1255.7,431 1249.7,470.3 1377.6,475.3 1384,434.7 	"/>
	<text id="XMLID_34_" transform="matrix(1 0 0 1 1284.186 461.0229)" class="st1 st2">0000</text>
</g>
<g id="Layer_59">
	<polygon id="XMLID_165_" class="st0" points="1248,476.8 1241.2,517.7 1371,523.3 1378.3,481.3 	"/>
	<text id="XMLID_35_" transform="matrix(1 0 0 1 1281.6858 510.1897)" class="st1 st2">0000</text>
</g>
<g id="Layer_60">
	<polygon id="XMLID_166_" class="st0" points="1240,524.8 1234,567.3 1365.7,573 1371.3,529.3 	"/>
	<text id="XMLID_36_" transform="matrix(1 0 0 1 1275.686 555.6897)" class="st1 st2">0000</text>
</g>
<g id="Layer_61">
	<polygon id="XMLID_167_" class="st0" points="1232.7,574.8 1225,617 1358.7,627.3 1366,579 	"/>
	<text id="XMLID_37_" transform="matrix(1 0 0 1 1265.686 606.1897)" class="st1 st2">0000</text>
</g>
<g id="Layer_62">
	<path id="XMLID_168_" class="st0" d="M1221.7,624c0,0-2,15.3-5.7,26.3s-6.3,17.7-6.3,17.7l63.3,8l78.3,10l7-51.3L1221.7,624z"/>
	<text id="XMLID_38_" transform="matrix(1 0 0 1 1253.0193 660.6899)" class="st1 st2">0000</text>
</g>
<g id="Layer_63">
	<polygon id="XMLID_170_" class="st3" points="1207,675.3 1190,717.3 1338,746.2 1347,729 1351,692.7 	"/>
	<text id="XMLID_39_" transform="matrix(1 0 0 1 1241.186 712.6901)" class="st1 st2">0000</text>
</g>
<g id="Layer_64">
	<polygon id="XMLID_169_" class="st3" points="1185.7,726.3 1162.3,770.4 1312,805.9 1337,753.5 	"/>
	<text id="XMLID_40_" transform="matrix(1 0 0 1 1218.0193 771.6903)" class="st1 st2">0000</text>
</g>
<g id="Layer_65">
	<path id="XMLID_171_" class="st3" d="M1156.3,778.7l-33.3,51.7c0,0-5,7.3,3,10s50,17.7,64,22s85.7,25.3,85.7,25.3l33-72.3
		L1156.3,778.7z"/>
	<text id="XMLID_41_" transform="matrix(1 0 0 1 1186.186 833.1669)" class="st1 st2">0000</text>
</g>
<g id="Layer_66">
	<path id="XMLID_172_" class="st4" d="M1600.7,451c0,0,9.3,7.7,7.3,13.7s-7.3,12.3-7.3,12.3l163.7,7l26.3-23L1688,413.7L1600.7,451z
		"/>
	<text id="XMLID_52_" transform="matrix(1 0 0 1 1649.5125 461.0231)" class="st1 st2">0000</text>
</g>
<g id="Layer_67">
	<path id="XMLID_175_" class="st4" d="M1560.7,432c0,0,12-1,19.6,3.7c5.7,3.5,10.1,9,10.1,9l88.7-36l-109.7-49.5L1560.7,432z"/>
	<text id="XMLID_173_" transform="matrix(1 0 0 1 1574.3459 416.1898)" class="st1 st2">0000</text>
</g>
<g id="Layer_68">
	<path id="XMLID_174_" class="st4" d="M1518.4,439.1c0,0,9.5-6.1,20.2-6.1s10.7,0,10.7,0l8.4-78.1l-82.4-36.7l-62,49.5L1518.4,439.1
		z"/>
	<text id="XMLID_51_" transform="matrix(1 0 0 1 1469.6858 383.1915)" class="st1 st2">0000</text>
</g>
<g id="Layer_69">
	<g id="Layer_70">
		<path id="XMLID_176_" class="st4" d="M1510.6,443.8c0,0-13.4,5.8-14.4,12.1s0,12.9,0,12.9l-104.6-4l11.3-88.5l3-2.4L1510.6,443.8z
			"/>
	</g>
	<text id="XMLID_50_" transform="matrix(1 0 0 1 1416.136 444.6666)" class="st1 st2">0000</text>
</g>
<g id="Layer_71">
	<path id="XMLID_177_" class="st4" d="M1500,476.8c0,0,1.8,5.1,6.8,8.1c5,3.1,11.1,7.8,11.1,13.7c0,5.9-1.3,19.5-1.3,19.5l-130.7-5
		l5.8-40.8L1500,476.8z"/>
	<text id="XMLID_49_" transform="matrix(1 0 0 1 1417.6863 503.19)" class="st1 st2">0000</text>
</g>
<g id="Layer_72">
	<polygon id="XMLID_178_" class="st4" points="1516.3,524.8 1511.2,566.9 1379.7,562.3 1384.7,519.7 	"/>
	<text id="XMLID_48_" transform="matrix(1 0 0 1 1416.136 550.2888)" class="st1 st2">0000</text>
</g>
<g id="Layer_73">
	<polygon id="XMLID_179_" class="st4" points="1378.6,569.2 1373.7,613.5 1508,617.9 1511.4,574.8 	"/>
	<text id="XMLID_47_" transform="matrix(1 0 0 1 1411.0874 601.0646)" class="st1 st2">0000</text>
</g>
<g id="Layer_74">
	<polygon id="XMLID_180_" class="st4" points="1372.5,620.9 1366.8,665.5 1502.4,670.7 1507.4,626.1 	"/>
	<text id="XMLID_46_" transform="matrix(1 0 0 1 1405.5874 652.7289)" class="st1 st2">0000</text>
</g>
<g id="Layer_75">
	<polygon id="XMLID_181_" class="st4" points="1360.2,718.8 1365.8,672.8 1502.4,677.4 1497.7,723.8 	"/>
	<text id="XMLID_45_" transform="matrix(1 0 0 1 1401.39 705.5122)" class="st1 st2">0000</text>
</g>
<g id="Layer_76">
	<polygon id="XMLID_183_" class="st4" points="1343.1,770.1 1359.3,733.9 1358.3,726.3 1497.3,732.3 1492.1,781.2 	"/>
	<text id="XMLID_44_" transform="matrix(1 0 0 1 1390.7058 760.9465)" class="st1 st2">0000</text>
</g>
<g id="Layer_77">
	<polygon id="XMLID_182_" class="st4" points="1317.7,826 1484.5,838.8 1492.3,789.8 1338,779.7 	"/>
	<text id="XMLID_43_" transform="matrix(1 0 0 1 1373.686 816.5144)" class="st1 st2">0000</text>
</g>
<g id="Layer_78">
	<path id="XMLID_185_" class="st4" d="M1314,833.2l-23.8,55.6v1.5c0,0,17.3,5.5,61.3,13s107,16,107,16s13.8,2.3,15.3-7.3
		s10-65.8,10-65.8L1314,833.2z"/>
	<text id="XMLID_42_" transform="matrix(1 0 0 1 1355.4355 877.9401)" class="st1 st2">0000</text>
</g>
<g id="Layer_79">
	<path id="XMLID_184_" class="st4" d="M1758,490.5l-44.4,39.7l-137-4.9v-17.6c0,0-0.4-10.6,10-17.2c10.4-6.5,10.4-6.5,10.4-6.5
		L1758,490.5z"/>
	<text id="XMLID_60_" transform="matrix(1 0 0 1 1625.1801 519.6838)" class="st1 st2">0000</text>
</g>
<g id="Layer_80">
	<polygon id="XMLID_186_" class="st4" points="1576.6,532.8 1572.7,575.4 1706.8,579 1706.8,536.3 	"/>
	<text id="XMLID_59_" transform="matrix(1 0 0 1 1615.1794 564.6837)" class="st1 st2">0000</text>
</g>
<g id="Layer_81">
	<polygon id="XMLID_187_" class="st4" points="1572.7,581.7 1569.2,625.7 1705.2,630.8 1705.2,586.8 	"/>
	<text id="XMLID_58_" transform="matrix(1 0 0 1 1609.8464 617.0166)" class="st1 st2">0000</text>
</g>
<g id="Layer_82">
	<polygon id="XMLID_188_" class="st4" points="1568.2,633 1565.3,677.8 1702.1,683.3 1705.2,638.4 	"/>
	<text id="XMLID_57_" transform="matrix(1 0 0 1 1605.1798 665.5166)" class="st1 st2">0000</text>
</g>
<g id="Layer_83">
	<polygon id="XMLID_189_" class="st4" points="1565.3,685.4 1561,731.6 1700.9,737.1 1703.2,691 	"/>
	<text id="XMLID_56_" transform="matrix(1 0 0 1 1600.6799 721.3502)" class="st1 st2">0000</text>
</g>
<g id="Layer_84">
	<polygon id="XMLID_190_" class="st4" points="1561,739.2 1557,786.6 1699.3,796.2 1700.3,746.2 	"/>
	<text id="XMLID_55_" transform="matrix(1 0 0 1 1600.6799 776.6837)" class="st1 st2">0000</text>
</g>
<g id="Layer_85">
	<polygon id="XMLID_191_" class="st4" points="1555.9,794.4 1550.4,843.3 1697,854.5 1698.9,804.4 	"/>
	<text id="XMLID_54_" transform="matrix(1 0 0 1 1594.5132 833.0165)" class="st1 st2">0000</text>
</g>
<g id="Layer_86">
	<path id="XMLID_193_" class="st4" d="M1547.9,851.5l-7.1,57.7c0,0-6.8,17.7,14,17.3c20.8-0.3,139.8,0.8,139.8,0.8l1.8-64.8
		L1547.9,851.5z"/>
	<text id="XMLID_53_" transform="matrix(1 0 0 1 1590.3461 898.5171)" class="st1 st2">0000</text>
</g>
<g id="Layer_87">
	<path id="XMLID_192_" class="st4" d="M1922,610c0,0,7.3,16.2,5,19.4s-16.8,16.1-16.8,16.1l150.9,7.2l46.3-49.5l-59.5-27.5L1922,610
		z"/>
	<text id="XMLID_69_" transform="matrix(1 0 0 1 1979.9371 629.3526)" class="st1 st2">0000</text>
</g>
<g id="Layer_88">
	<path id="XMLID_195_" class="st4" d="M1888.8,587.3c0,0,11.5,0.5,18.3,6.5s8.5,10,8.5,10l121-32.3l-116.8-53.8L1888.8,587.3z"/>
	<text id="XMLID_68_" transform="matrix(1 0 0 1 1913.1045 573.0173)" class="st1 st2">0000</text>
</g>
<g id="Layer_89">
	<path id="XMLID_196_" class="st4" d="M1877.8,584.5c-23-5.5-36.3,2-36.3,2l-81.5-86l38.8-34.5l109.8,46.4L1877.8,584.5z"/>
	<text id="XMLID_67_" transform="matrix(1 0 0 1 1811.7705 543.3506)" class="st1 st2">0000</text>
</g>
<g id="Layer_90">
	<polygon id="XMLID_197_" class="st4" points="1833.2,590.3 1813.5,610.1 1717.7,598.8 1719.7,538.2 1754,508.5 	"/>
	<text id="XMLID_66_" transform="matrix(1 0 0 1 1739.7712 579.0168)" class="st1 st2">0000</text>
</g>
<g id="Layer_91">
	<path id="XMLID_194_" class="st4" d="M1812.9,617c0,0-2.3,10.2,3.2,15.1c5.4,5,19.6,14.4,20.7,20.6s1.1,18.6,1.1,18.6l-122.8-5.8
		l2.6-59.3L1812.9,617z"/>
	<text id="XMLID_65_" transform="matrix(1 0 0 1 1739.7709 647.5168)" class="st1 st2">0000</text>
</g>
<g id="Layer_92">
	<polygon id="XMLID_198_" class="st4" points="1715.1,673.8 1837.9,678.8 1837.9,730.8 1713.3,725.9 	"/>
	<text id="XMLID_64_" transform="matrix(1 0 0 1 1751.9377 712.1897)" class="st1 st2">0000</text>
</g>
<g id="Layer_93">
	<polygon id="XMLID_199_" class="st4" points="1713.3,734.6 1711.5,788.5 1837.9,791.9 1837.9,739.2 	"/>
	<text id="XMLID_63_" transform="matrix(1 0 0 1 1748.2704 771.6901)" class="st1 st2">0000</text>
</g>
<g id="Layer_94">
	<polygon id="XMLID_200_" class="st4" points="1711.5,797.1 1710.2,852.9 1842.6,854.5 1837.9,799.5 	"/>
	<text id="XMLID_62_" transform="matrix(1 0 0 1 1748.2705 833.0168)" class="st1 st2">0000</text>
</g>
<g id="Layer_95">
	<path id="XMLID_202_" class="st4" d="M1707.9,927.3l130.9,1.4c0,0,9.5-2.1,8.6-19s-3.8-47.3-3.8-47.3l-133.4-0.9L1707.9,927.3z"/>
	<text id="XMLID_61_" transform="matrix(1 0 0 1 1748.2705 898.5173)" class="st1 st2">0000</text>
</g>
<g id="Layer_96">
	<polygon id="XMLID_203_" class="st4" points="1901.3,701 1901.3,656.9 1902.7,652.7 2055.9,659.2 2013.4,705.5 	"/>
	<text id="XMLID_73_" transform="matrix(1 0 0 1 1935.5199 687.6873)" class="st1 st2">0000</text>
</g>
<g id="Layer_97">
	<polygon id="XMLID_201_" class="st4" points="1901.3,709.7 1903,768.7 2015.3,773.1 2012.4,713.7 	"/>
	<text id="XMLID_72_" transform="matrix(1 0 0 1 1928.3527 750.1877)" class="st1 st2">0000</text>
</g>
<g id="Layer_98">
	<polygon id="XMLID_204_" class="st4" points="1902.7,776.7 1907.7,842.4 2019,841.5 2016.2,781.3 	"/>
	<text id="XMLID_71_" transform="matrix(1 0 0 1 1928.3527 816.5144)" class="st1 st2">0000</text>
</g>
<g id="Layer_99">
	<path id="XMLID_205_" class="st4" d="M1908.4,850.9l5.9,63.4c0,0-1.4,14.5,8.7,14.4s55.9,0,55.9,0l44.9,1.8l-3.8-79.6L1908.4,850.9
		L1908.4,850.9z"/>
	<text id="XMLID_70_" transform="matrix(1 0 0 1 1931.8527 893.1842)" class="st1 st2">0000</text>
</g>
<g id="Layer_100">
	<path id="XMLID_206_" class="st4" d="M2170,721.4c0,0-14.1-1.8-23,3.9s-10.3,7.3-10.3,7.3l-90.4-44.9l70.9-79.5l34.7,14.7
		L2170,721.4z"/>
	<text id="XMLID_77_" transform="matrix(1 0 0 1 2085.0198 687.6871)" class="st1 st2">0000</text>
</g>
<g id="Layer_101">
	<path id="XMLID_207_" class="st4" d="M2135,782.4c0,0-19.2-10.8-16.8-22.7s11.1-20.8,11.1-20.8l-88.5-44.7l-15.7,16.8l3.5,66.9
		L2135,782.4z"/>
	<text id="XMLID_76_" transform="matrix(1 0 0 1 2049.5439 758.3736)" class="st1 st2">0000</text>
</g>
<g id="Layer_102">
	<polygon id="XMLID_209_" class="st4" points="2148.6,790.5 2154.3,797.5 2157.5,847.1 2032.7,842.4 2029.2,785.4 	"/>
	<text id="XMLID_75_" transform="matrix(1 0 0 1 2061.186 819.8269)" class="st1 st2">0000</text>
</g>
<g id="Layer_103">
	<path id="XMLID_208_" class="st4" d="M2157.5,854.7c0,0,4.9,28.7,0,46.3s-15.7,47.7-15.7,47.7s0.5,2.2-16.8-1.1
		c-17.3-3.2-86.6-14.9-86.6-14.9l-5.4-81.8L2157.5,854.7z"/>
	<text id="XMLID_74_" transform="matrix(1 0 0 1 2064.686 896.4967)" class="st1 st2">0000</text>
</g>
<g id="Layer_104">
	<path id="XMLID_211_" class="st4" d="M2182.2,721.4c0,0,18.3-0.4,25.2,3.8s10.5,7.4,10.5,7.4l73.6-44.9l-125.3-58.3L2182.2,721.4z"
		/>
	<text id="XMLID_81_" transform="matrix(1 0 0 1 2188.3533 699.0204)" class="st1 st2">0000</text>
</g>
<g id="Layer_105">
	<path id="XMLID_212_" class="st4" d="M2226.9,738.3c0,0,11.4,7.8,13.2,11.9c1.8,4.1,3.9,13.2,2.4,16.2s-1.5,3-1.5,3l106.3,3.6
		l-8.7-64.9l-35.1-17.1l-74.7,47.3"/>
	<text id="XMLID_82_" transform="matrix(1 0 0 1 2262.6863 746.1898)" class="st1 st2">0000</text>
</g>
<g id="Layer_106">
	<path id="XMLID_210_" class="st4" d="M2238,776.7c0,0-0.6,4.3-5.7,8.7c-5.1,4.4-12.9,10.9-12,22.8c0.9,11.9,1.8,22.2,1.8,22.2
		l133.7,5.7l-6.9-53.6L2238,776.7z"/>
	<text id="XMLID_80_" transform="matrix(1 0 0 1 2257.9844 816.2311)" class="st1 st2">0000</text>
</g>
<g id="Layer_107">
	<polygon id="XMLID_213_" class="st4" points="2222.7,839.3 2228.4,893.2 2364.2,900.1 2355.8,844.4 	"/>
	<text id="XMLID_79_" transform="matrix(1 0 0 1 2259.186 874.4936)" class="st1 st2">0000</text>
</g>
<g id="Layer_108">
	<path id="XMLID_215_" class="st4" d="M2227.8,901.8c0,0,3.9,14.4-2.4,30.9s-12.6,27.9-12.6,27.9s-6,9.3,5.1,13.2s58,21,80.5,26.7
		s34.8,10.5,46,10.5c11.1,0,25.8-2.4,28.8-11.7s1.8-15.6,0-33.3s-6.9-58-6.9-58L2227.8,901.8z"/>
	<text id="XMLID_78_" transform="matrix(1 0 0 1 2262.686 951.1633)" class="st1 st2">0000</text>
</g>
<g id="">
	<g>
		<polygon class="st5" points="1120.5,750.3 948.5,709.9 1016.6,579.1 1088.6,264.3 1118.4,241.7 1238.9,215 1300.8,223.5 
			2120.5,594.5 2018.6,711 2026.1,844.7 1883.3,844 1858.3,856 1702.1,856 1494.2,843 1310.6,829 1318.1,812.4 1151.4,770.7 		"/>
	</g>
	<text transform="matrix(1 0 0 1 1296.3152 564.3381)" class="st1 st6">Future Section</text>
</g>
</svg>
